G04 #@! TF.GenerationSoftware,KiCad,Pcbnew,(5.1.4)-1*
G04 #@! TF.CreationDate,2019-09-02T10:04:48-04:00*
G04 #@! TF.ProjectId,projector-screen-controller,70726f6a-6563-4746-9f72-2d7363726565,0.1*
G04 #@! TF.SameCoordinates,Original*
G04 #@! TF.FileFunction,Soldermask,Top*
G04 #@! TF.FilePolarity,Negative*
%FSLAX46Y46*%
G04 Gerber Fmt 4.6, Leading zero omitted, Abs format (unit mm)*
G04 Created by KiCad (PCBNEW (5.1.4)-1) date 2019-09-02 10:04:48*
%MOMM*%
%LPD*%
G04 APERTURE LIST*
%ADD10C,0.010000*%
%ADD11C,0.100000*%
G04 APERTURE END LIST*
D10*
G36*
X110913747Y-114833400D02*
G01*
X111459059Y-114833400D01*
X111260279Y-115034787D01*
X110930571Y-115397691D01*
X110716151Y-115671815D01*
X110637703Y-115775400D01*
X110543144Y-115895529D01*
X110443050Y-116019202D01*
X110347998Y-116133419D01*
X110268566Y-116225181D01*
X110243468Y-116252760D01*
X110162036Y-116340212D01*
X110231994Y-116431356D01*
X110367436Y-116620604D01*
X110454978Y-116760050D01*
X110509848Y-116842286D01*
X110571124Y-116921612D01*
X110576273Y-116927607D01*
X110645222Y-117010581D01*
X110725747Y-117113137D01*
X110808942Y-117223288D01*
X110885902Y-117329047D01*
X110947719Y-117418425D01*
X110983376Y-117475547D01*
X111018457Y-117528596D01*
X111076986Y-117607062D01*
X111148820Y-117698252D01*
X111223815Y-117789472D01*
X111291828Y-117868032D01*
X111328200Y-117907020D01*
X111352089Y-117933081D01*
X111394363Y-117980406D01*
X111402477Y-117989570D01*
X111464055Y-118059200D01*
X110337600Y-118059200D01*
X110337600Y-117980923D01*
X110320837Y-117904395D01*
X110273607Y-117799149D01*
X110200493Y-117673239D01*
X110106081Y-117534716D01*
X110018542Y-117420533D01*
X109947268Y-117328313D01*
X109881947Y-117237269D01*
X109834777Y-117164535D01*
X109828671Y-117153833D01*
X109788629Y-117087434D01*
X109753342Y-117039284D01*
X109744699Y-117030500D01*
X109710138Y-116991816D01*
X109669915Y-116935250D01*
X109632226Y-116887093D01*
X109601715Y-116865487D01*
X109600414Y-116865400D01*
X109591538Y-116890091D01*
X109584418Y-116961381D01*
X109579264Y-117075092D01*
X109576283Y-117227044D01*
X109575600Y-117361961D01*
X109576284Y-117541263D01*
X109578695Y-117677270D01*
X109583375Y-117777475D01*
X109590863Y-117849369D01*
X109601698Y-117900443D01*
X109616421Y-117938188D01*
X109617244Y-117939811D01*
X109652717Y-117999491D01*
X109684223Y-118037618D01*
X109687094Y-118039761D01*
X109671597Y-118045323D01*
X109612247Y-118050262D01*
X109515986Y-118054312D01*
X109389759Y-118057207D01*
X109240511Y-118058682D01*
X109188794Y-118058811D01*
X108662289Y-118059200D01*
X108691968Y-117989350D01*
X108720141Y-117930758D01*
X108742224Y-117895370D01*
X108746057Y-117866142D01*
X108749657Y-117790781D01*
X108752959Y-117673951D01*
X108755896Y-117520317D01*
X108758399Y-117334546D01*
X108760404Y-117121302D01*
X108761842Y-116885251D01*
X108762647Y-116631059D01*
X108762799Y-116459290D01*
X108762741Y-116155311D01*
X108762470Y-115897912D01*
X108761846Y-115682874D01*
X108760726Y-115505978D01*
X108758969Y-115363004D01*
X108756433Y-115249733D01*
X108752976Y-115161945D01*
X108748457Y-115095421D01*
X108742733Y-115045941D01*
X108735662Y-115009286D01*
X108727104Y-114981237D01*
X108716916Y-114957574D01*
X108711999Y-114947699D01*
X108681244Y-114885869D01*
X108663190Y-114846660D01*
X108661199Y-114840729D01*
X108685335Y-114838507D01*
X108752688Y-114836556D01*
X108855672Y-114834984D01*
X108986706Y-114833901D01*
X109138205Y-114833415D01*
X109171917Y-114833400D01*
X109345060Y-114833664D01*
X109473629Y-114834831D01*
X109563846Y-114837464D01*
X109621937Y-114842123D01*
X109654124Y-114849372D01*
X109666632Y-114859772D01*
X109665686Y-114873885D01*
X109664164Y-114877850D01*
X109630805Y-114966673D01*
X109606739Y-115055181D01*
X109590580Y-115154141D01*
X109580942Y-115274321D01*
X109576440Y-115426488D01*
X109575600Y-115566088D01*
X109575599Y-115985904D01*
X109651799Y-115912900D01*
X109699413Y-115862557D01*
X109725994Y-115825278D01*
X109728000Y-115818483D01*
X109743137Y-115792550D01*
X109782628Y-115739128D01*
X109837588Y-115669145D01*
X109899132Y-115593529D01*
X109958377Y-115523209D01*
X110006439Y-115469114D01*
X110033239Y-115443000D01*
X110055561Y-115415734D01*
X110093936Y-115359630D01*
X110121802Y-115316000D01*
X110180005Y-115228298D01*
X110242951Y-115141698D01*
X110265299Y-115113362D01*
X110310013Y-115046736D01*
X110335408Y-114985643D01*
X110337600Y-114969390D01*
X110338122Y-114925677D01*
X110343791Y-114892502D01*
X110360762Y-114868412D01*
X110395189Y-114851955D01*
X110453226Y-114841677D01*
X110541028Y-114836127D01*
X110664750Y-114833851D01*
X110830545Y-114833396D01*
X110913747Y-114833400D01*
X110913747Y-114833400D01*
G37*
X110913747Y-114833400D02*
X111459059Y-114833400D01*
X111260279Y-115034787D01*
X110930571Y-115397691D01*
X110716151Y-115671815D01*
X110637703Y-115775400D01*
X110543144Y-115895529D01*
X110443050Y-116019202D01*
X110347998Y-116133419D01*
X110268566Y-116225181D01*
X110243468Y-116252760D01*
X110162036Y-116340212D01*
X110231994Y-116431356D01*
X110367436Y-116620604D01*
X110454978Y-116760050D01*
X110509848Y-116842286D01*
X110571124Y-116921612D01*
X110576273Y-116927607D01*
X110645222Y-117010581D01*
X110725747Y-117113137D01*
X110808942Y-117223288D01*
X110885902Y-117329047D01*
X110947719Y-117418425D01*
X110983376Y-117475547D01*
X111018457Y-117528596D01*
X111076986Y-117607062D01*
X111148820Y-117698252D01*
X111223815Y-117789472D01*
X111291828Y-117868032D01*
X111328200Y-117907020D01*
X111352089Y-117933081D01*
X111394363Y-117980406D01*
X111402477Y-117989570D01*
X111464055Y-118059200D01*
X110337600Y-118059200D01*
X110337600Y-117980923D01*
X110320837Y-117904395D01*
X110273607Y-117799149D01*
X110200493Y-117673239D01*
X110106081Y-117534716D01*
X110018542Y-117420533D01*
X109947268Y-117328313D01*
X109881947Y-117237269D01*
X109834777Y-117164535D01*
X109828671Y-117153833D01*
X109788629Y-117087434D01*
X109753342Y-117039284D01*
X109744699Y-117030500D01*
X109710138Y-116991816D01*
X109669915Y-116935250D01*
X109632226Y-116887093D01*
X109601715Y-116865487D01*
X109600414Y-116865400D01*
X109591538Y-116890091D01*
X109584418Y-116961381D01*
X109579264Y-117075092D01*
X109576283Y-117227044D01*
X109575600Y-117361961D01*
X109576284Y-117541263D01*
X109578695Y-117677270D01*
X109583375Y-117777475D01*
X109590863Y-117849369D01*
X109601698Y-117900443D01*
X109616421Y-117938188D01*
X109617244Y-117939811D01*
X109652717Y-117999491D01*
X109684223Y-118037618D01*
X109687094Y-118039761D01*
X109671597Y-118045323D01*
X109612247Y-118050262D01*
X109515986Y-118054312D01*
X109389759Y-118057207D01*
X109240511Y-118058682D01*
X109188794Y-118058811D01*
X108662289Y-118059200D01*
X108691968Y-117989350D01*
X108720141Y-117930758D01*
X108742224Y-117895370D01*
X108746057Y-117866142D01*
X108749657Y-117790781D01*
X108752959Y-117673951D01*
X108755896Y-117520317D01*
X108758399Y-117334546D01*
X108760404Y-117121302D01*
X108761842Y-116885251D01*
X108762647Y-116631059D01*
X108762799Y-116459290D01*
X108762741Y-116155311D01*
X108762470Y-115897912D01*
X108761846Y-115682874D01*
X108760726Y-115505978D01*
X108758969Y-115363004D01*
X108756433Y-115249733D01*
X108752976Y-115161945D01*
X108748457Y-115095421D01*
X108742733Y-115045941D01*
X108735662Y-115009286D01*
X108727104Y-114981237D01*
X108716916Y-114957574D01*
X108711999Y-114947699D01*
X108681244Y-114885869D01*
X108663190Y-114846660D01*
X108661199Y-114840729D01*
X108685335Y-114838507D01*
X108752688Y-114836556D01*
X108855672Y-114834984D01*
X108986706Y-114833901D01*
X109138205Y-114833415D01*
X109171917Y-114833400D01*
X109345060Y-114833664D01*
X109473629Y-114834831D01*
X109563846Y-114837464D01*
X109621937Y-114842123D01*
X109654124Y-114849372D01*
X109666632Y-114859772D01*
X109665686Y-114873885D01*
X109664164Y-114877850D01*
X109630805Y-114966673D01*
X109606739Y-115055181D01*
X109590580Y-115154141D01*
X109580942Y-115274321D01*
X109576440Y-115426488D01*
X109575600Y-115566088D01*
X109575599Y-115985904D01*
X109651799Y-115912900D01*
X109699413Y-115862557D01*
X109725994Y-115825278D01*
X109728000Y-115818483D01*
X109743137Y-115792550D01*
X109782628Y-115739128D01*
X109837588Y-115669145D01*
X109899132Y-115593529D01*
X109958377Y-115523209D01*
X110006439Y-115469114D01*
X110033239Y-115443000D01*
X110055561Y-115415734D01*
X110093936Y-115359630D01*
X110121802Y-115316000D01*
X110180005Y-115228298D01*
X110242951Y-115141698D01*
X110265299Y-115113362D01*
X110310013Y-115046736D01*
X110335408Y-114985643D01*
X110337600Y-114969390D01*
X110338122Y-114925677D01*
X110343791Y-114892502D01*
X110360762Y-114868412D01*
X110395189Y-114851955D01*
X110453226Y-114841677D01*
X110541028Y-114836127D01*
X110664750Y-114833851D01*
X110830545Y-114833396D01*
X110913747Y-114833400D01*
G36*
X112496600Y-116797045D02*
G01*
X112496821Y-117068528D01*
X112497583Y-117293618D01*
X112499026Y-117476721D01*
X112501294Y-117622240D01*
X112504531Y-117734583D01*
X112508878Y-117818155D01*
X112514480Y-117877359D01*
X112521478Y-117916603D01*
X112530016Y-117940292D01*
X112533892Y-117946395D01*
X112560178Y-117983943D01*
X112570891Y-118012085D01*
X112560710Y-118032174D01*
X112524312Y-118045563D01*
X112456376Y-118053605D01*
X112351578Y-118057653D01*
X112204598Y-118059060D01*
X112090200Y-118059200D01*
X111939918Y-118058515D01*
X111808727Y-118056608D01*
X111704427Y-118053702D01*
X111634819Y-118050017D01*
X111607705Y-118045776D01*
X111607600Y-118045488D01*
X111618155Y-118016454D01*
X111644726Y-117959509D01*
X111658400Y-117932200D01*
X111671266Y-117904760D01*
X111681759Y-117874394D01*
X111690120Y-117835920D01*
X111696591Y-117784155D01*
X111701411Y-117713918D01*
X111704822Y-117620027D01*
X111707065Y-117497301D01*
X111708381Y-117340559D01*
X111709010Y-117144617D01*
X111709195Y-116904296D01*
X111709200Y-116839750D01*
X111708947Y-116582269D01*
X111708071Y-116370749D01*
X111706396Y-116200351D01*
X111703748Y-116066238D01*
X111699950Y-115963571D01*
X111694827Y-115887513D01*
X111688203Y-115833226D01*
X111679903Y-115795872D01*
X111670447Y-115771938D01*
X111631695Y-115697000D01*
X112496600Y-115697000D01*
X112496600Y-116797045D01*
X112496600Y-116797045D01*
G37*
X112496600Y-116797045D02*
X112496821Y-117068528D01*
X112497583Y-117293618D01*
X112499026Y-117476721D01*
X112501294Y-117622240D01*
X112504531Y-117734583D01*
X112508878Y-117818155D01*
X112514480Y-117877359D01*
X112521478Y-117916603D01*
X112530016Y-117940292D01*
X112533892Y-117946395D01*
X112560178Y-117983943D01*
X112570891Y-118012085D01*
X112560710Y-118032174D01*
X112524312Y-118045563D01*
X112456376Y-118053605D01*
X112351578Y-118057653D01*
X112204598Y-118059060D01*
X112090200Y-118059200D01*
X111939918Y-118058515D01*
X111808727Y-118056608D01*
X111704427Y-118053702D01*
X111634819Y-118050017D01*
X111607705Y-118045776D01*
X111607600Y-118045488D01*
X111618155Y-118016454D01*
X111644726Y-117959509D01*
X111658400Y-117932200D01*
X111671266Y-117904760D01*
X111681759Y-117874394D01*
X111690120Y-117835920D01*
X111696591Y-117784155D01*
X111701411Y-117713918D01*
X111704822Y-117620027D01*
X111707065Y-117497301D01*
X111708381Y-117340559D01*
X111709010Y-117144617D01*
X111709195Y-116904296D01*
X111709200Y-116839750D01*
X111708947Y-116582269D01*
X111708071Y-116370749D01*
X111706396Y-116200351D01*
X111703748Y-116066238D01*
X111699950Y-115963571D01*
X111694827Y-115887513D01*
X111688203Y-115833226D01*
X111679903Y-115795872D01*
X111670447Y-115771938D01*
X111631695Y-115697000D01*
X112496600Y-115697000D01*
X112496600Y-116797045D01*
G36*
X112255941Y-113930960D02*
G01*
X112373545Y-113997395D01*
X112467023Y-114100045D01*
X112510812Y-114186124D01*
X112541422Y-114324614D01*
X112532321Y-114462591D01*
X112484973Y-114584084D01*
X112472588Y-114602850D01*
X112382149Y-114690408D01*
X112263271Y-114750553D01*
X112130333Y-114780418D01*
X111997713Y-114777134D01*
X111879790Y-114737832D01*
X111859006Y-114725244D01*
X111776737Y-114646394D01*
X111708914Y-114537770D01*
X111666747Y-114420295D01*
X111658400Y-114350799D01*
X111677674Y-114241575D01*
X111728190Y-114127110D01*
X111798982Y-114028158D01*
X111854642Y-113979295D01*
X111986861Y-113918876D01*
X112123837Y-113903776D01*
X112255941Y-113930960D01*
X112255941Y-113930960D01*
G37*
X112255941Y-113930960D02*
X112373545Y-113997395D01*
X112467023Y-114100045D01*
X112510812Y-114186124D01*
X112541422Y-114324614D01*
X112532321Y-114462591D01*
X112484973Y-114584084D01*
X112472588Y-114602850D01*
X112382149Y-114690408D01*
X112263271Y-114750553D01*
X112130333Y-114780418D01*
X111997713Y-114777134D01*
X111879790Y-114737832D01*
X111859006Y-114725244D01*
X111776737Y-114646394D01*
X111708914Y-114537770D01*
X111666747Y-114420295D01*
X111658400Y-114350799D01*
X111677674Y-114241575D01*
X111728190Y-114127110D01*
X111798982Y-114028158D01*
X111854642Y-113979295D01*
X111986861Y-113918876D01*
X112123837Y-113903776D01*
X112255941Y-113930960D01*
D11*
G36*
X166082564Y-140945099D02*
G01*
X166324126Y-140993149D01*
X167006765Y-141275907D01*
X167621123Y-141686408D01*
X168143592Y-142208877D01*
X168554093Y-142823235D01*
X168795430Y-143405875D01*
X168836851Y-143505875D01*
X168981000Y-144230557D01*
X168981000Y-144969443D01*
X168964777Y-145051000D01*
X168836851Y-145694126D01*
X168554093Y-146376765D01*
X168143592Y-146991123D01*
X167621123Y-147513592D01*
X167006765Y-147924093D01*
X166324126Y-148206851D01*
X166102174Y-148251000D01*
X165599443Y-148351000D01*
X164860557Y-148351000D01*
X164357826Y-148251000D01*
X164135874Y-148206851D01*
X163453235Y-147924093D01*
X162838877Y-147513592D01*
X162316408Y-146991123D01*
X161905907Y-146376765D01*
X161623149Y-145694126D01*
X161495223Y-145051000D01*
X161479000Y-144969443D01*
X161479000Y-144230557D01*
X161623149Y-143505875D01*
X161664570Y-143405875D01*
X161905907Y-142823235D01*
X162316408Y-142208877D01*
X162838877Y-141686408D01*
X163453235Y-141275907D01*
X164135874Y-140993149D01*
X164377436Y-140945099D01*
X164860557Y-140849000D01*
X165599443Y-140849000D01*
X166082564Y-140945099D01*
X166082564Y-140945099D01*
G37*
G36*
X80852564Y-140845099D02*
G01*
X81094126Y-140893149D01*
X81776765Y-141175907D01*
X82391123Y-141586408D01*
X82913592Y-142108877D01*
X83324093Y-142723235D01*
X83606851Y-143405874D01*
X83606851Y-143405875D01*
X83751000Y-144130557D01*
X83751000Y-144869443D01*
X83724257Y-145003886D01*
X83606851Y-145594126D01*
X83324093Y-146276765D01*
X82913592Y-146891123D01*
X82391123Y-147413592D01*
X81776765Y-147824093D01*
X81094126Y-148106851D01*
X80852564Y-148154901D01*
X80369443Y-148251000D01*
X79630557Y-148251000D01*
X79147436Y-148154901D01*
X78905874Y-148106851D01*
X78223235Y-147824093D01*
X77608877Y-147413592D01*
X77086408Y-146891123D01*
X76675907Y-146276765D01*
X76393149Y-145594126D01*
X76275743Y-145003886D01*
X76249000Y-144869443D01*
X76249000Y-144130557D01*
X76393149Y-143405875D01*
X76393149Y-143405874D01*
X76675907Y-142723235D01*
X77086408Y-142108877D01*
X77608877Y-141586408D01*
X78223235Y-141175907D01*
X78905874Y-140893149D01*
X79147436Y-140845099D01*
X79630557Y-140749000D01*
X80369443Y-140749000D01*
X80852564Y-140845099D01*
X80852564Y-140845099D01*
G37*
G36*
X88567585Y-144528802D02*
G01*
X88717410Y-144558604D01*
X88999674Y-144675521D01*
X89253705Y-144845259D01*
X89469741Y-145061295D01*
X89639479Y-145315326D01*
X89754961Y-145594126D01*
X89756396Y-145597591D01*
X89816000Y-145897239D01*
X89816000Y-146202761D01*
X89801685Y-146274725D01*
X89756396Y-146502410D01*
X89639479Y-146784674D01*
X89469741Y-147038705D01*
X89253705Y-147254741D01*
X88999674Y-147424479D01*
X88717410Y-147541396D01*
X88611333Y-147562496D01*
X88417761Y-147601000D01*
X88112239Y-147601000D01*
X87918667Y-147562496D01*
X87812590Y-147541396D01*
X87530326Y-147424479D01*
X87276295Y-147254741D01*
X87060259Y-147038705D01*
X86890521Y-146784674D01*
X86773604Y-146502410D01*
X86728315Y-146274725D01*
X86714000Y-146202761D01*
X86714000Y-145897239D01*
X86773604Y-145597591D01*
X86775039Y-145594126D01*
X86890521Y-145315326D01*
X87060259Y-145061295D01*
X87276295Y-144845259D01*
X87530326Y-144675521D01*
X87812590Y-144558604D01*
X87962415Y-144528802D01*
X88112239Y-144499000D01*
X88417761Y-144499000D01*
X88567585Y-144528802D01*
X88567585Y-144528802D01*
G37*
G36*
X135536000Y-147601000D02*
G01*
X132434000Y-147601000D01*
X132434000Y-144499000D01*
X135536000Y-144499000D01*
X135536000Y-147601000D01*
X135536000Y-147601000D01*
G37*
G36*
X152757610Y-142646114D02*
G01*
X152980727Y-142738532D01*
X152980729Y-142738533D01*
X153026821Y-142769331D01*
X153181529Y-142872703D01*
X153352297Y-143043471D01*
X153486468Y-143244273D01*
X153578886Y-143467390D01*
X153626000Y-143704248D01*
X153626000Y-143945752D01*
X153578886Y-144182610D01*
X153486468Y-144405727D01*
X153352297Y-144606529D01*
X153181529Y-144777297D01*
X153043625Y-144869441D01*
X152980729Y-144911467D01*
X152980728Y-144911468D01*
X152980727Y-144911468D01*
X152757610Y-145003886D01*
X152520752Y-145051000D01*
X152279248Y-145051000D01*
X152042390Y-145003886D01*
X151819273Y-144911468D01*
X151819272Y-144911468D01*
X151819271Y-144911467D01*
X151756375Y-144869441D01*
X151618471Y-144777297D01*
X151447703Y-144606529D01*
X151313532Y-144405727D01*
X151221114Y-144182610D01*
X151174000Y-143945752D01*
X151174000Y-143704248D01*
X151221114Y-143467390D01*
X151313532Y-143244273D01*
X151447703Y-143043471D01*
X151618471Y-142872703D01*
X151773179Y-142769331D01*
X151819271Y-142738533D01*
X151819273Y-142738532D01*
X152042390Y-142646114D01*
X152279248Y-142599000D01*
X152520752Y-142599000D01*
X152757610Y-142646114D01*
X152757610Y-142646114D01*
G37*
G36*
X141882395Y-141325546D02*
G01*
X142055466Y-141397234D01*
X142055467Y-141397235D01*
X142211227Y-141501310D01*
X142343690Y-141633773D01*
X142343691Y-141633775D01*
X142447766Y-141789534D01*
X142519454Y-141962605D01*
X142556000Y-142146333D01*
X142556000Y-142333667D01*
X142519454Y-142517395D01*
X142447766Y-142690466D01*
X142407046Y-142751408D01*
X142343690Y-142846227D01*
X142211227Y-142978690D01*
X142132818Y-143031081D01*
X142055466Y-143082766D01*
X141882395Y-143154454D01*
X141698667Y-143191000D01*
X141511333Y-143191000D01*
X141327605Y-143154454D01*
X141154534Y-143082766D01*
X141077182Y-143031081D01*
X140998773Y-142978690D01*
X140866310Y-142846227D01*
X140802954Y-142751408D01*
X140762234Y-142690466D01*
X140690546Y-142517395D01*
X140654000Y-142333667D01*
X140654000Y-142146333D01*
X140690546Y-141962605D01*
X140762234Y-141789534D01*
X140866309Y-141633775D01*
X140866310Y-141633773D01*
X140998773Y-141501310D01*
X141154533Y-141397235D01*
X141154534Y-141397234D01*
X141327605Y-141325546D01*
X141511333Y-141289000D01*
X141698667Y-141289000D01*
X141882395Y-141325546D01*
X141882395Y-141325546D01*
G37*
G36*
X152757610Y-137646114D02*
G01*
X152980727Y-137738532D01*
X152980729Y-137738533D01*
X153031269Y-137772303D01*
X153181529Y-137872703D01*
X153352297Y-138043471D01*
X153486468Y-138244273D01*
X153578886Y-138467390D01*
X153626000Y-138704248D01*
X153626000Y-138945752D01*
X153578886Y-139182610D01*
X153486468Y-139405727D01*
X153352297Y-139606529D01*
X153181529Y-139777297D01*
X153031269Y-139877697D01*
X152980729Y-139911467D01*
X152980728Y-139911468D01*
X152980727Y-139911468D01*
X152757610Y-140003886D01*
X152520752Y-140051000D01*
X152279248Y-140051000D01*
X152042390Y-140003886D01*
X151819273Y-139911468D01*
X151819272Y-139911468D01*
X151819271Y-139911467D01*
X151768731Y-139877697D01*
X151618471Y-139777297D01*
X151447703Y-139606529D01*
X151313532Y-139405727D01*
X151221114Y-139182610D01*
X151174000Y-138945752D01*
X151174000Y-138704248D01*
X151221114Y-138467390D01*
X151313532Y-138244273D01*
X151447703Y-138043471D01*
X151618471Y-137872703D01*
X151768731Y-137772303D01*
X151819271Y-137738533D01*
X151819273Y-137738532D01*
X152042390Y-137646114D01*
X152279248Y-137599000D01*
X152520752Y-137599000D01*
X152757610Y-137646114D01*
X152757610Y-137646114D01*
G37*
G36*
X88567585Y-134368802D02*
G01*
X88717410Y-134398604D01*
X88999674Y-134515521D01*
X89253705Y-134685259D01*
X89469741Y-134901295D01*
X89639479Y-135155326D01*
X89756396Y-135437590D01*
X89816000Y-135737240D01*
X89816000Y-136042760D01*
X89756396Y-136342410D01*
X89639479Y-136624674D01*
X89469741Y-136878705D01*
X89253705Y-137094741D01*
X88999674Y-137264479D01*
X88717410Y-137381396D01*
X88567585Y-137411198D01*
X88417761Y-137441000D01*
X88112239Y-137441000D01*
X87962415Y-137411198D01*
X87812590Y-137381396D01*
X87530326Y-137264479D01*
X87276295Y-137094741D01*
X87060259Y-136878705D01*
X86890521Y-136624674D01*
X86773604Y-136342410D01*
X86714000Y-136042760D01*
X86714000Y-135737240D01*
X86773604Y-135437590D01*
X86890521Y-135155326D01*
X87060259Y-134901295D01*
X87276295Y-134685259D01*
X87530326Y-134515521D01*
X87812590Y-134398604D01*
X87962415Y-134368802D01*
X88112239Y-134339000D01*
X88417761Y-134339000D01*
X88567585Y-134368802D01*
X88567585Y-134368802D01*
G37*
G36*
X163463097Y-134684069D02*
G01*
X163566032Y-134694207D01*
X163764146Y-134754305D01*
X163764149Y-134754306D01*
X163860975Y-134806061D01*
X163946729Y-134851897D01*
X164106765Y-134983235D01*
X164238103Y-135143271D01*
X164283939Y-135229025D01*
X164335694Y-135325851D01*
X164335695Y-135325854D01*
X164395793Y-135523968D01*
X164416085Y-135730000D01*
X164395793Y-135936032D01*
X164335695Y-136134146D01*
X164335694Y-136134149D01*
X164283939Y-136230975D01*
X164238103Y-136316729D01*
X164106765Y-136476765D01*
X163946729Y-136608103D01*
X163860975Y-136653939D01*
X163764149Y-136705694D01*
X163764146Y-136705695D01*
X163566032Y-136765793D01*
X163463097Y-136775931D01*
X163411631Y-136781000D01*
X161708369Y-136781000D01*
X161656903Y-136775931D01*
X161553968Y-136765793D01*
X161355854Y-136705695D01*
X161355851Y-136705694D01*
X161259025Y-136653939D01*
X161173271Y-136608103D01*
X161013235Y-136476765D01*
X160881897Y-136316729D01*
X160836061Y-136230975D01*
X160784306Y-136134149D01*
X160784305Y-136134146D01*
X160724207Y-135936032D01*
X160703915Y-135730000D01*
X160724207Y-135523968D01*
X160784305Y-135325854D01*
X160784306Y-135325851D01*
X160836061Y-135229025D01*
X160881897Y-135143271D01*
X161013235Y-134983235D01*
X161173271Y-134851897D01*
X161259025Y-134806061D01*
X161355851Y-134754306D01*
X161355854Y-134754305D01*
X161553968Y-134694207D01*
X161656903Y-134684069D01*
X161708369Y-134679000D01*
X163411631Y-134679000D01*
X163463097Y-134684069D01*
X163463097Y-134684069D01*
G37*
G36*
X80843419Y-135053832D02*
G01*
X80998291Y-135117982D01*
X81137672Y-135211114D01*
X81256206Y-135329648D01*
X81349338Y-135469029D01*
X81413488Y-135623901D01*
X81446191Y-135788313D01*
X81446191Y-135955945D01*
X81413488Y-136120357D01*
X81349338Y-136275229D01*
X81256206Y-136414610D01*
X81137672Y-136533144D01*
X80998291Y-136626276D01*
X80843419Y-136690426D01*
X80679007Y-136723129D01*
X80511375Y-136723129D01*
X80346963Y-136690426D01*
X80192091Y-136626276D01*
X80052710Y-136533144D01*
X79934176Y-136414610D01*
X79841044Y-136275229D01*
X79776894Y-136120357D01*
X79744191Y-135955945D01*
X79744191Y-135788313D01*
X79776894Y-135623901D01*
X79841044Y-135469029D01*
X79934176Y-135329648D01*
X80052710Y-135211114D01*
X80192091Y-135117982D01*
X80346963Y-135053832D01*
X80511375Y-135021129D01*
X80679007Y-135021129D01*
X80843419Y-135053832D01*
X80843419Y-135053832D01*
G37*
G36*
X78343419Y-135053832D02*
G01*
X78498291Y-135117982D01*
X78637672Y-135211114D01*
X78756206Y-135329648D01*
X78849338Y-135469029D01*
X78913488Y-135623901D01*
X78946191Y-135788313D01*
X78946191Y-135955945D01*
X78913488Y-136120357D01*
X78849338Y-136275229D01*
X78756206Y-136414610D01*
X78637672Y-136533144D01*
X78498291Y-136626276D01*
X78343419Y-136690426D01*
X78179007Y-136723129D01*
X78011375Y-136723129D01*
X77846963Y-136690426D01*
X77692091Y-136626276D01*
X77552710Y-136533144D01*
X77434176Y-136414610D01*
X77341044Y-136275229D01*
X77276894Y-136120357D01*
X77244191Y-135955945D01*
X77244191Y-135788313D01*
X77276894Y-135623901D01*
X77341044Y-135469029D01*
X77434176Y-135329648D01*
X77552710Y-135211114D01*
X77692091Y-135117982D01*
X77846963Y-135053832D01*
X78011375Y-135021129D01*
X78179007Y-135021129D01*
X78343419Y-135053832D01*
X78343419Y-135053832D01*
G37*
G36*
X145582395Y-133825546D02*
G01*
X145755466Y-133897234D01*
X145755467Y-133897235D01*
X145911227Y-134001310D01*
X146043690Y-134133773D01*
X146043691Y-134133775D01*
X146147766Y-134289534D01*
X146219454Y-134462605D01*
X146256000Y-134646333D01*
X146256000Y-134833667D01*
X146219454Y-135017395D01*
X146147766Y-135190466D01*
X146147765Y-135190467D01*
X146043690Y-135346227D01*
X145911227Y-135478690D01*
X145843463Y-135523968D01*
X145755466Y-135582766D01*
X145582395Y-135654454D01*
X145398667Y-135691000D01*
X145211333Y-135691000D01*
X145027605Y-135654454D01*
X144854534Y-135582766D01*
X144766537Y-135523968D01*
X144698773Y-135478690D01*
X144566310Y-135346227D01*
X144462235Y-135190467D01*
X144462234Y-135190466D01*
X144390546Y-135017395D01*
X144354000Y-134833667D01*
X144354000Y-134646333D01*
X144390546Y-134462605D01*
X144462234Y-134289534D01*
X144566309Y-134133775D01*
X144566310Y-134133773D01*
X144698773Y-134001310D01*
X144854533Y-133897235D01*
X144854534Y-133897234D01*
X145027605Y-133825546D01*
X145211333Y-133789000D01*
X145398667Y-133789000D01*
X145582395Y-133825546D01*
X145582395Y-133825546D01*
G37*
G36*
X163463097Y-129684069D02*
G01*
X163566032Y-129694207D01*
X163764146Y-129754305D01*
X163764149Y-129754306D01*
X163860975Y-129806061D01*
X163946729Y-129851897D01*
X164106765Y-129983235D01*
X164238103Y-130143271D01*
X164283939Y-130229025D01*
X164335694Y-130325851D01*
X164335695Y-130325854D01*
X164395793Y-130523968D01*
X164416085Y-130730000D01*
X164395793Y-130936032D01*
X164335695Y-131134146D01*
X164335694Y-131134149D01*
X164283939Y-131230975D01*
X164238103Y-131316729D01*
X164106765Y-131476765D01*
X163946729Y-131608103D01*
X163860975Y-131653939D01*
X163764149Y-131705694D01*
X163764146Y-131705695D01*
X163566032Y-131765793D01*
X163463097Y-131775931D01*
X163411631Y-131781000D01*
X161708369Y-131781000D01*
X161656903Y-131775931D01*
X161553968Y-131765793D01*
X161355854Y-131705695D01*
X161355851Y-131705694D01*
X161259025Y-131653939D01*
X161173271Y-131608103D01*
X161013235Y-131476765D01*
X160881897Y-131316729D01*
X160836061Y-131230975D01*
X160784306Y-131134149D01*
X160784305Y-131134146D01*
X160724207Y-130936032D01*
X160703915Y-130730000D01*
X160724207Y-130523968D01*
X160784305Y-130325854D01*
X160784306Y-130325851D01*
X160836061Y-130229025D01*
X160881897Y-130143271D01*
X161013235Y-129983235D01*
X161173271Y-129851897D01*
X161259025Y-129806061D01*
X161355851Y-129754306D01*
X161355854Y-129754305D01*
X161553968Y-129694207D01*
X161656903Y-129684069D01*
X161708369Y-129679000D01*
X163411631Y-129679000D01*
X163463097Y-129684069D01*
X163463097Y-129684069D01*
G37*
G36*
X152757610Y-127646114D02*
G01*
X152967613Y-127733100D01*
X152980729Y-127738533D01*
X153031269Y-127772303D01*
X153181529Y-127872703D01*
X153352297Y-128043471D01*
X153486468Y-128244273D01*
X153578886Y-128467390D01*
X153626000Y-128704248D01*
X153626000Y-128945752D01*
X153578886Y-129182610D01*
X153486468Y-129405727D01*
X153352297Y-129606529D01*
X153181529Y-129777297D01*
X153031269Y-129877697D01*
X152980729Y-129911467D01*
X152980728Y-129911468D01*
X152980727Y-129911468D01*
X152757610Y-130003886D01*
X152520752Y-130051000D01*
X152279248Y-130051000D01*
X152042390Y-130003886D01*
X151819273Y-129911468D01*
X151819272Y-129911468D01*
X151819271Y-129911467D01*
X151768731Y-129877697D01*
X151618471Y-129777297D01*
X151447703Y-129606529D01*
X151313532Y-129405727D01*
X151221114Y-129182610D01*
X151174000Y-128945752D01*
X151174000Y-128704248D01*
X151221114Y-128467390D01*
X151313532Y-128244273D01*
X151447703Y-128043471D01*
X151618471Y-127872703D01*
X151768731Y-127772303D01*
X151819271Y-127738533D01*
X151832387Y-127733100D01*
X152042390Y-127646114D01*
X152279248Y-127599000D01*
X152520752Y-127599000D01*
X152757610Y-127646114D01*
X152757610Y-127646114D01*
G37*
G36*
X80853228Y-124911703D02*
G01*
X81008100Y-124975853D01*
X81147481Y-125068985D01*
X81266015Y-125187519D01*
X81359147Y-125326900D01*
X81423297Y-125481772D01*
X81456000Y-125646184D01*
X81456000Y-125813816D01*
X81423297Y-125978228D01*
X81359147Y-126133100D01*
X81266015Y-126272481D01*
X81266012Y-126272484D01*
X81260619Y-126280555D01*
X81257337Y-126284555D01*
X81245786Y-126306166D01*
X81238673Y-126329615D01*
X81236271Y-126354001D01*
X81238673Y-126378387D01*
X81245786Y-126401836D01*
X81257337Y-126423447D01*
X81272882Y-126442389D01*
X81291824Y-126457934D01*
X81313435Y-126469485D01*
X81336884Y-126476598D01*
X81358264Y-126478704D01*
X81359752Y-126479000D01*
X81359753Y-126479000D01*
X81524165Y-126511703D01*
X81679037Y-126575853D01*
X81818418Y-126668985D01*
X81936952Y-126787519D01*
X82030084Y-126926900D01*
X82094234Y-127081772D01*
X82126937Y-127246184D01*
X82126937Y-127413816D01*
X82094234Y-127578228D01*
X82030084Y-127733100D01*
X81936952Y-127872481D01*
X81818418Y-127991015D01*
X81679037Y-128084147D01*
X81524165Y-128148297D01*
X81359753Y-128181000D01*
X81192121Y-128181000D01*
X81027709Y-128148297D01*
X80872837Y-128084147D01*
X80733456Y-127991015D01*
X80614922Y-127872481D01*
X80521790Y-127733100D01*
X80457640Y-127578228D01*
X80424937Y-127413816D01*
X80424937Y-127246184D01*
X80457640Y-127081772D01*
X80521790Y-126926900D01*
X80614922Y-126787519D01*
X80614925Y-126787516D01*
X80620318Y-126779445D01*
X80623600Y-126775445D01*
X80635151Y-126753834D01*
X80642264Y-126730385D01*
X80644666Y-126705999D01*
X80642264Y-126681613D01*
X80635151Y-126658164D01*
X80623600Y-126636553D01*
X80608055Y-126617611D01*
X80589113Y-126602066D01*
X80567502Y-126590515D01*
X80544053Y-126583402D01*
X80522673Y-126581296D01*
X80521185Y-126581000D01*
X80521184Y-126581000D01*
X80356772Y-126548297D01*
X80201900Y-126484147D01*
X80062519Y-126391015D01*
X79943985Y-126272481D01*
X79850853Y-126133100D01*
X79786703Y-125978228D01*
X79754000Y-125813816D01*
X79754000Y-125646184D01*
X79786703Y-125481772D01*
X79850853Y-125326900D01*
X79943985Y-125187519D01*
X80062519Y-125068985D01*
X80201900Y-124975853D01*
X80356772Y-124911703D01*
X80521184Y-124879000D01*
X80688816Y-124879000D01*
X80853228Y-124911703D01*
X80853228Y-124911703D01*
G37*
G36*
X134287585Y-124208802D02*
G01*
X134437410Y-124238604D01*
X134719674Y-124355521D01*
X134973705Y-124525259D01*
X135189741Y-124741295D01*
X135359479Y-124995326D01*
X135476396Y-125277590D01*
X135536000Y-125577240D01*
X135536000Y-125882760D01*
X135476396Y-126182410D01*
X135359479Y-126464674D01*
X135189741Y-126718705D01*
X134973705Y-126934741D01*
X134719674Y-127104479D01*
X134437410Y-127221396D01*
X134312792Y-127246184D01*
X134137761Y-127281000D01*
X133832239Y-127281000D01*
X133657208Y-127246184D01*
X133532590Y-127221396D01*
X133250326Y-127104479D01*
X132996295Y-126934741D01*
X132780259Y-126718705D01*
X132610521Y-126464674D01*
X132493604Y-126182410D01*
X132434000Y-125882760D01*
X132434000Y-125577240D01*
X132493604Y-125277590D01*
X132610521Y-124995326D01*
X132780259Y-124741295D01*
X132996295Y-124525259D01*
X133250326Y-124355521D01*
X133532590Y-124238604D01*
X133682415Y-124208802D01*
X133832239Y-124179000D01*
X134137761Y-124179000D01*
X134287585Y-124208802D01*
X134287585Y-124208802D01*
G37*
G36*
X164411000Y-126781000D02*
G01*
X160709000Y-126781000D01*
X160709000Y-124679000D01*
X164411000Y-124679000D01*
X164411000Y-126781000D01*
X164411000Y-126781000D01*
G37*
G36*
X141882395Y-124815546D02*
G01*
X142055466Y-124887234D01*
X142092086Y-124911703D01*
X142211227Y-124991310D01*
X142343690Y-125123773D01*
X142386284Y-125187520D01*
X142447766Y-125279534D01*
X142519454Y-125452605D01*
X142556000Y-125636333D01*
X142556000Y-125823667D01*
X142519454Y-126007395D01*
X142447766Y-126180466D01*
X142446467Y-126182410D01*
X142343690Y-126336227D01*
X142211227Y-126468690D01*
X142188092Y-126484148D01*
X142055466Y-126572766D01*
X141882395Y-126644454D01*
X141698667Y-126681000D01*
X141511333Y-126681000D01*
X141327605Y-126644454D01*
X141154534Y-126572766D01*
X141021908Y-126484148D01*
X140998773Y-126468690D01*
X140866310Y-126336227D01*
X140763533Y-126182410D01*
X140762234Y-126180466D01*
X140690546Y-126007395D01*
X140654000Y-125823667D01*
X140654000Y-125636333D01*
X140690546Y-125452605D01*
X140762234Y-125279534D01*
X140823716Y-125187520D01*
X140866310Y-125123773D01*
X140998773Y-124991310D01*
X141117914Y-124911703D01*
X141154534Y-124887234D01*
X141327605Y-124815546D01*
X141511333Y-124779000D01*
X141698667Y-124779000D01*
X141882395Y-124815546D01*
X141882395Y-124815546D01*
G37*
G36*
X78285063Y-124754001D02*
G01*
X78287465Y-124778387D01*
X78294578Y-124801836D01*
X78306129Y-124823447D01*
X78321674Y-124842389D01*
X78340616Y-124857934D01*
X78362227Y-124869485D01*
X78385676Y-124876598D01*
X78410062Y-124879000D01*
X78956000Y-124879000D01*
X78956000Y-126581000D01*
X77254000Y-126581000D01*
X77254000Y-125105999D01*
X77251598Y-125081613D01*
X77244485Y-125058164D01*
X77232934Y-125036553D01*
X77217389Y-125017611D01*
X77198447Y-125002066D01*
X77176836Y-124990515D01*
X77153387Y-124983402D01*
X77129001Y-124981000D01*
X76583063Y-124981000D01*
X76583063Y-123279000D01*
X78285063Y-123279000D01*
X78285063Y-124754001D01*
X78285063Y-124754001D01*
G37*
G36*
X152757610Y-122646114D02*
G01*
X152980727Y-122738532D01*
X152980729Y-122738533D01*
X153031269Y-122772303D01*
X153181529Y-122872703D01*
X153352297Y-123043471D01*
X153486468Y-123244273D01*
X153578886Y-123467390D01*
X153626000Y-123704248D01*
X153626000Y-123945752D01*
X153578886Y-124182610D01*
X153486468Y-124405727D01*
X153352297Y-124606529D01*
X153181529Y-124777297D01*
X153043559Y-124869485D01*
X152980729Y-124911467D01*
X152980728Y-124911468D01*
X152980727Y-124911468D01*
X152757610Y-125003886D01*
X152520752Y-125051000D01*
X152279248Y-125051000D01*
X152042390Y-125003886D01*
X151819273Y-124911468D01*
X151819272Y-124911468D01*
X151819271Y-124911467D01*
X151756441Y-124869485D01*
X151618471Y-124777297D01*
X151447703Y-124606529D01*
X151313532Y-124405727D01*
X151221114Y-124182610D01*
X151174000Y-123945752D01*
X151174000Y-123704248D01*
X151221114Y-123467390D01*
X151313532Y-123244273D01*
X151447703Y-123043471D01*
X151618471Y-122872703D01*
X151768731Y-122772303D01*
X151819271Y-122738533D01*
X151819273Y-122738532D01*
X152042390Y-122646114D01*
X152279248Y-122599000D01*
X152520752Y-122599000D01*
X152757610Y-122646114D01*
X152757610Y-122646114D01*
G37*
G36*
X145582395Y-117315546D02*
G01*
X145755466Y-117387234D01*
X145755467Y-117387235D01*
X145911227Y-117491310D01*
X146043690Y-117623773D01*
X146046357Y-117627765D01*
X146147766Y-117779534D01*
X146219454Y-117952605D01*
X146256000Y-118136333D01*
X146256000Y-118323667D01*
X146219454Y-118507395D01*
X146147766Y-118680466D01*
X146147765Y-118680467D01*
X146043690Y-118836227D01*
X145911227Y-118968690D01*
X145832818Y-119021081D01*
X145755466Y-119072766D01*
X145582395Y-119144454D01*
X145398667Y-119181000D01*
X145211333Y-119181000D01*
X145027605Y-119144454D01*
X144854534Y-119072766D01*
X144777182Y-119021081D01*
X144698773Y-118968690D01*
X144566310Y-118836227D01*
X144462235Y-118680467D01*
X144462234Y-118680466D01*
X144390546Y-118507395D01*
X144354000Y-118323667D01*
X144354000Y-118136333D01*
X144390546Y-117952605D01*
X144462234Y-117779534D01*
X144563643Y-117627765D01*
X144566310Y-117623773D01*
X144698773Y-117491310D01*
X144854533Y-117387235D01*
X144854534Y-117387234D01*
X145027605Y-117315546D01*
X145211333Y-117279000D01*
X145398667Y-117279000D01*
X145582395Y-117315546D01*
X145582395Y-117315546D01*
G37*
G36*
X104914279Y-116725652D02*
G01*
X105069151Y-116789802D01*
X105208532Y-116882934D01*
X105327066Y-117001468D01*
X105420198Y-117140849D01*
X105484348Y-117295721D01*
X105517051Y-117460133D01*
X105517051Y-117627765D01*
X105484348Y-117792177D01*
X105420198Y-117947049D01*
X105327066Y-118086430D01*
X105208532Y-118204964D01*
X105069151Y-118298096D01*
X104914279Y-118362246D01*
X104749867Y-118394949D01*
X104582235Y-118394949D01*
X104417823Y-118362246D01*
X104262951Y-118298096D01*
X104123570Y-118204964D01*
X104005036Y-118086430D01*
X103911904Y-117947049D01*
X103847754Y-117792177D01*
X103815051Y-117627765D01*
X103815051Y-117460133D01*
X103847754Y-117295721D01*
X103911904Y-117140849D01*
X104005036Y-117001468D01*
X104123570Y-116882934D01*
X104262951Y-116789802D01*
X104417823Y-116725652D01*
X104582235Y-116692949D01*
X104749867Y-116692949D01*
X104914279Y-116725652D01*
X104914279Y-116725652D01*
G37*
G36*
X92214279Y-116725652D02*
G01*
X92369151Y-116789802D01*
X92508532Y-116882934D01*
X92627066Y-117001468D01*
X92720198Y-117140849D01*
X92784348Y-117295721D01*
X92817051Y-117460133D01*
X92817051Y-117627765D01*
X92784348Y-117792177D01*
X92720198Y-117947049D01*
X92627066Y-118086430D01*
X92508532Y-118204964D01*
X92369151Y-118298096D01*
X92214279Y-118362246D01*
X92049867Y-118394949D01*
X91882235Y-118394949D01*
X91717823Y-118362246D01*
X91562951Y-118298096D01*
X91423570Y-118204964D01*
X91305036Y-118086430D01*
X91211904Y-117947049D01*
X91147754Y-117792177D01*
X91115051Y-117627765D01*
X91115051Y-117460133D01*
X91147754Y-117295721D01*
X91211904Y-117140849D01*
X91305036Y-117001468D01*
X91423570Y-116882934D01*
X91562951Y-116789802D01*
X91717823Y-116725652D01*
X91882235Y-116692949D01*
X92049867Y-116692949D01*
X92214279Y-116725652D01*
X92214279Y-116725652D01*
G37*
G36*
X100494192Y-115995726D02*
G01*
X99502829Y-116987089D01*
X98868287Y-116352547D01*
X98849345Y-116337002D01*
X98827734Y-116325451D01*
X98804285Y-116318338D01*
X98779899Y-116315936D01*
X98755513Y-116318338D01*
X98732064Y-116325451D01*
X98710453Y-116337002D01*
X98691511Y-116352547D01*
X98675966Y-116371489D01*
X98664415Y-116393100D01*
X98657302Y-116416549D01*
X98654900Y-116440935D01*
X98657302Y-116465321D01*
X98669659Y-116499858D01*
X98706825Y-116569392D01*
X98746909Y-116701528D01*
X98757052Y-116804517D01*
X98757052Y-117373381D01*
X98746909Y-117476370D01*
X98706825Y-117608505D01*
X98706824Y-117608508D01*
X98641733Y-117730287D01*
X98641731Y-117730289D01*
X98554132Y-117837029D01*
X98467008Y-117908529D01*
X98447390Y-117924629D01*
X98354375Y-117974346D01*
X98325608Y-117989722D01*
X98193472Y-118029806D01*
X98056052Y-118043340D01*
X97918631Y-118029806D01*
X97786495Y-117989722D01*
X97757728Y-117974346D01*
X97664713Y-117924629D01*
X97648482Y-117911309D01*
X97557972Y-117837029D01*
X97470373Y-117730288D01*
X97415574Y-117627765D01*
X97405280Y-117608507D01*
X97405279Y-117608505D01*
X97365195Y-117476369D01*
X97355052Y-117373380D01*
X97355052Y-116804517D01*
X97365195Y-116701528D01*
X97405279Y-116569391D01*
X97442447Y-116499855D01*
X97451825Y-116477216D01*
X97456605Y-116453183D01*
X97456605Y-116428679D01*
X97451825Y-116404646D01*
X97442447Y-116382007D01*
X97428834Y-116361633D01*
X97411507Y-116344306D01*
X97391132Y-116330692D01*
X97368493Y-116321314D01*
X97344460Y-116316534D01*
X97319956Y-116316534D01*
X97295923Y-116321314D01*
X97273284Y-116330692D01*
X97252910Y-116344305D01*
X97243820Y-116352543D01*
X97080606Y-116515757D01*
X97000612Y-116581406D01*
X96878833Y-116646498D01*
X96746695Y-116686583D01*
X96674760Y-116693667D01*
X96609275Y-116700117D01*
X96543790Y-116693667D01*
X96471855Y-116686583D01*
X96339717Y-116646498D01*
X96217938Y-116581406D01*
X96111195Y-116493806D01*
X96023595Y-116387063D01*
X95958503Y-116265284D01*
X95918418Y-116133146D01*
X95908606Y-116033510D01*
X95904884Y-115995726D01*
X95913157Y-115911731D01*
X95918418Y-115858306D01*
X95958503Y-115726168D01*
X96023595Y-115604389D01*
X96089244Y-115524395D01*
X96491498Y-115122141D01*
X96571492Y-115056492D01*
X96693270Y-114991400D01*
X96825408Y-114951315D01*
X96897343Y-114944231D01*
X96962829Y-114937781D01*
X97025379Y-114943942D01*
X97100250Y-114951315D01*
X97232387Y-114991400D01*
X97354166Y-115056492D01*
X97460909Y-115144092D01*
X97548509Y-115250835D01*
X97613601Y-115372614D01*
X97653686Y-115504751D01*
X97661059Y-115579622D01*
X97667220Y-115642172D01*
X97661035Y-115704964D01*
X97653686Y-115779593D01*
X97613601Y-115911731D01*
X97548509Y-116033509D01*
X97535072Y-116049882D01*
X97521458Y-116070256D01*
X97512080Y-116092895D01*
X97507299Y-116116928D01*
X97507299Y-116141432D01*
X97512079Y-116165466D01*
X97521456Y-116188105D01*
X97535069Y-116208479D01*
X97552396Y-116225806D01*
X97572770Y-116239420D01*
X97595409Y-116248798D01*
X97619442Y-116253579D01*
X97643946Y-116253579D01*
X97667980Y-116248799D01*
X97690619Y-116239422D01*
X97786496Y-116188176D01*
X97918632Y-116148092D01*
X98056052Y-116134558D01*
X98193473Y-116148092D01*
X98325609Y-116188176D01*
X98395143Y-116225342D01*
X98417782Y-116234719D01*
X98441815Y-116239499D01*
X98466319Y-116239499D01*
X98490352Y-116234718D01*
X98512991Y-116225341D01*
X98533365Y-116211727D01*
X98550692Y-116194400D01*
X98564306Y-116174025D01*
X98573683Y-116151386D01*
X98578463Y-116127353D01*
X98578463Y-116102849D01*
X98573682Y-116078816D01*
X98564305Y-116056177D01*
X98542454Y-116026714D01*
X98157912Y-115642172D01*
X99149275Y-114650809D01*
X100494192Y-115995726D01*
X100494192Y-115995726D01*
G37*
G36*
X87164271Y-115700103D02*
G01*
X87220635Y-115705654D01*
X87437600Y-115771470D01*
X87437602Y-115771471D01*
X87637555Y-115878347D01*
X87812818Y-116022182D01*
X87956653Y-116197445D01*
X88039556Y-116352547D01*
X88063530Y-116397400D01*
X88119348Y-116581406D01*
X88129346Y-116614366D01*
X88151569Y-116840000D01*
X88129346Y-117065634D01*
X88063529Y-117282602D01*
X87956653Y-117482555D01*
X87812818Y-117657818D01*
X87637555Y-117801653D01*
X87437602Y-117908529D01*
X87437600Y-117908530D01*
X87220635Y-117974346D01*
X87164271Y-117979897D01*
X87051545Y-117991000D01*
X86938455Y-117991000D01*
X86825729Y-117979897D01*
X86769365Y-117974346D01*
X86552400Y-117908530D01*
X86552398Y-117908529D01*
X86352445Y-117801653D01*
X86177182Y-117657818D01*
X86033347Y-117482555D01*
X85926471Y-117282602D01*
X85860654Y-117065634D01*
X85838431Y-116840000D01*
X85860654Y-116614366D01*
X85870652Y-116581406D01*
X85926470Y-116397400D01*
X85950444Y-116352547D01*
X86033347Y-116197445D01*
X86177182Y-116022182D01*
X86352445Y-115878347D01*
X86552398Y-115771471D01*
X86552400Y-115771470D01*
X86769365Y-115705654D01*
X86825729Y-115700103D01*
X86938455Y-115689000D01*
X87051545Y-115689000D01*
X87164271Y-115700103D01*
X87164271Y-115700103D01*
G37*
G36*
X77986000Y-117991000D02*
G01*
X75684000Y-117991000D01*
X75684000Y-115689000D01*
X77986000Y-115689000D01*
X77986000Y-117991000D01*
X77986000Y-117991000D01*
G37*
G36*
X104914279Y-114225652D02*
G01*
X105069151Y-114289802D01*
X105208532Y-114382934D01*
X105327066Y-114501468D01*
X105420198Y-114640849D01*
X105484348Y-114795721D01*
X105517051Y-114960133D01*
X105517051Y-115127765D01*
X105484348Y-115292177D01*
X105420198Y-115447049D01*
X105327066Y-115586430D01*
X105208532Y-115704964D01*
X105069151Y-115798096D01*
X104914279Y-115862246D01*
X104749867Y-115894949D01*
X104582235Y-115894949D01*
X104417823Y-115862246D01*
X104262951Y-115798096D01*
X104123570Y-115704964D01*
X104005036Y-115586430D01*
X103911904Y-115447049D01*
X103847754Y-115292177D01*
X103815051Y-115127765D01*
X103815051Y-114960133D01*
X103847754Y-114795721D01*
X103911904Y-114640849D01*
X104005036Y-114501468D01*
X104123570Y-114382934D01*
X104262951Y-114289802D01*
X104417823Y-114225652D01*
X104582235Y-114192949D01*
X104749867Y-114192949D01*
X104914279Y-114225652D01*
X104914279Y-114225652D01*
G37*
G36*
X92214279Y-114225652D02*
G01*
X92369151Y-114289802D01*
X92508532Y-114382934D01*
X92627066Y-114501468D01*
X92720198Y-114640849D01*
X92784348Y-114795721D01*
X92817051Y-114960133D01*
X92817051Y-115127765D01*
X92784348Y-115292177D01*
X92720198Y-115447049D01*
X92627066Y-115586430D01*
X92508532Y-115704964D01*
X92369151Y-115798096D01*
X92214279Y-115862246D01*
X92049867Y-115894949D01*
X91882235Y-115894949D01*
X91717823Y-115862246D01*
X91562951Y-115798096D01*
X91423570Y-115704964D01*
X91305036Y-115586430D01*
X91211904Y-115447049D01*
X91147754Y-115292177D01*
X91115051Y-115127765D01*
X91115051Y-114960133D01*
X91147754Y-114795721D01*
X91211904Y-114640849D01*
X91305036Y-114501468D01*
X91423570Y-114382934D01*
X91562951Y-114289802D01*
X91717823Y-114225652D01*
X91882235Y-114192949D01*
X92049867Y-114192949D01*
X92214279Y-114225652D01*
X92214279Y-114225652D01*
G37*
G36*
X89783228Y-111576703D02*
G01*
X89938100Y-111640853D01*
X90077481Y-111733985D01*
X90196015Y-111852519D01*
X90289147Y-111991900D01*
X90353297Y-112146772D01*
X90386000Y-112311184D01*
X90386000Y-112478816D01*
X90353297Y-112643228D01*
X90289147Y-112798100D01*
X90196015Y-112937481D01*
X90077481Y-113056015D01*
X89938100Y-113149147D01*
X89783228Y-113213297D01*
X89618816Y-113246000D01*
X89451184Y-113246000D01*
X89286772Y-113213297D01*
X89131900Y-113149147D01*
X88992519Y-113056015D01*
X88873985Y-112937481D01*
X88780853Y-112798100D01*
X88716703Y-112643228D01*
X88684000Y-112478816D01*
X88684000Y-112311184D01*
X88716703Y-112146772D01*
X88780853Y-111991900D01*
X88873985Y-111852519D01*
X88992519Y-111733985D01*
X89131900Y-111640853D01*
X89286772Y-111576703D01*
X89451184Y-111544000D01*
X89618816Y-111544000D01*
X89783228Y-111576703D01*
X89783228Y-111576703D01*
G37*
G36*
X92958228Y-111576703D02*
G01*
X93113100Y-111640853D01*
X93252481Y-111733985D01*
X93371015Y-111852519D01*
X93464147Y-111991900D01*
X93528297Y-112146772D01*
X93561000Y-112311184D01*
X93561000Y-112478816D01*
X93528297Y-112643228D01*
X93464147Y-112798100D01*
X93371015Y-112937481D01*
X93252481Y-113056015D01*
X93113100Y-113149147D01*
X92958228Y-113213297D01*
X92793816Y-113246000D01*
X92626184Y-113246000D01*
X92461772Y-113213297D01*
X92306900Y-113149147D01*
X92167519Y-113056015D01*
X92048985Y-112937481D01*
X91955853Y-112798100D01*
X91891703Y-112643228D01*
X91859000Y-112478816D01*
X91859000Y-112311184D01*
X91891703Y-112146772D01*
X91955853Y-111991900D01*
X92048985Y-111852519D01*
X92167519Y-111733985D01*
X92306900Y-111640853D01*
X92461772Y-111576703D01*
X92626184Y-111544000D01*
X92793816Y-111544000D01*
X92958228Y-111576703D01*
X92958228Y-111576703D01*
G37*
G36*
X153517585Y-108033802D02*
G01*
X153667410Y-108063604D01*
X153949674Y-108180521D01*
X154203705Y-108350259D01*
X154419741Y-108566295D01*
X154589479Y-108820326D01*
X154706396Y-109102590D01*
X154766000Y-109402240D01*
X154766000Y-109707760D01*
X154706396Y-110007410D01*
X154589479Y-110289674D01*
X154419741Y-110543705D01*
X154203705Y-110759741D01*
X153949674Y-110929479D01*
X153667410Y-111046396D01*
X153517585Y-111076198D01*
X153367761Y-111106000D01*
X153062239Y-111106000D01*
X152912415Y-111076198D01*
X152762590Y-111046396D01*
X152480326Y-110929479D01*
X152226295Y-110759741D01*
X152010259Y-110543705D01*
X151840521Y-110289674D01*
X151723604Y-110007410D01*
X151664000Y-109707760D01*
X151664000Y-109402240D01*
X151723604Y-109102590D01*
X151840521Y-108820326D01*
X152010259Y-108566295D01*
X152226295Y-108350259D01*
X152480326Y-108180521D01*
X152762590Y-108063604D01*
X152912415Y-108033802D01*
X153062239Y-108004000D01*
X153367761Y-108004000D01*
X153517585Y-108033802D01*
X153517585Y-108033802D01*
G37*
G36*
X141394487Y-108303996D02*
G01*
X141586498Y-108383530D01*
X141631255Y-108402069D01*
X141844339Y-108544447D01*
X142025553Y-108725661D01*
X142163933Y-108932761D01*
X142167932Y-108938747D01*
X142266004Y-109175513D01*
X142316000Y-109426861D01*
X142316000Y-109683139D01*
X142266004Y-109934487D01*
X142184027Y-110132396D01*
X142167931Y-110171255D01*
X142025553Y-110384339D01*
X141844339Y-110565553D01*
X141631255Y-110707931D01*
X141631254Y-110707932D01*
X141631253Y-110707932D01*
X141394487Y-110806004D01*
X141143139Y-110856000D01*
X140886861Y-110856000D01*
X140635513Y-110806004D01*
X140398747Y-110707932D01*
X140398746Y-110707932D01*
X140398745Y-110707931D01*
X140185661Y-110565553D01*
X140004447Y-110384339D01*
X139862069Y-110171255D01*
X139845973Y-110132396D01*
X139763996Y-109934487D01*
X139714000Y-109683139D01*
X139714000Y-109426861D01*
X139763996Y-109175513D01*
X139862068Y-108938747D01*
X139866068Y-108932761D01*
X140004447Y-108725661D01*
X140185661Y-108544447D01*
X140398745Y-108402069D01*
X140443502Y-108383530D01*
X140635513Y-108303996D01*
X140886861Y-108254000D01*
X141143139Y-108254000D01*
X141394487Y-108303996D01*
X141394487Y-108303996D01*
G37*
G36*
X83636425Y-108932760D02*
G01*
X83636428Y-108932761D01*
X83636429Y-108932761D01*
X83815693Y-108987140D01*
X83815696Y-108987142D01*
X83815697Y-108987142D01*
X83980903Y-109075446D01*
X84125712Y-109194288D01*
X84244554Y-109339097D01*
X84332858Y-109504303D01*
X84332860Y-109504307D01*
X84387107Y-109683137D01*
X84387240Y-109683575D01*
X84405601Y-109870000D01*
X84387240Y-110056425D01*
X84387239Y-110056428D01*
X84387239Y-110056429D01*
X84332860Y-110235693D01*
X84332858Y-110235696D01*
X84332858Y-110235697D01*
X84244554Y-110400903D01*
X84125712Y-110545712D01*
X83980903Y-110664554D01*
X83815697Y-110752858D01*
X83815693Y-110752860D01*
X83636429Y-110807239D01*
X83636428Y-110807239D01*
X83636425Y-110807240D01*
X83496718Y-110821000D01*
X81603282Y-110821000D01*
X81463575Y-110807240D01*
X81463572Y-110807239D01*
X81463571Y-110807239D01*
X81284307Y-110752860D01*
X81284303Y-110752858D01*
X81119097Y-110664554D01*
X80974288Y-110545712D01*
X80855446Y-110400903D01*
X80767142Y-110235697D01*
X80767142Y-110235696D01*
X80767140Y-110235693D01*
X80712761Y-110056429D01*
X80712761Y-110056428D01*
X80712760Y-110056425D01*
X80694399Y-109870000D01*
X80712760Y-109683575D01*
X80712893Y-109683137D01*
X80767140Y-109504307D01*
X80767142Y-109504303D01*
X80855446Y-109339097D01*
X80974288Y-109194288D01*
X81119097Y-109075446D01*
X81284303Y-108987142D01*
X81284304Y-108987142D01*
X81284307Y-108987140D01*
X81463571Y-108932761D01*
X81463572Y-108932761D01*
X81463575Y-108932760D01*
X81603282Y-108919000D01*
X83496718Y-108919000D01*
X83636425Y-108932760D01*
X83636425Y-108932760D01*
G37*
G36*
X98067395Y-108940546D02*
G01*
X98240466Y-109012234D01*
X98240467Y-109012235D01*
X98396227Y-109116310D01*
X98528690Y-109248773D01*
X98528691Y-109248775D01*
X98632766Y-109404534D01*
X98704454Y-109577605D01*
X98741000Y-109761333D01*
X98741000Y-109948667D01*
X98704454Y-110132395D01*
X98632766Y-110305466D01*
X98632765Y-110305467D01*
X98528690Y-110461227D01*
X98396227Y-110593690D01*
X98317818Y-110646081D01*
X98240466Y-110697766D01*
X98067395Y-110769454D01*
X97883667Y-110806000D01*
X97696333Y-110806000D01*
X97512605Y-110769454D01*
X97339534Y-110697766D01*
X97262182Y-110646081D01*
X97183773Y-110593690D01*
X97051310Y-110461227D01*
X96947235Y-110305467D01*
X96947234Y-110305466D01*
X96875546Y-110132395D01*
X96839000Y-109948667D01*
X96839000Y-109761333D01*
X96875546Y-109577605D01*
X96947234Y-109404534D01*
X97051309Y-109248775D01*
X97051310Y-109248773D01*
X97183773Y-109116310D01*
X97339533Y-109012235D01*
X97339534Y-109012234D01*
X97512605Y-108940546D01*
X97696333Y-108904000D01*
X97883667Y-108904000D01*
X98067395Y-108940546D01*
X98067395Y-108940546D01*
G37*
G36*
X101281000Y-110806000D02*
G01*
X99379000Y-110806000D01*
X99379000Y-108904000D01*
X101281000Y-108904000D01*
X101281000Y-110806000D01*
X101281000Y-110806000D01*
G37*
G36*
X132884271Y-106175103D02*
G01*
X132940635Y-106180654D01*
X133157600Y-106246470D01*
X133157602Y-106246471D01*
X133357555Y-106353347D01*
X133532818Y-106497182D01*
X133676653Y-106672445D01*
X133769859Y-106846823D01*
X133783530Y-106872400D01*
X133849346Y-107089365D01*
X133871569Y-107315000D01*
X133856301Y-107470024D01*
X133849346Y-107540634D01*
X133783529Y-107757602D01*
X133676653Y-107957555D01*
X133532818Y-108132818D01*
X133357555Y-108276653D01*
X133157602Y-108383529D01*
X133157600Y-108383530D01*
X132940635Y-108449346D01*
X132884271Y-108454897D01*
X132771545Y-108466000D01*
X132658455Y-108466000D01*
X132545729Y-108454897D01*
X132489365Y-108449346D01*
X132272400Y-108383530D01*
X132272398Y-108383529D01*
X132072445Y-108276653D01*
X131897182Y-108132818D01*
X131753347Y-107957555D01*
X131646471Y-107757602D01*
X131580654Y-107540634D01*
X131573700Y-107470024D01*
X131558431Y-107315000D01*
X131580654Y-107089365D01*
X131646470Y-106872400D01*
X131660141Y-106846823D01*
X131753347Y-106672445D01*
X131897182Y-106497182D01*
X132072445Y-106353347D01*
X132272398Y-106246471D01*
X132272400Y-106246470D01*
X132489365Y-106180654D01*
X132545729Y-106175103D01*
X132658455Y-106164000D01*
X132771545Y-106164000D01*
X132884271Y-106175103D01*
X132884271Y-106175103D01*
G37*
G36*
X112326823Y-105841313D02*
G01*
X112487242Y-105889976D01*
X112619906Y-105960886D01*
X112635078Y-105968996D01*
X112764659Y-106075341D01*
X112871004Y-106204922D01*
X112871005Y-106204924D01*
X112950024Y-106352758D01*
X112998687Y-106513177D01*
X113015117Y-106680000D01*
X112998687Y-106846823D01*
X112950024Y-107007242D01*
X112929461Y-107045712D01*
X112871004Y-107155078D01*
X112764659Y-107284659D01*
X112635078Y-107391004D01*
X112635076Y-107391005D01*
X112487242Y-107470024D01*
X112326823Y-107518687D01*
X112201804Y-107531000D01*
X111318196Y-107531000D01*
X111193177Y-107518687D01*
X111032758Y-107470024D01*
X110884924Y-107391005D01*
X110884922Y-107391004D01*
X110755341Y-107284659D01*
X110648996Y-107155078D01*
X110590539Y-107045712D01*
X110569976Y-107007242D01*
X110521313Y-106846823D01*
X110504883Y-106680000D01*
X110521313Y-106513177D01*
X110569976Y-106352758D01*
X110648995Y-106204924D01*
X110648996Y-106204922D01*
X110755341Y-106075341D01*
X110884922Y-105968996D01*
X110900094Y-105960886D01*
X111032758Y-105889976D01*
X111193177Y-105841313D01*
X111318196Y-105829000D01*
X112201804Y-105829000D01*
X112326823Y-105841313D01*
X112326823Y-105841313D01*
G37*
G36*
X104706823Y-105841313D02*
G01*
X104867242Y-105889976D01*
X104999906Y-105960886D01*
X105015078Y-105968996D01*
X105144659Y-106075341D01*
X105251004Y-106204922D01*
X105251005Y-106204924D01*
X105330024Y-106352758D01*
X105378687Y-106513177D01*
X105395117Y-106680000D01*
X105378687Y-106846823D01*
X105330024Y-107007242D01*
X105309461Y-107045712D01*
X105251004Y-107155078D01*
X105144659Y-107284659D01*
X105015078Y-107391004D01*
X105015076Y-107391005D01*
X104867242Y-107470024D01*
X104706823Y-107518687D01*
X104581804Y-107531000D01*
X103698196Y-107531000D01*
X103573177Y-107518687D01*
X103412758Y-107470024D01*
X103264924Y-107391005D01*
X103264922Y-107391004D01*
X103135341Y-107284659D01*
X103028996Y-107155078D01*
X102970539Y-107045712D01*
X102949976Y-107007242D01*
X102901313Y-106846823D01*
X102884883Y-106680000D01*
X102901313Y-106513177D01*
X102949976Y-106352758D01*
X103028995Y-106204924D01*
X103028996Y-106204922D01*
X103135341Y-106075341D01*
X103264922Y-105968996D01*
X103280094Y-105960886D01*
X103412758Y-105889976D01*
X103573177Y-105841313D01*
X103698196Y-105829000D01*
X104581804Y-105829000D01*
X104706823Y-105841313D01*
X104706823Y-105841313D01*
G37*
G36*
X83636425Y-105432760D02*
G01*
X83636428Y-105432761D01*
X83636429Y-105432761D01*
X83815693Y-105487140D01*
X83815696Y-105487142D01*
X83815697Y-105487142D01*
X83980903Y-105575446D01*
X84125712Y-105694288D01*
X84244554Y-105839097D01*
X84313986Y-105968996D01*
X84332860Y-106004307D01*
X84381302Y-106164000D01*
X84387240Y-106183575D01*
X84405601Y-106370000D01*
X84387240Y-106556425D01*
X84387239Y-106556428D01*
X84387239Y-106556429D01*
X84332860Y-106735693D01*
X84332858Y-106735696D01*
X84332858Y-106735697D01*
X84244554Y-106900903D01*
X84125712Y-107045712D01*
X83980903Y-107164554D01*
X83815697Y-107252858D01*
X83815693Y-107252860D01*
X83636429Y-107307239D01*
X83636428Y-107307239D01*
X83636425Y-107307240D01*
X83496718Y-107321000D01*
X81603282Y-107321000D01*
X81463575Y-107307240D01*
X81463572Y-107307239D01*
X81463571Y-107307239D01*
X81284307Y-107252860D01*
X81284303Y-107252858D01*
X81119097Y-107164554D01*
X80974288Y-107045712D01*
X80855446Y-106900903D01*
X80767142Y-106735697D01*
X80767142Y-106735696D01*
X80767140Y-106735693D01*
X80712761Y-106556429D01*
X80712761Y-106556428D01*
X80712760Y-106556425D01*
X80694399Y-106370000D01*
X80712760Y-106183575D01*
X80718698Y-106164000D01*
X80767140Y-106004307D01*
X80786014Y-105968996D01*
X80855446Y-105839097D01*
X80974288Y-105694288D01*
X81119097Y-105575446D01*
X81284303Y-105487142D01*
X81284304Y-105487142D01*
X81284307Y-105487140D01*
X81463571Y-105432761D01*
X81463572Y-105432761D01*
X81463575Y-105432760D01*
X81603282Y-105419000D01*
X83496718Y-105419000D01*
X83636425Y-105432760D01*
X83636425Y-105432760D01*
G37*
G36*
X139367585Y-101983802D02*
G01*
X139517410Y-102013604D01*
X139799674Y-102130521D01*
X140053705Y-102300259D01*
X140269741Y-102516295D01*
X140439479Y-102770326D01*
X140556396Y-103052590D01*
X140586198Y-103202415D01*
X140616000Y-103352239D01*
X140616000Y-103657761D01*
X140614575Y-103664924D01*
X140556396Y-103957410D01*
X140439479Y-104239674D01*
X140269741Y-104493705D01*
X140053705Y-104709741D01*
X139799674Y-104879479D01*
X139517410Y-104996396D01*
X139367585Y-105026198D01*
X139217761Y-105056000D01*
X138912239Y-105056000D01*
X138762415Y-105026198D01*
X138612590Y-104996396D01*
X138330326Y-104879479D01*
X138076295Y-104709741D01*
X137860259Y-104493705D01*
X137690521Y-104239674D01*
X137573604Y-103957410D01*
X137515425Y-103664924D01*
X137514000Y-103657761D01*
X137514000Y-103352239D01*
X137543802Y-103202415D01*
X137573604Y-103052590D01*
X137690521Y-102770326D01*
X137860259Y-102516295D01*
X138076295Y-102300259D01*
X138330326Y-102130521D01*
X138612590Y-102013604D01*
X138762415Y-101983802D01*
X138912239Y-101954000D01*
X139217761Y-101954000D01*
X139367585Y-101983802D01*
X139367585Y-101983802D01*
G37*
G36*
X112326823Y-103301313D02*
G01*
X112487242Y-103349976D01*
X112602033Y-103411333D01*
X112635078Y-103428996D01*
X112764659Y-103535341D01*
X112871004Y-103664922D01*
X112871005Y-103664924D01*
X112950024Y-103812758D01*
X112998687Y-103973177D01*
X113015117Y-104140000D01*
X112998687Y-104306823D01*
X112950024Y-104467242D01*
X112935879Y-104493705D01*
X112871004Y-104615078D01*
X112764659Y-104744659D01*
X112635078Y-104851004D01*
X112635076Y-104851005D01*
X112487242Y-104930024D01*
X112326823Y-104978687D01*
X112201804Y-104991000D01*
X111318196Y-104991000D01*
X111193177Y-104978687D01*
X111032758Y-104930024D01*
X110884924Y-104851005D01*
X110884922Y-104851004D01*
X110755341Y-104744659D01*
X110648996Y-104615078D01*
X110584121Y-104493705D01*
X110569976Y-104467242D01*
X110521313Y-104306823D01*
X110504883Y-104140000D01*
X110521313Y-103973177D01*
X110569976Y-103812758D01*
X110648995Y-103664924D01*
X110648996Y-103664922D01*
X110755341Y-103535341D01*
X110884922Y-103428996D01*
X110917967Y-103411333D01*
X111032758Y-103349976D01*
X111193177Y-103301313D01*
X111318196Y-103289000D01*
X112201804Y-103289000D01*
X112326823Y-103301313D01*
X112326823Y-103301313D01*
G37*
G36*
X104706823Y-103301313D02*
G01*
X104867242Y-103349976D01*
X104982033Y-103411333D01*
X105015078Y-103428996D01*
X105144659Y-103535341D01*
X105251004Y-103664922D01*
X105251005Y-103664924D01*
X105330024Y-103812758D01*
X105378687Y-103973177D01*
X105395117Y-104140000D01*
X105378687Y-104306823D01*
X105330024Y-104467242D01*
X105315879Y-104493705D01*
X105251004Y-104615078D01*
X105144659Y-104744659D01*
X105015078Y-104851004D01*
X105015076Y-104851005D01*
X104867242Y-104930024D01*
X104706823Y-104978687D01*
X104581804Y-104991000D01*
X103698196Y-104991000D01*
X103573177Y-104978687D01*
X103412758Y-104930024D01*
X103264924Y-104851005D01*
X103264922Y-104851004D01*
X103135341Y-104744659D01*
X103028996Y-104615078D01*
X102964121Y-104493705D01*
X102949976Y-104467242D01*
X102901313Y-104306823D01*
X102884883Y-104140000D01*
X102901313Y-103973177D01*
X102949976Y-103812758D01*
X103028995Y-103664924D01*
X103028996Y-103664922D01*
X103135341Y-103535341D01*
X103264922Y-103428996D01*
X103297967Y-103411333D01*
X103412758Y-103349976D01*
X103573177Y-103301313D01*
X103698196Y-103289000D01*
X104581804Y-103289000D01*
X104706823Y-103301313D01*
X104706823Y-103301313D01*
G37*
G36*
X98067395Y-102590546D02*
G01*
X98240466Y-102662234D01*
X98312069Y-102710078D01*
X98396227Y-102766310D01*
X98528690Y-102898773D01*
X98560249Y-102946005D01*
X98632766Y-103054534D01*
X98704454Y-103227605D01*
X98741000Y-103411333D01*
X98741000Y-103598667D01*
X98704454Y-103782395D01*
X98632766Y-103955466D01*
X98631467Y-103957410D01*
X98528690Y-104111227D01*
X98396227Y-104243690D01*
X98317818Y-104296081D01*
X98240466Y-104347766D01*
X98067395Y-104419454D01*
X97883667Y-104456000D01*
X97696333Y-104456000D01*
X97512605Y-104419454D01*
X97339534Y-104347766D01*
X97262182Y-104296081D01*
X97183773Y-104243690D01*
X97051310Y-104111227D01*
X96948533Y-103957410D01*
X96947234Y-103955466D01*
X96875546Y-103782395D01*
X96839000Y-103598667D01*
X96839000Y-103411333D01*
X96875546Y-103227605D01*
X96947234Y-103054534D01*
X97019751Y-102946005D01*
X97051310Y-102898773D01*
X97183773Y-102766310D01*
X97267931Y-102710078D01*
X97339534Y-102662234D01*
X97512605Y-102590546D01*
X97696333Y-102554000D01*
X97883667Y-102554000D01*
X98067395Y-102590546D01*
X98067395Y-102590546D01*
G37*
G36*
X101281000Y-104456000D02*
G01*
X99379000Y-104456000D01*
X99379000Y-102554000D01*
X101281000Y-102554000D01*
X101281000Y-104456000D01*
X101281000Y-104456000D01*
G37*
G36*
X84401000Y-103821000D02*
G01*
X80699000Y-103821000D01*
X80699000Y-101919000D01*
X84401000Y-101919000D01*
X84401000Y-103821000D01*
X84401000Y-103821000D01*
G37*
G36*
X92876823Y-101396313D02*
G01*
X93037242Y-101444976D01*
X93169906Y-101515886D01*
X93185078Y-101523996D01*
X93314659Y-101630341D01*
X93421004Y-101759922D01*
X93421005Y-101759924D01*
X93500024Y-101907758D01*
X93548687Y-102068177D01*
X93565117Y-102235000D01*
X93548687Y-102401823D01*
X93500024Y-102562242D01*
X93429114Y-102694906D01*
X93421004Y-102710078D01*
X93314659Y-102839659D01*
X93185078Y-102946004D01*
X93185076Y-102946005D01*
X93037242Y-103025024D01*
X92876823Y-103073687D01*
X92751804Y-103086000D01*
X92668196Y-103086000D01*
X92543177Y-103073687D01*
X92382758Y-103025024D01*
X92234924Y-102946005D01*
X92234922Y-102946004D01*
X92105341Y-102839659D01*
X91998996Y-102710078D01*
X91990886Y-102694906D01*
X91919976Y-102562242D01*
X91871313Y-102401823D01*
X91854883Y-102235000D01*
X91871313Y-102068177D01*
X91919976Y-101907758D01*
X91998995Y-101759924D01*
X91998996Y-101759922D01*
X92105341Y-101630341D01*
X92234922Y-101523996D01*
X92250094Y-101515886D01*
X92382758Y-101444976D01*
X92543177Y-101396313D01*
X92668196Y-101384000D01*
X92751804Y-101384000D01*
X92876823Y-101396313D01*
X92876823Y-101396313D01*
G37*
G36*
X89701823Y-101396313D02*
G01*
X89862242Y-101444976D01*
X89994906Y-101515886D01*
X90010078Y-101523996D01*
X90139659Y-101630341D01*
X90246004Y-101759922D01*
X90246005Y-101759924D01*
X90325024Y-101907758D01*
X90373687Y-102068177D01*
X90390117Y-102235000D01*
X90373687Y-102401823D01*
X90325024Y-102562242D01*
X90254114Y-102694906D01*
X90246004Y-102710078D01*
X90139659Y-102839659D01*
X90010078Y-102946004D01*
X90010076Y-102946005D01*
X89862242Y-103025024D01*
X89701823Y-103073687D01*
X89576804Y-103086000D01*
X89493196Y-103086000D01*
X89368177Y-103073687D01*
X89207758Y-103025024D01*
X89059924Y-102946005D01*
X89059922Y-102946004D01*
X88930341Y-102839659D01*
X88823996Y-102710078D01*
X88815886Y-102694906D01*
X88744976Y-102562242D01*
X88696313Y-102401823D01*
X88679883Y-102235000D01*
X88696313Y-102068177D01*
X88744976Y-101907758D01*
X88823995Y-101759924D01*
X88823996Y-101759922D01*
X88930341Y-101630341D01*
X89059922Y-101523996D01*
X89075094Y-101515886D01*
X89207758Y-101444976D01*
X89368177Y-101396313D01*
X89493196Y-101384000D01*
X89576804Y-101384000D01*
X89701823Y-101396313D01*
X89701823Y-101396313D01*
G37*
G36*
X112326823Y-100761313D02*
G01*
X112487242Y-100809976D01*
X112619906Y-100880886D01*
X112635078Y-100888996D01*
X112764659Y-100995341D01*
X112871004Y-101124922D01*
X112871005Y-101124924D01*
X112950024Y-101272758D01*
X112998687Y-101433177D01*
X113015117Y-101600000D01*
X112998687Y-101766823D01*
X112950024Y-101927242D01*
X112879114Y-102059906D01*
X112871004Y-102075078D01*
X112764659Y-102204659D01*
X112635078Y-102311004D01*
X112635076Y-102311005D01*
X112487242Y-102390024D01*
X112326823Y-102438687D01*
X112201804Y-102451000D01*
X111318196Y-102451000D01*
X111193177Y-102438687D01*
X111032758Y-102390024D01*
X110884924Y-102311005D01*
X110884922Y-102311004D01*
X110755341Y-102204659D01*
X110648996Y-102075078D01*
X110640886Y-102059906D01*
X110569976Y-101927242D01*
X110521313Y-101766823D01*
X110504883Y-101600000D01*
X110521313Y-101433177D01*
X110569976Y-101272758D01*
X110648995Y-101124924D01*
X110648996Y-101124922D01*
X110755341Y-100995341D01*
X110884922Y-100888996D01*
X110900094Y-100880886D01*
X111032758Y-100809976D01*
X111193177Y-100761313D01*
X111318196Y-100749000D01*
X112201804Y-100749000D01*
X112326823Y-100761313D01*
X112326823Y-100761313D01*
G37*
G36*
X104706823Y-100761313D02*
G01*
X104867242Y-100809976D01*
X104999906Y-100880886D01*
X105015078Y-100888996D01*
X105144659Y-100995341D01*
X105251004Y-101124922D01*
X105251005Y-101124924D01*
X105330024Y-101272758D01*
X105378687Y-101433177D01*
X105395117Y-101600000D01*
X105378687Y-101766823D01*
X105330024Y-101927242D01*
X105259114Y-102059906D01*
X105251004Y-102075078D01*
X105144659Y-102204659D01*
X105015078Y-102311004D01*
X105015076Y-102311005D01*
X104867242Y-102390024D01*
X104706823Y-102438687D01*
X104581804Y-102451000D01*
X103698196Y-102451000D01*
X103573177Y-102438687D01*
X103412758Y-102390024D01*
X103264924Y-102311005D01*
X103264922Y-102311004D01*
X103135341Y-102204659D01*
X103028996Y-102075078D01*
X103020886Y-102059906D01*
X102949976Y-101927242D01*
X102901313Y-101766823D01*
X102884883Y-101600000D01*
X102901313Y-101433177D01*
X102949976Y-101272758D01*
X103028995Y-101124924D01*
X103028996Y-101124922D01*
X103135341Y-100995341D01*
X103264922Y-100888996D01*
X103280094Y-100880886D01*
X103412758Y-100809976D01*
X103573177Y-100761313D01*
X103698196Y-100749000D01*
X104581804Y-100749000D01*
X104706823Y-100761313D01*
X104706823Y-100761313D01*
G37*
G36*
X112326823Y-98221313D02*
G01*
X112487242Y-98269976D01*
X112554638Y-98306000D01*
X112635078Y-98348996D01*
X112764659Y-98455341D01*
X112871004Y-98584922D01*
X112871005Y-98584924D01*
X112950024Y-98732758D01*
X112998687Y-98893177D01*
X113015117Y-99060000D01*
X112998687Y-99226823D01*
X112950024Y-99387242D01*
X112879114Y-99519906D01*
X112871004Y-99535078D01*
X112764659Y-99664659D01*
X112635078Y-99771004D01*
X112635076Y-99771005D01*
X112487242Y-99850024D01*
X112326823Y-99898687D01*
X112201804Y-99911000D01*
X111318196Y-99911000D01*
X111193177Y-99898687D01*
X111032758Y-99850024D01*
X110884924Y-99771005D01*
X110884922Y-99771004D01*
X110755341Y-99664659D01*
X110648996Y-99535078D01*
X110640886Y-99519906D01*
X110569976Y-99387242D01*
X110521313Y-99226823D01*
X110504883Y-99060000D01*
X110521313Y-98893177D01*
X110569976Y-98732758D01*
X110648995Y-98584924D01*
X110648996Y-98584922D01*
X110755341Y-98455341D01*
X110884922Y-98348996D01*
X110965362Y-98306000D01*
X111032758Y-98269976D01*
X111193177Y-98221313D01*
X111318196Y-98209000D01*
X112201804Y-98209000D01*
X112326823Y-98221313D01*
X112326823Y-98221313D01*
G37*
G36*
X104706823Y-98221313D02*
G01*
X104867242Y-98269976D01*
X104934638Y-98306000D01*
X105015078Y-98348996D01*
X105144659Y-98455341D01*
X105251004Y-98584922D01*
X105251005Y-98584924D01*
X105330024Y-98732758D01*
X105378687Y-98893177D01*
X105395117Y-99060000D01*
X105378687Y-99226823D01*
X105330024Y-99387242D01*
X105259114Y-99519906D01*
X105251004Y-99535078D01*
X105144659Y-99664659D01*
X105015078Y-99771004D01*
X105015076Y-99771005D01*
X104867242Y-99850024D01*
X104706823Y-99898687D01*
X104581804Y-99911000D01*
X103698196Y-99911000D01*
X103573177Y-99898687D01*
X103412758Y-99850024D01*
X103264924Y-99771005D01*
X103264922Y-99771004D01*
X103135341Y-99664659D01*
X103028996Y-99535078D01*
X103020886Y-99519906D01*
X102949976Y-99387242D01*
X102901313Y-99226823D01*
X102884883Y-99060000D01*
X102901313Y-98893177D01*
X102949976Y-98732758D01*
X103028995Y-98584924D01*
X103028996Y-98584922D01*
X103135341Y-98455341D01*
X103264922Y-98348996D01*
X103345362Y-98306000D01*
X103412758Y-98269976D01*
X103573177Y-98221313D01*
X103698196Y-98209000D01*
X104581804Y-98209000D01*
X104706823Y-98221313D01*
X104706823Y-98221313D01*
G37*
G36*
X153567585Y-95983802D02*
G01*
X153717410Y-96013604D01*
X153999674Y-96130521D01*
X154253705Y-96300259D01*
X154469741Y-96516295D01*
X154639479Y-96770326D01*
X154756396Y-97052590D01*
X154816000Y-97352240D01*
X154816000Y-97657760D01*
X154756396Y-97957410D01*
X154639479Y-98239674D01*
X154469741Y-98493705D01*
X154253705Y-98709741D01*
X153999674Y-98879479D01*
X153717410Y-98996396D01*
X153567585Y-99026198D01*
X153417761Y-99056000D01*
X153112239Y-99056000D01*
X152962415Y-99026198D01*
X152812590Y-98996396D01*
X152530326Y-98879479D01*
X152276295Y-98709741D01*
X152060259Y-98493705D01*
X151890521Y-98239674D01*
X151773604Y-97957410D01*
X151714000Y-97657760D01*
X151714000Y-97352240D01*
X151773604Y-97052590D01*
X151890521Y-96770326D01*
X152060259Y-96516295D01*
X152276295Y-96300259D01*
X152530326Y-96130521D01*
X152812590Y-96013604D01*
X152962415Y-95983802D01*
X153112239Y-95954000D01*
X153417761Y-95954000D01*
X153567585Y-95983802D01*
X153567585Y-95983802D01*
G37*
G36*
X141394487Y-96303996D02*
G01*
X141631253Y-96402068D01*
X141631255Y-96402069D01*
X141844339Y-96544447D01*
X142025553Y-96725661D01*
X142100108Y-96837240D01*
X142167932Y-96938747D01*
X142266004Y-97175513D01*
X142316000Y-97426861D01*
X142316000Y-97683139D01*
X142266004Y-97934487D01*
X142167932Y-98171253D01*
X142167931Y-98171255D01*
X142025553Y-98384339D01*
X141844339Y-98565553D01*
X141631255Y-98707931D01*
X141631254Y-98707932D01*
X141631253Y-98707932D01*
X141394487Y-98806004D01*
X141143139Y-98856000D01*
X140886861Y-98856000D01*
X140635513Y-98806004D01*
X140398747Y-98707932D01*
X140398746Y-98707932D01*
X140398745Y-98707931D01*
X140185661Y-98565553D01*
X140004447Y-98384339D01*
X139862069Y-98171255D01*
X139862068Y-98171253D01*
X139763996Y-97934487D01*
X139714000Y-97683139D01*
X139714000Y-97426861D01*
X139763996Y-97175513D01*
X139862068Y-96938747D01*
X139929893Y-96837240D01*
X140004447Y-96725661D01*
X140185661Y-96544447D01*
X140398745Y-96402069D01*
X140398747Y-96402068D01*
X140635513Y-96303996D01*
X140886861Y-96254000D01*
X141143139Y-96254000D01*
X141394487Y-96303996D01*
X141394487Y-96303996D01*
G37*
G36*
X133866000Y-98306000D02*
G01*
X131564000Y-98306000D01*
X131564000Y-96004000D01*
X133866000Y-96004000D01*
X133866000Y-98306000D01*
X133866000Y-98306000D01*
G37*
G36*
X104706823Y-95681313D02*
G01*
X104867242Y-95729976D01*
X104999906Y-95800886D01*
X105015078Y-95808996D01*
X105144659Y-95915341D01*
X105251004Y-96044922D01*
X105251005Y-96044924D01*
X105330024Y-96192758D01*
X105378687Y-96353177D01*
X105395117Y-96520000D01*
X105378687Y-96686823D01*
X105330024Y-96847242D01*
X105259114Y-96979906D01*
X105251004Y-96995078D01*
X105144659Y-97124659D01*
X105015078Y-97231004D01*
X105015076Y-97231005D01*
X104867242Y-97310024D01*
X104706823Y-97358687D01*
X104581804Y-97371000D01*
X103698196Y-97371000D01*
X103573177Y-97358687D01*
X103412758Y-97310024D01*
X103264924Y-97231005D01*
X103264922Y-97231004D01*
X103135341Y-97124659D01*
X103028996Y-96995078D01*
X103020886Y-96979906D01*
X102949976Y-96847242D01*
X102901313Y-96686823D01*
X102884883Y-96520000D01*
X102901313Y-96353177D01*
X102949976Y-96192758D01*
X103028995Y-96044924D01*
X103028996Y-96044922D01*
X103135341Y-95915341D01*
X103264922Y-95808996D01*
X103280094Y-95800886D01*
X103412758Y-95729976D01*
X103573177Y-95681313D01*
X103698196Y-95669000D01*
X104581804Y-95669000D01*
X104706823Y-95681313D01*
X104706823Y-95681313D01*
G37*
G36*
X112326823Y-95681313D02*
G01*
X112487242Y-95729976D01*
X112619906Y-95800886D01*
X112635078Y-95808996D01*
X112764659Y-95915341D01*
X112871004Y-96044922D01*
X112871005Y-96044924D01*
X112950024Y-96192758D01*
X112998687Y-96353177D01*
X113015117Y-96520000D01*
X112998687Y-96686823D01*
X112950024Y-96847242D01*
X112879114Y-96979906D01*
X112871004Y-96995078D01*
X112764659Y-97124659D01*
X112635078Y-97231004D01*
X112635076Y-97231005D01*
X112487242Y-97310024D01*
X112326823Y-97358687D01*
X112201804Y-97371000D01*
X111318196Y-97371000D01*
X111193177Y-97358687D01*
X111032758Y-97310024D01*
X110884924Y-97231005D01*
X110884922Y-97231004D01*
X110755341Y-97124659D01*
X110648996Y-96995078D01*
X110640886Y-96979906D01*
X110569976Y-96847242D01*
X110521313Y-96686823D01*
X110504883Y-96520000D01*
X110521313Y-96353177D01*
X110569976Y-96192758D01*
X110648995Y-96044924D01*
X110648996Y-96044922D01*
X110755341Y-95915341D01*
X110884922Y-95808996D01*
X110900094Y-95800886D01*
X111032758Y-95729976D01*
X111193177Y-95681313D01*
X111318196Y-95669000D01*
X112201804Y-95669000D01*
X112326823Y-95681313D01*
X112326823Y-95681313D01*
G37*
G36*
X83636425Y-94962760D02*
G01*
X83636428Y-94962761D01*
X83636429Y-94962761D01*
X83815693Y-95017140D01*
X83815696Y-95017142D01*
X83815697Y-95017142D01*
X83980903Y-95105446D01*
X84125712Y-95224288D01*
X84244554Y-95369097D01*
X84289768Y-95453687D01*
X84332860Y-95534307D01*
X84377454Y-95681314D01*
X84387240Y-95713575D01*
X84405601Y-95900000D01*
X84387240Y-96086425D01*
X84387239Y-96086428D01*
X84387239Y-96086429D01*
X84332860Y-96265693D01*
X84332858Y-96265696D01*
X84332858Y-96265697D01*
X84244554Y-96430903D01*
X84125712Y-96575712D01*
X83980903Y-96694554D01*
X83839139Y-96770328D01*
X83815693Y-96782860D01*
X83636429Y-96837239D01*
X83636428Y-96837239D01*
X83636425Y-96837240D01*
X83496718Y-96851000D01*
X81603282Y-96851000D01*
X81463575Y-96837240D01*
X81463572Y-96837239D01*
X81463571Y-96837239D01*
X81284307Y-96782860D01*
X81260861Y-96770328D01*
X81119097Y-96694554D01*
X80974288Y-96575712D01*
X80855446Y-96430903D01*
X80767142Y-96265697D01*
X80767142Y-96265696D01*
X80767140Y-96265693D01*
X80712761Y-96086429D01*
X80712761Y-96086428D01*
X80712760Y-96086425D01*
X80694399Y-95900000D01*
X80712760Y-95713575D01*
X80722546Y-95681314D01*
X80767140Y-95534307D01*
X80810232Y-95453687D01*
X80855446Y-95369097D01*
X80974288Y-95224288D01*
X81119097Y-95105446D01*
X81284303Y-95017142D01*
X81284304Y-95017142D01*
X81284307Y-95017140D01*
X81463571Y-94962761D01*
X81463572Y-94962761D01*
X81463575Y-94962760D01*
X81603282Y-94949000D01*
X83496718Y-94949000D01*
X83636425Y-94962760D01*
X83636425Y-94962760D01*
G37*
G36*
X126931823Y-93776313D02*
G01*
X127092242Y-93824976D01*
X127224906Y-93895886D01*
X127240078Y-93903996D01*
X127369659Y-94010341D01*
X127476004Y-94139922D01*
X127476005Y-94139924D01*
X127555024Y-94287758D01*
X127603687Y-94448177D01*
X127620117Y-94615000D01*
X127603687Y-94781823D01*
X127555024Y-94942242D01*
X127544056Y-94962761D01*
X127476004Y-95090078D01*
X127369659Y-95219659D01*
X127240078Y-95326004D01*
X127240076Y-95326005D01*
X127092242Y-95405024D01*
X126931823Y-95453687D01*
X126806804Y-95466000D01*
X125923196Y-95466000D01*
X125798177Y-95453687D01*
X125637758Y-95405024D01*
X125489924Y-95326005D01*
X125489922Y-95326004D01*
X125360341Y-95219659D01*
X125253996Y-95090078D01*
X125185944Y-94962761D01*
X125174976Y-94942242D01*
X125126313Y-94781823D01*
X125109883Y-94615000D01*
X125126313Y-94448177D01*
X125174976Y-94287758D01*
X125253995Y-94139924D01*
X125253996Y-94139922D01*
X125360341Y-94010341D01*
X125489922Y-93903996D01*
X125505094Y-93895886D01*
X125637758Y-93824976D01*
X125798177Y-93776313D01*
X125923196Y-93764000D01*
X126806804Y-93764000D01*
X126931823Y-93776313D01*
X126931823Y-93776313D01*
G37*
G36*
X119311823Y-93776313D02*
G01*
X119472242Y-93824976D01*
X119604906Y-93895886D01*
X119620078Y-93903996D01*
X119749659Y-94010341D01*
X119856004Y-94139922D01*
X119856005Y-94139924D01*
X119935024Y-94287758D01*
X119983687Y-94448177D01*
X120000117Y-94615000D01*
X119983687Y-94781823D01*
X119935024Y-94942242D01*
X119924056Y-94962761D01*
X119856004Y-95090078D01*
X119749659Y-95219659D01*
X119620078Y-95326004D01*
X119620076Y-95326005D01*
X119472242Y-95405024D01*
X119311823Y-95453687D01*
X119186804Y-95466000D01*
X118303196Y-95466000D01*
X118178177Y-95453687D01*
X118017758Y-95405024D01*
X117869924Y-95326005D01*
X117869922Y-95326004D01*
X117740341Y-95219659D01*
X117633996Y-95090078D01*
X117565944Y-94962761D01*
X117554976Y-94942242D01*
X117506313Y-94781823D01*
X117489883Y-94615000D01*
X117506313Y-94448177D01*
X117554976Y-94287758D01*
X117633995Y-94139924D01*
X117633996Y-94139922D01*
X117740341Y-94010341D01*
X117869922Y-93903996D01*
X117885094Y-93895886D01*
X118017758Y-93824976D01*
X118178177Y-93776313D01*
X118303196Y-93764000D01*
X119186804Y-93764000D01*
X119311823Y-93776313D01*
X119311823Y-93776313D01*
G37*
G36*
X112326823Y-93141313D02*
G01*
X112487242Y-93189976D01*
X112619906Y-93260886D01*
X112635078Y-93268996D01*
X112764659Y-93375341D01*
X112871004Y-93504922D01*
X112871005Y-93504924D01*
X112950024Y-93652758D01*
X112998687Y-93813177D01*
X113015117Y-93980000D01*
X112998687Y-94146823D01*
X112950024Y-94307242D01*
X112929307Y-94346000D01*
X112871004Y-94455078D01*
X112764659Y-94584659D01*
X112635078Y-94691004D01*
X112635076Y-94691005D01*
X112487242Y-94770024D01*
X112326823Y-94818687D01*
X112201804Y-94831000D01*
X111318196Y-94831000D01*
X111193177Y-94818687D01*
X111032758Y-94770024D01*
X110884924Y-94691005D01*
X110884922Y-94691004D01*
X110755341Y-94584659D01*
X110648996Y-94455078D01*
X110590693Y-94346000D01*
X110569976Y-94307242D01*
X110521313Y-94146823D01*
X110504883Y-93980000D01*
X110521313Y-93813177D01*
X110569976Y-93652758D01*
X110648995Y-93504924D01*
X110648996Y-93504922D01*
X110755341Y-93375341D01*
X110884922Y-93268996D01*
X110900094Y-93260886D01*
X111032758Y-93189976D01*
X111193177Y-93141313D01*
X111318196Y-93129000D01*
X112201804Y-93129000D01*
X112326823Y-93141313D01*
X112326823Y-93141313D01*
G37*
G36*
X104706823Y-93141313D02*
G01*
X104867242Y-93189976D01*
X104999906Y-93260886D01*
X105015078Y-93268996D01*
X105144659Y-93375341D01*
X105251004Y-93504922D01*
X105251005Y-93504924D01*
X105330024Y-93652758D01*
X105378687Y-93813177D01*
X105395117Y-93980000D01*
X105378687Y-94146823D01*
X105330024Y-94307242D01*
X105309307Y-94346000D01*
X105251004Y-94455078D01*
X105144659Y-94584659D01*
X105015078Y-94691004D01*
X105015076Y-94691005D01*
X104867242Y-94770024D01*
X104706823Y-94818687D01*
X104581804Y-94831000D01*
X103698196Y-94831000D01*
X103573177Y-94818687D01*
X103412758Y-94770024D01*
X103264924Y-94691005D01*
X103264922Y-94691004D01*
X103135341Y-94584659D01*
X103028996Y-94455078D01*
X102970693Y-94346000D01*
X102949976Y-94307242D01*
X102901313Y-94146823D01*
X102884883Y-93980000D01*
X102901313Y-93813177D01*
X102949976Y-93652758D01*
X103028995Y-93504924D01*
X103028996Y-93504922D01*
X103135341Y-93375341D01*
X103264922Y-93268996D01*
X103280094Y-93260886D01*
X103412758Y-93189976D01*
X103573177Y-93141313D01*
X103698196Y-93129000D01*
X104581804Y-93129000D01*
X104706823Y-93141313D01*
X104706823Y-93141313D01*
G37*
G36*
X153484093Y-91517140D02*
G01*
X153667410Y-91553604D01*
X153949674Y-91670521D01*
X154203705Y-91840259D01*
X154419741Y-92056295D01*
X154589479Y-92310326D01*
X154671577Y-92508530D01*
X154706396Y-92592591D01*
X154766000Y-92892239D01*
X154766000Y-93197761D01*
X154751830Y-93268996D01*
X154706396Y-93497410D01*
X154589479Y-93779674D01*
X154419741Y-94033705D01*
X154203705Y-94249741D01*
X153949674Y-94419479D01*
X153667410Y-94536396D01*
X153517585Y-94566198D01*
X153367761Y-94596000D01*
X153062239Y-94596000D01*
X152912415Y-94566198D01*
X152762590Y-94536396D01*
X152480326Y-94419479D01*
X152226295Y-94249741D01*
X152010259Y-94033705D01*
X151840521Y-93779674D01*
X151723604Y-93497410D01*
X151678170Y-93268996D01*
X151664000Y-93197761D01*
X151664000Y-92892239D01*
X151723604Y-92592591D01*
X151758423Y-92508530D01*
X151840521Y-92310326D01*
X152010259Y-92056295D01*
X152226295Y-91840259D01*
X152480326Y-91670521D01*
X152762590Y-91553604D01*
X152945907Y-91517140D01*
X153062239Y-91494000D01*
X153367761Y-91494000D01*
X153484093Y-91517140D01*
X153484093Y-91517140D01*
G37*
G36*
X141394487Y-91793996D02*
G01*
X141575796Y-91869097D01*
X141631255Y-91892069D01*
X141844339Y-92034447D01*
X142025553Y-92215661D01*
X142149829Y-92401653D01*
X142167932Y-92428747D01*
X142266004Y-92665513D01*
X142316000Y-92916861D01*
X142316000Y-93173139D01*
X142266004Y-93424487D01*
X142167932Y-93661253D01*
X142167931Y-93661255D01*
X142025553Y-93874339D01*
X141844339Y-94055553D01*
X141631255Y-94197931D01*
X141631254Y-94197932D01*
X141631253Y-94197932D01*
X141394487Y-94296004D01*
X141143139Y-94346000D01*
X140886861Y-94346000D01*
X140635513Y-94296004D01*
X140398747Y-94197932D01*
X140398746Y-94197932D01*
X140398745Y-94197931D01*
X140185661Y-94055553D01*
X140004447Y-93874339D01*
X139862069Y-93661255D01*
X139862068Y-93661253D01*
X139763996Y-93424487D01*
X139714000Y-93173139D01*
X139714000Y-92916861D01*
X139763996Y-92665513D01*
X139862068Y-92428747D01*
X139880172Y-92401653D01*
X140004447Y-92215661D01*
X140185661Y-92034447D01*
X140398745Y-91892069D01*
X140454204Y-91869097D01*
X140635513Y-91793996D01*
X140886861Y-91744000D01*
X141143139Y-91744000D01*
X141394487Y-91793996D01*
X141394487Y-91793996D01*
G37*
G36*
X83636425Y-91462760D02*
G01*
X83636428Y-91462761D01*
X83636429Y-91462761D01*
X83815693Y-91517140D01*
X83815696Y-91517142D01*
X83815697Y-91517142D01*
X83980903Y-91605446D01*
X84125712Y-91724288D01*
X84244554Y-91869097D01*
X84322911Y-92015694D01*
X84332860Y-92034307D01*
X84387239Y-92213571D01*
X84387240Y-92213575D01*
X84405601Y-92400000D01*
X84387240Y-92586425D01*
X84387239Y-92586428D01*
X84387239Y-92586429D01*
X84332860Y-92765693D01*
X84332858Y-92765696D01*
X84332858Y-92765697D01*
X84244554Y-92930903D01*
X84125712Y-93075712D01*
X83980903Y-93194554D01*
X83841631Y-93268996D01*
X83815693Y-93282860D01*
X83636429Y-93337239D01*
X83636428Y-93337239D01*
X83636425Y-93337240D01*
X83496718Y-93351000D01*
X81603282Y-93351000D01*
X81463575Y-93337240D01*
X81463572Y-93337239D01*
X81463571Y-93337239D01*
X81284307Y-93282860D01*
X81258369Y-93268996D01*
X81119097Y-93194554D01*
X80974288Y-93075712D01*
X80855446Y-92930903D01*
X80767142Y-92765697D01*
X80767142Y-92765696D01*
X80767140Y-92765693D01*
X80712761Y-92586429D01*
X80712761Y-92586428D01*
X80712760Y-92586425D01*
X80694399Y-92400000D01*
X80712760Y-92213575D01*
X80712761Y-92213571D01*
X80767140Y-92034307D01*
X80777089Y-92015694D01*
X80855446Y-91869097D01*
X80974288Y-91724288D01*
X81119097Y-91605446D01*
X81284303Y-91517142D01*
X81284304Y-91517142D01*
X81284307Y-91517140D01*
X81463571Y-91462761D01*
X81463572Y-91462761D01*
X81463575Y-91462760D01*
X81603282Y-91449000D01*
X83496718Y-91449000D01*
X83636425Y-91462760D01*
X83636425Y-91462760D01*
G37*
G36*
X119311823Y-91236313D02*
G01*
X119472242Y-91284976D01*
X119604906Y-91355886D01*
X119620078Y-91363996D01*
X119749659Y-91470341D01*
X119856004Y-91599922D01*
X119856005Y-91599924D01*
X119935024Y-91747758D01*
X119983687Y-91908177D01*
X120000117Y-92075000D01*
X119983687Y-92241823D01*
X119935024Y-92402242D01*
X119878212Y-92508529D01*
X119856004Y-92550078D01*
X119749659Y-92679659D01*
X119620078Y-92786004D01*
X119620076Y-92786005D01*
X119472242Y-92865024D01*
X119311823Y-92913687D01*
X119186804Y-92926000D01*
X118303196Y-92926000D01*
X118178177Y-92913687D01*
X118017758Y-92865024D01*
X117869924Y-92786005D01*
X117869922Y-92786004D01*
X117740341Y-92679659D01*
X117633996Y-92550078D01*
X117611788Y-92508529D01*
X117554976Y-92402242D01*
X117506313Y-92241823D01*
X117489883Y-92075000D01*
X117506313Y-91908177D01*
X117554976Y-91747758D01*
X117633995Y-91599924D01*
X117633996Y-91599922D01*
X117740341Y-91470341D01*
X117869922Y-91363996D01*
X117885094Y-91355886D01*
X118017758Y-91284976D01*
X118178177Y-91236313D01*
X118303196Y-91224000D01*
X119186804Y-91224000D01*
X119311823Y-91236313D01*
X119311823Y-91236313D01*
G37*
G36*
X126931823Y-91236313D02*
G01*
X127092242Y-91284976D01*
X127224906Y-91355886D01*
X127240078Y-91363996D01*
X127369659Y-91470341D01*
X127476004Y-91599922D01*
X127476005Y-91599924D01*
X127555024Y-91747758D01*
X127603687Y-91908177D01*
X127620117Y-92075000D01*
X127603687Y-92241823D01*
X127555024Y-92402242D01*
X127498212Y-92508529D01*
X127476004Y-92550078D01*
X127369659Y-92679659D01*
X127240078Y-92786004D01*
X127240076Y-92786005D01*
X127092242Y-92865024D01*
X126931823Y-92913687D01*
X126806804Y-92926000D01*
X125923196Y-92926000D01*
X125798177Y-92913687D01*
X125637758Y-92865024D01*
X125489924Y-92786005D01*
X125489922Y-92786004D01*
X125360341Y-92679659D01*
X125253996Y-92550078D01*
X125231788Y-92508529D01*
X125174976Y-92402242D01*
X125126313Y-92241823D01*
X125109883Y-92075000D01*
X125126313Y-91908177D01*
X125174976Y-91747758D01*
X125253995Y-91599924D01*
X125253996Y-91599922D01*
X125360341Y-91470341D01*
X125489922Y-91363996D01*
X125505094Y-91355886D01*
X125637758Y-91284976D01*
X125798177Y-91236313D01*
X125923196Y-91224000D01*
X126806804Y-91224000D01*
X126931823Y-91236313D01*
X126931823Y-91236313D01*
G37*
G36*
X132884271Y-90300103D02*
G01*
X132940635Y-90305654D01*
X133157600Y-90371470D01*
X133157602Y-90371471D01*
X133357555Y-90478347D01*
X133532818Y-90622182D01*
X133676653Y-90797445D01*
X133759454Y-90952357D01*
X133783530Y-90997400D01*
X133849346Y-91214365D01*
X133871569Y-91440000D01*
X133849346Y-91665635D01*
X133794325Y-91847015D01*
X133783529Y-91882602D01*
X133676653Y-92082555D01*
X133532818Y-92257818D01*
X133357555Y-92401653D01*
X133157602Y-92508529D01*
X133157600Y-92508530D01*
X132940635Y-92574346D01*
X132884271Y-92579897D01*
X132771545Y-92591000D01*
X132658455Y-92591000D01*
X132545729Y-92579897D01*
X132489365Y-92574346D01*
X132272400Y-92508530D01*
X132272398Y-92508529D01*
X132072445Y-92401653D01*
X131897182Y-92257818D01*
X131753347Y-92082555D01*
X131646471Y-91882602D01*
X131635676Y-91847015D01*
X131580654Y-91665635D01*
X131558431Y-91440000D01*
X131580654Y-91214365D01*
X131646470Y-90997400D01*
X131670546Y-90952357D01*
X131753347Y-90797445D01*
X131897182Y-90622182D01*
X132072445Y-90478347D01*
X132272398Y-90371471D01*
X132272400Y-90371470D01*
X132489365Y-90305654D01*
X132545729Y-90300103D01*
X132658455Y-90289000D01*
X132771545Y-90289000D01*
X132884271Y-90300103D01*
X132884271Y-90300103D01*
G37*
G36*
X104706823Y-90601313D02*
G01*
X104867242Y-90649976D01*
X104999906Y-90720886D01*
X105015078Y-90728996D01*
X105144659Y-90835341D01*
X105251004Y-90964922D01*
X105251005Y-90964924D01*
X105330024Y-91112758D01*
X105378687Y-91273177D01*
X105395117Y-91440000D01*
X105378687Y-91606823D01*
X105330024Y-91767242D01*
X105261288Y-91895837D01*
X105251004Y-91915078D01*
X105144659Y-92044659D01*
X105015078Y-92151004D01*
X105015076Y-92151005D01*
X104867242Y-92230024D01*
X104706823Y-92278687D01*
X104581804Y-92291000D01*
X103698196Y-92291000D01*
X103573177Y-92278687D01*
X103412758Y-92230024D01*
X103264924Y-92151005D01*
X103264922Y-92151004D01*
X103135341Y-92044659D01*
X103028996Y-91915078D01*
X103018712Y-91895837D01*
X102949976Y-91767242D01*
X102901313Y-91606823D01*
X102884883Y-91440000D01*
X102901313Y-91273177D01*
X102949976Y-91112758D01*
X103028995Y-90964924D01*
X103028996Y-90964922D01*
X103135341Y-90835341D01*
X103264922Y-90728996D01*
X103280094Y-90720886D01*
X103412758Y-90649976D01*
X103573177Y-90601313D01*
X103698196Y-90589000D01*
X104581804Y-90589000D01*
X104706823Y-90601313D01*
X104706823Y-90601313D01*
G37*
G36*
X112326823Y-90601313D02*
G01*
X112487242Y-90649976D01*
X112619906Y-90720886D01*
X112635078Y-90728996D01*
X112764659Y-90835341D01*
X112871004Y-90964922D01*
X112871005Y-90964924D01*
X112950024Y-91112758D01*
X112998687Y-91273177D01*
X113015117Y-91440000D01*
X112998687Y-91606823D01*
X112950024Y-91767242D01*
X112881288Y-91895837D01*
X112871004Y-91915078D01*
X112764659Y-92044659D01*
X112635078Y-92151004D01*
X112635076Y-92151005D01*
X112487242Y-92230024D01*
X112326823Y-92278687D01*
X112201804Y-92291000D01*
X111318196Y-92291000D01*
X111193177Y-92278687D01*
X111032758Y-92230024D01*
X110884924Y-92151005D01*
X110884922Y-92151004D01*
X110755341Y-92044659D01*
X110648996Y-91915078D01*
X110638712Y-91895837D01*
X110569976Y-91767242D01*
X110521313Y-91606823D01*
X110504883Y-91440000D01*
X110521313Y-91273177D01*
X110569976Y-91112758D01*
X110648995Y-90964924D01*
X110648996Y-90964922D01*
X110755341Y-90835341D01*
X110884922Y-90728996D01*
X110900094Y-90720886D01*
X111032758Y-90649976D01*
X111193177Y-90601313D01*
X111318196Y-90589000D01*
X112201804Y-90589000D01*
X112326823Y-90601313D01*
X112326823Y-90601313D01*
G37*
G36*
X163463097Y-89994069D02*
G01*
X163566032Y-90004207D01*
X163764146Y-90064305D01*
X163764149Y-90064306D01*
X163860975Y-90116061D01*
X163946729Y-90161897D01*
X164106765Y-90293235D01*
X164238103Y-90453271D01*
X164276435Y-90524985D01*
X164335694Y-90635851D01*
X164335695Y-90635854D01*
X164395793Y-90833968D01*
X164416085Y-91040000D01*
X164395793Y-91246032D01*
X164343128Y-91419642D01*
X164335694Y-91444149D01*
X164321694Y-91470341D01*
X164238103Y-91626729D01*
X164106765Y-91786765D01*
X163946729Y-91918103D01*
X163860975Y-91963939D01*
X163764149Y-92015694D01*
X163764146Y-92015695D01*
X163566032Y-92075793D01*
X163463097Y-92085931D01*
X163411631Y-92091000D01*
X161708369Y-92091000D01*
X161656903Y-92085931D01*
X161553968Y-92075793D01*
X161355854Y-92015695D01*
X161355851Y-92015694D01*
X161259025Y-91963939D01*
X161173271Y-91918103D01*
X161013235Y-91786765D01*
X160881897Y-91626729D01*
X160798306Y-91470341D01*
X160784306Y-91444149D01*
X160776872Y-91419642D01*
X160724207Y-91246032D01*
X160703915Y-91040000D01*
X160724207Y-90833968D01*
X160784305Y-90635854D01*
X160784306Y-90635851D01*
X160843565Y-90524985D01*
X160881897Y-90453271D01*
X161013235Y-90293235D01*
X161173271Y-90161897D01*
X161259025Y-90116061D01*
X161355851Y-90064306D01*
X161355854Y-90064305D01*
X161553968Y-90004207D01*
X161656903Y-89994069D01*
X161708369Y-89989000D01*
X163411631Y-89989000D01*
X163463097Y-89994069D01*
X163463097Y-89994069D01*
G37*
G36*
X92323228Y-90367703D02*
G01*
X92478100Y-90431853D01*
X92617481Y-90524985D01*
X92736015Y-90643519D01*
X92829147Y-90782900D01*
X92893297Y-90937772D01*
X92926000Y-91102184D01*
X92926000Y-91269816D01*
X92893297Y-91434228D01*
X92829147Y-91589100D01*
X92736015Y-91728481D01*
X92617481Y-91847015D01*
X92478100Y-91940147D01*
X92323228Y-92004297D01*
X92158816Y-92037000D01*
X91991184Y-92037000D01*
X91826772Y-92004297D01*
X91671900Y-91940147D01*
X91532519Y-91847015D01*
X91413985Y-91728481D01*
X91320853Y-91589100D01*
X91256703Y-91434228D01*
X91224000Y-91269816D01*
X91224000Y-91102184D01*
X91256703Y-90937772D01*
X91320853Y-90782900D01*
X91413985Y-90643519D01*
X91532519Y-90524985D01*
X91671900Y-90431853D01*
X91826772Y-90367703D01*
X91991184Y-90335000D01*
X92158816Y-90335000D01*
X92323228Y-90367703D01*
X92323228Y-90367703D01*
G37*
G36*
X89823228Y-90367703D02*
G01*
X89978100Y-90431853D01*
X90117481Y-90524985D01*
X90236015Y-90643519D01*
X90329147Y-90782900D01*
X90393297Y-90937772D01*
X90426000Y-91102184D01*
X90426000Y-91269816D01*
X90393297Y-91434228D01*
X90329147Y-91589100D01*
X90236015Y-91728481D01*
X90117481Y-91847015D01*
X89978100Y-91940147D01*
X89823228Y-92004297D01*
X89658816Y-92037000D01*
X89491184Y-92037000D01*
X89326772Y-92004297D01*
X89171900Y-91940147D01*
X89032519Y-91847015D01*
X88913985Y-91728481D01*
X88820853Y-91589100D01*
X88756703Y-91434228D01*
X88724000Y-91269816D01*
X88724000Y-91102184D01*
X88756703Y-90937772D01*
X88820853Y-90782900D01*
X88913985Y-90643519D01*
X89032519Y-90524985D01*
X89171900Y-90431853D01*
X89326772Y-90367703D01*
X89491184Y-90335000D01*
X89658816Y-90335000D01*
X89823228Y-90367703D01*
X89823228Y-90367703D01*
G37*
G36*
X97515642Y-90415781D02*
G01*
X97661414Y-90476162D01*
X97661416Y-90476163D01*
X97792608Y-90563822D01*
X97904178Y-90675392D01*
X97991837Y-90806584D01*
X97991838Y-90806586D01*
X98052219Y-90952358D01*
X98083000Y-91107107D01*
X98083000Y-91264893D01*
X98052219Y-91419642D01*
X98011834Y-91517140D01*
X97991837Y-91565416D01*
X97904178Y-91696608D01*
X97792608Y-91808178D01*
X97661416Y-91895837D01*
X97661415Y-91895838D01*
X97661414Y-91895838D01*
X97515642Y-91956219D01*
X97360893Y-91987000D01*
X97203107Y-91987000D01*
X97048358Y-91956219D01*
X96902586Y-91895838D01*
X96902585Y-91895838D01*
X96902584Y-91895837D01*
X96771392Y-91808178D01*
X96659822Y-91696608D01*
X96572163Y-91565416D01*
X96552166Y-91517140D01*
X96511781Y-91419642D01*
X96481000Y-91264893D01*
X96481000Y-91107107D01*
X96511781Y-90952358D01*
X96572162Y-90806586D01*
X96572163Y-90806584D01*
X96659822Y-90675392D01*
X96771392Y-90563822D01*
X96902584Y-90476163D01*
X96902586Y-90476162D01*
X97048358Y-90415781D01*
X97203107Y-90385000D01*
X97360893Y-90385000D01*
X97515642Y-90415781D01*
X97515642Y-90415781D01*
G37*
G36*
X119311823Y-88696313D02*
G01*
X119472242Y-88744976D01*
X119604906Y-88815886D01*
X119620078Y-88823996D01*
X119749659Y-88930341D01*
X119856004Y-89059922D01*
X119856005Y-89059924D01*
X119935024Y-89207758D01*
X119983687Y-89368177D01*
X120000117Y-89535000D01*
X119983687Y-89701823D01*
X119935024Y-89862242D01*
X119867270Y-89989000D01*
X119856004Y-90010078D01*
X119749659Y-90139659D01*
X119620078Y-90246004D01*
X119620076Y-90246005D01*
X119472242Y-90325024D01*
X119311823Y-90373687D01*
X119186804Y-90386000D01*
X118303196Y-90386000D01*
X118178177Y-90373687D01*
X118017758Y-90325024D01*
X117869924Y-90246005D01*
X117869922Y-90246004D01*
X117740341Y-90139659D01*
X117633996Y-90010078D01*
X117622730Y-89989000D01*
X117554976Y-89862242D01*
X117506313Y-89701823D01*
X117489883Y-89535000D01*
X117506313Y-89368177D01*
X117554976Y-89207758D01*
X117633995Y-89059924D01*
X117633996Y-89059922D01*
X117740341Y-88930341D01*
X117869922Y-88823996D01*
X117885094Y-88815886D01*
X118017758Y-88744976D01*
X118178177Y-88696313D01*
X118303196Y-88684000D01*
X119186804Y-88684000D01*
X119311823Y-88696313D01*
X119311823Y-88696313D01*
G37*
G36*
X126931823Y-88696313D02*
G01*
X127092242Y-88744976D01*
X127224906Y-88815886D01*
X127240078Y-88823996D01*
X127369659Y-88930341D01*
X127476004Y-89059922D01*
X127476005Y-89059924D01*
X127555024Y-89207758D01*
X127603687Y-89368177D01*
X127620117Y-89535000D01*
X127603687Y-89701823D01*
X127555024Y-89862242D01*
X127487270Y-89989000D01*
X127476004Y-90010078D01*
X127369659Y-90139659D01*
X127240078Y-90246004D01*
X127240076Y-90246005D01*
X127092242Y-90325024D01*
X126931823Y-90373687D01*
X126806804Y-90386000D01*
X125923196Y-90386000D01*
X125798177Y-90373687D01*
X125637758Y-90325024D01*
X125489924Y-90246005D01*
X125489922Y-90246004D01*
X125360341Y-90139659D01*
X125253996Y-90010078D01*
X125242730Y-89989000D01*
X125174976Y-89862242D01*
X125126313Y-89701823D01*
X125109883Y-89535000D01*
X125126313Y-89368177D01*
X125174976Y-89207758D01*
X125253995Y-89059924D01*
X125253996Y-89059922D01*
X125360341Y-88930341D01*
X125489922Y-88823996D01*
X125505094Y-88815886D01*
X125637758Y-88744976D01*
X125798177Y-88696313D01*
X125923196Y-88684000D01*
X126806804Y-88684000D01*
X126931823Y-88696313D01*
X126931823Y-88696313D01*
G37*
G36*
X84401000Y-89851000D02*
G01*
X80699000Y-89851000D01*
X80699000Y-87949000D01*
X84401000Y-87949000D01*
X84401000Y-89851000D01*
X84401000Y-89851000D01*
G37*
G36*
X104706823Y-88061313D02*
G01*
X104867242Y-88109976D01*
X104999906Y-88180886D01*
X105015078Y-88188996D01*
X105144659Y-88295341D01*
X105251004Y-88424922D01*
X105251005Y-88424924D01*
X105330024Y-88572758D01*
X105378687Y-88733177D01*
X105395117Y-88900000D01*
X105378687Y-89066823D01*
X105330024Y-89227242D01*
X105259114Y-89359906D01*
X105251004Y-89375078D01*
X105144659Y-89504659D01*
X105015078Y-89611004D01*
X105015076Y-89611005D01*
X104867242Y-89690024D01*
X104706823Y-89738687D01*
X104581804Y-89751000D01*
X103698196Y-89751000D01*
X103573177Y-89738687D01*
X103412758Y-89690024D01*
X103264924Y-89611005D01*
X103264922Y-89611004D01*
X103135341Y-89504659D01*
X103028996Y-89375078D01*
X103020886Y-89359906D01*
X102949976Y-89227242D01*
X102901313Y-89066823D01*
X102884883Y-88900000D01*
X102901313Y-88733177D01*
X102949976Y-88572758D01*
X103028995Y-88424924D01*
X103028996Y-88424922D01*
X103135341Y-88295341D01*
X103264922Y-88188996D01*
X103280094Y-88180886D01*
X103412758Y-88109976D01*
X103573177Y-88061313D01*
X103698196Y-88049000D01*
X104581804Y-88049000D01*
X104706823Y-88061313D01*
X104706823Y-88061313D01*
G37*
G36*
X112326823Y-88061313D02*
G01*
X112487242Y-88109976D01*
X112619906Y-88180886D01*
X112635078Y-88188996D01*
X112764659Y-88295341D01*
X112871004Y-88424922D01*
X112871005Y-88424924D01*
X112950024Y-88572758D01*
X112998687Y-88733177D01*
X113015117Y-88900000D01*
X112998687Y-89066823D01*
X112950024Y-89227242D01*
X112879114Y-89359906D01*
X112871004Y-89375078D01*
X112764659Y-89504659D01*
X112635078Y-89611004D01*
X112635076Y-89611005D01*
X112487242Y-89690024D01*
X112326823Y-89738687D01*
X112201804Y-89751000D01*
X111318196Y-89751000D01*
X111193177Y-89738687D01*
X111032758Y-89690024D01*
X110884924Y-89611005D01*
X110884922Y-89611004D01*
X110755341Y-89504659D01*
X110648996Y-89375078D01*
X110640886Y-89359906D01*
X110569976Y-89227242D01*
X110521313Y-89066823D01*
X110504883Y-88900000D01*
X110521313Y-88733177D01*
X110569976Y-88572758D01*
X110648995Y-88424924D01*
X110648996Y-88424922D01*
X110755341Y-88295341D01*
X110884922Y-88188996D01*
X110900094Y-88180886D01*
X111032758Y-88109976D01*
X111193177Y-88061313D01*
X111318196Y-88049000D01*
X112201804Y-88049000D01*
X112326823Y-88061313D01*
X112326823Y-88061313D01*
G37*
G36*
X139264369Y-85453271D02*
G01*
X139517410Y-85503604D01*
X139799674Y-85620521D01*
X140053705Y-85790259D01*
X140269741Y-86006295D01*
X140439479Y-86260326D01*
X140555175Y-86539643D01*
X140556396Y-86542591D01*
X140616000Y-86842239D01*
X140616000Y-87147761D01*
X140613203Y-87161823D01*
X140556396Y-87447410D01*
X140439479Y-87729674D01*
X140269741Y-87983705D01*
X140053705Y-88199741D01*
X139799674Y-88369479D01*
X139517410Y-88486396D01*
X139367585Y-88516198D01*
X139217761Y-88546000D01*
X138912239Y-88546000D01*
X138762415Y-88516198D01*
X138612590Y-88486396D01*
X138330326Y-88369479D01*
X138076295Y-88199741D01*
X137860259Y-87983705D01*
X137690521Y-87729674D01*
X137573604Y-87447410D01*
X137516797Y-87161823D01*
X137514000Y-87147761D01*
X137514000Y-86842239D01*
X137573604Y-86542591D01*
X137574825Y-86539643D01*
X137690521Y-86260326D01*
X137860259Y-86006295D01*
X138076295Y-85790259D01*
X138330326Y-85620521D01*
X138612590Y-85503604D01*
X138865631Y-85453271D01*
X138912239Y-85444000D01*
X139217761Y-85444000D01*
X139264369Y-85453271D01*
X139264369Y-85453271D01*
G37*
G36*
X119311823Y-86156313D02*
G01*
X119472242Y-86204976D01*
X119549052Y-86246032D01*
X119620078Y-86283996D01*
X119749659Y-86390341D01*
X119856004Y-86519922D01*
X119856005Y-86519924D01*
X119935024Y-86667758D01*
X119983687Y-86828177D01*
X120000117Y-86995000D01*
X119983687Y-87161823D01*
X119935024Y-87322242D01*
X119868121Y-87447409D01*
X119856004Y-87470078D01*
X119749659Y-87599659D01*
X119620078Y-87706004D01*
X119620076Y-87706005D01*
X119472242Y-87785024D01*
X119311823Y-87833687D01*
X119186804Y-87846000D01*
X118303196Y-87846000D01*
X118178177Y-87833687D01*
X118017758Y-87785024D01*
X117869924Y-87706005D01*
X117869922Y-87706004D01*
X117740341Y-87599659D01*
X117633996Y-87470078D01*
X117621879Y-87447409D01*
X117554976Y-87322242D01*
X117506313Y-87161823D01*
X117489883Y-86995000D01*
X117506313Y-86828177D01*
X117554976Y-86667758D01*
X117633995Y-86519924D01*
X117633996Y-86519922D01*
X117740341Y-86390341D01*
X117869922Y-86283996D01*
X117940948Y-86246032D01*
X118017758Y-86204976D01*
X118178177Y-86156313D01*
X118303196Y-86144000D01*
X119186804Y-86144000D01*
X119311823Y-86156313D01*
X119311823Y-86156313D01*
G37*
G36*
X126931823Y-86156313D02*
G01*
X127092242Y-86204976D01*
X127169052Y-86246032D01*
X127240078Y-86283996D01*
X127369659Y-86390341D01*
X127476004Y-86519922D01*
X127476005Y-86519924D01*
X127555024Y-86667758D01*
X127603687Y-86828177D01*
X127620117Y-86995000D01*
X127603687Y-87161823D01*
X127555024Y-87322242D01*
X127488121Y-87447409D01*
X127476004Y-87470078D01*
X127369659Y-87599659D01*
X127240078Y-87706004D01*
X127240076Y-87706005D01*
X127092242Y-87785024D01*
X126931823Y-87833687D01*
X126806804Y-87846000D01*
X125923196Y-87846000D01*
X125798177Y-87833687D01*
X125637758Y-87785024D01*
X125489924Y-87706005D01*
X125489922Y-87706004D01*
X125360341Y-87599659D01*
X125253996Y-87470078D01*
X125241879Y-87447409D01*
X125174976Y-87322242D01*
X125126313Y-87161823D01*
X125109883Y-86995000D01*
X125126313Y-86828177D01*
X125174976Y-86667758D01*
X125253995Y-86519924D01*
X125253996Y-86519922D01*
X125360341Y-86390341D01*
X125489922Y-86283996D01*
X125560948Y-86246032D01*
X125637758Y-86204976D01*
X125798177Y-86156313D01*
X125923196Y-86144000D01*
X126806804Y-86144000D01*
X126931823Y-86156313D01*
X126931823Y-86156313D01*
G37*
G36*
X104706823Y-85521313D02*
G01*
X104867242Y-85569976D01*
X104916234Y-85596163D01*
X105015078Y-85648996D01*
X105144659Y-85755341D01*
X105251004Y-85884922D01*
X105251005Y-85884924D01*
X105330024Y-86032758D01*
X105378687Y-86193177D01*
X105395117Y-86360000D01*
X105378687Y-86526823D01*
X105330024Y-86687242D01*
X105289477Y-86763100D01*
X105251004Y-86835078D01*
X105144659Y-86964659D01*
X105015078Y-87071004D01*
X105015076Y-87071005D01*
X104867242Y-87150024D01*
X104706823Y-87198687D01*
X104581804Y-87211000D01*
X103698196Y-87211000D01*
X103573177Y-87198687D01*
X103412758Y-87150024D01*
X103264924Y-87071005D01*
X103264922Y-87071004D01*
X103135341Y-86964659D01*
X103028996Y-86835078D01*
X102990523Y-86763100D01*
X102949976Y-86687242D01*
X102901313Y-86526823D01*
X102884883Y-86360000D01*
X102901313Y-86193177D01*
X102949976Y-86032758D01*
X103028995Y-85884924D01*
X103028996Y-85884922D01*
X103135341Y-85755341D01*
X103264922Y-85648996D01*
X103363766Y-85596163D01*
X103412758Y-85569976D01*
X103573177Y-85521313D01*
X103698196Y-85509000D01*
X104581804Y-85509000D01*
X104706823Y-85521313D01*
X104706823Y-85521313D01*
G37*
G36*
X92323228Y-85541703D02*
G01*
X92478100Y-85605853D01*
X92617481Y-85698985D01*
X92736015Y-85817519D01*
X92829147Y-85956900D01*
X92893297Y-86111772D01*
X92926000Y-86276184D01*
X92926000Y-86443816D01*
X92893297Y-86608228D01*
X92829147Y-86763100D01*
X92736015Y-86902481D01*
X92617481Y-87021015D01*
X92478100Y-87114147D01*
X92323228Y-87178297D01*
X92158816Y-87211000D01*
X91991184Y-87211000D01*
X91826772Y-87178297D01*
X91671900Y-87114147D01*
X91532519Y-87021015D01*
X91413985Y-86902481D01*
X91320853Y-86763100D01*
X91256703Y-86608228D01*
X91224000Y-86443816D01*
X91224000Y-86276184D01*
X91256703Y-86111772D01*
X91320853Y-85956900D01*
X91413985Y-85817519D01*
X91532519Y-85698985D01*
X91671900Y-85605853D01*
X91826772Y-85541703D01*
X91991184Y-85509000D01*
X92158816Y-85509000D01*
X92323228Y-85541703D01*
X92323228Y-85541703D01*
G37*
G36*
X89823228Y-85541703D02*
G01*
X89978100Y-85605853D01*
X90117481Y-85698985D01*
X90236015Y-85817519D01*
X90329147Y-85956900D01*
X90393297Y-86111772D01*
X90426000Y-86276184D01*
X90426000Y-86443816D01*
X90393297Y-86608228D01*
X90329147Y-86763100D01*
X90236015Y-86902481D01*
X90117481Y-87021015D01*
X89978100Y-87114147D01*
X89823228Y-87178297D01*
X89658816Y-87211000D01*
X89491184Y-87211000D01*
X89326772Y-87178297D01*
X89171900Y-87114147D01*
X89032519Y-87021015D01*
X88913985Y-86902481D01*
X88820853Y-86763100D01*
X88756703Y-86608228D01*
X88724000Y-86443816D01*
X88724000Y-86276184D01*
X88756703Y-86111772D01*
X88820853Y-85956900D01*
X88913985Y-85817519D01*
X89032519Y-85698985D01*
X89171900Y-85605853D01*
X89326772Y-85541703D01*
X89491184Y-85509000D01*
X89658816Y-85509000D01*
X89823228Y-85541703D01*
X89823228Y-85541703D01*
G37*
G36*
X112326823Y-85521313D02*
G01*
X112487242Y-85569976D01*
X112536234Y-85596163D01*
X112635078Y-85648996D01*
X112764659Y-85755341D01*
X112871004Y-85884922D01*
X112871005Y-85884924D01*
X112950024Y-86032758D01*
X112998687Y-86193177D01*
X113015117Y-86360000D01*
X112998687Y-86526823D01*
X112950024Y-86687242D01*
X112909477Y-86763100D01*
X112871004Y-86835078D01*
X112764659Y-86964659D01*
X112635078Y-87071004D01*
X112635076Y-87071005D01*
X112487242Y-87150024D01*
X112326823Y-87198687D01*
X112201804Y-87211000D01*
X111318196Y-87211000D01*
X111193177Y-87198687D01*
X111032758Y-87150024D01*
X110884924Y-87071005D01*
X110884922Y-87071004D01*
X110755341Y-86964659D01*
X110648996Y-86835078D01*
X110610523Y-86763100D01*
X110569976Y-86687242D01*
X110521313Y-86526823D01*
X110504883Y-86360000D01*
X110521313Y-86193177D01*
X110569976Y-86032758D01*
X110648995Y-85884924D01*
X110648996Y-85884922D01*
X110755341Y-85755341D01*
X110884922Y-85648996D01*
X110983766Y-85596163D01*
X111032758Y-85569976D01*
X111193177Y-85521313D01*
X111318196Y-85509000D01*
X112201804Y-85509000D01*
X112326823Y-85521313D01*
X112326823Y-85521313D01*
G37*
G36*
X97515642Y-85535781D02*
G01*
X97661414Y-85596162D01*
X97661416Y-85596163D01*
X97792608Y-85683822D01*
X97904178Y-85795392D01*
X97991837Y-85926584D01*
X97991838Y-85926586D01*
X98052219Y-86072358D01*
X98083000Y-86227107D01*
X98083000Y-86384893D01*
X98052219Y-86539642D01*
X98016146Y-86626729D01*
X97991837Y-86685416D01*
X97904178Y-86816608D01*
X97792608Y-86928178D01*
X97661416Y-87015837D01*
X97661415Y-87015838D01*
X97661414Y-87015838D01*
X97515642Y-87076219D01*
X97360893Y-87107000D01*
X97203107Y-87107000D01*
X97048358Y-87076219D01*
X96902586Y-87015838D01*
X96902585Y-87015838D01*
X96902584Y-87015837D01*
X96771392Y-86928178D01*
X96659822Y-86816608D01*
X96572163Y-86685416D01*
X96547854Y-86626729D01*
X96511781Y-86539642D01*
X96481000Y-86384893D01*
X96481000Y-86227107D01*
X96511781Y-86072358D01*
X96572162Y-85926586D01*
X96572163Y-85926584D01*
X96659822Y-85795392D01*
X96771392Y-85683822D01*
X96902584Y-85596163D01*
X96902586Y-85596162D01*
X97048358Y-85535781D01*
X97203107Y-85505000D01*
X97360893Y-85505000D01*
X97515642Y-85535781D01*
X97515642Y-85535781D01*
G37*
G36*
X163463097Y-84994069D02*
G01*
X163566032Y-85004207D01*
X163748830Y-85059659D01*
X163764149Y-85064306D01*
X163860975Y-85116061D01*
X163946729Y-85161897D01*
X164106765Y-85293235D01*
X164238103Y-85453271D01*
X164282205Y-85535781D01*
X164335694Y-85635851D01*
X164335695Y-85635854D01*
X164395793Y-85833968D01*
X164416085Y-86040000D01*
X164395793Y-86246032D01*
X164353669Y-86384893D01*
X164335694Y-86444149D01*
X164284652Y-86539642D01*
X164238103Y-86626729D01*
X164106765Y-86786765D01*
X163946729Y-86918103D01*
X163860975Y-86963939D01*
X163764149Y-87015694D01*
X163764146Y-87015695D01*
X163566032Y-87075793D01*
X163463097Y-87085931D01*
X163411631Y-87091000D01*
X161708369Y-87091000D01*
X161656903Y-87085931D01*
X161553968Y-87075793D01*
X161355854Y-87015695D01*
X161355851Y-87015694D01*
X161259025Y-86963939D01*
X161173271Y-86918103D01*
X161013235Y-86786765D01*
X160881897Y-86626729D01*
X160835348Y-86539642D01*
X160784306Y-86444149D01*
X160766331Y-86384893D01*
X160724207Y-86246032D01*
X160703915Y-86040000D01*
X160724207Y-85833968D01*
X160784305Y-85635854D01*
X160784306Y-85635851D01*
X160837795Y-85535781D01*
X160881897Y-85453271D01*
X161013235Y-85293235D01*
X161173271Y-85161897D01*
X161259025Y-85116061D01*
X161355851Y-85064306D01*
X161371170Y-85059659D01*
X161553968Y-85004207D01*
X161656903Y-84994069D01*
X161708369Y-84989000D01*
X163411631Y-84989000D01*
X163463097Y-84994069D01*
X163463097Y-84994069D01*
G37*
G36*
X119311823Y-83616313D02*
G01*
X119472242Y-83664976D01*
X119604906Y-83735886D01*
X119620078Y-83743996D01*
X119749659Y-83850341D01*
X119856004Y-83979922D01*
X119856005Y-83979924D01*
X119935024Y-84127758D01*
X119983687Y-84288177D01*
X120000117Y-84455000D01*
X119983687Y-84621823D01*
X119935024Y-84782242D01*
X119864114Y-84914906D01*
X119856004Y-84930078D01*
X119749659Y-85059659D01*
X119620078Y-85166004D01*
X119620076Y-85166005D01*
X119472242Y-85245024D01*
X119311823Y-85293687D01*
X119186804Y-85306000D01*
X118303196Y-85306000D01*
X118178177Y-85293687D01*
X118017758Y-85245024D01*
X117869924Y-85166005D01*
X117869922Y-85166004D01*
X117740341Y-85059659D01*
X117633996Y-84930078D01*
X117625886Y-84914906D01*
X117554976Y-84782242D01*
X117506313Y-84621823D01*
X117489883Y-84455000D01*
X117506313Y-84288177D01*
X117554976Y-84127758D01*
X117633995Y-83979924D01*
X117633996Y-83979922D01*
X117740341Y-83850341D01*
X117869922Y-83743996D01*
X117885094Y-83735886D01*
X118017758Y-83664976D01*
X118178177Y-83616313D01*
X118303196Y-83604000D01*
X119186804Y-83604000D01*
X119311823Y-83616313D01*
X119311823Y-83616313D01*
G37*
G36*
X126931823Y-83616313D02*
G01*
X127092242Y-83664976D01*
X127224906Y-83735886D01*
X127240078Y-83743996D01*
X127369659Y-83850341D01*
X127476004Y-83979922D01*
X127476005Y-83979924D01*
X127555024Y-84127758D01*
X127603687Y-84288177D01*
X127620117Y-84455000D01*
X127603687Y-84621823D01*
X127555024Y-84782242D01*
X127484114Y-84914906D01*
X127476004Y-84930078D01*
X127369659Y-85059659D01*
X127240078Y-85166004D01*
X127240076Y-85166005D01*
X127092242Y-85245024D01*
X126931823Y-85293687D01*
X126806804Y-85306000D01*
X125923196Y-85306000D01*
X125798177Y-85293687D01*
X125637758Y-85245024D01*
X125489924Y-85166005D01*
X125489922Y-85166004D01*
X125360341Y-85059659D01*
X125253996Y-84930078D01*
X125245886Y-84914906D01*
X125174976Y-84782242D01*
X125126313Y-84621823D01*
X125109883Y-84455000D01*
X125126313Y-84288177D01*
X125174976Y-84127758D01*
X125253995Y-83979924D01*
X125253996Y-83979922D01*
X125360341Y-83850341D01*
X125489922Y-83743996D01*
X125505094Y-83735886D01*
X125637758Y-83664976D01*
X125798177Y-83616313D01*
X125923196Y-83604000D01*
X126806804Y-83604000D01*
X126931823Y-83616313D01*
X126931823Y-83616313D01*
G37*
G36*
X112326823Y-82981313D02*
G01*
X112487242Y-83029976D01*
X112619906Y-83100886D01*
X112635078Y-83108996D01*
X112764659Y-83215341D01*
X112871004Y-83344922D01*
X112871005Y-83344924D01*
X112950024Y-83492758D01*
X112998687Y-83653177D01*
X113015117Y-83820000D01*
X112998687Y-83986823D01*
X112950024Y-84147242D01*
X112879114Y-84279906D01*
X112871004Y-84295078D01*
X112764659Y-84424659D01*
X112635078Y-84531004D01*
X112635076Y-84531005D01*
X112487242Y-84610024D01*
X112326823Y-84658687D01*
X112201804Y-84671000D01*
X111318196Y-84671000D01*
X111193177Y-84658687D01*
X111032758Y-84610024D01*
X110884924Y-84531005D01*
X110884922Y-84531004D01*
X110755341Y-84424659D01*
X110648996Y-84295078D01*
X110640886Y-84279906D01*
X110569976Y-84147242D01*
X110521313Y-83986823D01*
X110504883Y-83820000D01*
X110521313Y-83653177D01*
X110569976Y-83492758D01*
X110648995Y-83344924D01*
X110648996Y-83344922D01*
X110755341Y-83215341D01*
X110884922Y-83108996D01*
X110900094Y-83100886D01*
X111032758Y-83029976D01*
X111193177Y-82981313D01*
X111318196Y-82969000D01*
X112201804Y-82969000D01*
X112326823Y-82981313D01*
X112326823Y-82981313D01*
G37*
G36*
X105391000Y-84671000D02*
G01*
X102889000Y-84671000D01*
X102889000Y-82969000D01*
X105391000Y-82969000D01*
X105391000Y-84671000D01*
X105391000Y-84671000D01*
G37*
G36*
X126931823Y-81076313D02*
G01*
X127092242Y-81124976D01*
X127224906Y-81195886D01*
X127240078Y-81203996D01*
X127369659Y-81310341D01*
X127476004Y-81439922D01*
X127476005Y-81439924D01*
X127555024Y-81587758D01*
X127603687Y-81748177D01*
X127620117Y-81915000D01*
X127603687Y-82081823D01*
X127555024Y-82242242D01*
X127499564Y-82346000D01*
X127476004Y-82390078D01*
X127369659Y-82519659D01*
X127240078Y-82626004D01*
X127240076Y-82626005D01*
X127092242Y-82705024D01*
X126931823Y-82753687D01*
X126806804Y-82766000D01*
X125923196Y-82766000D01*
X125798177Y-82753687D01*
X125637758Y-82705024D01*
X125489924Y-82626005D01*
X125489922Y-82626004D01*
X125360341Y-82519659D01*
X125253996Y-82390078D01*
X125230436Y-82346000D01*
X125174976Y-82242242D01*
X125126313Y-82081823D01*
X125109883Y-81915000D01*
X125126313Y-81748177D01*
X125174976Y-81587758D01*
X125253995Y-81439924D01*
X125253996Y-81439922D01*
X125360341Y-81310341D01*
X125489922Y-81203996D01*
X125505094Y-81195886D01*
X125637758Y-81124976D01*
X125798177Y-81076313D01*
X125923196Y-81064000D01*
X126806804Y-81064000D01*
X126931823Y-81076313D01*
X126931823Y-81076313D01*
G37*
G36*
X119311823Y-81076313D02*
G01*
X119472242Y-81124976D01*
X119604906Y-81195886D01*
X119620078Y-81203996D01*
X119749659Y-81310341D01*
X119856004Y-81439922D01*
X119856005Y-81439924D01*
X119935024Y-81587758D01*
X119983687Y-81748177D01*
X120000117Y-81915000D01*
X119983687Y-82081823D01*
X119935024Y-82242242D01*
X119879564Y-82346000D01*
X119856004Y-82390078D01*
X119749659Y-82519659D01*
X119620078Y-82626004D01*
X119620076Y-82626005D01*
X119472242Y-82705024D01*
X119311823Y-82753687D01*
X119186804Y-82766000D01*
X118303196Y-82766000D01*
X118178177Y-82753687D01*
X118017758Y-82705024D01*
X117869924Y-82626005D01*
X117869922Y-82626004D01*
X117740341Y-82519659D01*
X117633996Y-82390078D01*
X117610436Y-82346000D01*
X117554976Y-82242242D01*
X117506313Y-82081823D01*
X117489883Y-81915000D01*
X117506313Y-81748177D01*
X117554976Y-81587758D01*
X117633995Y-81439924D01*
X117633996Y-81439922D01*
X117740341Y-81310341D01*
X117869922Y-81203996D01*
X117885094Y-81195886D01*
X118017758Y-81124976D01*
X118178177Y-81076313D01*
X118303196Y-81064000D01*
X119186804Y-81064000D01*
X119311823Y-81076313D01*
X119311823Y-81076313D01*
G37*
G36*
X153535998Y-79467519D02*
G01*
X153717410Y-79503604D01*
X153999674Y-79620521D01*
X154253705Y-79790259D01*
X154469741Y-80006295D01*
X154639479Y-80260326D01*
X154756396Y-80542590D01*
X154816000Y-80842240D01*
X154816000Y-81147760D01*
X154756396Y-81447410D01*
X154639479Y-81729674D01*
X154469741Y-81983705D01*
X154253705Y-82199741D01*
X153999674Y-82369479D01*
X153717410Y-82486396D01*
X153567585Y-82516198D01*
X153417761Y-82546000D01*
X153112239Y-82546000D01*
X152962415Y-82516198D01*
X152812590Y-82486396D01*
X152530326Y-82369479D01*
X152276295Y-82199741D01*
X152060259Y-81983705D01*
X151890521Y-81729674D01*
X151773604Y-81447410D01*
X151714000Y-81147760D01*
X151714000Y-80842240D01*
X151773604Y-80542590D01*
X151890521Y-80260326D01*
X152060259Y-80006295D01*
X152276295Y-79790259D01*
X152530326Y-79620521D01*
X152812590Y-79503604D01*
X152994002Y-79467519D01*
X153112239Y-79444000D01*
X153417761Y-79444000D01*
X153535998Y-79467519D01*
X153535998Y-79467519D01*
G37*
G36*
X133866000Y-82431000D02*
G01*
X131564000Y-82431000D01*
X131564000Y-80129000D01*
X133866000Y-80129000D01*
X133866000Y-82431000D01*
X133866000Y-82431000D01*
G37*
G36*
X141394487Y-79793996D02*
G01*
X141529880Y-79850078D01*
X141631255Y-79892069D01*
X141844339Y-80034447D01*
X142025553Y-80215661D01*
X142100108Y-80327240D01*
X142167932Y-80428747D01*
X142266004Y-80665513D01*
X142316000Y-80916861D01*
X142316000Y-81173139D01*
X142266004Y-81424487D01*
X142198373Y-81587761D01*
X142167931Y-81661255D01*
X142025553Y-81874339D01*
X141844339Y-82055553D01*
X141631255Y-82197931D01*
X141631254Y-82197932D01*
X141631253Y-82197932D01*
X141394487Y-82296004D01*
X141143139Y-82346000D01*
X140886861Y-82346000D01*
X140635513Y-82296004D01*
X140398747Y-82197932D01*
X140398746Y-82197932D01*
X140398745Y-82197931D01*
X140185661Y-82055553D01*
X140004447Y-81874339D01*
X139862069Y-81661255D01*
X139831627Y-81587761D01*
X139763996Y-81424487D01*
X139714000Y-81173139D01*
X139714000Y-80916861D01*
X139763996Y-80665513D01*
X139862068Y-80428747D01*
X139929893Y-80327240D01*
X140004447Y-80215661D01*
X140185661Y-80034447D01*
X140398745Y-79892069D01*
X140500120Y-79850078D01*
X140635513Y-79793996D01*
X140886861Y-79744000D01*
X141143139Y-79744000D01*
X141394487Y-79793996D01*
X141394487Y-79793996D01*
G37*
G36*
X163463097Y-79994069D02*
G01*
X163566032Y-80004207D01*
X163764146Y-80064305D01*
X163764149Y-80064306D01*
X163819356Y-80093815D01*
X163946729Y-80161897D01*
X164106765Y-80293235D01*
X164238103Y-80453271D01*
X164283939Y-80539025D01*
X164335694Y-80635851D01*
X164335695Y-80635854D01*
X164395793Y-80833968D01*
X164416085Y-81040000D01*
X164395793Y-81246032D01*
X164341658Y-81424488D01*
X164335694Y-81444149D01*
X164283939Y-81540975D01*
X164238103Y-81626729D01*
X164106765Y-81786765D01*
X163946729Y-81918103D01*
X163860975Y-81963939D01*
X163764149Y-82015694D01*
X163764146Y-82015695D01*
X163566032Y-82075793D01*
X163463097Y-82085931D01*
X163411631Y-82091000D01*
X161708369Y-82091000D01*
X161656903Y-82085931D01*
X161553968Y-82075793D01*
X161355854Y-82015695D01*
X161355851Y-82015694D01*
X161259025Y-81963939D01*
X161173271Y-81918103D01*
X161013235Y-81786765D01*
X160881897Y-81626729D01*
X160836061Y-81540975D01*
X160784306Y-81444149D01*
X160778342Y-81424488D01*
X160724207Y-81246032D01*
X160703915Y-81040000D01*
X160724207Y-80833968D01*
X160784305Y-80635854D01*
X160784306Y-80635851D01*
X160836061Y-80539025D01*
X160881897Y-80453271D01*
X161013235Y-80293235D01*
X161173271Y-80161897D01*
X161300644Y-80093815D01*
X161355851Y-80064306D01*
X161355854Y-80064305D01*
X161553968Y-80004207D01*
X161656903Y-79994069D01*
X161708369Y-79989000D01*
X163411631Y-79989000D01*
X163463097Y-79994069D01*
X163463097Y-79994069D01*
G37*
G36*
X106928228Y-79191703D02*
G01*
X107083100Y-79255853D01*
X107222481Y-79348985D01*
X107341015Y-79467519D01*
X107434147Y-79606900D01*
X107498297Y-79761772D01*
X107531000Y-79926184D01*
X107531000Y-80093816D01*
X107498297Y-80258228D01*
X107434147Y-80413100D01*
X107341015Y-80552481D01*
X107222481Y-80671015D01*
X107083100Y-80764147D01*
X106928228Y-80828297D01*
X106763816Y-80861000D01*
X106596184Y-80861000D01*
X106431772Y-80828297D01*
X106276900Y-80764147D01*
X106137519Y-80671015D01*
X106018985Y-80552481D01*
X105925853Y-80413100D01*
X105861703Y-80258228D01*
X105829000Y-80093816D01*
X105829000Y-79926184D01*
X105861703Y-79761772D01*
X105925853Y-79606900D01*
X106018985Y-79467519D01*
X106137519Y-79348985D01*
X106276900Y-79255853D01*
X106431772Y-79191703D01*
X106596184Y-79159000D01*
X106763816Y-79159000D01*
X106928228Y-79191703D01*
X106928228Y-79191703D01*
G37*
G36*
X109428228Y-79191703D02*
G01*
X109583100Y-79255853D01*
X109722481Y-79348985D01*
X109841015Y-79467519D01*
X109934147Y-79606900D01*
X109998297Y-79761772D01*
X110031000Y-79926184D01*
X110031000Y-80093816D01*
X109998297Y-80258228D01*
X109934147Y-80413100D01*
X109841015Y-80552481D01*
X109722481Y-80671015D01*
X109583100Y-80764147D01*
X109428228Y-80828297D01*
X109263816Y-80861000D01*
X109096184Y-80861000D01*
X108931772Y-80828297D01*
X108776900Y-80764147D01*
X108637519Y-80671015D01*
X108518985Y-80552481D01*
X108425853Y-80413100D01*
X108361703Y-80258228D01*
X108329000Y-80093816D01*
X108329000Y-79926184D01*
X108361703Y-79761772D01*
X108425853Y-79606900D01*
X108518985Y-79467519D01*
X108637519Y-79348985D01*
X108776900Y-79255853D01*
X108931772Y-79191703D01*
X109096184Y-79159000D01*
X109263816Y-79159000D01*
X109428228Y-79191703D01*
X109428228Y-79191703D01*
G37*
G36*
X83636425Y-78452760D02*
G01*
X83636428Y-78452761D01*
X83636429Y-78452761D01*
X83815693Y-78507140D01*
X83815696Y-78507142D01*
X83815697Y-78507142D01*
X83980903Y-78595446D01*
X84125712Y-78714288D01*
X84244554Y-78859097D01*
X84266375Y-78899922D01*
X84332860Y-79024307D01*
X84383639Y-79191703D01*
X84387240Y-79203575D01*
X84405601Y-79390000D01*
X84387240Y-79576425D01*
X84387239Y-79576428D01*
X84387239Y-79576429D01*
X84332860Y-79755693D01*
X84332858Y-79755696D01*
X84332858Y-79755697D01*
X84244554Y-79920903D01*
X84125712Y-80065712D01*
X83980903Y-80184554D01*
X83839139Y-80260328D01*
X83815693Y-80272860D01*
X83636429Y-80327239D01*
X83636428Y-80327239D01*
X83636425Y-80327240D01*
X83496718Y-80341000D01*
X81603282Y-80341000D01*
X81463575Y-80327240D01*
X81463572Y-80327239D01*
X81463571Y-80327239D01*
X81284307Y-80272860D01*
X81260861Y-80260328D01*
X81119097Y-80184554D01*
X80974288Y-80065712D01*
X80855446Y-79920903D01*
X80767142Y-79755697D01*
X80767142Y-79755696D01*
X80767140Y-79755693D01*
X80712761Y-79576429D01*
X80712761Y-79576428D01*
X80712760Y-79576425D01*
X80694399Y-79390000D01*
X80712760Y-79203575D01*
X80716361Y-79191703D01*
X80767140Y-79024307D01*
X80833625Y-78899922D01*
X80855446Y-78859097D01*
X80974288Y-78714288D01*
X81119097Y-78595446D01*
X81284303Y-78507142D01*
X81284304Y-78507142D01*
X81284307Y-78507140D01*
X81463571Y-78452761D01*
X81463572Y-78452761D01*
X81463575Y-78452760D01*
X81603282Y-78439000D01*
X83496718Y-78439000D01*
X83636425Y-78452760D01*
X83636425Y-78452760D01*
G37*
G36*
X126931823Y-78536313D02*
G01*
X127092242Y-78584976D01*
X127224906Y-78655886D01*
X127240078Y-78663996D01*
X127369659Y-78770341D01*
X127476004Y-78899922D01*
X127476005Y-78899924D01*
X127555024Y-79047758D01*
X127603687Y-79208177D01*
X127620117Y-79375000D01*
X127603687Y-79541823D01*
X127555024Y-79702242D01*
X127507978Y-79790259D01*
X127476004Y-79850078D01*
X127369659Y-79979659D01*
X127240078Y-80086004D01*
X127240076Y-80086005D01*
X127092242Y-80165024D01*
X126931823Y-80213687D01*
X126806804Y-80226000D01*
X125923196Y-80226000D01*
X125798177Y-80213687D01*
X125637758Y-80165024D01*
X125489924Y-80086005D01*
X125489922Y-80086004D01*
X125360341Y-79979659D01*
X125253996Y-79850078D01*
X125222022Y-79790259D01*
X125174976Y-79702242D01*
X125126313Y-79541823D01*
X125109883Y-79375000D01*
X125126313Y-79208177D01*
X125174976Y-79047758D01*
X125253995Y-78899924D01*
X125253996Y-78899922D01*
X125360341Y-78770341D01*
X125489922Y-78663996D01*
X125505094Y-78655886D01*
X125637758Y-78584976D01*
X125798177Y-78536313D01*
X125923196Y-78524000D01*
X126806804Y-78524000D01*
X126931823Y-78536313D01*
X126931823Y-78536313D01*
G37*
G36*
X119311823Y-78536313D02*
G01*
X119472242Y-78584976D01*
X119604906Y-78655886D01*
X119620078Y-78663996D01*
X119749659Y-78770341D01*
X119856004Y-78899922D01*
X119856005Y-78899924D01*
X119935024Y-79047758D01*
X119983687Y-79208177D01*
X120000117Y-79375000D01*
X119983687Y-79541823D01*
X119935024Y-79702242D01*
X119887978Y-79790259D01*
X119856004Y-79850078D01*
X119749659Y-79979659D01*
X119620078Y-80086004D01*
X119620076Y-80086005D01*
X119472242Y-80165024D01*
X119311823Y-80213687D01*
X119186804Y-80226000D01*
X118303196Y-80226000D01*
X118178177Y-80213687D01*
X118017758Y-80165024D01*
X117869924Y-80086005D01*
X117869922Y-80086004D01*
X117740341Y-79979659D01*
X117633996Y-79850078D01*
X117602022Y-79790259D01*
X117554976Y-79702242D01*
X117506313Y-79541823D01*
X117489883Y-79375000D01*
X117506313Y-79208177D01*
X117554976Y-79047758D01*
X117633995Y-78899924D01*
X117633996Y-78899922D01*
X117740341Y-78770341D01*
X117869922Y-78663996D01*
X117885094Y-78655886D01*
X118017758Y-78584976D01*
X118178177Y-78536313D01*
X118303196Y-78524000D01*
X119186804Y-78524000D01*
X119311823Y-78536313D01*
X119311823Y-78536313D01*
G37*
G36*
X153469348Y-75004207D02*
G01*
X153667410Y-75043604D01*
X153949674Y-75160521D01*
X154203705Y-75330259D01*
X154419741Y-75546295D01*
X154589479Y-75800326D01*
X154703842Y-76076425D01*
X154706396Y-76082591D01*
X154766000Y-76382239D01*
X154766000Y-76687761D01*
X154760383Y-76716000D01*
X154706396Y-76987410D01*
X154589479Y-77269674D01*
X154419741Y-77523705D01*
X154203705Y-77739741D01*
X153949674Y-77909479D01*
X153667410Y-78026396D01*
X153517585Y-78056198D01*
X153367761Y-78086000D01*
X153062239Y-78086000D01*
X152912415Y-78056198D01*
X152762590Y-78026396D01*
X152480326Y-77909479D01*
X152226295Y-77739741D01*
X152010259Y-77523705D01*
X151840521Y-77269674D01*
X151723604Y-76987410D01*
X151669617Y-76716000D01*
X151664000Y-76687761D01*
X151664000Y-76382239D01*
X151723604Y-76082591D01*
X151726158Y-76076425D01*
X151840521Y-75800326D01*
X152010259Y-75546295D01*
X152226295Y-75330259D01*
X152480326Y-75160521D01*
X152762590Y-75043604D01*
X152960652Y-75004207D01*
X153062239Y-74984000D01*
X153367761Y-74984000D01*
X153469348Y-75004207D01*
X153469348Y-75004207D01*
G37*
G36*
X141394487Y-75283996D02*
G01*
X141575796Y-75359097D01*
X141631255Y-75382069D01*
X141756904Y-75466025D01*
X141844339Y-75524447D01*
X142025553Y-75705661D01*
X142167932Y-75918747D01*
X142266004Y-76155513D01*
X142316000Y-76406861D01*
X142316000Y-76663139D01*
X142266004Y-76914487D01*
X142167932Y-77151253D01*
X142167931Y-77151255D01*
X142025553Y-77364339D01*
X141844339Y-77545553D01*
X141631255Y-77687931D01*
X141631254Y-77687932D01*
X141631253Y-77687932D01*
X141394487Y-77786004D01*
X141143139Y-77836000D01*
X140886861Y-77836000D01*
X140635513Y-77786004D01*
X140398747Y-77687932D01*
X140398746Y-77687932D01*
X140398745Y-77687931D01*
X140185661Y-77545553D01*
X140004447Y-77364339D01*
X139862069Y-77151255D01*
X139862068Y-77151253D01*
X139763996Y-76914487D01*
X139714000Y-76663139D01*
X139714000Y-76406861D01*
X139763996Y-76155513D01*
X139862068Y-75918747D01*
X140004447Y-75705661D01*
X140185661Y-75524447D01*
X140273096Y-75466025D01*
X140398745Y-75382069D01*
X140454204Y-75359097D01*
X140635513Y-75283996D01*
X140886861Y-75234000D01*
X141143139Y-75234000D01*
X141394487Y-75283996D01*
X141394487Y-75283996D01*
G37*
G36*
X126931823Y-75996313D02*
G01*
X127062380Y-76035917D01*
X127075839Y-76040000D01*
X127092242Y-76044976D01*
X127224906Y-76115886D01*
X127240078Y-76123996D01*
X127369659Y-76230341D01*
X127476004Y-76359922D01*
X127476005Y-76359924D01*
X127555024Y-76507758D01*
X127555025Y-76507761D01*
X127560756Y-76526653D01*
X127603687Y-76668177D01*
X127620117Y-76835000D01*
X127603687Y-77001823D01*
X127555024Y-77162242D01*
X127497601Y-77269672D01*
X127476004Y-77310078D01*
X127369659Y-77439659D01*
X127240078Y-77546004D01*
X127240076Y-77546005D01*
X127092242Y-77625024D01*
X126931823Y-77673687D01*
X126806804Y-77686000D01*
X125923196Y-77686000D01*
X125798177Y-77673687D01*
X125637758Y-77625024D01*
X125489924Y-77546005D01*
X125489922Y-77546004D01*
X125360341Y-77439659D01*
X125253996Y-77310078D01*
X125232399Y-77269672D01*
X125174976Y-77162242D01*
X125126313Y-77001823D01*
X125109883Y-76835000D01*
X125126313Y-76668177D01*
X125169244Y-76526653D01*
X125174975Y-76507761D01*
X125174976Y-76507758D01*
X125253995Y-76359924D01*
X125253996Y-76359922D01*
X125360341Y-76230341D01*
X125489922Y-76123996D01*
X125505094Y-76115886D01*
X125637758Y-76044976D01*
X125654162Y-76040000D01*
X125667620Y-76035917D01*
X125798177Y-75996313D01*
X125923196Y-75984000D01*
X126806804Y-75984000D01*
X126931823Y-75996313D01*
X126931823Y-75996313D01*
G37*
G36*
X119996000Y-77686000D02*
G01*
X117494000Y-77686000D01*
X117494000Y-75984000D01*
X119996000Y-75984000D01*
X119996000Y-77686000D01*
X119996000Y-77686000D01*
G37*
G36*
X163463097Y-74994069D02*
G01*
X163566032Y-75004207D01*
X163764146Y-75064305D01*
X163764149Y-75064306D01*
X163822409Y-75095447D01*
X163946729Y-75161897D01*
X164106765Y-75293235D01*
X164238103Y-75453271D01*
X164244920Y-75466025D01*
X164335694Y-75635851D01*
X164335695Y-75635854D01*
X164395793Y-75833968D01*
X164416085Y-76040000D01*
X164395793Y-76246032D01*
X164354474Y-76382240D01*
X164335694Y-76444149D01*
X164291595Y-76526652D01*
X164238103Y-76626729D01*
X164106765Y-76786765D01*
X163946729Y-76918103D01*
X163860975Y-76963939D01*
X163764149Y-77015694D01*
X163764146Y-77015695D01*
X163566032Y-77075793D01*
X163463097Y-77085931D01*
X163411631Y-77091000D01*
X161708369Y-77091000D01*
X161656903Y-77085931D01*
X161553968Y-77075793D01*
X161355854Y-77015695D01*
X161355851Y-77015694D01*
X161259025Y-76963939D01*
X161173271Y-76918103D01*
X161013235Y-76786765D01*
X160881897Y-76626729D01*
X160828405Y-76526652D01*
X160784306Y-76444149D01*
X160765526Y-76382240D01*
X160724207Y-76246032D01*
X160703915Y-76040000D01*
X160724207Y-75833968D01*
X160784305Y-75635854D01*
X160784306Y-75635851D01*
X160875080Y-75466025D01*
X160881897Y-75453271D01*
X161013235Y-75293235D01*
X161173271Y-75161897D01*
X161297591Y-75095447D01*
X161355851Y-75064306D01*
X161355854Y-75064305D01*
X161553968Y-75004207D01*
X161656903Y-74994069D01*
X161708369Y-74989000D01*
X163411631Y-74989000D01*
X163463097Y-74994069D01*
X163463097Y-74994069D01*
G37*
G36*
X83636425Y-74952760D02*
G01*
X83636428Y-74952761D01*
X83636429Y-74952761D01*
X83815693Y-75007140D01*
X83815696Y-75007142D01*
X83815697Y-75007142D01*
X83980903Y-75095446D01*
X84125712Y-75214288D01*
X84244554Y-75359097D01*
X84327718Y-75514687D01*
X84332860Y-75524307D01*
X84366696Y-75635851D01*
X84387240Y-75703575D01*
X84405601Y-75890000D01*
X84387240Y-76076425D01*
X84387239Y-76076428D01*
X84387239Y-76076429D01*
X84332860Y-76255693D01*
X84332858Y-76255696D01*
X84332858Y-76255697D01*
X84244554Y-76420903D01*
X84125712Y-76565712D01*
X83980903Y-76684554D01*
X83815697Y-76772858D01*
X83815693Y-76772860D01*
X83636429Y-76827239D01*
X83636428Y-76827239D01*
X83636425Y-76827240D01*
X83496718Y-76841000D01*
X81603282Y-76841000D01*
X81463575Y-76827240D01*
X81463572Y-76827239D01*
X81463571Y-76827239D01*
X81284307Y-76772860D01*
X81284303Y-76772858D01*
X81119097Y-76684554D01*
X80974288Y-76565712D01*
X80855446Y-76420903D01*
X80767142Y-76255697D01*
X80767142Y-76255696D01*
X80767140Y-76255693D01*
X80712761Y-76076429D01*
X80712761Y-76076428D01*
X80712760Y-76076425D01*
X80694399Y-75890000D01*
X80712760Y-75703575D01*
X80733304Y-75635851D01*
X80767140Y-75524307D01*
X80772282Y-75514687D01*
X80855446Y-75359097D01*
X80974288Y-75214288D01*
X81119097Y-75095446D01*
X81284303Y-75007142D01*
X81284304Y-75007142D01*
X81284307Y-75007140D01*
X81463571Y-74952761D01*
X81463572Y-74952761D01*
X81463575Y-74952760D01*
X81603282Y-74939000D01*
X83496718Y-74939000D01*
X83636425Y-74952760D01*
X83636425Y-74952760D01*
G37*
G36*
X132884271Y-74425103D02*
G01*
X132940635Y-74430654D01*
X133157600Y-74496470D01*
X133157602Y-74496471D01*
X133357555Y-74603347D01*
X133532818Y-74747182D01*
X133676653Y-74922445D01*
X133783529Y-75122398D01*
X133783530Y-75122400D01*
X133849346Y-75339365D01*
X133871569Y-75565000D01*
X133849346Y-75790635D01*
X133786954Y-75996314D01*
X133783529Y-76007602D01*
X133676653Y-76207555D01*
X133532818Y-76382818D01*
X133357555Y-76526653D01*
X133170326Y-76626728D01*
X133157600Y-76633530D01*
X132940635Y-76699346D01*
X132884271Y-76704897D01*
X132771545Y-76716000D01*
X132658455Y-76716000D01*
X132545729Y-76704897D01*
X132489365Y-76699346D01*
X132272400Y-76633530D01*
X132259674Y-76626728D01*
X132072445Y-76526653D01*
X131897182Y-76382818D01*
X131753347Y-76207555D01*
X131646471Y-76007602D01*
X131643047Y-75996314D01*
X131580654Y-75790635D01*
X131558431Y-75565000D01*
X131580654Y-75339365D01*
X131646470Y-75122400D01*
X131646471Y-75122398D01*
X131753347Y-74922445D01*
X131897182Y-74747182D01*
X132072445Y-74603347D01*
X132272398Y-74496471D01*
X132272400Y-74496470D01*
X132489365Y-74430654D01*
X132545729Y-74425103D01*
X132658455Y-74414000D01*
X132771545Y-74414000D01*
X132884271Y-74425103D01*
X132884271Y-74425103D01*
G37*
G36*
X105341823Y-73837313D02*
G01*
X105502242Y-73885976D01*
X105602290Y-73939453D01*
X105650078Y-73964996D01*
X105779659Y-74071341D01*
X105886004Y-74200922D01*
X105886005Y-74200924D01*
X105965024Y-74348758D01*
X106013687Y-74509177D01*
X106030117Y-74676000D01*
X106013687Y-74842823D01*
X105965024Y-75003242D01*
X105915740Y-75095446D01*
X105886004Y-75151078D01*
X105779659Y-75280659D01*
X105650078Y-75387004D01*
X105650076Y-75387005D01*
X105502242Y-75466024D01*
X105341823Y-75514687D01*
X105216804Y-75527000D01*
X104333196Y-75527000D01*
X104208177Y-75514687D01*
X104047758Y-75466024D01*
X103899924Y-75387005D01*
X103899922Y-75387004D01*
X103770341Y-75280659D01*
X103663996Y-75151078D01*
X103634260Y-75095446D01*
X103584976Y-75003242D01*
X103536313Y-74842823D01*
X103519883Y-74676000D01*
X103536313Y-74509177D01*
X103584976Y-74348758D01*
X103663995Y-74200924D01*
X103663996Y-74200922D01*
X103770341Y-74071341D01*
X103899922Y-73964996D01*
X103947710Y-73939453D01*
X104047758Y-73885976D01*
X104208177Y-73837313D01*
X104333196Y-73825000D01*
X105216804Y-73825000D01*
X105341823Y-73837313D01*
X105341823Y-73837313D01*
G37*
G36*
X97721823Y-73837313D02*
G01*
X97882242Y-73885976D01*
X97982290Y-73939453D01*
X98030078Y-73964996D01*
X98159659Y-74071341D01*
X98266004Y-74200922D01*
X98266005Y-74200924D01*
X98345024Y-74348758D01*
X98393687Y-74509177D01*
X98410117Y-74676000D01*
X98393687Y-74842823D01*
X98345024Y-75003242D01*
X98295740Y-75095446D01*
X98266004Y-75151078D01*
X98159659Y-75280659D01*
X98030078Y-75387004D01*
X98030076Y-75387005D01*
X97882242Y-75466024D01*
X97721823Y-75514687D01*
X97596804Y-75527000D01*
X96713196Y-75527000D01*
X96588177Y-75514687D01*
X96427758Y-75466024D01*
X96279924Y-75387005D01*
X96279922Y-75387004D01*
X96150341Y-75280659D01*
X96043996Y-75151078D01*
X96014260Y-75095446D01*
X95964976Y-75003242D01*
X95916313Y-74842823D01*
X95899883Y-74676000D01*
X95916313Y-74509177D01*
X95964976Y-74348758D01*
X96043995Y-74200924D01*
X96043996Y-74200922D01*
X96150341Y-74071341D01*
X96279922Y-73964996D01*
X96327710Y-73939453D01*
X96427758Y-73885976D01*
X96588177Y-73837313D01*
X96713196Y-73825000D01*
X97596804Y-73825000D01*
X97721823Y-73837313D01*
X97721823Y-73837313D01*
G37*
G36*
X122197395Y-72110546D02*
G01*
X122370466Y-72182234D01*
X122370467Y-72182235D01*
X122526227Y-72286310D01*
X122658690Y-72418773D01*
X122701284Y-72482520D01*
X122762766Y-72574534D01*
X122834454Y-72747605D01*
X122871000Y-72931333D01*
X122871000Y-73118667D01*
X122834454Y-73302395D01*
X122762766Y-73475466D01*
X122762765Y-73475467D01*
X122658690Y-73631227D01*
X122526227Y-73763690D01*
X122503092Y-73779148D01*
X122370466Y-73867766D01*
X122197395Y-73939454D01*
X122013667Y-73976000D01*
X121826333Y-73976000D01*
X121642605Y-73939454D01*
X121469534Y-73867766D01*
X121336908Y-73779148D01*
X121313773Y-73763690D01*
X121181310Y-73631227D01*
X121077235Y-73475467D01*
X121077234Y-73475466D01*
X121005546Y-73302395D01*
X120969000Y-73118667D01*
X120969000Y-72931333D01*
X121005546Y-72747605D01*
X121077234Y-72574534D01*
X121138716Y-72482520D01*
X121181310Y-72418773D01*
X121313773Y-72286310D01*
X121469533Y-72182235D01*
X121469534Y-72182234D01*
X121642605Y-72110546D01*
X121826333Y-72074000D01*
X122013667Y-72074000D01*
X122197395Y-72110546D01*
X122197395Y-72110546D01*
G37*
G36*
X125411000Y-73976000D02*
G01*
X123509000Y-73976000D01*
X123509000Y-72074000D01*
X125411000Y-72074000D01*
X125411000Y-73976000D01*
X125411000Y-73976000D01*
G37*
G36*
X109468228Y-72206703D02*
G01*
X109623100Y-72270853D01*
X109762481Y-72363985D01*
X109881015Y-72482519D01*
X109974147Y-72621900D01*
X110038297Y-72776772D01*
X110071000Y-72941184D01*
X110071000Y-73108816D01*
X110038297Y-73273228D01*
X109974147Y-73428100D01*
X109881015Y-73567481D01*
X109762481Y-73686015D01*
X109623100Y-73779147D01*
X109468228Y-73843297D01*
X109303816Y-73876000D01*
X109136184Y-73876000D01*
X108971772Y-73843297D01*
X108816900Y-73779147D01*
X108677519Y-73686015D01*
X108558985Y-73567481D01*
X108465853Y-73428100D01*
X108401703Y-73273228D01*
X108369000Y-73108816D01*
X108369000Y-72941184D01*
X108401703Y-72776772D01*
X108465853Y-72621900D01*
X108558985Y-72482519D01*
X108677519Y-72363985D01*
X108816900Y-72270853D01*
X108971772Y-72206703D01*
X109136184Y-72174000D01*
X109303816Y-72174000D01*
X109468228Y-72206703D01*
X109468228Y-72206703D01*
G37*
G36*
X112643228Y-72206703D02*
G01*
X112798100Y-72270853D01*
X112937481Y-72363985D01*
X113056015Y-72482519D01*
X113149147Y-72621900D01*
X113213297Y-72776772D01*
X113246000Y-72941184D01*
X113246000Y-73108816D01*
X113213297Y-73273228D01*
X113149147Y-73428100D01*
X113056015Y-73567481D01*
X112937481Y-73686015D01*
X112798100Y-73779147D01*
X112643228Y-73843297D01*
X112478816Y-73876000D01*
X112311184Y-73876000D01*
X112146772Y-73843297D01*
X111991900Y-73779147D01*
X111852519Y-73686015D01*
X111733985Y-73567481D01*
X111640853Y-73428100D01*
X111576703Y-73273228D01*
X111544000Y-73108816D01*
X111544000Y-72941184D01*
X111576703Y-72776772D01*
X111640853Y-72621900D01*
X111733985Y-72482519D01*
X111852519Y-72363985D01*
X111991900Y-72270853D01*
X112146772Y-72206703D01*
X112311184Y-72174000D01*
X112478816Y-72174000D01*
X112643228Y-72206703D01*
X112643228Y-72206703D01*
G37*
G36*
X115818228Y-72206703D02*
G01*
X115973100Y-72270853D01*
X116112481Y-72363985D01*
X116231015Y-72482519D01*
X116324147Y-72621900D01*
X116388297Y-72776772D01*
X116421000Y-72941184D01*
X116421000Y-73108816D01*
X116388297Y-73273228D01*
X116324147Y-73428100D01*
X116231015Y-73567481D01*
X116112481Y-73686015D01*
X115973100Y-73779147D01*
X115818228Y-73843297D01*
X115653816Y-73876000D01*
X115486184Y-73876000D01*
X115321772Y-73843297D01*
X115166900Y-73779147D01*
X115027519Y-73686015D01*
X114908985Y-73567481D01*
X114815853Y-73428100D01*
X114751703Y-73273228D01*
X114719000Y-73108816D01*
X114719000Y-72941184D01*
X114751703Y-72776772D01*
X114815853Y-72621900D01*
X114908985Y-72482519D01*
X115027519Y-72363985D01*
X115166900Y-72270853D01*
X115321772Y-72206703D01*
X115486184Y-72174000D01*
X115653816Y-72174000D01*
X115818228Y-72206703D01*
X115818228Y-72206703D01*
G37*
G36*
X118993228Y-72206703D02*
G01*
X119148100Y-72270853D01*
X119287481Y-72363985D01*
X119406015Y-72482519D01*
X119499147Y-72621900D01*
X119563297Y-72776772D01*
X119596000Y-72941184D01*
X119596000Y-73108816D01*
X119563297Y-73273228D01*
X119499147Y-73428100D01*
X119406015Y-73567481D01*
X119287481Y-73686015D01*
X119148100Y-73779147D01*
X118993228Y-73843297D01*
X118828816Y-73876000D01*
X118661184Y-73876000D01*
X118496772Y-73843297D01*
X118341900Y-73779147D01*
X118202519Y-73686015D01*
X118083985Y-73567481D01*
X117990853Y-73428100D01*
X117926703Y-73273228D01*
X117894000Y-73108816D01*
X117894000Y-72941184D01*
X117926703Y-72776772D01*
X117990853Y-72621900D01*
X118083985Y-72482519D01*
X118202519Y-72363985D01*
X118341900Y-72270853D01*
X118496772Y-72206703D01*
X118661184Y-72174000D01*
X118828816Y-72174000D01*
X118993228Y-72206703D01*
X118993228Y-72206703D01*
G37*
G36*
X84401000Y-73341000D02*
G01*
X80699000Y-73341000D01*
X80699000Y-71439000D01*
X84401000Y-71439000D01*
X84401000Y-73341000D01*
X84401000Y-73341000D01*
G37*
G36*
X97721823Y-71297313D02*
G01*
X97882242Y-71345976D01*
X98014906Y-71416886D01*
X98030078Y-71424996D01*
X98159659Y-71531341D01*
X98266004Y-71660922D01*
X98266005Y-71660924D01*
X98345024Y-71808758D01*
X98393687Y-71969177D01*
X98410117Y-72136000D01*
X98393687Y-72302823D01*
X98345024Y-72463242D01*
X98285538Y-72574533D01*
X98266004Y-72611078D01*
X98159659Y-72740659D01*
X98030078Y-72847004D01*
X98030076Y-72847005D01*
X97882242Y-72926024D01*
X97721823Y-72974687D01*
X97596804Y-72987000D01*
X96713196Y-72987000D01*
X96588177Y-72974687D01*
X96427758Y-72926024D01*
X96279924Y-72847005D01*
X96279922Y-72847004D01*
X96150341Y-72740659D01*
X96043996Y-72611078D01*
X96024462Y-72574533D01*
X95964976Y-72463242D01*
X95916313Y-72302823D01*
X95899883Y-72136000D01*
X95916313Y-71969177D01*
X95964976Y-71808758D01*
X96043995Y-71660924D01*
X96043996Y-71660922D01*
X96150341Y-71531341D01*
X96279922Y-71424996D01*
X96295094Y-71416886D01*
X96427758Y-71345976D01*
X96588177Y-71297313D01*
X96713196Y-71285000D01*
X97596804Y-71285000D01*
X97721823Y-71297313D01*
X97721823Y-71297313D01*
G37*
G36*
X105341823Y-71297313D02*
G01*
X105502242Y-71345976D01*
X105634906Y-71416886D01*
X105650078Y-71424996D01*
X105779659Y-71531341D01*
X105886004Y-71660922D01*
X105886005Y-71660924D01*
X105965024Y-71808758D01*
X106013687Y-71969177D01*
X106030117Y-72136000D01*
X106013687Y-72302823D01*
X105965024Y-72463242D01*
X105905538Y-72574533D01*
X105886004Y-72611078D01*
X105779659Y-72740659D01*
X105650078Y-72847004D01*
X105650076Y-72847005D01*
X105502242Y-72926024D01*
X105341823Y-72974687D01*
X105216804Y-72987000D01*
X104333196Y-72987000D01*
X104208177Y-72974687D01*
X104047758Y-72926024D01*
X103899924Y-72847005D01*
X103899922Y-72847004D01*
X103770341Y-72740659D01*
X103663996Y-72611078D01*
X103644462Y-72574533D01*
X103584976Y-72463242D01*
X103536313Y-72302823D01*
X103519883Y-72136000D01*
X103536313Y-71969177D01*
X103584976Y-71808758D01*
X103663995Y-71660924D01*
X103663996Y-71660922D01*
X103770341Y-71531341D01*
X103899922Y-71424996D01*
X103915094Y-71416886D01*
X104047758Y-71345976D01*
X104208177Y-71297313D01*
X104333196Y-71285000D01*
X105216804Y-71285000D01*
X105341823Y-71297313D01*
X105341823Y-71297313D01*
G37*
G36*
X163463097Y-69994069D02*
G01*
X163566032Y-70004207D01*
X163764146Y-70064305D01*
X163764149Y-70064306D01*
X163860975Y-70116061D01*
X163946729Y-70161897D01*
X164106765Y-70293235D01*
X164238103Y-70453271D01*
X164283939Y-70539025D01*
X164335694Y-70635851D01*
X164335695Y-70635854D01*
X164395793Y-70833968D01*
X164416085Y-71040000D01*
X164395793Y-71246032D01*
X164365475Y-71345975D01*
X164335694Y-71444149D01*
X164289089Y-71531341D01*
X164238103Y-71626729D01*
X164106765Y-71786765D01*
X163946729Y-71918103D01*
X163860975Y-71963939D01*
X163764149Y-72015694D01*
X163764146Y-72015695D01*
X163566032Y-72075793D01*
X163463097Y-72085931D01*
X163411631Y-72091000D01*
X161708369Y-72091000D01*
X161656903Y-72085931D01*
X161553968Y-72075793D01*
X161355854Y-72015695D01*
X161355851Y-72015694D01*
X161259025Y-71963939D01*
X161173271Y-71918103D01*
X161013235Y-71786765D01*
X160881897Y-71626729D01*
X160830911Y-71531341D01*
X160784306Y-71444149D01*
X160754525Y-71345975D01*
X160724207Y-71246032D01*
X160703915Y-71040000D01*
X160724207Y-70833968D01*
X160784305Y-70635854D01*
X160784306Y-70635851D01*
X160836061Y-70539025D01*
X160881897Y-70453271D01*
X161013235Y-70293235D01*
X161173271Y-70161897D01*
X161259025Y-70116061D01*
X161355851Y-70064306D01*
X161355854Y-70064305D01*
X161553968Y-70004207D01*
X161656903Y-69994069D01*
X161708369Y-69989000D01*
X163411631Y-69989000D01*
X163463097Y-69994069D01*
X163463097Y-69994069D01*
G37*
G36*
X139367585Y-68963802D02*
G01*
X139517410Y-68993604D01*
X139799674Y-69110521D01*
X140053705Y-69280259D01*
X140269741Y-69496295D01*
X140439479Y-69750326D01*
X140542524Y-69999100D01*
X140556396Y-70032591D01*
X140610981Y-70307005D01*
X140616000Y-70332240D01*
X140616000Y-70637760D01*
X140556396Y-70937410D01*
X140439479Y-71219674D01*
X140269741Y-71473705D01*
X140053705Y-71689741D01*
X139799674Y-71859479D01*
X139517410Y-71976396D01*
X139367585Y-72006198D01*
X139217761Y-72036000D01*
X138912239Y-72036000D01*
X138762415Y-72006198D01*
X138612590Y-71976396D01*
X138330326Y-71859479D01*
X138076295Y-71689741D01*
X137860259Y-71473705D01*
X137690521Y-71219674D01*
X137573604Y-70937410D01*
X137514000Y-70637760D01*
X137514000Y-70332240D01*
X137519020Y-70307005D01*
X137573604Y-70032591D01*
X137587476Y-69999100D01*
X137690521Y-69750326D01*
X137860259Y-69496295D01*
X138076295Y-69280259D01*
X138330326Y-69110521D01*
X138612590Y-68993604D01*
X138762415Y-68963802D01*
X138912239Y-68934000D01*
X139217761Y-68934000D01*
X139367585Y-68963802D01*
X139367585Y-68963802D01*
G37*
G36*
X90799228Y-68777703D02*
G01*
X90954100Y-68841853D01*
X91093481Y-68934985D01*
X91212015Y-69053519D01*
X91305147Y-69192900D01*
X91369297Y-69347772D01*
X91402000Y-69512184D01*
X91402000Y-69679816D01*
X91369297Y-69844228D01*
X91305147Y-69999100D01*
X91212015Y-70138481D01*
X91093481Y-70257015D01*
X90954100Y-70350147D01*
X90799228Y-70414297D01*
X90634816Y-70447000D01*
X90467184Y-70447000D01*
X90302772Y-70414297D01*
X90147900Y-70350147D01*
X90008519Y-70257015D01*
X89889985Y-70138481D01*
X89796853Y-69999100D01*
X89732703Y-69844228D01*
X89700000Y-69679816D01*
X89700000Y-69512184D01*
X89732703Y-69347772D01*
X89796853Y-69192900D01*
X89889985Y-69053519D01*
X90008519Y-68934985D01*
X90147900Y-68841853D01*
X90302772Y-68777703D01*
X90467184Y-68745000D01*
X90634816Y-68745000D01*
X90799228Y-68777703D01*
X90799228Y-68777703D01*
G37*
G36*
X93299228Y-68777703D02*
G01*
X93454100Y-68841853D01*
X93593481Y-68934985D01*
X93712015Y-69053519D01*
X93805147Y-69192900D01*
X93869297Y-69347772D01*
X93902000Y-69512184D01*
X93902000Y-69679816D01*
X93869297Y-69844228D01*
X93805147Y-69999100D01*
X93712015Y-70138481D01*
X93593481Y-70257015D01*
X93454100Y-70350147D01*
X93299228Y-70414297D01*
X93134816Y-70447000D01*
X92967184Y-70447000D01*
X92802772Y-70414297D01*
X92647900Y-70350147D01*
X92508519Y-70257015D01*
X92389985Y-70138481D01*
X92296853Y-69999100D01*
X92232703Y-69844228D01*
X92200000Y-69679816D01*
X92200000Y-69512184D01*
X92232703Y-69347772D01*
X92296853Y-69192900D01*
X92389985Y-69053519D01*
X92508519Y-68934985D01*
X92647900Y-68841853D01*
X92802772Y-68777703D01*
X92967184Y-68745000D01*
X93134816Y-68745000D01*
X93299228Y-68777703D01*
X93299228Y-68777703D01*
G37*
G36*
X97721823Y-68757313D02*
G01*
X97882242Y-68805976D01*
X97949361Y-68841852D01*
X98030078Y-68884996D01*
X98159659Y-68991341D01*
X98266004Y-69120922D01*
X98266005Y-69120924D01*
X98345024Y-69268758D01*
X98393687Y-69429177D01*
X98410117Y-69596000D01*
X98393687Y-69762823D01*
X98345024Y-69923242D01*
X98304477Y-69999100D01*
X98266004Y-70071078D01*
X98159659Y-70200659D01*
X98030078Y-70307004D01*
X98030076Y-70307005D01*
X97882242Y-70386024D01*
X97721823Y-70434687D01*
X97596804Y-70447000D01*
X96713196Y-70447000D01*
X96588177Y-70434687D01*
X96427758Y-70386024D01*
X96279924Y-70307005D01*
X96279922Y-70307004D01*
X96150341Y-70200659D01*
X96043996Y-70071078D01*
X96005523Y-69999100D01*
X95964976Y-69923242D01*
X95916313Y-69762823D01*
X95899883Y-69596000D01*
X95916313Y-69429177D01*
X95964976Y-69268758D01*
X96043995Y-69120924D01*
X96043996Y-69120922D01*
X96150341Y-68991341D01*
X96279922Y-68884996D01*
X96360639Y-68841852D01*
X96427758Y-68805976D01*
X96588177Y-68757313D01*
X96713196Y-68745000D01*
X97596804Y-68745000D01*
X97721823Y-68757313D01*
X97721823Y-68757313D01*
G37*
G36*
X105341823Y-68757313D02*
G01*
X105502242Y-68805976D01*
X105569361Y-68841852D01*
X105650078Y-68884996D01*
X105779659Y-68991341D01*
X105886004Y-69120922D01*
X105886005Y-69120924D01*
X105965024Y-69268758D01*
X106013687Y-69429177D01*
X106030117Y-69596000D01*
X106013687Y-69762823D01*
X105965024Y-69923242D01*
X105924477Y-69999100D01*
X105886004Y-70071078D01*
X105779659Y-70200659D01*
X105650078Y-70307004D01*
X105650076Y-70307005D01*
X105502242Y-70386024D01*
X105341823Y-70434687D01*
X105216804Y-70447000D01*
X104333196Y-70447000D01*
X104208177Y-70434687D01*
X104047758Y-70386024D01*
X103899924Y-70307005D01*
X103899922Y-70307004D01*
X103770341Y-70200659D01*
X103663996Y-70071078D01*
X103625523Y-69999100D01*
X103584976Y-69923242D01*
X103536313Y-69762823D01*
X103519883Y-69596000D01*
X103536313Y-69429177D01*
X103584976Y-69268758D01*
X103663995Y-69120924D01*
X103663996Y-69120922D01*
X103770341Y-68991341D01*
X103899922Y-68884996D01*
X103980639Y-68841852D01*
X104047758Y-68805976D01*
X104208177Y-68757313D01*
X104333196Y-68745000D01*
X105216804Y-68745000D01*
X105341823Y-68757313D01*
X105341823Y-68757313D01*
G37*
G36*
X125411000Y-69531000D02*
G01*
X123509000Y-69531000D01*
X123509000Y-67629000D01*
X125411000Y-67629000D01*
X125411000Y-69531000D01*
X125411000Y-69531000D01*
G37*
G36*
X122197395Y-67665546D02*
G01*
X122370466Y-67737234D01*
X122370467Y-67737235D01*
X122526227Y-67841310D01*
X122658690Y-67973773D01*
X122658691Y-67973775D01*
X122762766Y-68129534D01*
X122834454Y-68302605D01*
X122871000Y-68486333D01*
X122871000Y-68673667D01*
X122834454Y-68857395D01*
X122762766Y-69030466D01*
X122762765Y-69030467D01*
X122658690Y-69186227D01*
X122526227Y-69318690D01*
X122447818Y-69371081D01*
X122370466Y-69422766D01*
X122197395Y-69494454D01*
X122013667Y-69531000D01*
X121826333Y-69531000D01*
X121642605Y-69494454D01*
X121469534Y-69422766D01*
X121392182Y-69371081D01*
X121313773Y-69318690D01*
X121181310Y-69186227D01*
X121077235Y-69030467D01*
X121077234Y-69030466D01*
X121005546Y-68857395D01*
X120969000Y-68673667D01*
X120969000Y-68486333D01*
X121005546Y-68302605D01*
X121077234Y-68129534D01*
X121181309Y-67973775D01*
X121181310Y-67973773D01*
X121313773Y-67841310D01*
X121469533Y-67737235D01*
X121469534Y-67737234D01*
X121642605Y-67665546D01*
X121826333Y-67629000D01*
X122013667Y-67629000D01*
X122197395Y-67665546D01*
X122197395Y-67665546D01*
G37*
G36*
X97721823Y-66217313D02*
G01*
X97882242Y-66265976D01*
X98014906Y-66336886D01*
X98030078Y-66344996D01*
X98159659Y-66451341D01*
X98266004Y-66580922D01*
X98266005Y-66580924D01*
X98345024Y-66728758D01*
X98393687Y-66889177D01*
X98410117Y-67056000D01*
X98393687Y-67222823D01*
X98345024Y-67383242D01*
X98274114Y-67515906D01*
X98266004Y-67531078D01*
X98159659Y-67660659D01*
X98030078Y-67767004D01*
X98030076Y-67767005D01*
X97882242Y-67846024D01*
X97721823Y-67894687D01*
X97596804Y-67907000D01*
X96713196Y-67907000D01*
X96588177Y-67894687D01*
X96427758Y-67846024D01*
X96279924Y-67767005D01*
X96279922Y-67767004D01*
X96150341Y-67660659D01*
X96043996Y-67531078D01*
X96035886Y-67515906D01*
X95964976Y-67383242D01*
X95916313Y-67222823D01*
X95899883Y-67056000D01*
X95916313Y-66889177D01*
X95964976Y-66728758D01*
X96043995Y-66580924D01*
X96043996Y-66580922D01*
X96150341Y-66451341D01*
X96279922Y-66344996D01*
X96295094Y-66336886D01*
X96427758Y-66265976D01*
X96588177Y-66217313D01*
X96713196Y-66205000D01*
X97596804Y-66205000D01*
X97721823Y-66217313D01*
X97721823Y-66217313D01*
G37*
G36*
X105341823Y-66217313D02*
G01*
X105502242Y-66265976D01*
X105634906Y-66336886D01*
X105650078Y-66344996D01*
X105779659Y-66451341D01*
X105886004Y-66580922D01*
X105886005Y-66580924D01*
X105965024Y-66728758D01*
X106013687Y-66889177D01*
X106030117Y-67056000D01*
X106013687Y-67222823D01*
X105965024Y-67383242D01*
X105894114Y-67515906D01*
X105886004Y-67531078D01*
X105779659Y-67660659D01*
X105650078Y-67767004D01*
X105650076Y-67767005D01*
X105502242Y-67846024D01*
X105341823Y-67894687D01*
X105216804Y-67907000D01*
X104333196Y-67907000D01*
X104208177Y-67894687D01*
X104047758Y-67846024D01*
X103899924Y-67767005D01*
X103899922Y-67767004D01*
X103770341Y-67660659D01*
X103663996Y-67531078D01*
X103655886Y-67515906D01*
X103584976Y-67383242D01*
X103536313Y-67222823D01*
X103519883Y-67056000D01*
X103536313Y-66889177D01*
X103584976Y-66728758D01*
X103663995Y-66580924D01*
X103663996Y-66580922D01*
X103770341Y-66451341D01*
X103899922Y-66344996D01*
X103915094Y-66336886D01*
X104047758Y-66265976D01*
X104208177Y-66217313D01*
X104333196Y-66205000D01*
X105216804Y-66205000D01*
X105341823Y-66217313D01*
X105341823Y-66217313D01*
G37*
G36*
X164411000Y-67091000D02*
G01*
X160709000Y-67091000D01*
X160709000Y-64989000D01*
X164411000Y-64989000D01*
X164411000Y-67091000D01*
X164411000Y-67091000D01*
G37*
G36*
X133866000Y-66556000D02*
G01*
X131564000Y-66556000D01*
X131564000Y-64254000D01*
X133866000Y-64254000D01*
X133866000Y-66556000D01*
X133866000Y-66556000D01*
G37*
G36*
X93299228Y-64713703D02*
G01*
X93454100Y-64777853D01*
X93593481Y-64870985D01*
X93712015Y-64989519D01*
X93805147Y-65128900D01*
X93869297Y-65283772D01*
X93902000Y-65448184D01*
X93902000Y-65615816D01*
X93869297Y-65780228D01*
X93805147Y-65935100D01*
X93712015Y-66074481D01*
X93593481Y-66193015D01*
X93454100Y-66286147D01*
X93299228Y-66350297D01*
X93134816Y-66383000D01*
X92967184Y-66383000D01*
X92802772Y-66350297D01*
X92647900Y-66286147D01*
X92508519Y-66193015D01*
X92389985Y-66074481D01*
X92296853Y-65935100D01*
X92232703Y-65780228D01*
X92200000Y-65615816D01*
X92200000Y-65448184D01*
X92232703Y-65283772D01*
X92296853Y-65128900D01*
X92389985Y-64989519D01*
X92508519Y-64870985D01*
X92647900Y-64777853D01*
X92802772Y-64713703D01*
X92967184Y-64681000D01*
X93134816Y-64681000D01*
X93299228Y-64713703D01*
X93299228Y-64713703D01*
G37*
G36*
X90799228Y-64713703D02*
G01*
X90954100Y-64777853D01*
X91093481Y-64870985D01*
X91212015Y-64989519D01*
X91305147Y-65128900D01*
X91369297Y-65283772D01*
X91402000Y-65448184D01*
X91402000Y-65615816D01*
X91369297Y-65780228D01*
X91305147Y-65935100D01*
X91212015Y-66074481D01*
X91093481Y-66193015D01*
X90954100Y-66286147D01*
X90799228Y-66350297D01*
X90634816Y-66383000D01*
X90467184Y-66383000D01*
X90302772Y-66350297D01*
X90147900Y-66286147D01*
X90008519Y-66193015D01*
X89889985Y-66074481D01*
X89796853Y-65935100D01*
X89732703Y-65780228D01*
X89700000Y-65615816D01*
X89700000Y-65448184D01*
X89732703Y-65283772D01*
X89796853Y-65128900D01*
X89889985Y-64989519D01*
X90008519Y-64870985D01*
X90147900Y-64777853D01*
X90302772Y-64713703D01*
X90467184Y-64681000D01*
X90634816Y-64681000D01*
X90799228Y-64713703D01*
X90799228Y-64713703D01*
G37*
G36*
X83636425Y-64482760D02*
G01*
X83636428Y-64482761D01*
X83636429Y-64482761D01*
X83815693Y-64537140D01*
X83815696Y-64537142D01*
X83815697Y-64537142D01*
X83980903Y-64625446D01*
X84125712Y-64744288D01*
X84244554Y-64889097D01*
X84330266Y-65049454D01*
X84332860Y-65054307D01*
X84383023Y-65219672D01*
X84387240Y-65233575D01*
X84405601Y-65420000D01*
X84387240Y-65606425D01*
X84387239Y-65606428D01*
X84387239Y-65606429D01*
X84332860Y-65785693D01*
X84332858Y-65785696D01*
X84332858Y-65785697D01*
X84244554Y-65950903D01*
X84125712Y-66095712D01*
X83980903Y-66214554D01*
X83846961Y-66286147D01*
X83815693Y-66302860D01*
X83636429Y-66357239D01*
X83636428Y-66357239D01*
X83636425Y-66357240D01*
X83496718Y-66371000D01*
X81603282Y-66371000D01*
X81463575Y-66357240D01*
X81463572Y-66357239D01*
X81463571Y-66357239D01*
X81284307Y-66302860D01*
X81253039Y-66286147D01*
X81119097Y-66214554D01*
X80974288Y-66095712D01*
X80855446Y-65950903D01*
X80767142Y-65785697D01*
X80767142Y-65785696D01*
X80767140Y-65785693D01*
X80712761Y-65606429D01*
X80712761Y-65606428D01*
X80712760Y-65606425D01*
X80694399Y-65420000D01*
X80712760Y-65233575D01*
X80716977Y-65219672D01*
X80767140Y-65054307D01*
X80769734Y-65049454D01*
X80855446Y-64889097D01*
X80974288Y-64744288D01*
X81119097Y-64625446D01*
X81284303Y-64537142D01*
X81284304Y-64537142D01*
X81284307Y-64537140D01*
X81463571Y-64482761D01*
X81463572Y-64482761D01*
X81463575Y-64482760D01*
X81603282Y-64469000D01*
X83496718Y-64469000D01*
X83636425Y-64482760D01*
X83636425Y-64482760D01*
G37*
G36*
X153567585Y-62963802D02*
G01*
X153717410Y-62993604D01*
X153999674Y-63110521D01*
X154253705Y-63280259D01*
X154469741Y-63496295D01*
X154639479Y-63750326D01*
X154756396Y-64032590D01*
X154756396Y-64032591D01*
X154816000Y-64332239D01*
X154816000Y-64637761D01*
X154807036Y-64682825D01*
X154756396Y-64937410D01*
X154639479Y-65219674D01*
X154469741Y-65473705D01*
X154253705Y-65689741D01*
X153999674Y-65859479D01*
X153717410Y-65976396D01*
X153567585Y-66006198D01*
X153417761Y-66036000D01*
X153112239Y-66036000D01*
X152962415Y-66006198D01*
X152812590Y-65976396D01*
X152530326Y-65859479D01*
X152276295Y-65689741D01*
X152060259Y-65473705D01*
X151890521Y-65219674D01*
X151773604Y-64937410D01*
X151722964Y-64682825D01*
X151714000Y-64637761D01*
X151714000Y-64332239D01*
X151773604Y-64032591D01*
X151773604Y-64032590D01*
X151890521Y-63750326D01*
X152060259Y-63496295D01*
X152276295Y-63280259D01*
X152530326Y-63110521D01*
X152812590Y-62993604D01*
X152962415Y-62963802D01*
X153112239Y-62934000D01*
X153417761Y-62934000D01*
X153567585Y-62963802D01*
X153567585Y-62963802D01*
G37*
G36*
X141394487Y-63283996D02*
G01*
X141529880Y-63340078D01*
X141631255Y-63382069D01*
X141844339Y-63524447D01*
X142025553Y-63705661D01*
X142162984Y-63911341D01*
X142167932Y-63918747D01*
X142266004Y-64155513D01*
X142316000Y-64406861D01*
X142316000Y-64663139D01*
X142266004Y-64914487D01*
X142167932Y-65151253D01*
X142167931Y-65151255D01*
X142025553Y-65364339D01*
X141844339Y-65545553D01*
X141631255Y-65687931D01*
X141631254Y-65687932D01*
X141631253Y-65687932D01*
X141394487Y-65786004D01*
X141143139Y-65836000D01*
X140886861Y-65836000D01*
X140635513Y-65786004D01*
X140398747Y-65687932D01*
X140398746Y-65687932D01*
X140398745Y-65687931D01*
X140185661Y-65545553D01*
X140004447Y-65364339D01*
X139862069Y-65151255D01*
X139862068Y-65151253D01*
X139763996Y-64914487D01*
X139714000Y-64663139D01*
X139714000Y-64406861D01*
X139763996Y-64155513D01*
X139862068Y-63918747D01*
X139867017Y-63911341D01*
X140004447Y-63705661D01*
X140185661Y-63524447D01*
X140398745Y-63382069D01*
X140500120Y-63340078D01*
X140635513Y-63283996D01*
X140886861Y-63234000D01*
X141143139Y-63234000D01*
X141394487Y-63283996D01*
X141394487Y-63283996D01*
G37*
G36*
X105341823Y-63677313D02*
G01*
X105502242Y-63725976D01*
X105547801Y-63750328D01*
X105650078Y-63804996D01*
X105779659Y-63911341D01*
X105886004Y-64040922D01*
X105886005Y-64040924D01*
X105965024Y-64188758D01*
X106013687Y-64349177D01*
X106030117Y-64516000D01*
X106013687Y-64682823D01*
X105965024Y-64843242D01*
X105914690Y-64937410D01*
X105886004Y-64991078D01*
X105779659Y-65120659D01*
X105650078Y-65227004D01*
X105650076Y-65227005D01*
X105502242Y-65306024D01*
X105341823Y-65354687D01*
X105216804Y-65367000D01*
X104333196Y-65367000D01*
X104208177Y-65354687D01*
X104047758Y-65306024D01*
X103899924Y-65227005D01*
X103899922Y-65227004D01*
X103770341Y-65120659D01*
X103663996Y-64991078D01*
X103635310Y-64937410D01*
X103584976Y-64843242D01*
X103536313Y-64682823D01*
X103519883Y-64516000D01*
X103536313Y-64349177D01*
X103584976Y-64188758D01*
X103663995Y-64040924D01*
X103663996Y-64040922D01*
X103770341Y-63911341D01*
X103899922Y-63804996D01*
X104002199Y-63750328D01*
X104047758Y-63725976D01*
X104208177Y-63677313D01*
X104333196Y-63665000D01*
X105216804Y-63665000D01*
X105341823Y-63677313D01*
X105341823Y-63677313D01*
G37*
G36*
X97721823Y-63677313D02*
G01*
X97882242Y-63725976D01*
X97927801Y-63750328D01*
X98030078Y-63804996D01*
X98159659Y-63911341D01*
X98266004Y-64040922D01*
X98266005Y-64040924D01*
X98345024Y-64188758D01*
X98393687Y-64349177D01*
X98410117Y-64516000D01*
X98393687Y-64682823D01*
X98345024Y-64843242D01*
X98294690Y-64937410D01*
X98266004Y-64991078D01*
X98159659Y-65120659D01*
X98030078Y-65227004D01*
X98030076Y-65227005D01*
X97882242Y-65306024D01*
X97721823Y-65354687D01*
X97596804Y-65367000D01*
X96713196Y-65367000D01*
X96588177Y-65354687D01*
X96427758Y-65306024D01*
X96279924Y-65227005D01*
X96279922Y-65227004D01*
X96150341Y-65120659D01*
X96043996Y-64991078D01*
X96015310Y-64937410D01*
X95964976Y-64843242D01*
X95916313Y-64682823D01*
X95899883Y-64516000D01*
X95916313Y-64349177D01*
X95964976Y-64188758D01*
X96043995Y-64040924D01*
X96043996Y-64040922D01*
X96150341Y-63911341D01*
X96279922Y-63804996D01*
X96382199Y-63750328D01*
X96427758Y-63725976D01*
X96588177Y-63677313D01*
X96713196Y-63665000D01*
X97596804Y-63665000D01*
X97721823Y-63677313D01*
X97721823Y-63677313D01*
G37*
G36*
X125411000Y-65086000D02*
G01*
X123509000Y-65086000D01*
X123509000Y-63184000D01*
X125411000Y-63184000D01*
X125411000Y-65086000D01*
X125411000Y-65086000D01*
G37*
G36*
X122197395Y-63220546D02*
G01*
X122370466Y-63292234D01*
X122442069Y-63340078D01*
X122526227Y-63396310D01*
X122658690Y-63528773D01*
X122690249Y-63576005D01*
X122762766Y-63684534D01*
X122834454Y-63857605D01*
X122871000Y-64041333D01*
X122871000Y-64228667D01*
X122834454Y-64412395D01*
X122762766Y-64585466D01*
X122711081Y-64662818D01*
X122658690Y-64741227D01*
X122526227Y-64873690D01*
X122465170Y-64914487D01*
X122370466Y-64977766D01*
X122197395Y-65049454D01*
X122013667Y-65086000D01*
X121826333Y-65086000D01*
X121642605Y-65049454D01*
X121469534Y-64977766D01*
X121374830Y-64914487D01*
X121313773Y-64873690D01*
X121181310Y-64741227D01*
X121128919Y-64662818D01*
X121077234Y-64585466D01*
X121005546Y-64412395D01*
X120969000Y-64228667D01*
X120969000Y-64041333D01*
X121005546Y-63857605D01*
X121077234Y-63684534D01*
X121149751Y-63576005D01*
X121181310Y-63528773D01*
X121313773Y-63396310D01*
X121397931Y-63340078D01*
X121469534Y-63292234D01*
X121642605Y-63220546D01*
X121826333Y-63184000D01*
X122013667Y-63184000D01*
X122197395Y-63220546D01*
X122197395Y-63220546D01*
G37*
G36*
X115736823Y-62026313D02*
G01*
X115897242Y-62074976D01*
X116024175Y-62142823D01*
X116045078Y-62153996D01*
X116174659Y-62260341D01*
X116281004Y-62389922D01*
X116281005Y-62389924D01*
X116360024Y-62537758D01*
X116408687Y-62698177D01*
X116425117Y-62865000D01*
X116408687Y-63031823D01*
X116360024Y-63192242D01*
X116289114Y-63324906D01*
X116281004Y-63340078D01*
X116174659Y-63469659D01*
X116045078Y-63576004D01*
X116045076Y-63576005D01*
X115897242Y-63655024D01*
X115736823Y-63703687D01*
X115611804Y-63716000D01*
X115528196Y-63716000D01*
X115403177Y-63703687D01*
X115242758Y-63655024D01*
X115094924Y-63576005D01*
X115094922Y-63576004D01*
X114965341Y-63469659D01*
X114858996Y-63340078D01*
X114850886Y-63324906D01*
X114779976Y-63192242D01*
X114731313Y-63031823D01*
X114714883Y-62865000D01*
X114731313Y-62698177D01*
X114779976Y-62537758D01*
X114858995Y-62389924D01*
X114858996Y-62389922D01*
X114965341Y-62260341D01*
X115094922Y-62153996D01*
X115115825Y-62142823D01*
X115242758Y-62074976D01*
X115403177Y-62026313D01*
X115528196Y-62014000D01*
X115611804Y-62014000D01*
X115736823Y-62026313D01*
X115736823Y-62026313D01*
G37*
G36*
X118911823Y-62026313D02*
G01*
X119072242Y-62074976D01*
X119199175Y-62142823D01*
X119220078Y-62153996D01*
X119349659Y-62260341D01*
X119456004Y-62389922D01*
X119456005Y-62389924D01*
X119535024Y-62537758D01*
X119583687Y-62698177D01*
X119600117Y-62865000D01*
X119583687Y-63031823D01*
X119535024Y-63192242D01*
X119464114Y-63324906D01*
X119456004Y-63340078D01*
X119349659Y-63469659D01*
X119220078Y-63576004D01*
X119220076Y-63576005D01*
X119072242Y-63655024D01*
X118911823Y-63703687D01*
X118786804Y-63716000D01*
X118703196Y-63716000D01*
X118578177Y-63703687D01*
X118417758Y-63655024D01*
X118269924Y-63576005D01*
X118269922Y-63576004D01*
X118140341Y-63469659D01*
X118033996Y-63340078D01*
X118025886Y-63324906D01*
X117954976Y-63192242D01*
X117906313Y-63031823D01*
X117889883Y-62865000D01*
X117906313Y-62698177D01*
X117954976Y-62537758D01*
X118033995Y-62389924D01*
X118033996Y-62389922D01*
X118140341Y-62260341D01*
X118269922Y-62153996D01*
X118290825Y-62142823D01*
X118417758Y-62074976D01*
X118578177Y-62026313D01*
X118703196Y-62014000D01*
X118786804Y-62014000D01*
X118911823Y-62026313D01*
X118911823Y-62026313D01*
G37*
G36*
X112561823Y-62026313D02*
G01*
X112722242Y-62074976D01*
X112849175Y-62142823D01*
X112870078Y-62153996D01*
X112999659Y-62260341D01*
X113106004Y-62389922D01*
X113106005Y-62389924D01*
X113185024Y-62537758D01*
X113233687Y-62698177D01*
X113250117Y-62865000D01*
X113233687Y-63031823D01*
X113185024Y-63192242D01*
X113114114Y-63324906D01*
X113106004Y-63340078D01*
X112999659Y-63469659D01*
X112870078Y-63576004D01*
X112870076Y-63576005D01*
X112722242Y-63655024D01*
X112561823Y-63703687D01*
X112436804Y-63716000D01*
X112353196Y-63716000D01*
X112228177Y-63703687D01*
X112067758Y-63655024D01*
X111919924Y-63576005D01*
X111919922Y-63576004D01*
X111790341Y-63469659D01*
X111683996Y-63340078D01*
X111675886Y-63324906D01*
X111604976Y-63192242D01*
X111556313Y-63031823D01*
X111539883Y-62865000D01*
X111556313Y-62698177D01*
X111604976Y-62537758D01*
X111683995Y-62389924D01*
X111683996Y-62389922D01*
X111790341Y-62260341D01*
X111919922Y-62153996D01*
X111940825Y-62142823D01*
X112067758Y-62074976D01*
X112228177Y-62026313D01*
X112353196Y-62014000D01*
X112436804Y-62014000D01*
X112561823Y-62026313D01*
X112561823Y-62026313D01*
G37*
G36*
X109386823Y-62026313D02*
G01*
X109547242Y-62074976D01*
X109674175Y-62142823D01*
X109695078Y-62153996D01*
X109824659Y-62260341D01*
X109931004Y-62389922D01*
X109931005Y-62389924D01*
X110010024Y-62537758D01*
X110058687Y-62698177D01*
X110075117Y-62865000D01*
X110058687Y-63031823D01*
X110010024Y-63192242D01*
X109939114Y-63324906D01*
X109931004Y-63340078D01*
X109824659Y-63469659D01*
X109695078Y-63576004D01*
X109695076Y-63576005D01*
X109547242Y-63655024D01*
X109386823Y-63703687D01*
X109261804Y-63716000D01*
X109178196Y-63716000D01*
X109053177Y-63703687D01*
X108892758Y-63655024D01*
X108744924Y-63576005D01*
X108744922Y-63576004D01*
X108615341Y-63469659D01*
X108508996Y-63340078D01*
X108500886Y-63324906D01*
X108429976Y-63192242D01*
X108381313Y-63031823D01*
X108364883Y-62865000D01*
X108381313Y-62698177D01*
X108429976Y-62537758D01*
X108508995Y-62389924D01*
X108508996Y-62389922D01*
X108615341Y-62260341D01*
X108744922Y-62153996D01*
X108765825Y-62142823D01*
X108892758Y-62074976D01*
X109053177Y-62026313D01*
X109178196Y-62014000D01*
X109261804Y-62014000D01*
X109386823Y-62026313D01*
X109386823Y-62026313D01*
G37*
G36*
X83636425Y-60982760D02*
G01*
X83636428Y-60982761D01*
X83636429Y-60982761D01*
X83815693Y-61037140D01*
X83815696Y-61037142D01*
X83815697Y-61037142D01*
X83980903Y-61125446D01*
X84125712Y-61244288D01*
X84244554Y-61389097D01*
X84304325Y-61500922D01*
X84332860Y-61554307D01*
X84339440Y-61576000D01*
X84387240Y-61733575D01*
X84405601Y-61920000D01*
X84387240Y-62106425D01*
X84387239Y-62106428D01*
X84387239Y-62106429D01*
X84332860Y-62285693D01*
X84332858Y-62285696D01*
X84332858Y-62285697D01*
X84244554Y-62450903D01*
X84125712Y-62595712D01*
X83980903Y-62714554D01*
X83815697Y-62802858D01*
X83815693Y-62802860D01*
X83636429Y-62857239D01*
X83636428Y-62857239D01*
X83636425Y-62857240D01*
X83496718Y-62871000D01*
X81603282Y-62871000D01*
X81463575Y-62857240D01*
X81463572Y-62857239D01*
X81463571Y-62857239D01*
X81284307Y-62802860D01*
X81284303Y-62802858D01*
X81119097Y-62714554D01*
X80974288Y-62595712D01*
X80855446Y-62450903D01*
X80767142Y-62285697D01*
X80767142Y-62285696D01*
X80767140Y-62285693D01*
X80712761Y-62106429D01*
X80712761Y-62106428D01*
X80712760Y-62106425D01*
X80694399Y-61920000D01*
X80712760Y-61733575D01*
X80760560Y-61576000D01*
X80767140Y-61554307D01*
X80795675Y-61500922D01*
X80855446Y-61389097D01*
X80974288Y-61244288D01*
X81119097Y-61125446D01*
X81284303Y-61037142D01*
X81284304Y-61037142D01*
X81284307Y-61037140D01*
X81463571Y-60982761D01*
X81463572Y-60982761D01*
X81463575Y-60982760D01*
X81603282Y-60969000D01*
X83496718Y-60969000D01*
X83636425Y-60982760D01*
X83636425Y-60982760D01*
G37*
G36*
X97721823Y-61137313D02*
G01*
X97882242Y-61185976D01*
X97964120Y-61229741D01*
X98030078Y-61264996D01*
X98159659Y-61371341D01*
X98266004Y-61500922D01*
X98266005Y-61500924D01*
X98345024Y-61648758D01*
X98393687Y-61809177D01*
X98410117Y-61976000D01*
X98393687Y-62142823D01*
X98369624Y-62222147D01*
X98350348Y-62285693D01*
X98345024Y-62303242D01*
X98298691Y-62389924D01*
X98266004Y-62451078D01*
X98159659Y-62580659D01*
X98030078Y-62687004D01*
X98030076Y-62687005D01*
X97882242Y-62766024D01*
X97721823Y-62814687D01*
X97596804Y-62827000D01*
X96713196Y-62827000D01*
X96588177Y-62814687D01*
X96427758Y-62766024D01*
X96279924Y-62687005D01*
X96279922Y-62687004D01*
X96150341Y-62580659D01*
X96043996Y-62451078D01*
X96011309Y-62389924D01*
X95964976Y-62303242D01*
X95959653Y-62285693D01*
X95940376Y-62222147D01*
X95916313Y-62142823D01*
X95899883Y-61976000D01*
X95916313Y-61809177D01*
X95964976Y-61648758D01*
X96043995Y-61500924D01*
X96043996Y-61500922D01*
X96150341Y-61371341D01*
X96279922Y-61264996D01*
X96345880Y-61229741D01*
X96427758Y-61185976D01*
X96588177Y-61137313D01*
X96713196Y-61125000D01*
X97596804Y-61125000D01*
X97721823Y-61137313D01*
X97721823Y-61137313D01*
G37*
G36*
X105341823Y-61137313D02*
G01*
X105502242Y-61185976D01*
X105584120Y-61229741D01*
X105650078Y-61264996D01*
X105779659Y-61371341D01*
X105886004Y-61500922D01*
X105886005Y-61500924D01*
X105965024Y-61648758D01*
X106013687Y-61809177D01*
X106030117Y-61976000D01*
X106013687Y-62142823D01*
X105989624Y-62222147D01*
X105970348Y-62285693D01*
X105965024Y-62303242D01*
X105918691Y-62389924D01*
X105886004Y-62451078D01*
X105779659Y-62580659D01*
X105650078Y-62687004D01*
X105650076Y-62687005D01*
X105502242Y-62766024D01*
X105341823Y-62814687D01*
X105216804Y-62827000D01*
X104333196Y-62827000D01*
X104208177Y-62814687D01*
X104047758Y-62766024D01*
X103899924Y-62687005D01*
X103899922Y-62687004D01*
X103770341Y-62580659D01*
X103663996Y-62451078D01*
X103631309Y-62389924D01*
X103584976Y-62303242D01*
X103579653Y-62285693D01*
X103560376Y-62222147D01*
X103536313Y-62142823D01*
X103519883Y-61976000D01*
X103536313Y-61809177D01*
X103584976Y-61648758D01*
X103663995Y-61500924D01*
X103663996Y-61500922D01*
X103770341Y-61371341D01*
X103899922Y-61264996D01*
X103965880Y-61229741D01*
X104047758Y-61185976D01*
X104208177Y-61137313D01*
X104333196Y-61125000D01*
X105216804Y-61125000D01*
X105341823Y-61137313D01*
X105341823Y-61137313D01*
G37*
G36*
X90799228Y-60649703D02*
G01*
X90954100Y-60713853D01*
X91093481Y-60806985D01*
X91212015Y-60925519D01*
X91305147Y-61064900D01*
X91369297Y-61219772D01*
X91402000Y-61384184D01*
X91402000Y-61551816D01*
X91369297Y-61716228D01*
X91305147Y-61871100D01*
X91212015Y-62010481D01*
X91093481Y-62129015D01*
X90954100Y-62222147D01*
X90799228Y-62286297D01*
X90634816Y-62319000D01*
X90467184Y-62319000D01*
X90302772Y-62286297D01*
X90147900Y-62222147D01*
X90008519Y-62129015D01*
X89889985Y-62010481D01*
X89796853Y-61871100D01*
X89732703Y-61716228D01*
X89700000Y-61551816D01*
X89700000Y-61384184D01*
X89732703Y-61219772D01*
X89796853Y-61064900D01*
X89889985Y-60925519D01*
X90008519Y-60806985D01*
X90147900Y-60713853D01*
X90302772Y-60649703D01*
X90467184Y-60617000D01*
X90634816Y-60617000D01*
X90799228Y-60649703D01*
X90799228Y-60649703D01*
G37*
G36*
X93299228Y-60649703D02*
G01*
X93454100Y-60713853D01*
X93593481Y-60806985D01*
X93712015Y-60925519D01*
X93805147Y-61064900D01*
X93869297Y-61219772D01*
X93902000Y-61384184D01*
X93902000Y-61551816D01*
X93869297Y-61716228D01*
X93805147Y-61871100D01*
X93712015Y-62010481D01*
X93593481Y-62129015D01*
X93454100Y-62222147D01*
X93299228Y-62286297D01*
X93134816Y-62319000D01*
X92967184Y-62319000D01*
X92802772Y-62286297D01*
X92647900Y-62222147D01*
X92508519Y-62129015D01*
X92389985Y-62010481D01*
X92296853Y-61871100D01*
X92232703Y-61716228D01*
X92200000Y-61551816D01*
X92200000Y-61384184D01*
X92232703Y-61219772D01*
X92296853Y-61064900D01*
X92389985Y-60925519D01*
X92508519Y-60806985D01*
X92647900Y-60713853D01*
X92802772Y-60649703D01*
X92967184Y-60617000D01*
X93134816Y-60617000D01*
X93299228Y-60649703D01*
X93299228Y-60649703D01*
G37*
G36*
X153517585Y-58503802D02*
G01*
X153667410Y-58533604D01*
X153949674Y-58650521D01*
X154203705Y-58820259D01*
X154419741Y-59036295D01*
X154589479Y-59290326D01*
X154661568Y-59464366D01*
X154706396Y-59572591D01*
X154766000Y-59872239D01*
X154766000Y-60177761D01*
X154736198Y-60327585D01*
X154706396Y-60477410D01*
X154589479Y-60759674D01*
X154419741Y-61013705D01*
X154203705Y-61229741D01*
X153949674Y-61399479D01*
X153667410Y-61516396D01*
X153517585Y-61546198D01*
X153367761Y-61576000D01*
X153062239Y-61576000D01*
X152912415Y-61546198D01*
X152762590Y-61516396D01*
X152480326Y-61399479D01*
X152226295Y-61229741D01*
X152010259Y-61013705D01*
X151840521Y-60759674D01*
X151723604Y-60477410D01*
X151693802Y-60327585D01*
X151664000Y-60177761D01*
X151664000Y-59872239D01*
X151723604Y-59572591D01*
X151768432Y-59464366D01*
X151840521Y-59290326D01*
X152010259Y-59036295D01*
X152226295Y-58820259D01*
X152480326Y-58650521D01*
X152762590Y-58533604D01*
X152912415Y-58503802D01*
X153062239Y-58474000D01*
X153367761Y-58474000D01*
X153517585Y-58503802D01*
X153517585Y-58503802D01*
G37*
G36*
X141394487Y-58773996D02*
G01*
X141631253Y-58872068D01*
X141631255Y-58872069D01*
X141844339Y-59014447D01*
X142025553Y-59195661D01*
X142142711Y-59371000D01*
X142167932Y-59408747D01*
X142266004Y-59645513D01*
X142316000Y-59896861D01*
X142316000Y-60153139D01*
X142266004Y-60404487D01*
X142177978Y-60617000D01*
X142167931Y-60641255D01*
X142025553Y-60854339D01*
X141844339Y-61035553D01*
X141631255Y-61177931D01*
X141631254Y-61177932D01*
X141631253Y-61177932D01*
X141394487Y-61276004D01*
X141143139Y-61326000D01*
X140886861Y-61326000D01*
X140635513Y-61276004D01*
X140398747Y-61177932D01*
X140398746Y-61177932D01*
X140398745Y-61177931D01*
X140185661Y-61035553D01*
X140004447Y-60854339D01*
X139862069Y-60641255D01*
X139852022Y-60617000D01*
X139763996Y-60404487D01*
X139714000Y-60153139D01*
X139714000Y-59896861D01*
X139763996Y-59645513D01*
X139862068Y-59408747D01*
X139887290Y-59371000D01*
X140004447Y-59195661D01*
X140185661Y-59014447D01*
X140398745Y-58872069D01*
X140398747Y-58872068D01*
X140635513Y-58773996D01*
X140886861Y-58724000D01*
X141143139Y-58724000D01*
X141394487Y-58773996D01*
X141394487Y-58773996D01*
G37*
G36*
X132884271Y-58550103D02*
G01*
X132940635Y-58555654D01*
X133157600Y-58621470D01*
X133157602Y-58621471D01*
X133357555Y-58728347D01*
X133532818Y-58872182D01*
X133676653Y-59047445D01*
X133755875Y-59195661D01*
X133783530Y-59247400D01*
X133849346Y-59464365D01*
X133871569Y-59690000D01*
X133849346Y-59915635D01*
X133833645Y-59967395D01*
X133783529Y-60132602D01*
X133676653Y-60332555D01*
X133532818Y-60507818D01*
X133357555Y-60651653D01*
X133157602Y-60758529D01*
X133157600Y-60758530D01*
X132940635Y-60824346D01*
X132884271Y-60829897D01*
X132771545Y-60841000D01*
X132658455Y-60841000D01*
X132545729Y-60829897D01*
X132489365Y-60824346D01*
X132272400Y-60758530D01*
X132272398Y-60758529D01*
X132072445Y-60651653D01*
X131897182Y-60507818D01*
X131753347Y-60332555D01*
X131646471Y-60132602D01*
X131596356Y-59967395D01*
X131580654Y-59915635D01*
X131558431Y-59690000D01*
X131580654Y-59464365D01*
X131646470Y-59247400D01*
X131674125Y-59195661D01*
X131753347Y-59047445D01*
X131897182Y-58872182D01*
X132072445Y-58728347D01*
X132272398Y-58621471D01*
X132272400Y-58621470D01*
X132489365Y-58555654D01*
X132545729Y-58550103D01*
X132658455Y-58539000D01*
X132771545Y-58539000D01*
X132884271Y-58550103D01*
X132884271Y-58550103D01*
G37*
G36*
X122197395Y-58775546D02*
G01*
X122370466Y-58847234D01*
X122407634Y-58872069D01*
X122526227Y-58951310D01*
X122658690Y-59083773D01*
X122658691Y-59083775D01*
X122762766Y-59239534D01*
X122834454Y-59412605D01*
X122871000Y-59596333D01*
X122871000Y-59783667D01*
X122834454Y-59967395D01*
X122762766Y-60140466D01*
X122754299Y-60153137D01*
X122658690Y-60296227D01*
X122526227Y-60428690D01*
X122453312Y-60477410D01*
X122370466Y-60532766D01*
X122197395Y-60604454D01*
X122013667Y-60641000D01*
X121826333Y-60641000D01*
X121642605Y-60604454D01*
X121469534Y-60532766D01*
X121386688Y-60477410D01*
X121313773Y-60428690D01*
X121181310Y-60296227D01*
X121085701Y-60153137D01*
X121077234Y-60140466D01*
X121005546Y-59967395D01*
X120969000Y-59783667D01*
X120969000Y-59596333D01*
X121005546Y-59412605D01*
X121077234Y-59239534D01*
X121181309Y-59083775D01*
X121181310Y-59083773D01*
X121313773Y-58951310D01*
X121432366Y-58872069D01*
X121469534Y-58847234D01*
X121642605Y-58775546D01*
X121826333Y-58739000D01*
X122013667Y-58739000D01*
X122197395Y-58775546D01*
X122197395Y-58775546D01*
G37*
G36*
X125411000Y-60641000D02*
G01*
X123509000Y-60641000D01*
X123509000Y-58739000D01*
X125411000Y-58739000D01*
X125411000Y-60641000D01*
X125411000Y-60641000D01*
G37*
G36*
X105341823Y-58597313D02*
G01*
X105502242Y-58645976D01*
X105634906Y-58716886D01*
X105650078Y-58724996D01*
X105779659Y-58831341D01*
X105886004Y-58960922D01*
X105886005Y-58960924D01*
X105965024Y-59108758D01*
X106013687Y-59269177D01*
X106030117Y-59436000D01*
X106013687Y-59602823D01*
X105965024Y-59763242D01*
X105906764Y-59872239D01*
X105886004Y-59911078D01*
X105779659Y-60040659D01*
X105650078Y-60147004D01*
X105650076Y-60147005D01*
X105502242Y-60226024D01*
X105341823Y-60274687D01*
X105216804Y-60287000D01*
X104333196Y-60287000D01*
X104208177Y-60274687D01*
X104047758Y-60226024D01*
X103899924Y-60147005D01*
X103899922Y-60147004D01*
X103770341Y-60040659D01*
X103663996Y-59911078D01*
X103643236Y-59872239D01*
X103584976Y-59763242D01*
X103536313Y-59602823D01*
X103519883Y-59436000D01*
X103536313Y-59269177D01*
X103584976Y-59108758D01*
X103663995Y-58960924D01*
X103663996Y-58960922D01*
X103770341Y-58831341D01*
X103899922Y-58724996D01*
X103915094Y-58716886D01*
X104047758Y-58645976D01*
X104208177Y-58597313D01*
X104333196Y-58585000D01*
X105216804Y-58585000D01*
X105341823Y-58597313D01*
X105341823Y-58597313D01*
G37*
G36*
X97721823Y-58597313D02*
G01*
X97882242Y-58645976D01*
X98014906Y-58716886D01*
X98030078Y-58724996D01*
X98159659Y-58831341D01*
X98266004Y-58960922D01*
X98266005Y-58960924D01*
X98345024Y-59108758D01*
X98393687Y-59269177D01*
X98410117Y-59436000D01*
X98393687Y-59602823D01*
X98345024Y-59763242D01*
X98286764Y-59872239D01*
X98266004Y-59911078D01*
X98159659Y-60040659D01*
X98030078Y-60147004D01*
X98030076Y-60147005D01*
X97882242Y-60226024D01*
X97721823Y-60274687D01*
X97596804Y-60287000D01*
X96713196Y-60287000D01*
X96588177Y-60274687D01*
X96427758Y-60226024D01*
X96279924Y-60147005D01*
X96279922Y-60147004D01*
X96150341Y-60040659D01*
X96043996Y-59911078D01*
X96023236Y-59872239D01*
X95964976Y-59763242D01*
X95916313Y-59602823D01*
X95899883Y-59436000D01*
X95916313Y-59269177D01*
X95964976Y-59108758D01*
X96043995Y-58960924D01*
X96043996Y-58960922D01*
X96150341Y-58831341D01*
X96279922Y-58724996D01*
X96295094Y-58716886D01*
X96427758Y-58645976D01*
X96588177Y-58597313D01*
X96713196Y-58585000D01*
X97596804Y-58585000D01*
X97721823Y-58597313D01*
X97721823Y-58597313D01*
G37*
G36*
X84401000Y-59371000D02*
G01*
X80699000Y-59371000D01*
X80699000Y-57469000D01*
X84401000Y-57469000D01*
X84401000Y-59371000D01*
X84401000Y-59371000D01*
G37*
G36*
X93299228Y-56585703D02*
G01*
X93454100Y-56649853D01*
X93593481Y-56742985D01*
X93712015Y-56861519D01*
X93805147Y-57000900D01*
X93869297Y-57155772D01*
X93902000Y-57320184D01*
X93902000Y-57487816D01*
X93869297Y-57652228D01*
X93805147Y-57807100D01*
X93712015Y-57946481D01*
X93593481Y-58065015D01*
X93454100Y-58158147D01*
X93299228Y-58222297D01*
X93134816Y-58255000D01*
X92967184Y-58255000D01*
X92802772Y-58222297D01*
X92647900Y-58158147D01*
X92508519Y-58065015D01*
X92389985Y-57946481D01*
X92296853Y-57807100D01*
X92232703Y-57652228D01*
X92200000Y-57487816D01*
X92200000Y-57320184D01*
X92232703Y-57155772D01*
X92296853Y-57000900D01*
X92389985Y-56861519D01*
X92508519Y-56742985D01*
X92647900Y-56649853D01*
X92802772Y-56585703D01*
X92967184Y-56553000D01*
X93134816Y-56553000D01*
X93299228Y-56585703D01*
X93299228Y-56585703D01*
G37*
G36*
X90799228Y-56585703D02*
G01*
X90954100Y-56649853D01*
X91093481Y-56742985D01*
X91212015Y-56861519D01*
X91305147Y-57000900D01*
X91369297Y-57155772D01*
X91402000Y-57320184D01*
X91402000Y-57487816D01*
X91369297Y-57652228D01*
X91305147Y-57807100D01*
X91212015Y-57946481D01*
X91093481Y-58065015D01*
X90954100Y-58158147D01*
X90799228Y-58222297D01*
X90634816Y-58255000D01*
X90467184Y-58255000D01*
X90302772Y-58222297D01*
X90147900Y-58158147D01*
X90008519Y-58065015D01*
X89889985Y-57946481D01*
X89796853Y-57807100D01*
X89732703Y-57652228D01*
X89700000Y-57487816D01*
X89700000Y-57320184D01*
X89732703Y-57155772D01*
X89796853Y-57000900D01*
X89889985Y-56861519D01*
X90008519Y-56742985D01*
X90147900Y-56649853D01*
X90302772Y-56585703D01*
X90467184Y-56553000D01*
X90634816Y-56553000D01*
X90799228Y-56585703D01*
X90799228Y-56585703D01*
G37*
G36*
X109468228Y-56331703D02*
G01*
X109623100Y-56395853D01*
X109762481Y-56488985D01*
X109881015Y-56607519D01*
X109974147Y-56746900D01*
X110038297Y-56901772D01*
X110071000Y-57066184D01*
X110071000Y-57233816D01*
X110038297Y-57398228D01*
X109974147Y-57553100D01*
X109881015Y-57692481D01*
X109762481Y-57811015D01*
X109623100Y-57904147D01*
X109468228Y-57968297D01*
X109303816Y-58001000D01*
X109136184Y-58001000D01*
X108971772Y-57968297D01*
X108816900Y-57904147D01*
X108677519Y-57811015D01*
X108558985Y-57692481D01*
X108465853Y-57553100D01*
X108401703Y-57398228D01*
X108369000Y-57233816D01*
X108369000Y-57066184D01*
X108401703Y-56901772D01*
X108465853Y-56746900D01*
X108558985Y-56607519D01*
X108677519Y-56488985D01*
X108816900Y-56395853D01*
X108971772Y-56331703D01*
X109136184Y-56299000D01*
X109303816Y-56299000D01*
X109468228Y-56331703D01*
X109468228Y-56331703D01*
G37*
G36*
X105341823Y-56057313D02*
G01*
X105502242Y-56105976D01*
X105543874Y-56128229D01*
X105650078Y-56184996D01*
X105779659Y-56291341D01*
X105886004Y-56420922D01*
X105886005Y-56420924D01*
X105965024Y-56568758D01*
X106013687Y-56729177D01*
X106030117Y-56896000D01*
X106013687Y-57062823D01*
X105965024Y-57223242D01*
X105959372Y-57233816D01*
X105886004Y-57371078D01*
X105779659Y-57500659D01*
X105650078Y-57607004D01*
X105650076Y-57607005D01*
X105502242Y-57686024D01*
X105341823Y-57734687D01*
X105216804Y-57747000D01*
X104333196Y-57747000D01*
X104208177Y-57734687D01*
X104047758Y-57686024D01*
X103899924Y-57607005D01*
X103899922Y-57607004D01*
X103770341Y-57500659D01*
X103663996Y-57371078D01*
X103590628Y-57233816D01*
X103584976Y-57223242D01*
X103536313Y-57062823D01*
X103519883Y-56896000D01*
X103536313Y-56729177D01*
X103584976Y-56568758D01*
X103663995Y-56420924D01*
X103663996Y-56420922D01*
X103770341Y-56291341D01*
X103899922Y-56184996D01*
X104006126Y-56128229D01*
X104047758Y-56105976D01*
X104208177Y-56057313D01*
X104333196Y-56045000D01*
X105216804Y-56045000D01*
X105341823Y-56057313D01*
X105341823Y-56057313D01*
G37*
G36*
X98406000Y-57747000D02*
G01*
X95904000Y-57747000D01*
X95904000Y-56045000D01*
X98406000Y-56045000D01*
X98406000Y-57747000D01*
X98406000Y-57747000D01*
G37*
G36*
X122803228Y-55061703D02*
G01*
X122958100Y-55125853D01*
X123097481Y-55218985D01*
X123216015Y-55337519D01*
X123309147Y-55476900D01*
X123373297Y-55631772D01*
X123406000Y-55796184D01*
X123406000Y-55963816D01*
X123373297Y-56128228D01*
X123309147Y-56283100D01*
X123216015Y-56422481D01*
X123097481Y-56541015D01*
X122958100Y-56634147D01*
X122803228Y-56698297D01*
X122638816Y-56731000D01*
X122471184Y-56731000D01*
X122306772Y-56698297D01*
X122151900Y-56634147D01*
X122012519Y-56541015D01*
X121893985Y-56422481D01*
X121800853Y-56283100D01*
X121736703Y-56128228D01*
X121704000Y-55963816D01*
X121704000Y-55796184D01*
X121736703Y-55631772D01*
X121800853Y-55476900D01*
X121893985Y-55337519D01*
X122012519Y-55218985D01*
X122151900Y-55125853D01*
X122306772Y-55061703D01*
X122471184Y-55029000D01*
X122638816Y-55029000D01*
X122803228Y-55061703D01*
X122803228Y-55061703D01*
G37*
G36*
X112561823Y-55041313D02*
G01*
X112722242Y-55089976D01*
X112789361Y-55125852D01*
X112870078Y-55168996D01*
X112999659Y-55275341D01*
X113106004Y-55404922D01*
X113106005Y-55404924D01*
X113185024Y-55552758D01*
X113233687Y-55713177D01*
X113250117Y-55880000D01*
X113233687Y-56046823D01*
X113185024Y-56207242D01*
X113144477Y-56283100D01*
X113106004Y-56355078D01*
X112999659Y-56484659D01*
X112870078Y-56591004D01*
X112870076Y-56591005D01*
X112722242Y-56670024D01*
X112561823Y-56718687D01*
X112436804Y-56731000D01*
X112353196Y-56731000D01*
X112228177Y-56718687D01*
X112067758Y-56670024D01*
X111919924Y-56591005D01*
X111919922Y-56591004D01*
X111790341Y-56484659D01*
X111683996Y-56355078D01*
X111645523Y-56283100D01*
X111604976Y-56207242D01*
X111556313Y-56046823D01*
X111539883Y-55880000D01*
X111556313Y-55713177D01*
X111604976Y-55552758D01*
X111683995Y-55404924D01*
X111683996Y-55404922D01*
X111790341Y-55275341D01*
X111919922Y-55168996D01*
X112000639Y-55125852D01*
X112067758Y-55089976D01*
X112228177Y-55041313D01*
X112353196Y-55029000D01*
X112436804Y-55029000D01*
X112561823Y-55041313D01*
X112561823Y-55041313D01*
G37*
G36*
X139367585Y-52453802D02*
G01*
X139517410Y-52483604D01*
X139799674Y-52600521D01*
X140053705Y-52770259D01*
X140269741Y-52986295D01*
X140439479Y-53240326D01*
X140556396Y-53522590D01*
X140616000Y-53822240D01*
X140616000Y-54127760D01*
X140556396Y-54427410D01*
X140439479Y-54709674D01*
X140269741Y-54963705D01*
X140053705Y-55179741D01*
X139799674Y-55349479D01*
X139517410Y-55466396D01*
X139367585Y-55496198D01*
X139217761Y-55526000D01*
X138912239Y-55526000D01*
X138762415Y-55496198D01*
X138612590Y-55466396D01*
X138330326Y-55349479D01*
X138076295Y-55179741D01*
X137860259Y-54963705D01*
X137690521Y-54709674D01*
X137573604Y-54427410D01*
X137514000Y-54127760D01*
X137514000Y-53822240D01*
X137573604Y-53522590D01*
X137690521Y-53240326D01*
X137860259Y-52986295D01*
X138076295Y-52770259D01*
X138330326Y-52600521D01*
X138612590Y-52483604D01*
X138762415Y-52453802D01*
X138912239Y-52424000D01*
X139217761Y-52424000D01*
X139367585Y-52453802D01*
X139367585Y-52453802D01*
G37*
G36*
X109468228Y-53831703D02*
G01*
X109623100Y-53895853D01*
X109762481Y-53988985D01*
X109881015Y-54107519D01*
X109974147Y-54246900D01*
X110038297Y-54401772D01*
X110071000Y-54566184D01*
X110071000Y-54733816D01*
X110038297Y-54898228D01*
X109974147Y-55053100D01*
X109881015Y-55192481D01*
X109762481Y-55311015D01*
X109623100Y-55404147D01*
X109468228Y-55468297D01*
X109303816Y-55501000D01*
X109136184Y-55501000D01*
X108971772Y-55468297D01*
X108816900Y-55404147D01*
X108677519Y-55311015D01*
X108558985Y-55192481D01*
X108465853Y-55053100D01*
X108401703Y-54898228D01*
X108369000Y-54733816D01*
X108369000Y-54566184D01*
X108401703Y-54401772D01*
X108465853Y-54246900D01*
X108558985Y-54107519D01*
X108677519Y-53988985D01*
X108816900Y-53895853D01*
X108971772Y-53831703D01*
X109136184Y-53799000D01*
X109303816Y-53799000D01*
X109468228Y-53831703D01*
X109468228Y-53831703D01*
G37*
G36*
X166082564Y-46345099D02*
G01*
X166324126Y-46393149D01*
X167006765Y-46675907D01*
X167621123Y-47086408D01*
X168143592Y-47608877D01*
X168554093Y-48223235D01*
X168836851Y-48905874D01*
X168856170Y-49002996D01*
X168981000Y-49630557D01*
X168981000Y-50369443D01*
X168964777Y-50451000D01*
X168836851Y-51094126D01*
X168554093Y-51776765D01*
X168143592Y-52391123D01*
X167621123Y-52913592D01*
X167006765Y-53324093D01*
X166324126Y-53606851D01*
X166082564Y-53654901D01*
X165599443Y-53751000D01*
X164860557Y-53751000D01*
X164377436Y-53654901D01*
X164135874Y-53606851D01*
X163453235Y-53324093D01*
X162838877Y-52913592D01*
X162316408Y-52391123D01*
X161905907Y-51776765D01*
X161623149Y-51094126D01*
X161495223Y-50451000D01*
X161479000Y-50369443D01*
X161479000Y-49630557D01*
X161603830Y-49002996D01*
X161623149Y-48905874D01*
X161905907Y-48223235D01*
X162316408Y-47608877D01*
X162838877Y-47086408D01*
X163453235Y-46675907D01*
X164135874Y-46393149D01*
X164377436Y-46345099D01*
X164860557Y-46249000D01*
X165599443Y-46249000D01*
X166082564Y-46345099D01*
X166082564Y-46345099D01*
G37*
G36*
X80852564Y-46345099D02*
G01*
X81094126Y-46393149D01*
X81776765Y-46675907D01*
X82391123Y-47086408D01*
X82913592Y-47608877D01*
X83324093Y-48223235D01*
X83606851Y-48905874D01*
X83626170Y-49002996D01*
X83751000Y-49630557D01*
X83751000Y-50369443D01*
X83734777Y-50451000D01*
X83606851Y-51094126D01*
X83324093Y-51776765D01*
X82913592Y-52391123D01*
X82391123Y-52913592D01*
X81776765Y-53324093D01*
X81094126Y-53606851D01*
X80852564Y-53654901D01*
X80369443Y-53751000D01*
X79630557Y-53751000D01*
X79147436Y-53654901D01*
X78905874Y-53606851D01*
X78223235Y-53324093D01*
X77608877Y-52913592D01*
X77086408Y-52391123D01*
X76675907Y-51776765D01*
X76393149Y-51094126D01*
X76265223Y-50451000D01*
X76249000Y-50369443D01*
X76249000Y-49630557D01*
X76373830Y-49002996D01*
X76393149Y-48905874D01*
X76675907Y-48223235D01*
X77086408Y-47608877D01*
X77608877Y-47086408D01*
X78223235Y-46675907D01*
X78905874Y-46393149D01*
X79147436Y-46345099D01*
X79630557Y-46249000D01*
X80369443Y-46249000D01*
X80852564Y-46345099D01*
X80852564Y-46345099D01*
G37*
G36*
X126396004Y-48366662D02*
G01*
X126547933Y-48412750D01*
X126687954Y-48487593D01*
X126810686Y-48588315D01*
X126911407Y-48711045D01*
X126986250Y-48851066D01*
X127032338Y-49002995D01*
X127044000Y-49121409D01*
X127044000Y-50700591D01*
X127032338Y-50819005D01*
X126986250Y-50970934D01*
X126911407Y-51110955D01*
X126810686Y-51233686D01*
X126687955Y-51334407D01*
X126547934Y-51409250D01*
X126396005Y-51455338D01*
X126238000Y-51470899D01*
X126079996Y-51455338D01*
X125928067Y-51409250D01*
X125788046Y-51334407D01*
X125665315Y-51233686D01*
X125564594Y-51110955D01*
X125489751Y-50970934D01*
X125443663Y-50819005D01*
X125432001Y-50700591D01*
X125432000Y-49121410D01*
X125443662Y-49002996D01*
X125489750Y-48851067D01*
X125564593Y-48711046D01*
X125665315Y-48588314D01*
X125788045Y-48487593D01*
X125928066Y-48412750D01*
X126079995Y-48366662D01*
X126238000Y-48351101D01*
X126396004Y-48366662D01*
X126396004Y-48366662D01*
G37*
G36*
X123856004Y-48366662D02*
G01*
X124007933Y-48412750D01*
X124147954Y-48487593D01*
X124270686Y-48588315D01*
X124371407Y-48711045D01*
X124446250Y-48851066D01*
X124492338Y-49002995D01*
X124504000Y-49121409D01*
X124504000Y-50700591D01*
X124492338Y-50819005D01*
X124446250Y-50970934D01*
X124371407Y-51110955D01*
X124270686Y-51233686D01*
X124147955Y-51334407D01*
X124007934Y-51409250D01*
X123856005Y-51455338D01*
X123698000Y-51470899D01*
X123539996Y-51455338D01*
X123388067Y-51409250D01*
X123248046Y-51334407D01*
X123125315Y-51233686D01*
X123024594Y-51110955D01*
X122949751Y-50970934D01*
X122903663Y-50819005D01*
X122892001Y-50700591D01*
X122892000Y-49121410D01*
X122903662Y-49002996D01*
X122949750Y-48851067D01*
X123024593Y-48711046D01*
X123125315Y-48588314D01*
X123248045Y-48487593D01*
X123388066Y-48412750D01*
X123539995Y-48366662D01*
X123698000Y-48351101D01*
X123856004Y-48366662D01*
X123856004Y-48366662D01*
G37*
G36*
X121316004Y-48366662D02*
G01*
X121467933Y-48412750D01*
X121607954Y-48487593D01*
X121730686Y-48588315D01*
X121831407Y-48711045D01*
X121906250Y-48851066D01*
X121952338Y-49002995D01*
X121964000Y-49121409D01*
X121964000Y-50700591D01*
X121952338Y-50819005D01*
X121906250Y-50970934D01*
X121831407Y-51110955D01*
X121730686Y-51233686D01*
X121607955Y-51334407D01*
X121467934Y-51409250D01*
X121316005Y-51455338D01*
X121158000Y-51470899D01*
X120999996Y-51455338D01*
X120848067Y-51409250D01*
X120708046Y-51334407D01*
X120585315Y-51233686D01*
X120484594Y-51110955D01*
X120409751Y-50970934D01*
X120363663Y-50819005D01*
X120352001Y-50700591D01*
X120352000Y-49121410D01*
X120363662Y-49002996D01*
X120409750Y-48851067D01*
X120484593Y-48711046D01*
X120585315Y-48588314D01*
X120708045Y-48487593D01*
X120848066Y-48412750D01*
X120999995Y-48366662D01*
X121158000Y-48351101D01*
X121316004Y-48366662D01*
X121316004Y-48366662D01*
G37*
G36*
X118776004Y-48366662D02*
G01*
X118927933Y-48412750D01*
X119067954Y-48487593D01*
X119190686Y-48588315D01*
X119291407Y-48711045D01*
X119366250Y-48851066D01*
X119412338Y-49002995D01*
X119424000Y-49121409D01*
X119424000Y-50700591D01*
X119412338Y-50819005D01*
X119366250Y-50970934D01*
X119291407Y-51110955D01*
X119190686Y-51233686D01*
X119067955Y-51334407D01*
X118927934Y-51409250D01*
X118776005Y-51455338D01*
X118618000Y-51470899D01*
X118459996Y-51455338D01*
X118308067Y-51409250D01*
X118168046Y-51334407D01*
X118045315Y-51233686D01*
X117944594Y-51110955D01*
X117869751Y-50970934D01*
X117823663Y-50819005D01*
X117812001Y-50700591D01*
X117812000Y-49121410D01*
X117823662Y-49002996D01*
X117869750Y-48851067D01*
X117944593Y-48711046D01*
X118045315Y-48588314D01*
X118168045Y-48487593D01*
X118308066Y-48412750D01*
X118459995Y-48366662D01*
X118618000Y-48351101D01*
X118776004Y-48366662D01*
X118776004Y-48366662D01*
G37*
G36*
X116236004Y-48366662D02*
G01*
X116387933Y-48412750D01*
X116527954Y-48487593D01*
X116650686Y-48588315D01*
X116751407Y-48711045D01*
X116826250Y-48851066D01*
X116872338Y-49002995D01*
X116884000Y-49121409D01*
X116884000Y-50700591D01*
X116872338Y-50819005D01*
X116826250Y-50970934D01*
X116751407Y-51110955D01*
X116650686Y-51233686D01*
X116527955Y-51334407D01*
X116387934Y-51409250D01*
X116236005Y-51455338D01*
X116078000Y-51470899D01*
X115919996Y-51455338D01*
X115768067Y-51409250D01*
X115628046Y-51334407D01*
X115505315Y-51233686D01*
X115404594Y-51110955D01*
X115329751Y-50970934D01*
X115283663Y-50819005D01*
X115272001Y-50700591D01*
X115272000Y-49121410D01*
X115283662Y-49002996D01*
X115329750Y-48851067D01*
X115404593Y-48711046D01*
X115505315Y-48588314D01*
X115628045Y-48487593D01*
X115768066Y-48412750D01*
X115919995Y-48366662D01*
X116078000Y-48351101D01*
X116236004Y-48366662D01*
X116236004Y-48366662D01*
G37*
G36*
X113696004Y-48366662D02*
G01*
X113847933Y-48412750D01*
X113987954Y-48487593D01*
X114110686Y-48588315D01*
X114211407Y-48711045D01*
X114286250Y-48851066D01*
X114332338Y-49002995D01*
X114344000Y-49121409D01*
X114344000Y-50700591D01*
X114332338Y-50819005D01*
X114286250Y-50970934D01*
X114211407Y-51110955D01*
X114110686Y-51233686D01*
X113987955Y-51334407D01*
X113847934Y-51409250D01*
X113696005Y-51455338D01*
X113538000Y-51470899D01*
X113379996Y-51455338D01*
X113228067Y-51409250D01*
X113088046Y-51334407D01*
X112965315Y-51233686D01*
X112864594Y-51110955D01*
X112789751Y-50970934D01*
X112743663Y-50819005D01*
X112732001Y-50700591D01*
X112732000Y-49121410D01*
X112743662Y-49002996D01*
X112789750Y-48851067D01*
X112864593Y-48711046D01*
X112965315Y-48588314D01*
X113088045Y-48487593D01*
X113228066Y-48412750D01*
X113379995Y-48366662D01*
X113538000Y-48351101D01*
X113696004Y-48366662D01*
X113696004Y-48366662D01*
G37*
G36*
X133866000Y-50681000D02*
G01*
X131564000Y-50681000D01*
X131564000Y-48379000D01*
X133866000Y-48379000D01*
X133866000Y-50681000D01*
X133866000Y-50681000D01*
G37*
G36*
X153567585Y-46453802D02*
G01*
X153717410Y-46483604D01*
X153999674Y-46600521D01*
X154253705Y-46770259D01*
X154469741Y-46986295D01*
X154639479Y-47240326D01*
X154756396Y-47522590D01*
X154773560Y-47608878D01*
X154816000Y-47822239D01*
X154816000Y-48127761D01*
X154791405Y-48251408D01*
X154756396Y-48427410D01*
X154639479Y-48709674D01*
X154469741Y-48963705D01*
X154253705Y-49179741D01*
X153999674Y-49349479D01*
X153717410Y-49466396D01*
X153567585Y-49496198D01*
X153417761Y-49526000D01*
X153112239Y-49526000D01*
X152962415Y-49496198D01*
X152812590Y-49466396D01*
X152530326Y-49349479D01*
X152276295Y-49179741D01*
X152060259Y-48963705D01*
X151890521Y-48709674D01*
X151773604Y-48427410D01*
X151738595Y-48251408D01*
X151714000Y-48127761D01*
X151714000Y-47822239D01*
X151756440Y-47608878D01*
X151773604Y-47522590D01*
X151890521Y-47240326D01*
X152060259Y-46986295D01*
X152276295Y-46770259D01*
X152530326Y-46600521D01*
X152812590Y-46483604D01*
X152962415Y-46453802D01*
X153112239Y-46424000D01*
X153417761Y-46424000D01*
X153567585Y-46453802D01*
X153567585Y-46453802D01*
G37*
G36*
X141394487Y-46773996D02*
G01*
X141518415Y-46825329D01*
X141631255Y-46872069D01*
X141802208Y-46986296D01*
X141844339Y-47014447D01*
X142025553Y-47195661D01*
X142167932Y-47408747D01*
X142266004Y-47645513D01*
X142316000Y-47896861D01*
X142316000Y-48153139D01*
X142266004Y-48404487D01*
X142167932Y-48641253D01*
X142167931Y-48641255D01*
X142025553Y-48854339D01*
X141844339Y-49035553D01*
X141631255Y-49177931D01*
X141631254Y-49177932D01*
X141631253Y-49177932D01*
X141394487Y-49276004D01*
X141143139Y-49326000D01*
X140886861Y-49326000D01*
X140635513Y-49276004D01*
X140398747Y-49177932D01*
X140398746Y-49177932D01*
X140398745Y-49177931D01*
X140185661Y-49035553D01*
X140004447Y-48854339D01*
X139862069Y-48641255D01*
X139862068Y-48641253D01*
X139763996Y-48404487D01*
X139714000Y-48153139D01*
X139714000Y-47896861D01*
X139763996Y-47645513D01*
X139862068Y-47408747D01*
X140004447Y-47195661D01*
X140185661Y-47014447D01*
X140227792Y-46986296D01*
X140398745Y-46872069D01*
X140511585Y-46825329D01*
X140635513Y-46773996D01*
X140886861Y-46724000D01*
X141143139Y-46724000D01*
X141394487Y-46773996D01*
X141394487Y-46773996D01*
G37*
M02*
