G04 #@! TF.GenerationSoftware,KiCad,Pcbnew,(5.1.4)-1*
G04 #@! TF.CreationDate,2019-09-28T11:42:58-04:00*
G04 #@! TF.ProjectId,projector-screen-controller,70726f6a-6563-4746-9f72-2d7363726565,0.2*
G04 #@! TF.SameCoordinates,Original*
G04 #@! TF.FileFunction,Soldermask,Bot*
G04 #@! TF.FilePolarity,Negative*
%FSLAX46Y46*%
G04 Gerber Fmt 4.6, Leading zero omitted, Abs format (unit mm)*
G04 Created by KiCad (PCBNEW (5.1.4)-1) date 2019-09-28 11:42:58*
%MOMM*%
%LPD*%
G04 APERTURE LIST*
%ADD10C,0.100000*%
G04 APERTURE END LIST*
D10*
G36*
X80852564Y-140845099D02*
G01*
X81094126Y-140893149D01*
X81776765Y-141175907D01*
X82391123Y-141586408D01*
X82913592Y-142108877D01*
X83324093Y-142723235D01*
X83606851Y-143405874D01*
X83606851Y-143405875D01*
X83751000Y-144130557D01*
X83751000Y-144869443D01*
X83724257Y-145003886D01*
X83606851Y-145594126D01*
X83324093Y-146276765D01*
X82913592Y-146891123D01*
X82391123Y-147413592D01*
X81776765Y-147824093D01*
X81094126Y-148106851D01*
X80852564Y-148154901D01*
X80369443Y-148251000D01*
X79630557Y-148251000D01*
X79147436Y-148154901D01*
X78905874Y-148106851D01*
X78223235Y-147824093D01*
X77608877Y-147413592D01*
X77086408Y-146891123D01*
X76675907Y-146276765D01*
X76393149Y-145594126D01*
X76275743Y-145003886D01*
X76249000Y-144869443D01*
X76249000Y-144130557D01*
X76393149Y-143405875D01*
X76393149Y-143405874D01*
X76675907Y-142723235D01*
X77086408Y-142108877D01*
X77608877Y-141586408D01*
X78223235Y-141175907D01*
X78905874Y-140893149D01*
X79147436Y-140845099D01*
X79630557Y-140749000D01*
X80369443Y-140749000D01*
X80852564Y-140845099D01*
X80852564Y-140845099D01*
G37*
G36*
X167352564Y-140845099D02*
G01*
X167594126Y-140893149D01*
X168276765Y-141175907D01*
X168891123Y-141586408D01*
X169413592Y-142108877D01*
X169824093Y-142723235D01*
X170106851Y-143405874D01*
X170106851Y-143405875D01*
X170251000Y-144130557D01*
X170251000Y-144869443D01*
X170224257Y-145003886D01*
X170106851Y-145594126D01*
X169824093Y-146276765D01*
X169413592Y-146891123D01*
X168891123Y-147413592D01*
X168276765Y-147824093D01*
X167594126Y-148106851D01*
X167352564Y-148154901D01*
X166869443Y-148251000D01*
X166130557Y-148251000D01*
X165647436Y-148154901D01*
X165405874Y-148106851D01*
X164723235Y-147824093D01*
X164108877Y-147413592D01*
X163586408Y-146891123D01*
X163175907Y-146276765D01*
X162893149Y-145594126D01*
X162775743Y-145003886D01*
X162749000Y-144869443D01*
X162749000Y-144130557D01*
X162893149Y-143405875D01*
X162893149Y-143405874D01*
X163175907Y-142723235D01*
X163586408Y-142108877D01*
X164108877Y-141586408D01*
X164723235Y-141175907D01*
X165405874Y-140893149D01*
X165647436Y-140845099D01*
X166130557Y-140749000D01*
X166869443Y-140749000D01*
X167352564Y-140845099D01*
X167352564Y-140845099D01*
G37*
G36*
X88567585Y-144528802D02*
G01*
X88717410Y-144558604D01*
X88999674Y-144675521D01*
X89253705Y-144845259D01*
X89469741Y-145061295D01*
X89639479Y-145315326D01*
X89754961Y-145594126D01*
X89756396Y-145597591D01*
X89816000Y-145897239D01*
X89816000Y-146202761D01*
X89801280Y-146276763D01*
X89756396Y-146502410D01*
X89639479Y-146784674D01*
X89469741Y-147038705D01*
X89253705Y-147254741D01*
X88999674Y-147424479D01*
X88717410Y-147541396D01*
X88611333Y-147562496D01*
X88417761Y-147601000D01*
X88112239Y-147601000D01*
X87918667Y-147562496D01*
X87812590Y-147541396D01*
X87530326Y-147424479D01*
X87276295Y-147254741D01*
X87060259Y-147038705D01*
X86890521Y-146784674D01*
X86773604Y-146502410D01*
X86728720Y-146276763D01*
X86714000Y-146202761D01*
X86714000Y-145897239D01*
X86773604Y-145597591D01*
X86775039Y-145594126D01*
X86890521Y-145315326D01*
X87060259Y-145061295D01*
X87276295Y-144845259D01*
X87530326Y-144675521D01*
X87812590Y-144558604D01*
X87962415Y-144528802D01*
X88112239Y-144499000D01*
X88417761Y-144499000D01*
X88567585Y-144528802D01*
X88567585Y-144528802D01*
G37*
G36*
X135536000Y-147601000D02*
G01*
X132434000Y-147601000D01*
X132434000Y-144499000D01*
X135536000Y-144499000D01*
X135536000Y-147601000D01*
X135536000Y-147601000D01*
G37*
G36*
X151741610Y-142646114D02*
G01*
X151964727Y-142738532D01*
X151964729Y-142738533D01*
X152015269Y-142772303D01*
X152165529Y-142872703D01*
X152336297Y-143043471D01*
X152470468Y-143244273D01*
X152562886Y-143467390D01*
X152610000Y-143704248D01*
X152610000Y-143945752D01*
X152562886Y-144182610D01*
X152470468Y-144405727D01*
X152336297Y-144606529D01*
X152165529Y-144777297D01*
X152027625Y-144869441D01*
X151964729Y-144911467D01*
X151964728Y-144911468D01*
X151964727Y-144911468D01*
X151741610Y-145003886D01*
X151504752Y-145051000D01*
X151263248Y-145051000D01*
X151026390Y-145003886D01*
X150803273Y-144911468D01*
X150803272Y-144911468D01*
X150803271Y-144911467D01*
X150740375Y-144869441D01*
X150602471Y-144777297D01*
X150431703Y-144606529D01*
X150297532Y-144405727D01*
X150205114Y-144182610D01*
X150158000Y-143945752D01*
X150158000Y-143704248D01*
X150205114Y-143467390D01*
X150297532Y-143244273D01*
X150431703Y-143043471D01*
X150602471Y-142872703D01*
X150752731Y-142772303D01*
X150803271Y-142738533D01*
X150803273Y-142738532D01*
X151026390Y-142646114D01*
X151263248Y-142599000D01*
X151504752Y-142599000D01*
X151741610Y-142646114D01*
X151741610Y-142646114D01*
G37*
G36*
X140866395Y-141325546D02*
G01*
X141039466Y-141397234D01*
X141039467Y-141397235D01*
X141195227Y-141501310D01*
X141327690Y-141633773D01*
X141327691Y-141633775D01*
X141431766Y-141789534D01*
X141503454Y-141962605D01*
X141540000Y-142146333D01*
X141540000Y-142333667D01*
X141503454Y-142517395D01*
X141431766Y-142690466D01*
X141391046Y-142751408D01*
X141327690Y-142846227D01*
X141195227Y-142978690D01*
X141116818Y-143031081D01*
X141039466Y-143082766D01*
X140866395Y-143154454D01*
X140682667Y-143191000D01*
X140495333Y-143191000D01*
X140311605Y-143154454D01*
X140138534Y-143082766D01*
X140061182Y-143031081D01*
X139982773Y-142978690D01*
X139850310Y-142846227D01*
X139786954Y-142751408D01*
X139746234Y-142690466D01*
X139674546Y-142517395D01*
X139638000Y-142333667D01*
X139638000Y-142146333D01*
X139674546Y-141962605D01*
X139746234Y-141789534D01*
X139850309Y-141633775D01*
X139850310Y-141633773D01*
X139982773Y-141501310D01*
X140138533Y-141397235D01*
X140138534Y-141397234D01*
X140311605Y-141325546D01*
X140495333Y-141289000D01*
X140682667Y-141289000D01*
X140866395Y-141325546D01*
X140866395Y-141325546D01*
G37*
G36*
X151741610Y-137646114D02*
G01*
X151964727Y-137738532D01*
X151964729Y-137738533D01*
X152015269Y-137772303D01*
X152165529Y-137872703D01*
X152336297Y-138043471D01*
X152470468Y-138244273D01*
X152562886Y-138467390D01*
X152610000Y-138704248D01*
X152610000Y-138945752D01*
X152562886Y-139182610D01*
X152470468Y-139405727D01*
X152336297Y-139606529D01*
X152165529Y-139777297D01*
X152015269Y-139877697D01*
X151964729Y-139911467D01*
X151964728Y-139911468D01*
X151964727Y-139911468D01*
X151741610Y-140003886D01*
X151504752Y-140051000D01*
X151263248Y-140051000D01*
X151026390Y-140003886D01*
X150803273Y-139911468D01*
X150803272Y-139911468D01*
X150803271Y-139911467D01*
X150752731Y-139877697D01*
X150602471Y-139777297D01*
X150431703Y-139606529D01*
X150297532Y-139405727D01*
X150205114Y-139182610D01*
X150158000Y-138945752D01*
X150158000Y-138704248D01*
X150205114Y-138467390D01*
X150297532Y-138244273D01*
X150431703Y-138043471D01*
X150602471Y-137872703D01*
X150752731Y-137772303D01*
X150803271Y-137738533D01*
X150803273Y-137738532D01*
X151026390Y-137646114D01*
X151263248Y-137599000D01*
X151504752Y-137599000D01*
X151741610Y-137646114D01*
X151741610Y-137646114D01*
G37*
G36*
X88567585Y-134368802D02*
G01*
X88717410Y-134398604D01*
X88999674Y-134515521D01*
X89253705Y-134685259D01*
X89469741Y-134901295D01*
X89639479Y-135155326D01*
X89756396Y-135437590D01*
X89816000Y-135737240D01*
X89816000Y-136042760D01*
X89756396Y-136342410D01*
X89639479Y-136624674D01*
X89469741Y-136878705D01*
X89253705Y-137094741D01*
X88999674Y-137264479D01*
X88717410Y-137381396D01*
X88567585Y-137411198D01*
X88417761Y-137441000D01*
X88112239Y-137441000D01*
X87962415Y-137411198D01*
X87812590Y-137381396D01*
X87530326Y-137264479D01*
X87276295Y-137094741D01*
X87060259Y-136878705D01*
X86890521Y-136624674D01*
X86773604Y-136342410D01*
X86714000Y-136042760D01*
X86714000Y-135737240D01*
X86773604Y-135437590D01*
X86890521Y-135155326D01*
X87060259Y-134901295D01*
X87276295Y-134685259D01*
X87530326Y-134515521D01*
X87812590Y-134398604D01*
X87962415Y-134368802D01*
X88112239Y-134339000D01*
X88417761Y-134339000D01*
X88567585Y-134368802D01*
X88567585Y-134368802D01*
G37*
G36*
X162447097Y-134684069D02*
G01*
X162550032Y-134694207D01*
X162748146Y-134754305D01*
X162748149Y-134754306D01*
X162844975Y-134806061D01*
X162930729Y-134851897D01*
X163090765Y-134983235D01*
X163222103Y-135143271D01*
X163267939Y-135229025D01*
X163319694Y-135325851D01*
X163319695Y-135325854D01*
X163379793Y-135523968D01*
X163400085Y-135730000D01*
X163379793Y-135936032D01*
X163319695Y-136134146D01*
X163319694Y-136134149D01*
X163267939Y-136230975D01*
X163222103Y-136316729D01*
X163090765Y-136476765D01*
X162930729Y-136608103D01*
X162844975Y-136653939D01*
X162748149Y-136705694D01*
X162748146Y-136705695D01*
X162550032Y-136765793D01*
X162447097Y-136775931D01*
X162395631Y-136781000D01*
X160692369Y-136781000D01*
X160640903Y-136775931D01*
X160537968Y-136765793D01*
X160339854Y-136705695D01*
X160339851Y-136705694D01*
X160243025Y-136653939D01*
X160157271Y-136608103D01*
X159997235Y-136476765D01*
X159865897Y-136316729D01*
X159820061Y-136230975D01*
X159768306Y-136134149D01*
X159768305Y-136134146D01*
X159708207Y-135936032D01*
X159687915Y-135730000D01*
X159708207Y-135523968D01*
X159768305Y-135325854D01*
X159768306Y-135325851D01*
X159820061Y-135229025D01*
X159865897Y-135143271D01*
X159997235Y-134983235D01*
X160157271Y-134851897D01*
X160243025Y-134806061D01*
X160339851Y-134754306D01*
X160339854Y-134754305D01*
X160537968Y-134694207D01*
X160640903Y-134684069D01*
X160692369Y-134679000D01*
X162395631Y-134679000D01*
X162447097Y-134684069D01*
X162447097Y-134684069D01*
G37*
G36*
X78343419Y-135053832D02*
G01*
X78498291Y-135117982D01*
X78637672Y-135211114D01*
X78756206Y-135329648D01*
X78849338Y-135469029D01*
X78913488Y-135623901D01*
X78946191Y-135788313D01*
X78946191Y-135955945D01*
X78913488Y-136120357D01*
X78849338Y-136275229D01*
X78756206Y-136414610D01*
X78637672Y-136533144D01*
X78498291Y-136626276D01*
X78343419Y-136690426D01*
X78179007Y-136723129D01*
X78011375Y-136723129D01*
X77846963Y-136690426D01*
X77692091Y-136626276D01*
X77552710Y-136533144D01*
X77434176Y-136414610D01*
X77341044Y-136275229D01*
X77276894Y-136120357D01*
X77244191Y-135955945D01*
X77244191Y-135788313D01*
X77276894Y-135623901D01*
X77341044Y-135469029D01*
X77434176Y-135329648D01*
X77552710Y-135211114D01*
X77692091Y-135117982D01*
X77846963Y-135053832D01*
X78011375Y-135021129D01*
X78179007Y-135021129D01*
X78343419Y-135053832D01*
X78343419Y-135053832D01*
G37*
G36*
X80843419Y-135053832D02*
G01*
X80998291Y-135117982D01*
X81137672Y-135211114D01*
X81256206Y-135329648D01*
X81349338Y-135469029D01*
X81413488Y-135623901D01*
X81446191Y-135788313D01*
X81446191Y-135955945D01*
X81413488Y-136120357D01*
X81349338Y-136275229D01*
X81256206Y-136414610D01*
X81137672Y-136533144D01*
X80998291Y-136626276D01*
X80843419Y-136690426D01*
X80679007Y-136723129D01*
X80511375Y-136723129D01*
X80346963Y-136690426D01*
X80192091Y-136626276D01*
X80052710Y-136533144D01*
X79934176Y-136414610D01*
X79841044Y-136275229D01*
X79776894Y-136120357D01*
X79744191Y-135955945D01*
X79744191Y-135788313D01*
X79776894Y-135623901D01*
X79841044Y-135469029D01*
X79934176Y-135329648D01*
X80052710Y-135211114D01*
X80192091Y-135117982D01*
X80346963Y-135053832D01*
X80511375Y-135021129D01*
X80679007Y-135021129D01*
X80843419Y-135053832D01*
X80843419Y-135053832D01*
G37*
G36*
X144566395Y-133825546D02*
G01*
X144739466Y-133897234D01*
X144739467Y-133897235D01*
X144895227Y-134001310D01*
X145027690Y-134133773D01*
X145027691Y-134133775D01*
X145131766Y-134289534D01*
X145203454Y-134462605D01*
X145240000Y-134646333D01*
X145240000Y-134833667D01*
X145203454Y-135017395D01*
X145131766Y-135190466D01*
X145131765Y-135190467D01*
X145027690Y-135346227D01*
X144895227Y-135478690D01*
X144827463Y-135523968D01*
X144739466Y-135582766D01*
X144566395Y-135654454D01*
X144382667Y-135691000D01*
X144195333Y-135691000D01*
X144011605Y-135654454D01*
X143838534Y-135582766D01*
X143750537Y-135523968D01*
X143682773Y-135478690D01*
X143550310Y-135346227D01*
X143446235Y-135190467D01*
X143446234Y-135190466D01*
X143374546Y-135017395D01*
X143338000Y-134833667D01*
X143338000Y-134646333D01*
X143374546Y-134462605D01*
X143446234Y-134289534D01*
X143550309Y-134133775D01*
X143550310Y-134133773D01*
X143682773Y-134001310D01*
X143838533Y-133897235D01*
X143838534Y-133897234D01*
X144011605Y-133825546D01*
X144195333Y-133789000D01*
X144382667Y-133789000D01*
X144566395Y-133825546D01*
X144566395Y-133825546D01*
G37*
G36*
X162447097Y-129684069D02*
G01*
X162550032Y-129694207D01*
X162748146Y-129754305D01*
X162748149Y-129754306D01*
X162844975Y-129806061D01*
X162930729Y-129851897D01*
X163090765Y-129983235D01*
X163222103Y-130143271D01*
X163267939Y-130229025D01*
X163319694Y-130325851D01*
X163319695Y-130325854D01*
X163379793Y-130523968D01*
X163400085Y-130730000D01*
X163379793Y-130936032D01*
X163319695Y-131134146D01*
X163319694Y-131134149D01*
X163267939Y-131230975D01*
X163222103Y-131316729D01*
X163090765Y-131476765D01*
X162930729Y-131608103D01*
X162844975Y-131653939D01*
X162748149Y-131705694D01*
X162748146Y-131705695D01*
X162550032Y-131765793D01*
X162447097Y-131775931D01*
X162395631Y-131781000D01*
X160692369Y-131781000D01*
X160640903Y-131775931D01*
X160537968Y-131765793D01*
X160339854Y-131705695D01*
X160339851Y-131705694D01*
X160243025Y-131653939D01*
X160157271Y-131608103D01*
X159997235Y-131476765D01*
X159865897Y-131316729D01*
X159820061Y-131230975D01*
X159768306Y-131134149D01*
X159768305Y-131134146D01*
X159708207Y-130936032D01*
X159687915Y-130730000D01*
X159708207Y-130523968D01*
X159768305Y-130325854D01*
X159768306Y-130325851D01*
X159820061Y-130229025D01*
X159865897Y-130143271D01*
X159997235Y-129983235D01*
X160157271Y-129851897D01*
X160243025Y-129806061D01*
X160339851Y-129754306D01*
X160339854Y-129754305D01*
X160537968Y-129694207D01*
X160640903Y-129684069D01*
X160692369Y-129679000D01*
X162395631Y-129679000D01*
X162447097Y-129684069D01*
X162447097Y-129684069D01*
G37*
G36*
X151741610Y-127646114D02*
G01*
X151951613Y-127733100D01*
X151964729Y-127738533D01*
X152015269Y-127772303D01*
X152165529Y-127872703D01*
X152336297Y-128043471D01*
X152470468Y-128244273D01*
X152562886Y-128467390D01*
X152610000Y-128704248D01*
X152610000Y-128945752D01*
X152562886Y-129182610D01*
X152470468Y-129405727D01*
X152336297Y-129606529D01*
X152165529Y-129777297D01*
X152015269Y-129877697D01*
X151964729Y-129911467D01*
X151964728Y-129911468D01*
X151964727Y-129911468D01*
X151741610Y-130003886D01*
X151504752Y-130051000D01*
X151263248Y-130051000D01*
X151026390Y-130003886D01*
X150803273Y-129911468D01*
X150803272Y-129911468D01*
X150803271Y-129911467D01*
X150752731Y-129877697D01*
X150602471Y-129777297D01*
X150431703Y-129606529D01*
X150297532Y-129405727D01*
X150205114Y-129182610D01*
X150158000Y-128945752D01*
X150158000Y-128704248D01*
X150205114Y-128467390D01*
X150297532Y-128244273D01*
X150431703Y-128043471D01*
X150602471Y-127872703D01*
X150752731Y-127772303D01*
X150803271Y-127738533D01*
X150816387Y-127733100D01*
X151026390Y-127646114D01*
X151263248Y-127599000D01*
X151504752Y-127599000D01*
X151741610Y-127646114D01*
X151741610Y-127646114D01*
G37*
G36*
X80853228Y-124911703D02*
G01*
X81008100Y-124975853D01*
X81147481Y-125068985D01*
X81266015Y-125187519D01*
X81359147Y-125326900D01*
X81423297Y-125481772D01*
X81456000Y-125646184D01*
X81456000Y-125813816D01*
X81423297Y-125978228D01*
X81359147Y-126133100D01*
X81266015Y-126272481D01*
X81266012Y-126272484D01*
X81260619Y-126280555D01*
X81257337Y-126284555D01*
X81245786Y-126306166D01*
X81238673Y-126329615D01*
X81236271Y-126354001D01*
X81238673Y-126378387D01*
X81245786Y-126401836D01*
X81257337Y-126423447D01*
X81272882Y-126442389D01*
X81291824Y-126457934D01*
X81313435Y-126469485D01*
X81336884Y-126476598D01*
X81358264Y-126478704D01*
X81359752Y-126479000D01*
X81359753Y-126479000D01*
X81524165Y-126511703D01*
X81679037Y-126575853D01*
X81818418Y-126668985D01*
X81936952Y-126787519D01*
X82030084Y-126926900D01*
X82094234Y-127081772D01*
X82126937Y-127246184D01*
X82126937Y-127413816D01*
X82094234Y-127578228D01*
X82030084Y-127733100D01*
X81936952Y-127872481D01*
X81818418Y-127991015D01*
X81679037Y-128084147D01*
X81524165Y-128148297D01*
X81359753Y-128181000D01*
X81192121Y-128181000D01*
X81027709Y-128148297D01*
X80872837Y-128084147D01*
X80733456Y-127991015D01*
X80614922Y-127872481D01*
X80521790Y-127733100D01*
X80457640Y-127578228D01*
X80424937Y-127413816D01*
X80424937Y-127246184D01*
X80457640Y-127081772D01*
X80521790Y-126926900D01*
X80614922Y-126787519D01*
X80614925Y-126787516D01*
X80620318Y-126779445D01*
X80623600Y-126775445D01*
X80635151Y-126753834D01*
X80642264Y-126730385D01*
X80644666Y-126705999D01*
X80642264Y-126681613D01*
X80635151Y-126658164D01*
X80623600Y-126636553D01*
X80608055Y-126617611D01*
X80589113Y-126602066D01*
X80567502Y-126590515D01*
X80544053Y-126583402D01*
X80522673Y-126581296D01*
X80521185Y-126581000D01*
X80521184Y-126581000D01*
X80356772Y-126548297D01*
X80201900Y-126484147D01*
X80062519Y-126391015D01*
X79943985Y-126272481D01*
X79850853Y-126133100D01*
X79786703Y-125978228D01*
X79754000Y-125813816D01*
X79754000Y-125646184D01*
X79786703Y-125481772D01*
X79850853Y-125326900D01*
X79943985Y-125187519D01*
X80062519Y-125068985D01*
X80201900Y-124975853D01*
X80356772Y-124911703D01*
X80521184Y-124879000D01*
X80688816Y-124879000D01*
X80853228Y-124911703D01*
X80853228Y-124911703D01*
G37*
G36*
X134287585Y-124208802D02*
G01*
X134437410Y-124238604D01*
X134719674Y-124355521D01*
X134973705Y-124525259D01*
X135189741Y-124741295D01*
X135359479Y-124995326D01*
X135476396Y-125277590D01*
X135536000Y-125577240D01*
X135536000Y-125882760D01*
X135476396Y-126182410D01*
X135359479Y-126464674D01*
X135189741Y-126718705D01*
X134973705Y-126934741D01*
X134719674Y-127104479D01*
X134437410Y-127221396D01*
X134312792Y-127246184D01*
X134137761Y-127281000D01*
X133832239Y-127281000D01*
X133657208Y-127246184D01*
X133532590Y-127221396D01*
X133250326Y-127104479D01*
X132996295Y-126934741D01*
X132780259Y-126718705D01*
X132610521Y-126464674D01*
X132493604Y-126182410D01*
X132434000Y-125882760D01*
X132434000Y-125577240D01*
X132493604Y-125277590D01*
X132610521Y-124995326D01*
X132780259Y-124741295D01*
X132996295Y-124525259D01*
X133250326Y-124355521D01*
X133532590Y-124238604D01*
X133682415Y-124208802D01*
X133832239Y-124179000D01*
X134137761Y-124179000D01*
X134287585Y-124208802D01*
X134287585Y-124208802D01*
G37*
G36*
X163258852Y-124682840D02*
G01*
X163290443Y-124692423D01*
X163319557Y-124707985D01*
X163345074Y-124728926D01*
X163366015Y-124754443D01*
X163381577Y-124783557D01*
X163391160Y-124815148D01*
X163395000Y-124854140D01*
X163395000Y-126605860D01*
X163391160Y-126644852D01*
X163381577Y-126676443D01*
X163366015Y-126705557D01*
X163345074Y-126731074D01*
X163319557Y-126752015D01*
X163290443Y-126767577D01*
X163258852Y-126777160D01*
X163219860Y-126781000D01*
X159868140Y-126781000D01*
X159829148Y-126777160D01*
X159797557Y-126767577D01*
X159768443Y-126752015D01*
X159742926Y-126731074D01*
X159721985Y-126705557D01*
X159706423Y-126676443D01*
X159696840Y-126644852D01*
X159693000Y-126605860D01*
X159693000Y-124854140D01*
X159696840Y-124815148D01*
X159706423Y-124783557D01*
X159721985Y-124754443D01*
X159742926Y-124728926D01*
X159768443Y-124707985D01*
X159797557Y-124692423D01*
X159829148Y-124682840D01*
X159868140Y-124679000D01*
X163219860Y-124679000D01*
X163258852Y-124682840D01*
X163258852Y-124682840D01*
G37*
G36*
X140866395Y-124815546D02*
G01*
X141039466Y-124887234D01*
X141076086Y-124911703D01*
X141195227Y-124991310D01*
X141327690Y-125123773D01*
X141370284Y-125187520D01*
X141431766Y-125279534D01*
X141503454Y-125452605D01*
X141540000Y-125636333D01*
X141540000Y-125823667D01*
X141503454Y-126007395D01*
X141431766Y-126180466D01*
X141430467Y-126182410D01*
X141327690Y-126336227D01*
X141195227Y-126468690D01*
X141172092Y-126484148D01*
X141039466Y-126572766D01*
X140866395Y-126644454D01*
X140682667Y-126681000D01*
X140495333Y-126681000D01*
X140311605Y-126644454D01*
X140138534Y-126572766D01*
X140005908Y-126484148D01*
X139982773Y-126468690D01*
X139850310Y-126336227D01*
X139747533Y-126182410D01*
X139746234Y-126180466D01*
X139674546Y-126007395D01*
X139638000Y-125823667D01*
X139638000Y-125636333D01*
X139674546Y-125452605D01*
X139746234Y-125279534D01*
X139807716Y-125187520D01*
X139850310Y-125123773D01*
X139982773Y-124991310D01*
X140101914Y-124911703D01*
X140138534Y-124887234D01*
X140311605Y-124815546D01*
X140495333Y-124779000D01*
X140682667Y-124779000D01*
X140866395Y-124815546D01*
X140866395Y-124815546D01*
G37*
G36*
X78285063Y-124754001D02*
G01*
X78287465Y-124778387D01*
X78294578Y-124801836D01*
X78306129Y-124823447D01*
X78321674Y-124842389D01*
X78340616Y-124857934D01*
X78362227Y-124869485D01*
X78385676Y-124876598D01*
X78410062Y-124879000D01*
X78956000Y-124879000D01*
X78956000Y-126581000D01*
X77254000Y-126581000D01*
X77254000Y-125105999D01*
X77251598Y-125081613D01*
X77244485Y-125058164D01*
X77232934Y-125036553D01*
X77217389Y-125017611D01*
X77198447Y-125002066D01*
X77176836Y-124990515D01*
X77153387Y-124983402D01*
X77129001Y-124981000D01*
X76583063Y-124981000D01*
X76583063Y-123279000D01*
X78285063Y-123279000D01*
X78285063Y-124754001D01*
X78285063Y-124754001D01*
G37*
G36*
X151741610Y-122646114D02*
G01*
X151964727Y-122738532D01*
X151964729Y-122738533D01*
X152015269Y-122772303D01*
X152165529Y-122872703D01*
X152336297Y-123043471D01*
X152470468Y-123244273D01*
X152562886Y-123467390D01*
X152610000Y-123704248D01*
X152610000Y-123945752D01*
X152562886Y-124182610D01*
X152470468Y-124405727D01*
X152336297Y-124606529D01*
X152165529Y-124777297D01*
X152027559Y-124869485D01*
X151964729Y-124911467D01*
X151964728Y-124911468D01*
X151964727Y-124911468D01*
X151741610Y-125003886D01*
X151504752Y-125051000D01*
X151263248Y-125051000D01*
X151026390Y-125003886D01*
X150803273Y-124911468D01*
X150803272Y-124911468D01*
X150803271Y-124911467D01*
X150740441Y-124869485D01*
X150602471Y-124777297D01*
X150431703Y-124606529D01*
X150297532Y-124405727D01*
X150205114Y-124182610D01*
X150158000Y-123945752D01*
X150158000Y-123704248D01*
X150205114Y-123467390D01*
X150297532Y-123244273D01*
X150431703Y-123043471D01*
X150602471Y-122872703D01*
X150752731Y-122772303D01*
X150803271Y-122738533D01*
X150803273Y-122738532D01*
X151026390Y-122646114D01*
X151263248Y-122599000D01*
X151504752Y-122599000D01*
X151741610Y-122646114D01*
X151741610Y-122646114D01*
G37*
G36*
X144566395Y-117315546D02*
G01*
X144739466Y-117387234D01*
X144816818Y-117438919D01*
X144895227Y-117491310D01*
X145027690Y-117623773D01*
X145056506Y-117666900D01*
X145131766Y-117779534D01*
X145203454Y-117952605D01*
X145240000Y-118136333D01*
X145240000Y-118323667D01*
X145203454Y-118507395D01*
X145131766Y-118680466D01*
X145131765Y-118680467D01*
X145027690Y-118836227D01*
X144895227Y-118968690D01*
X144816818Y-119021081D01*
X144739466Y-119072766D01*
X144566395Y-119144454D01*
X144382667Y-119181000D01*
X144195333Y-119181000D01*
X144011605Y-119144454D01*
X143838534Y-119072766D01*
X143761182Y-119021081D01*
X143682773Y-118968690D01*
X143550310Y-118836227D01*
X143446235Y-118680467D01*
X143446234Y-118680466D01*
X143374546Y-118507395D01*
X143338000Y-118323667D01*
X143338000Y-118136333D01*
X143374546Y-117952605D01*
X143446234Y-117779534D01*
X143521494Y-117666900D01*
X143550310Y-117623773D01*
X143682773Y-117491310D01*
X143761182Y-117438919D01*
X143838534Y-117387234D01*
X144011605Y-117315546D01*
X144195333Y-117279000D01*
X144382667Y-117279000D01*
X144566395Y-117315546D01*
X144566395Y-117315546D01*
G37*
G36*
X77960600Y-119134000D02*
G01*
X75658600Y-119134000D01*
X75658600Y-116832000D01*
X77960600Y-116832000D01*
X77960600Y-119134000D01*
X77960600Y-119134000D01*
G37*
G36*
X89678871Y-116843103D02*
G01*
X89735235Y-116848654D01*
X89952200Y-116914470D01*
X89952202Y-116914471D01*
X90152155Y-117021347D01*
X90327418Y-117165182D01*
X90471253Y-117340445D01*
X90551891Y-117491310D01*
X90578130Y-117540400D01*
X90643946Y-117757365D01*
X90666169Y-117983000D01*
X90643946Y-118208635D01*
X90609052Y-118323665D01*
X90578129Y-118425602D01*
X90471253Y-118625555D01*
X90327418Y-118800818D01*
X90152155Y-118944653D01*
X89952202Y-119051529D01*
X89952200Y-119051530D01*
X89735235Y-119117346D01*
X89678871Y-119122897D01*
X89566145Y-119134000D01*
X89453055Y-119134000D01*
X89340329Y-119122897D01*
X89283965Y-119117346D01*
X89067000Y-119051530D01*
X89066998Y-119051529D01*
X88867045Y-118944653D01*
X88691782Y-118800818D01*
X88547947Y-118625555D01*
X88441071Y-118425602D01*
X88410149Y-118323665D01*
X88375254Y-118208635D01*
X88353031Y-117983000D01*
X88375254Y-117757365D01*
X88441070Y-117540400D01*
X88467309Y-117491310D01*
X88547947Y-117340445D01*
X88691782Y-117165182D01*
X88867045Y-117021347D01*
X89066998Y-116914471D01*
X89067000Y-116914470D01*
X89283965Y-116848654D01*
X89340329Y-116843103D01*
X89453055Y-116832000D01*
X89566145Y-116832000D01*
X89678871Y-116843103D01*
X89678871Y-116843103D01*
G37*
G36*
X107055228Y-117251703D02*
G01*
X107210100Y-117315853D01*
X107349481Y-117408985D01*
X107468015Y-117527519D01*
X107561147Y-117666900D01*
X107625297Y-117821772D01*
X107658000Y-117986184D01*
X107658000Y-118153816D01*
X107625297Y-118318228D01*
X107561147Y-118473100D01*
X107468015Y-118612481D01*
X107349481Y-118731015D01*
X107210100Y-118824147D01*
X107055228Y-118888297D01*
X106890816Y-118921000D01*
X106723184Y-118921000D01*
X106558772Y-118888297D01*
X106403900Y-118824147D01*
X106264519Y-118731015D01*
X106145985Y-118612481D01*
X106052853Y-118473100D01*
X105988703Y-118318228D01*
X105956000Y-118153816D01*
X105956000Y-117986184D01*
X105988703Y-117821772D01*
X106052853Y-117666900D01*
X106145985Y-117527519D01*
X106264519Y-117408985D01*
X106403900Y-117315853D01*
X106558772Y-117251703D01*
X106723184Y-117219000D01*
X106890816Y-117219000D01*
X107055228Y-117251703D01*
X107055228Y-117251703D01*
G37*
G36*
X93059828Y-117251703D02*
G01*
X93214700Y-117315853D01*
X93354081Y-117408985D01*
X93472615Y-117527519D01*
X93565747Y-117666900D01*
X93629897Y-117821772D01*
X93662600Y-117986184D01*
X93662600Y-118153816D01*
X93629897Y-118318228D01*
X93565747Y-118473100D01*
X93472615Y-118612481D01*
X93354081Y-118731015D01*
X93214700Y-118824147D01*
X93059828Y-118888297D01*
X92895416Y-118921000D01*
X92727784Y-118921000D01*
X92563372Y-118888297D01*
X92408500Y-118824147D01*
X92269119Y-118731015D01*
X92150585Y-118612481D01*
X92057453Y-118473100D01*
X91993303Y-118318228D01*
X91960600Y-118153816D01*
X91960600Y-117986184D01*
X91993303Y-117821772D01*
X92057453Y-117666900D01*
X92150585Y-117527519D01*
X92269119Y-117408985D01*
X92408500Y-117315853D01*
X92563372Y-117251703D01*
X92727784Y-117219000D01*
X92895416Y-117219000D01*
X93059828Y-117251703D01*
X93059828Y-117251703D01*
G37*
G36*
X96491999Y-116420737D02*
G01*
X96501608Y-116423652D01*
X96510472Y-116428390D01*
X96518237Y-116434763D01*
X96528448Y-116447206D01*
X96535378Y-116457575D01*
X96552705Y-116474902D01*
X96573080Y-116488515D01*
X96595720Y-116497891D01*
X96619753Y-116502671D01*
X96644257Y-116502670D01*
X96668290Y-116497888D01*
X96690929Y-116488510D01*
X96711302Y-116474895D01*
X96728629Y-116457568D01*
X96735558Y-116447198D01*
X96745763Y-116434763D01*
X96753528Y-116428390D01*
X96762392Y-116423652D01*
X96772001Y-116420737D01*
X96788140Y-116419148D01*
X97275861Y-116419148D01*
X97294199Y-116420954D01*
X97306450Y-116421556D01*
X97324869Y-116421556D01*
X97347149Y-116423750D01*
X97431233Y-116440476D01*
X97452660Y-116446976D01*
X97531858Y-116479780D01*
X97537303Y-116482691D01*
X97537309Y-116482693D01*
X97546169Y-116487429D01*
X97546173Y-116487432D01*
X97551614Y-116490340D01*
X97622899Y-116537971D01*
X97640204Y-116552172D01*
X97700828Y-116612796D01*
X97715029Y-116630101D01*
X97762660Y-116701386D01*
X97765568Y-116706827D01*
X97765571Y-116706831D01*
X97770307Y-116715691D01*
X97770309Y-116715697D01*
X97773220Y-116721142D01*
X97806024Y-116800340D01*
X97812524Y-116821767D01*
X97829250Y-116905851D01*
X97831444Y-116928131D01*
X97831444Y-116946550D01*
X97832046Y-116958801D01*
X97833852Y-116977139D01*
X97833852Y-117464862D01*
X97832046Y-117483199D01*
X97831444Y-117495450D01*
X97831444Y-117513869D01*
X97829250Y-117536149D01*
X97812524Y-117620233D01*
X97806024Y-117641660D01*
X97773220Y-117720858D01*
X97770309Y-117726303D01*
X97770307Y-117726309D01*
X97765571Y-117735169D01*
X97765568Y-117735173D01*
X97762660Y-117740614D01*
X97715029Y-117811899D01*
X97700828Y-117829204D01*
X97640204Y-117889828D01*
X97622899Y-117904029D01*
X97551614Y-117951660D01*
X97546173Y-117954568D01*
X97546169Y-117954571D01*
X97537309Y-117959307D01*
X97537303Y-117959309D01*
X97531858Y-117962220D01*
X97452660Y-117995024D01*
X97431233Y-118001524D01*
X97347149Y-118018250D01*
X97324869Y-118020444D01*
X97306450Y-118020444D01*
X97294199Y-118021046D01*
X97275862Y-118022852D01*
X96788140Y-118022852D01*
X96772001Y-118021263D01*
X96762392Y-118018348D01*
X96753528Y-118013610D01*
X96745763Y-118007237D01*
X96735552Y-117994794D01*
X96728622Y-117984425D01*
X96711295Y-117967098D01*
X96690920Y-117953485D01*
X96668280Y-117944109D01*
X96644247Y-117939329D01*
X96619743Y-117939330D01*
X96595710Y-117944112D01*
X96573071Y-117953490D01*
X96552698Y-117967105D01*
X96535371Y-117984432D01*
X96528442Y-117994802D01*
X96518237Y-118007237D01*
X96510472Y-118013610D01*
X96501608Y-118018348D01*
X96491999Y-118021263D01*
X96475860Y-118022852D01*
X95988138Y-118022852D01*
X95969801Y-118021046D01*
X95957550Y-118020444D01*
X95939131Y-118020444D01*
X95916851Y-118018250D01*
X95832767Y-118001524D01*
X95811340Y-117995024D01*
X95732142Y-117962220D01*
X95726697Y-117959309D01*
X95726691Y-117959307D01*
X95717831Y-117954571D01*
X95717827Y-117954568D01*
X95712386Y-117951660D01*
X95641101Y-117904029D01*
X95623796Y-117889828D01*
X95563172Y-117829204D01*
X95548971Y-117811899D01*
X95501340Y-117740614D01*
X95498432Y-117735173D01*
X95498429Y-117735169D01*
X95493693Y-117726309D01*
X95493691Y-117726303D01*
X95490780Y-117720858D01*
X95457976Y-117641660D01*
X95451476Y-117620233D01*
X95434750Y-117536149D01*
X95432556Y-117513869D01*
X95432556Y-117495450D01*
X95431954Y-117483199D01*
X95430148Y-117464862D01*
X95430148Y-116977138D01*
X95431954Y-116958801D01*
X95432556Y-116946550D01*
X95432556Y-116928131D01*
X95434750Y-116905851D01*
X95451476Y-116821767D01*
X95457976Y-116800340D01*
X95490780Y-116721142D01*
X95493691Y-116715697D01*
X95493693Y-116715691D01*
X95498429Y-116706831D01*
X95498432Y-116706827D01*
X95501340Y-116701386D01*
X95548971Y-116630101D01*
X95563172Y-116612796D01*
X95623796Y-116552172D01*
X95641101Y-116537971D01*
X95712386Y-116490340D01*
X95717827Y-116487432D01*
X95717831Y-116487429D01*
X95726691Y-116482693D01*
X95726697Y-116482691D01*
X95732142Y-116479780D01*
X95811340Y-116446976D01*
X95832767Y-116440476D01*
X95916851Y-116423750D01*
X95939131Y-116421556D01*
X95957550Y-116421556D01*
X95969801Y-116420954D01*
X95988139Y-116419148D01*
X96475860Y-116419148D01*
X96491999Y-116420737D01*
X96491999Y-116420737D01*
G37*
G36*
X103444000Y-116271000D02*
G01*
X102159749Y-116271000D01*
X102135363Y-116273402D01*
X102111914Y-116280515D01*
X102090303Y-116292066D01*
X102071361Y-116307611D01*
X102055816Y-116326553D01*
X102044265Y-116348164D01*
X102037152Y-116371613D01*
X102034750Y-116395999D01*
X102037152Y-116420385D01*
X102044265Y-116443834D01*
X102055816Y-116465444D01*
X102084218Y-116507951D01*
X102137062Y-116635527D01*
X102164000Y-116770956D01*
X102164000Y-116909044D01*
X102137062Y-117044473D01*
X102084218Y-117172049D01*
X102007505Y-117286859D01*
X101909859Y-117384505D01*
X101795049Y-117461218D01*
X101667473Y-117514062D01*
X101532044Y-117541000D01*
X101393956Y-117541000D01*
X101258527Y-117514062D01*
X101130951Y-117461218D01*
X101016141Y-117384505D01*
X100918495Y-117286859D01*
X100841782Y-117172049D01*
X100788938Y-117044473D01*
X100762000Y-116909044D01*
X100762000Y-116770956D01*
X100788938Y-116635527D01*
X100841782Y-116507951D01*
X100918495Y-116393141D01*
X101016141Y-116295495D01*
X101130951Y-116218782D01*
X101258527Y-116165938D01*
X101393956Y-116139000D01*
X101532044Y-116139000D01*
X101667473Y-116165938D01*
X101795049Y-116218782D01*
X101847556Y-116253866D01*
X101869166Y-116265417D01*
X101892615Y-116272530D01*
X101917001Y-116274932D01*
X101941387Y-116272530D01*
X101964836Y-116265417D01*
X101986447Y-116253866D01*
X102005389Y-116238320D01*
X102020934Y-116219378D01*
X102032485Y-116197768D01*
X102039598Y-116174319D01*
X102042000Y-116149933D01*
X102042000Y-114869000D01*
X103444000Y-114869000D01*
X103444000Y-116271000D01*
X103444000Y-116271000D01*
G37*
G36*
X107055228Y-114751703D02*
G01*
X107210100Y-114815853D01*
X107349481Y-114908985D01*
X107468015Y-115027519D01*
X107561147Y-115166900D01*
X107625297Y-115321772D01*
X107658000Y-115486184D01*
X107658000Y-115653816D01*
X107625297Y-115818228D01*
X107561147Y-115973100D01*
X107468015Y-116112481D01*
X107349481Y-116231015D01*
X107210100Y-116324147D01*
X107055228Y-116388297D01*
X106890816Y-116421000D01*
X106723184Y-116421000D01*
X106558772Y-116388297D01*
X106403900Y-116324147D01*
X106264519Y-116231015D01*
X106145985Y-116112481D01*
X106052853Y-115973100D01*
X105988703Y-115818228D01*
X105956000Y-115653816D01*
X105956000Y-115486184D01*
X105988703Y-115321772D01*
X106052853Y-115166900D01*
X106145985Y-115027519D01*
X106264519Y-114908985D01*
X106403900Y-114815853D01*
X106558772Y-114751703D01*
X106723184Y-114719000D01*
X106890816Y-114719000D01*
X107055228Y-114751703D01*
X107055228Y-114751703D01*
G37*
G36*
X93059828Y-114751703D02*
G01*
X93214700Y-114815853D01*
X93354081Y-114908985D01*
X93472615Y-115027519D01*
X93565747Y-115166900D01*
X93629897Y-115321772D01*
X93662600Y-115486184D01*
X93662600Y-115653816D01*
X93629897Y-115818228D01*
X93565747Y-115973100D01*
X93472615Y-116112481D01*
X93354081Y-116231015D01*
X93214700Y-116324147D01*
X93059828Y-116388297D01*
X92895416Y-116421000D01*
X92727784Y-116421000D01*
X92563372Y-116388297D01*
X92408500Y-116324147D01*
X92269119Y-116231015D01*
X92150585Y-116112481D01*
X92057453Y-115973100D01*
X91993303Y-115818228D01*
X91960600Y-115653816D01*
X91960600Y-115486184D01*
X91993303Y-115321772D01*
X92057453Y-115166900D01*
X92150585Y-115027519D01*
X92269119Y-114908985D01*
X92408500Y-114815853D01*
X92563372Y-114751703D01*
X92727784Y-114719000D01*
X92895416Y-114719000D01*
X93059828Y-114751703D01*
X93059828Y-114751703D01*
G37*
G36*
X100407473Y-114895938D02*
G01*
X100535049Y-114948782D01*
X100649859Y-115025495D01*
X100747505Y-115123141D01*
X100824218Y-115237951D01*
X100877062Y-115365527D01*
X100904000Y-115500956D01*
X100904000Y-115639044D01*
X100877062Y-115774473D01*
X100824218Y-115902049D01*
X100747505Y-116016859D01*
X100649859Y-116114505D01*
X100535049Y-116191218D01*
X100407473Y-116244062D01*
X100272044Y-116271000D01*
X100133956Y-116271000D01*
X99998527Y-116244062D01*
X99870951Y-116191218D01*
X99756141Y-116114505D01*
X99658495Y-116016859D01*
X99581782Y-115902049D01*
X99528938Y-115774473D01*
X99502000Y-115639044D01*
X99502000Y-115500956D01*
X99528938Y-115365527D01*
X99581782Y-115237951D01*
X99658495Y-115123141D01*
X99756141Y-115025495D01*
X99870951Y-114948782D01*
X99998527Y-114895938D01*
X100133956Y-114869000D01*
X100272044Y-114869000D01*
X100407473Y-114895938D01*
X100407473Y-114895938D01*
G37*
G36*
X92958228Y-111576703D02*
G01*
X93113100Y-111640853D01*
X93252481Y-111733985D01*
X93371015Y-111852519D01*
X93464147Y-111991900D01*
X93528297Y-112146772D01*
X93561000Y-112311184D01*
X93561000Y-112478816D01*
X93528297Y-112643228D01*
X93464147Y-112798100D01*
X93371015Y-112937481D01*
X93252481Y-113056015D01*
X93113100Y-113149147D01*
X92958228Y-113213297D01*
X92793816Y-113246000D01*
X92626184Y-113246000D01*
X92461772Y-113213297D01*
X92306900Y-113149147D01*
X92167519Y-113056015D01*
X92048985Y-112937481D01*
X91955853Y-112798100D01*
X91891703Y-112643228D01*
X91859000Y-112478816D01*
X91859000Y-112311184D01*
X91891703Y-112146772D01*
X91955853Y-111991900D01*
X92048985Y-111852519D01*
X92167519Y-111733985D01*
X92306900Y-111640853D01*
X92461772Y-111576703D01*
X92626184Y-111544000D01*
X92793816Y-111544000D01*
X92958228Y-111576703D01*
X92958228Y-111576703D01*
G37*
G36*
X89783228Y-111576703D02*
G01*
X89938100Y-111640853D01*
X90077481Y-111733985D01*
X90196015Y-111852519D01*
X90289147Y-111991900D01*
X90353297Y-112146772D01*
X90386000Y-112311184D01*
X90386000Y-112478816D01*
X90353297Y-112643228D01*
X90289147Y-112798100D01*
X90196015Y-112937481D01*
X90077481Y-113056015D01*
X89938100Y-113149147D01*
X89783228Y-113213297D01*
X89618816Y-113246000D01*
X89451184Y-113246000D01*
X89286772Y-113213297D01*
X89131900Y-113149147D01*
X88992519Y-113056015D01*
X88873985Y-112937481D01*
X88780853Y-112798100D01*
X88716703Y-112643228D01*
X88684000Y-112478816D01*
X88684000Y-112311184D01*
X88716703Y-112146772D01*
X88780853Y-111991900D01*
X88873985Y-111852519D01*
X88992519Y-111733985D01*
X89131900Y-111640853D01*
X89286772Y-111576703D01*
X89451184Y-111544000D01*
X89618816Y-111544000D01*
X89783228Y-111576703D01*
X89783228Y-111576703D01*
G37*
G36*
X152247585Y-108033802D02*
G01*
X152397410Y-108063604D01*
X152679674Y-108180521D01*
X152933705Y-108350259D01*
X153149741Y-108566295D01*
X153319479Y-108820326D01*
X153436396Y-109102590D01*
X153496000Y-109402240D01*
X153496000Y-109707760D01*
X153436396Y-110007410D01*
X153319479Y-110289674D01*
X153149741Y-110543705D01*
X152933705Y-110759741D01*
X152679674Y-110929479D01*
X152397410Y-111046396D01*
X152247585Y-111076198D01*
X152097761Y-111106000D01*
X151792239Y-111106000D01*
X151642415Y-111076198D01*
X151492590Y-111046396D01*
X151210326Y-110929479D01*
X150956295Y-110759741D01*
X150740259Y-110543705D01*
X150570521Y-110289674D01*
X150453604Y-110007410D01*
X150394000Y-109707760D01*
X150394000Y-109402240D01*
X150453604Y-109102590D01*
X150570521Y-108820326D01*
X150740259Y-108566295D01*
X150956295Y-108350259D01*
X151210326Y-108180521D01*
X151492590Y-108063604D01*
X151642415Y-108033802D01*
X151792239Y-108004000D01*
X152097761Y-108004000D01*
X152247585Y-108033802D01*
X152247585Y-108033802D01*
G37*
G36*
X120585000Y-111060000D02*
G01*
X118683000Y-111060000D01*
X118683000Y-109158000D01*
X120585000Y-109158000D01*
X120585000Y-111060000D01*
X120585000Y-111060000D01*
G37*
G36*
X117371395Y-109194546D02*
G01*
X117544466Y-109266234D01*
X117550572Y-109270314D01*
X117700227Y-109370310D01*
X117832690Y-109502773D01*
X117875284Y-109566520D01*
X117936766Y-109658534D01*
X118008454Y-109831605D01*
X118045000Y-110015333D01*
X118045000Y-110202667D01*
X118008454Y-110386395D01*
X117936766Y-110559466D01*
X117885081Y-110636818D01*
X117832690Y-110715227D01*
X117700227Y-110847690D01*
X117677092Y-110863148D01*
X117544466Y-110951766D01*
X117371395Y-111023454D01*
X117187667Y-111060000D01*
X117000333Y-111060000D01*
X116816605Y-111023454D01*
X116643534Y-110951766D01*
X116510908Y-110863148D01*
X116487773Y-110847690D01*
X116355310Y-110715227D01*
X116302919Y-110636818D01*
X116251234Y-110559466D01*
X116179546Y-110386395D01*
X116143000Y-110202667D01*
X116143000Y-110015333D01*
X116179546Y-109831605D01*
X116251234Y-109658534D01*
X116312716Y-109566520D01*
X116355310Y-109502773D01*
X116487773Y-109370310D01*
X116637428Y-109270314D01*
X116643534Y-109266234D01*
X116816605Y-109194546D01*
X117000333Y-109158000D01*
X117187667Y-109158000D01*
X117371395Y-109194546D01*
X117371395Y-109194546D01*
G37*
G36*
X114339823Y-109270313D02*
G01*
X114500242Y-109318976D01*
X114567361Y-109354852D01*
X114648078Y-109397996D01*
X114777659Y-109504341D01*
X114884004Y-109633922D01*
X114884005Y-109633924D01*
X114963024Y-109781758D01*
X115011687Y-109942177D01*
X115028117Y-110109000D01*
X115011687Y-110275823D01*
X114963024Y-110436242D01*
X114922477Y-110512100D01*
X114884004Y-110584078D01*
X114777659Y-110713659D01*
X114648078Y-110820004D01*
X114632906Y-110828114D01*
X114500242Y-110899024D01*
X114339823Y-110947687D01*
X114214804Y-110960000D01*
X114131196Y-110960000D01*
X114006177Y-110947687D01*
X113845758Y-110899024D01*
X113713094Y-110828114D01*
X113697922Y-110820004D01*
X113568341Y-110713659D01*
X113461996Y-110584078D01*
X113423523Y-110512100D01*
X113382976Y-110436242D01*
X113334313Y-110275823D01*
X113317883Y-110109000D01*
X113334313Y-109942177D01*
X113382976Y-109781758D01*
X113461995Y-109633924D01*
X113461996Y-109633922D01*
X113568341Y-109504341D01*
X113697922Y-109397996D01*
X113778639Y-109354852D01*
X113845758Y-109318976D01*
X114006177Y-109270313D01*
X114131196Y-109258000D01*
X114214804Y-109258000D01*
X114339823Y-109270313D01*
X114339823Y-109270313D01*
G37*
G36*
X104261228Y-109290703D02*
G01*
X104416100Y-109354853D01*
X104555481Y-109447985D01*
X104674015Y-109566519D01*
X104767147Y-109705900D01*
X104831297Y-109860772D01*
X104864000Y-110025184D01*
X104864000Y-110192816D01*
X104831297Y-110357228D01*
X104767147Y-110512100D01*
X104674015Y-110651481D01*
X104555481Y-110770015D01*
X104416100Y-110863147D01*
X104261228Y-110927297D01*
X104096816Y-110960000D01*
X103929184Y-110960000D01*
X103764772Y-110927297D01*
X103609900Y-110863147D01*
X103470519Y-110770015D01*
X103351985Y-110651481D01*
X103258853Y-110512100D01*
X103194703Y-110357228D01*
X103162000Y-110192816D01*
X103162000Y-110025184D01*
X103194703Y-109860772D01*
X103258853Y-109705900D01*
X103351985Y-109566519D01*
X103470519Y-109447985D01*
X103609900Y-109354853D01*
X103764772Y-109290703D01*
X103929184Y-109258000D01*
X104096816Y-109258000D01*
X104261228Y-109290703D01*
X104261228Y-109290703D01*
G37*
G36*
X140124487Y-108303996D02*
G01*
X140361253Y-108402068D01*
X140361255Y-108402069D01*
X140574339Y-108544447D01*
X140755553Y-108725661D01*
X140893933Y-108932761D01*
X140897932Y-108938747D01*
X140996004Y-109175513D01*
X141046000Y-109426861D01*
X141046000Y-109683139D01*
X140996004Y-109934487D01*
X140914027Y-110132396D01*
X140897931Y-110171255D01*
X140755553Y-110384339D01*
X140574339Y-110565553D01*
X140361255Y-110707931D01*
X140361254Y-110707932D01*
X140361253Y-110707932D01*
X140124487Y-110806004D01*
X139873139Y-110856000D01*
X139616861Y-110856000D01*
X139365513Y-110806004D01*
X139128747Y-110707932D01*
X139128746Y-110707932D01*
X139128745Y-110707931D01*
X138915661Y-110565553D01*
X138734447Y-110384339D01*
X138592069Y-110171255D01*
X138575973Y-110132396D01*
X138493996Y-109934487D01*
X138444000Y-109683139D01*
X138444000Y-109426861D01*
X138493996Y-109175513D01*
X138592068Y-108938747D01*
X138596068Y-108932761D01*
X138734447Y-108725661D01*
X138915661Y-108544447D01*
X139128745Y-108402069D01*
X139128747Y-108402068D01*
X139365513Y-108303996D01*
X139616861Y-108254000D01*
X139873139Y-108254000D01*
X140124487Y-108303996D01*
X140124487Y-108303996D01*
G37*
G36*
X83636425Y-108932760D02*
G01*
X83636428Y-108932761D01*
X83636429Y-108932761D01*
X83815693Y-108987140D01*
X83815696Y-108987142D01*
X83815697Y-108987142D01*
X83980903Y-109075446D01*
X84125712Y-109194288D01*
X84244554Y-109339097D01*
X84332040Y-109502773D01*
X84332860Y-109504307D01*
X84379644Y-109658533D01*
X84387240Y-109683575D01*
X84405601Y-109870000D01*
X84387240Y-110056425D01*
X84387239Y-110056428D01*
X84387239Y-110056429D01*
X84332860Y-110235693D01*
X84332858Y-110235696D01*
X84332858Y-110235697D01*
X84244554Y-110400903D01*
X84125712Y-110545712D01*
X83980903Y-110664554D01*
X83815697Y-110752858D01*
X83815693Y-110752860D01*
X83636429Y-110807239D01*
X83636428Y-110807239D01*
X83636425Y-110807240D01*
X83496718Y-110821000D01*
X81603282Y-110821000D01*
X81463575Y-110807240D01*
X81463572Y-110807239D01*
X81463571Y-110807239D01*
X81284307Y-110752860D01*
X81284303Y-110752858D01*
X81119097Y-110664554D01*
X80974288Y-110545712D01*
X80855446Y-110400903D01*
X80767142Y-110235697D01*
X80767142Y-110235696D01*
X80767140Y-110235693D01*
X80712761Y-110056429D01*
X80712761Y-110056428D01*
X80712760Y-110056425D01*
X80694399Y-109870000D01*
X80712760Y-109683575D01*
X80720356Y-109658533D01*
X80767140Y-109504307D01*
X80767960Y-109502773D01*
X80855446Y-109339097D01*
X80974288Y-109194288D01*
X81119097Y-109075446D01*
X81284303Y-108987142D01*
X81284304Y-108987142D01*
X81284307Y-108987140D01*
X81463571Y-108932761D01*
X81463572Y-108932761D01*
X81463575Y-108932760D01*
X81603282Y-108919000D01*
X83496718Y-108919000D01*
X83636425Y-108932760D01*
X83636425Y-108932760D01*
G37*
G36*
X101281000Y-110806000D02*
G01*
X99379000Y-110806000D01*
X99379000Y-108904000D01*
X101281000Y-108904000D01*
X101281000Y-110806000D01*
X101281000Y-110806000D01*
G37*
G36*
X98067395Y-108940546D02*
G01*
X98240466Y-109012234D01*
X98240467Y-109012235D01*
X98396227Y-109116310D01*
X98528690Y-109248773D01*
X98556708Y-109290705D01*
X98632766Y-109404534D01*
X98704454Y-109577605D01*
X98741000Y-109761333D01*
X98741000Y-109948667D01*
X98704454Y-110132395D01*
X98632766Y-110305466D01*
X98632765Y-110305467D01*
X98528690Y-110461227D01*
X98396227Y-110593690D01*
X98317818Y-110646081D01*
X98240466Y-110697766D01*
X98067395Y-110769454D01*
X97883667Y-110806000D01*
X97696333Y-110806000D01*
X97512605Y-110769454D01*
X97339534Y-110697766D01*
X97262182Y-110646081D01*
X97183773Y-110593690D01*
X97051310Y-110461227D01*
X96947235Y-110305467D01*
X96947234Y-110305466D01*
X96875546Y-110132395D01*
X96839000Y-109948667D01*
X96839000Y-109761333D01*
X96875546Y-109577605D01*
X96947234Y-109404534D01*
X97023292Y-109290705D01*
X97051310Y-109248773D01*
X97183773Y-109116310D01*
X97339533Y-109012235D01*
X97339534Y-109012234D01*
X97512605Y-108940546D01*
X97696333Y-108904000D01*
X97883667Y-108904000D01*
X98067395Y-108940546D01*
X98067395Y-108940546D01*
G37*
G36*
X131614271Y-106556103D02*
G01*
X131670635Y-106561654D01*
X131887600Y-106627470D01*
X131887602Y-106627471D01*
X132087555Y-106734347D01*
X132262818Y-106878182D01*
X132406653Y-107053445D01*
X132466041Y-107164554D01*
X132513530Y-107253400D01*
X132579346Y-107470365D01*
X132601569Y-107696000D01*
X132579346Y-107921635D01*
X132554361Y-108004000D01*
X132513529Y-108138602D01*
X132406653Y-108338555D01*
X132262818Y-108513818D01*
X132087555Y-108657653D01*
X131887602Y-108764529D01*
X131887600Y-108764530D01*
X131670635Y-108830346D01*
X131614271Y-108835897D01*
X131501545Y-108847000D01*
X131388455Y-108847000D01*
X131275729Y-108835897D01*
X131219365Y-108830346D01*
X131002400Y-108764530D01*
X131002398Y-108764529D01*
X130802445Y-108657653D01*
X130627182Y-108513818D01*
X130483347Y-108338555D01*
X130376471Y-108138602D01*
X130335640Y-108004000D01*
X130310654Y-107921635D01*
X130288431Y-107696000D01*
X130310654Y-107470365D01*
X130376470Y-107253400D01*
X130423959Y-107164554D01*
X130483347Y-107053445D01*
X130627182Y-106878182D01*
X130802445Y-106734347D01*
X131002398Y-106627471D01*
X131002400Y-106627470D01*
X131219365Y-106561654D01*
X131275729Y-106556103D01*
X131388455Y-106545000D01*
X131501545Y-106545000D01*
X131614271Y-106556103D01*
X131614271Y-106556103D01*
G37*
G36*
X112326823Y-105841313D02*
G01*
X112487242Y-105889976D01*
X112619906Y-105960886D01*
X112635078Y-105968996D01*
X112764659Y-106075341D01*
X112871004Y-106204922D01*
X112871005Y-106204924D01*
X112950024Y-106352758D01*
X112998687Y-106513177D01*
X113015117Y-106680000D01*
X112998687Y-106846823D01*
X112950024Y-107007242D01*
X112929461Y-107045712D01*
X112871004Y-107155078D01*
X112764659Y-107284659D01*
X112635078Y-107391004D01*
X112635076Y-107391005D01*
X112487242Y-107470024D01*
X112326823Y-107518687D01*
X112201804Y-107531000D01*
X111318196Y-107531000D01*
X111193177Y-107518687D01*
X111032758Y-107470024D01*
X110884924Y-107391005D01*
X110884922Y-107391004D01*
X110755341Y-107284659D01*
X110648996Y-107155078D01*
X110590539Y-107045712D01*
X110569976Y-107007242D01*
X110521313Y-106846823D01*
X110504883Y-106680000D01*
X110521313Y-106513177D01*
X110569976Y-106352758D01*
X110648995Y-106204924D01*
X110648996Y-106204922D01*
X110755341Y-106075341D01*
X110884922Y-105968996D01*
X110900094Y-105960886D01*
X111032758Y-105889976D01*
X111193177Y-105841313D01*
X111318196Y-105829000D01*
X112201804Y-105829000D01*
X112326823Y-105841313D01*
X112326823Y-105841313D01*
G37*
G36*
X104706823Y-105841313D02*
G01*
X104867242Y-105889976D01*
X104999906Y-105960886D01*
X105015078Y-105968996D01*
X105144659Y-106075341D01*
X105251004Y-106204922D01*
X105251005Y-106204924D01*
X105330024Y-106352758D01*
X105378687Y-106513177D01*
X105395117Y-106680000D01*
X105378687Y-106846823D01*
X105330024Y-107007242D01*
X105309461Y-107045712D01*
X105251004Y-107155078D01*
X105144659Y-107284659D01*
X105015078Y-107391004D01*
X105015076Y-107391005D01*
X104867242Y-107470024D01*
X104706823Y-107518687D01*
X104581804Y-107531000D01*
X103698196Y-107531000D01*
X103573177Y-107518687D01*
X103412758Y-107470024D01*
X103264924Y-107391005D01*
X103264922Y-107391004D01*
X103135341Y-107284659D01*
X103028996Y-107155078D01*
X102970539Y-107045712D01*
X102949976Y-107007242D01*
X102901313Y-106846823D01*
X102884883Y-106680000D01*
X102901313Y-106513177D01*
X102949976Y-106352758D01*
X103028995Y-106204924D01*
X103028996Y-106204922D01*
X103135341Y-106075341D01*
X103264922Y-105968996D01*
X103280094Y-105960886D01*
X103412758Y-105889976D01*
X103573177Y-105841313D01*
X103698196Y-105829000D01*
X104581804Y-105829000D01*
X104706823Y-105841313D01*
X104706823Y-105841313D01*
G37*
G36*
X83636425Y-105432760D02*
G01*
X83636428Y-105432761D01*
X83636429Y-105432761D01*
X83815693Y-105487140D01*
X83815696Y-105487142D01*
X83815697Y-105487142D01*
X83980903Y-105575446D01*
X84125712Y-105694288D01*
X84244554Y-105839097D01*
X84313986Y-105968996D01*
X84332860Y-106004307D01*
X84387239Y-106183571D01*
X84387240Y-106183575D01*
X84405601Y-106370000D01*
X84387240Y-106556425D01*
X84387239Y-106556428D01*
X84387239Y-106556429D01*
X84332860Y-106735693D01*
X84332858Y-106735696D01*
X84332858Y-106735697D01*
X84244554Y-106900903D01*
X84125712Y-107045712D01*
X83980903Y-107164554D01*
X83815697Y-107252858D01*
X83815693Y-107252860D01*
X83636429Y-107307239D01*
X83636428Y-107307239D01*
X83636425Y-107307240D01*
X83496718Y-107321000D01*
X81603282Y-107321000D01*
X81463575Y-107307240D01*
X81463572Y-107307239D01*
X81463571Y-107307239D01*
X81284307Y-107252860D01*
X81284303Y-107252858D01*
X81119097Y-107164554D01*
X80974288Y-107045712D01*
X80855446Y-106900903D01*
X80767142Y-106735697D01*
X80767142Y-106735696D01*
X80767140Y-106735693D01*
X80712761Y-106556429D01*
X80712761Y-106556428D01*
X80712760Y-106556425D01*
X80694399Y-106370000D01*
X80712760Y-106183575D01*
X80712761Y-106183571D01*
X80767140Y-106004307D01*
X80786014Y-105968996D01*
X80855446Y-105839097D01*
X80974288Y-105694288D01*
X81119097Y-105575446D01*
X81284303Y-105487142D01*
X81284304Y-105487142D01*
X81284307Y-105487140D01*
X81463571Y-105432761D01*
X81463572Y-105432761D01*
X81463575Y-105432760D01*
X81603282Y-105419000D01*
X83496718Y-105419000D01*
X83636425Y-105432760D01*
X83636425Y-105432760D01*
G37*
G36*
X127756228Y-103804303D02*
G01*
X127911100Y-103868453D01*
X128050481Y-103961585D01*
X128169015Y-104080119D01*
X128262147Y-104219500D01*
X128326297Y-104374372D01*
X128359000Y-104538784D01*
X128359000Y-104706416D01*
X128326297Y-104870828D01*
X128262147Y-105025700D01*
X128169015Y-105165081D01*
X128050481Y-105283615D01*
X127911100Y-105376747D01*
X127756228Y-105440897D01*
X127591816Y-105473600D01*
X127424184Y-105473600D01*
X127259772Y-105440897D01*
X127104900Y-105376747D01*
X126965519Y-105283615D01*
X126846985Y-105165081D01*
X126753853Y-105025700D01*
X126689703Y-104870828D01*
X126657000Y-104706416D01*
X126657000Y-104538784D01*
X126689703Y-104374372D01*
X126753853Y-104219500D01*
X126846985Y-104080119D01*
X126965519Y-103961585D01*
X127104900Y-103868453D01*
X127259772Y-103804303D01*
X127424184Y-103771600D01*
X127591816Y-103771600D01*
X127756228Y-103804303D01*
X127756228Y-103804303D01*
G37*
G36*
X125256228Y-103804303D02*
G01*
X125411100Y-103868453D01*
X125550481Y-103961585D01*
X125669015Y-104080119D01*
X125762147Y-104219500D01*
X125826297Y-104374372D01*
X125859000Y-104538784D01*
X125859000Y-104706416D01*
X125826297Y-104870828D01*
X125762147Y-105025700D01*
X125669015Y-105165081D01*
X125550481Y-105283615D01*
X125411100Y-105376747D01*
X125256228Y-105440897D01*
X125091816Y-105473600D01*
X124924184Y-105473600D01*
X124759772Y-105440897D01*
X124604900Y-105376747D01*
X124465519Y-105283615D01*
X124346985Y-105165081D01*
X124253853Y-105025700D01*
X124189703Y-104870828D01*
X124157000Y-104706416D01*
X124157000Y-104538784D01*
X124189703Y-104374372D01*
X124253853Y-104219500D01*
X124346985Y-104080119D01*
X124465519Y-103961585D01*
X124604900Y-103868453D01*
X124759772Y-103804303D01*
X124924184Y-103771600D01*
X125091816Y-103771600D01*
X125256228Y-103804303D01*
X125256228Y-103804303D01*
G37*
G36*
X138097585Y-101983802D02*
G01*
X138247410Y-102013604D01*
X138529674Y-102130521D01*
X138783705Y-102300259D01*
X138999741Y-102516295D01*
X139169479Y-102770326D01*
X139286396Y-103052590D01*
X139307231Y-103157333D01*
X139346000Y-103352239D01*
X139346000Y-103657761D01*
X139334928Y-103713424D01*
X139286396Y-103957410D01*
X139169479Y-104239674D01*
X138999741Y-104493705D01*
X138783705Y-104709741D01*
X138529674Y-104879479D01*
X138247410Y-104996396D01*
X138100104Y-105025697D01*
X137947761Y-105056000D01*
X137642239Y-105056000D01*
X137489896Y-105025697D01*
X137342590Y-104996396D01*
X137060326Y-104879479D01*
X136806295Y-104709741D01*
X136590259Y-104493705D01*
X136420521Y-104239674D01*
X136303604Y-103957410D01*
X136255072Y-103713424D01*
X136244000Y-103657761D01*
X136244000Y-103352239D01*
X136282769Y-103157333D01*
X136303604Y-103052590D01*
X136420521Y-102770326D01*
X136590259Y-102516295D01*
X136806295Y-102300259D01*
X137060326Y-102130521D01*
X137342590Y-102013604D01*
X137492415Y-101983802D01*
X137642239Y-101954000D01*
X137947761Y-101954000D01*
X138097585Y-101983802D01*
X138097585Y-101983802D01*
G37*
G36*
X112326823Y-103301313D02*
G01*
X112487242Y-103349976D01*
X112619906Y-103420886D01*
X112635078Y-103428996D01*
X112764659Y-103535341D01*
X112871004Y-103664922D01*
X112871005Y-103664924D01*
X112950024Y-103812758D01*
X112998687Y-103973177D01*
X113015117Y-104140000D01*
X112998687Y-104306823D01*
X112950024Y-104467242D01*
X112935879Y-104493705D01*
X112871004Y-104615078D01*
X112764659Y-104744659D01*
X112635078Y-104851004D01*
X112635076Y-104851005D01*
X112487242Y-104930024D01*
X112326823Y-104978687D01*
X112201804Y-104991000D01*
X111318196Y-104991000D01*
X111193177Y-104978687D01*
X111032758Y-104930024D01*
X110884924Y-104851005D01*
X110884922Y-104851004D01*
X110755341Y-104744659D01*
X110648996Y-104615078D01*
X110584121Y-104493705D01*
X110569976Y-104467242D01*
X110521313Y-104306823D01*
X110504883Y-104140000D01*
X110521313Y-103973177D01*
X110569976Y-103812758D01*
X110648995Y-103664924D01*
X110648996Y-103664922D01*
X110755341Y-103535341D01*
X110884922Y-103428996D01*
X110900094Y-103420886D01*
X111032758Y-103349976D01*
X111193177Y-103301313D01*
X111318196Y-103289000D01*
X112201804Y-103289000D01*
X112326823Y-103301313D01*
X112326823Y-103301313D01*
G37*
G36*
X104706823Y-103301313D02*
G01*
X104867242Y-103349976D01*
X104999906Y-103420886D01*
X105015078Y-103428996D01*
X105144659Y-103535341D01*
X105251004Y-103664922D01*
X105251005Y-103664924D01*
X105330024Y-103812758D01*
X105378687Y-103973177D01*
X105395117Y-104140000D01*
X105378687Y-104306823D01*
X105330024Y-104467242D01*
X105315879Y-104493705D01*
X105251004Y-104615078D01*
X105144659Y-104744659D01*
X105015078Y-104851004D01*
X105015076Y-104851005D01*
X104867242Y-104930024D01*
X104706823Y-104978687D01*
X104581804Y-104991000D01*
X103698196Y-104991000D01*
X103573177Y-104978687D01*
X103412758Y-104930024D01*
X103264924Y-104851005D01*
X103264922Y-104851004D01*
X103135341Y-104744659D01*
X103028996Y-104615078D01*
X102964121Y-104493705D01*
X102949976Y-104467242D01*
X102901313Y-104306823D01*
X102884883Y-104140000D01*
X102901313Y-103973177D01*
X102949976Y-103812758D01*
X103028995Y-103664924D01*
X103028996Y-103664922D01*
X103135341Y-103535341D01*
X103264922Y-103428996D01*
X103280094Y-103420886D01*
X103412758Y-103349976D01*
X103573177Y-103301313D01*
X103698196Y-103289000D01*
X104581804Y-103289000D01*
X104706823Y-103301313D01*
X104706823Y-103301313D01*
G37*
G36*
X101281000Y-104202000D02*
G01*
X99379000Y-104202000D01*
X99379000Y-102300000D01*
X101281000Y-102300000D01*
X101281000Y-104202000D01*
X101281000Y-104202000D01*
G37*
G36*
X98067395Y-102336546D02*
G01*
X98240466Y-102408234D01*
X98286042Y-102438687D01*
X98396227Y-102512310D01*
X98528690Y-102644773D01*
X98528691Y-102644775D01*
X98632766Y-102800534D01*
X98704454Y-102973605D01*
X98741000Y-103157333D01*
X98741000Y-103344667D01*
X98704454Y-103528395D01*
X98632766Y-103701466D01*
X98604594Y-103743628D01*
X98528690Y-103857227D01*
X98396227Y-103989690D01*
X98317818Y-104042081D01*
X98240466Y-104093766D01*
X98067395Y-104165454D01*
X97883667Y-104202000D01*
X97696333Y-104202000D01*
X97512605Y-104165454D01*
X97339534Y-104093766D01*
X97262182Y-104042081D01*
X97183773Y-103989690D01*
X97051310Y-103857227D01*
X96975406Y-103743628D01*
X96947234Y-103701466D01*
X96875546Y-103528395D01*
X96839000Y-103344667D01*
X96839000Y-103157333D01*
X96875546Y-102973605D01*
X96947234Y-102800534D01*
X97051309Y-102644775D01*
X97051310Y-102644773D01*
X97183773Y-102512310D01*
X97293958Y-102438687D01*
X97339534Y-102408234D01*
X97512605Y-102336546D01*
X97696333Y-102300000D01*
X97883667Y-102300000D01*
X98067395Y-102336546D01*
X98067395Y-102336546D01*
G37*
G36*
X84260915Y-101922934D02*
G01*
X84293424Y-101932795D01*
X84323382Y-101948809D01*
X84349641Y-101970359D01*
X84371191Y-101996618D01*
X84387205Y-102026576D01*
X84397066Y-102059085D01*
X84401000Y-102099029D01*
X84401000Y-103640971D01*
X84397066Y-103680915D01*
X84387205Y-103713424D01*
X84371191Y-103743382D01*
X84349641Y-103769641D01*
X84323382Y-103791191D01*
X84293424Y-103807205D01*
X84260915Y-103817066D01*
X84220971Y-103821000D01*
X80879029Y-103821000D01*
X80839085Y-103817066D01*
X80806576Y-103807205D01*
X80776618Y-103791191D01*
X80750359Y-103769641D01*
X80728809Y-103743382D01*
X80712795Y-103713424D01*
X80702934Y-103680915D01*
X80699000Y-103640971D01*
X80699000Y-102099029D01*
X80702934Y-102059085D01*
X80712795Y-102026576D01*
X80728809Y-101996618D01*
X80750359Y-101970359D01*
X80776618Y-101948809D01*
X80806576Y-101932795D01*
X80839085Y-101922934D01*
X80879029Y-101919000D01*
X84220971Y-101919000D01*
X84260915Y-101922934D01*
X84260915Y-101922934D01*
G37*
G36*
X92876823Y-101396313D02*
G01*
X93037242Y-101444976D01*
X93169906Y-101515886D01*
X93185078Y-101523996D01*
X93314659Y-101630341D01*
X93421004Y-101759922D01*
X93421005Y-101759924D01*
X93500024Y-101907758D01*
X93548687Y-102068177D01*
X93565117Y-102235000D01*
X93548687Y-102401823D01*
X93500024Y-102562242D01*
X93455910Y-102644773D01*
X93421004Y-102710078D01*
X93314659Y-102839659D01*
X93185078Y-102946004D01*
X93185076Y-102946005D01*
X93037242Y-103025024D01*
X92876823Y-103073687D01*
X92751804Y-103086000D01*
X92668196Y-103086000D01*
X92543177Y-103073687D01*
X92382758Y-103025024D01*
X92234924Y-102946005D01*
X92234922Y-102946004D01*
X92105341Y-102839659D01*
X91998996Y-102710078D01*
X91964090Y-102644773D01*
X91919976Y-102562242D01*
X91871313Y-102401823D01*
X91854883Y-102235000D01*
X91871313Y-102068177D01*
X91919976Y-101907758D01*
X91998995Y-101759924D01*
X91998996Y-101759922D01*
X92105341Y-101630341D01*
X92234922Y-101523996D01*
X92250094Y-101515886D01*
X92382758Y-101444976D01*
X92543177Y-101396313D01*
X92668196Y-101384000D01*
X92751804Y-101384000D01*
X92876823Y-101396313D01*
X92876823Y-101396313D01*
G37*
G36*
X89701823Y-101396313D02*
G01*
X89862242Y-101444976D01*
X89994906Y-101515886D01*
X90010078Y-101523996D01*
X90139659Y-101630341D01*
X90246004Y-101759922D01*
X90246005Y-101759924D01*
X90325024Y-101907758D01*
X90373687Y-102068177D01*
X90390117Y-102235000D01*
X90373687Y-102401823D01*
X90325024Y-102562242D01*
X90280910Y-102644773D01*
X90246004Y-102710078D01*
X90139659Y-102839659D01*
X90010078Y-102946004D01*
X90010076Y-102946005D01*
X89862242Y-103025024D01*
X89701823Y-103073687D01*
X89576804Y-103086000D01*
X89493196Y-103086000D01*
X89368177Y-103073687D01*
X89207758Y-103025024D01*
X89059924Y-102946005D01*
X89059922Y-102946004D01*
X88930341Y-102839659D01*
X88823996Y-102710078D01*
X88789090Y-102644773D01*
X88744976Y-102562242D01*
X88696313Y-102401823D01*
X88679883Y-102235000D01*
X88696313Y-102068177D01*
X88744976Y-101907758D01*
X88823995Y-101759924D01*
X88823996Y-101759922D01*
X88930341Y-101630341D01*
X89059922Y-101523996D01*
X89075094Y-101515886D01*
X89207758Y-101444976D01*
X89368177Y-101396313D01*
X89493196Y-101384000D01*
X89576804Y-101384000D01*
X89701823Y-101396313D01*
X89701823Y-101396313D01*
G37*
G36*
X112326823Y-100761313D02*
G01*
X112487242Y-100809976D01*
X112587556Y-100863595D01*
X112635078Y-100888996D01*
X112764659Y-100995341D01*
X112871004Y-101124922D01*
X112871005Y-101124924D01*
X112950024Y-101272758D01*
X112998687Y-101433177D01*
X113015117Y-101600000D01*
X112998687Y-101766823D01*
X112950024Y-101927242D01*
X112879552Y-102059085D01*
X112871004Y-102075078D01*
X112764659Y-102204659D01*
X112635078Y-102311004D01*
X112635076Y-102311005D01*
X112487242Y-102390024D01*
X112326823Y-102438687D01*
X112201804Y-102451000D01*
X111318196Y-102451000D01*
X111193177Y-102438687D01*
X111032758Y-102390024D01*
X110884924Y-102311005D01*
X110884922Y-102311004D01*
X110755341Y-102204659D01*
X110648996Y-102075078D01*
X110640448Y-102059085D01*
X110569976Y-101927242D01*
X110521313Y-101766823D01*
X110504883Y-101600000D01*
X110521313Y-101433177D01*
X110569976Y-101272758D01*
X110648995Y-101124924D01*
X110648996Y-101124922D01*
X110755341Y-100995341D01*
X110884922Y-100888996D01*
X110932444Y-100863595D01*
X111032758Y-100809976D01*
X111193177Y-100761313D01*
X111318196Y-100749000D01*
X112201804Y-100749000D01*
X112326823Y-100761313D01*
X112326823Y-100761313D01*
G37*
G36*
X104706823Y-100761313D02*
G01*
X104867242Y-100809976D01*
X104967556Y-100863595D01*
X105015078Y-100888996D01*
X105144659Y-100995341D01*
X105251004Y-101124922D01*
X105251005Y-101124924D01*
X105330024Y-101272758D01*
X105378687Y-101433177D01*
X105395117Y-101600000D01*
X105378687Y-101766823D01*
X105330024Y-101927242D01*
X105259552Y-102059085D01*
X105251004Y-102075078D01*
X105144659Y-102204659D01*
X105015078Y-102311004D01*
X105015076Y-102311005D01*
X104867242Y-102390024D01*
X104706823Y-102438687D01*
X104581804Y-102451000D01*
X103698196Y-102451000D01*
X103573177Y-102438687D01*
X103412758Y-102390024D01*
X103264924Y-102311005D01*
X103264922Y-102311004D01*
X103135341Y-102204659D01*
X103028996Y-102075078D01*
X103020448Y-102059085D01*
X102949976Y-101927242D01*
X102901313Y-101766823D01*
X102884883Y-101600000D01*
X102901313Y-101433177D01*
X102949976Y-101272758D01*
X103028995Y-101124924D01*
X103028996Y-101124922D01*
X103135341Y-100995341D01*
X103264922Y-100888996D01*
X103312444Y-100863595D01*
X103412758Y-100809976D01*
X103573177Y-100761313D01*
X103698196Y-100749000D01*
X104581804Y-100749000D01*
X104706823Y-100761313D01*
X104706823Y-100761313D01*
G37*
G36*
X126931823Y-100735913D02*
G01*
X127092242Y-100784576D01*
X127224906Y-100855486D01*
X127240078Y-100863596D01*
X127369659Y-100969941D01*
X127476004Y-101099522D01*
X127476005Y-101099524D01*
X127555024Y-101247358D01*
X127603687Y-101407777D01*
X127620117Y-101574600D01*
X127603687Y-101741423D01*
X127555024Y-101901842D01*
X127504365Y-101996618D01*
X127476004Y-102049678D01*
X127369659Y-102179259D01*
X127240078Y-102285604D01*
X127240076Y-102285605D01*
X127092242Y-102364624D01*
X126931823Y-102413287D01*
X126806804Y-102425600D01*
X125923196Y-102425600D01*
X125798177Y-102413287D01*
X125637758Y-102364624D01*
X125489924Y-102285605D01*
X125489922Y-102285604D01*
X125360341Y-102179259D01*
X125253996Y-102049678D01*
X125225635Y-101996618D01*
X125174976Y-101901842D01*
X125126313Y-101741423D01*
X125109883Y-101574600D01*
X125126313Y-101407777D01*
X125174976Y-101247358D01*
X125253995Y-101099524D01*
X125253996Y-101099522D01*
X125360341Y-100969941D01*
X125489922Y-100863596D01*
X125505094Y-100855486D01*
X125637758Y-100784576D01*
X125798177Y-100735913D01*
X125923196Y-100723600D01*
X126806804Y-100723600D01*
X126931823Y-100735913D01*
X126931823Y-100735913D01*
G37*
G36*
X119311823Y-100735913D02*
G01*
X119472242Y-100784576D01*
X119604906Y-100855486D01*
X119620078Y-100863596D01*
X119749659Y-100969941D01*
X119856004Y-101099522D01*
X119856005Y-101099524D01*
X119935024Y-101247358D01*
X119983687Y-101407777D01*
X120000117Y-101574600D01*
X119983687Y-101741423D01*
X119935024Y-101901842D01*
X119884365Y-101996618D01*
X119856004Y-102049678D01*
X119749659Y-102179259D01*
X119620078Y-102285604D01*
X119620076Y-102285605D01*
X119472242Y-102364624D01*
X119311823Y-102413287D01*
X119186804Y-102425600D01*
X118303196Y-102425600D01*
X118178177Y-102413287D01*
X118017758Y-102364624D01*
X117869924Y-102285605D01*
X117869922Y-102285604D01*
X117740341Y-102179259D01*
X117633996Y-102049678D01*
X117605635Y-101996618D01*
X117554976Y-101901842D01*
X117506313Y-101741423D01*
X117489883Y-101574600D01*
X117506313Y-101407777D01*
X117554976Y-101247358D01*
X117633995Y-101099524D01*
X117633996Y-101099522D01*
X117740341Y-100969941D01*
X117869922Y-100863596D01*
X117885094Y-100855486D01*
X118017758Y-100784576D01*
X118178177Y-100735913D01*
X118303196Y-100723600D01*
X119186804Y-100723600D01*
X119311823Y-100735913D01*
X119311823Y-100735913D01*
G37*
G36*
X112326823Y-98221313D02*
G01*
X112487242Y-98269976D01*
X112587556Y-98323595D01*
X112635078Y-98348996D01*
X112764659Y-98455341D01*
X112871004Y-98584922D01*
X112871005Y-98584924D01*
X112950024Y-98732758D01*
X112998687Y-98893177D01*
X113015117Y-99060000D01*
X112998687Y-99226823D01*
X112950024Y-99387242D01*
X112879114Y-99519906D01*
X112871004Y-99535078D01*
X112764659Y-99664659D01*
X112635078Y-99771004D01*
X112635076Y-99771005D01*
X112487242Y-99850024D01*
X112326823Y-99898687D01*
X112201804Y-99911000D01*
X111318196Y-99911000D01*
X111193177Y-99898687D01*
X111032758Y-99850024D01*
X110884924Y-99771005D01*
X110884922Y-99771004D01*
X110755341Y-99664659D01*
X110648996Y-99535078D01*
X110640886Y-99519906D01*
X110569976Y-99387242D01*
X110521313Y-99226823D01*
X110504883Y-99060000D01*
X110521313Y-98893177D01*
X110569976Y-98732758D01*
X110648995Y-98584924D01*
X110648996Y-98584922D01*
X110755341Y-98455341D01*
X110884922Y-98348996D01*
X110932444Y-98323595D01*
X111032758Y-98269976D01*
X111193177Y-98221313D01*
X111318196Y-98209000D01*
X112201804Y-98209000D01*
X112326823Y-98221313D01*
X112326823Y-98221313D01*
G37*
G36*
X104706823Y-98221313D02*
G01*
X104867242Y-98269976D01*
X104967556Y-98323595D01*
X105015078Y-98348996D01*
X105144659Y-98455341D01*
X105251004Y-98584922D01*
X105251005Y-98584924D01*
X105330024Y-98732758D01*
X105378687Y-98893177D01*
X105395117Y-99060000D01*
X105378687Y-99226823D01*
X105330024Y-99387242D01*
X105259114Y-99519906D01*
X105251004Y-99535078D01*
X105144659Y-99664659D01*
X105015078Y-99771004D01*
X105015076Y-99771005D01*
X104867242Y-99850024D01*
X104706823Y-99898687D01*
X104581804Y-99911000D01*
X103698196Y-99911000D01*
X103573177Y-99898687D01*
X103412758Y-99850024D01*
X103264924Y-99771005D01*
X103264922Y-99771004D01*
X103135341Y-99664659D01*
X103028996Y-99535078D01*
X103020886Y-99519906D01*
X102949976Y-99387242D01*
X102901313Y-99226823D01*
X102884883Y-99060000D01*
X102901313Y-98893177D01*
X102949976Y-98732758D01*
X103028995Y-98584924D01*
X103028996Y-98584922D01*
X103135341Y-98455341D01*
X103264922Y-98348996D01*
X103312444Y-98323595D01*
X103412758Y-98269976D01*
X103573177Y-98221313D01*
X103698196Y-98209000D01*
X104581804Y-98209000D01*
X104706823Y-98221313D01*
X104706823Y-98221313D01*
G37*
G36*
X119311823Y-98195913D02*
G01*
X119395558Y-98221314D01*
X119456083Y-98239674D01*
X119472242Y-98244576D01*
X119604906Y-98315486D01*
X119620078Y-98323596D01*
X119749659Y-98429941D01*
X119856004Y-98559522D01*
X119856005Y-98559524D01*
X119935024Y-98707358D01*
X119983687Y-98867777D01*
X120000117Y-99034600D01*
X119983687Y-99201423D01*
X119935024Y-99361842D01*
X119921449Y-99387239D01*
X119856004Y-99509678D01*
X119749659Y-99639259D01*
X119620078Y-99745604D01*
X119620076Y-99745605D01*
X119472242Y-99824624D01*
X119311823Y-99873287D01*
X119186804Y-99885600D01*
X118303196Y-99885600D01*
X118178177Y-99873287D01*
X118017758Y-99824624D01*
X117869924Y-99745605D01*
X117869922Y-99745604D01*
X117740341Y-99639259D01*
X117633996Y-99509678D01*
X117568551Y-99387239D01*
X117554976Y-99361842D01*
X117506313Y-99201423D01*
X117489883Y-99034600D01*
X117506313Y-98867777D01*
X117554976Y-98707358D01*
X117633995Y-98559524D01*
X117633996Y-98559522D01*
X117740341Y-98429941D01*
X117869922Y-98323596D01*
X117885094Y-98315486D01*
X118017758Y-98244576D01*
X118033918Y-98239674D01*
X118094442Y-98221314D01*
X118178177Y-98195913D01*
X118303196Y-98183600D01*
X119186804Y-98183600D01*
X119311823Y-98195913D01*
X119311823Y-98195913D01*
G37*
G36*
X126931823Y-98195913D02*
G01*
X127015558Y-98221314D01*
X127076083Y-98239674D01*
X127092242Y-98244576D01*
X127224906Y-98315486D01*
X127240078Y-98323596D01*
X127369659Y-98429941D01*
X127476004Y-98559522D01*
X127476005Y-98559524D01*
X127555024Y-98707358D01*
X127603687Y-98867777D01*
X127620117Y-99034600D01*
X127603687Y-99201423D01*
X127555024Y-99361842D01*
X127541449Y-99387239D01*
X127476004Y-99509678D01*
X127369659Y-99639259D01*
X127240078Y-99745604D01*
X127240076Y-99745605D01*
X127092242Y-99824624D01*
X126931823Y-99873287D01*
X126806804Y-99885600D01*
X125923196Y-99885600D01*
X125798177Y-99873287D01*
X125637758Y-99824624D01*
X125489924Y-99745605D01*
X125489922Y-99745604D01*
X125360341Y-99639259D01*
X125253996Y-99509678D01*
X125188551Y-99387239D01*
X125174976Y-99361842D01*
X125126313Y-99201423D01*
X125109883Y-99034600D01*
X125126313Y-98867777D01*
X125174976Y-98707358D01*
X125253995Y-98559524D01*
X125253996Y-98559522D01*
X125360341Y-98429941D01*
X125489922Y-98323596D01*
X125505094Y-98315486D01*
X125637758Y-98244576D01*
X125653918Y-98239674D01*
X125714442Y-98221314D01*
X125798177Y-98195913D01*
X125923196Y-98183600D01*
X126806804Y-98183600D01*
X126931823Y-98195913D01*
X126931823Y-98195913D01*
G37*
G36*
X152297585Y-95983802D02*
G01*
X152447410Y-96013604D01*
X152729674Y-96130521D01*
X152983705Y-96300259D01*
X153199741Y-96516295D01*
X153369479Y-96770326D01*
X153486396Y-97052590D01*
X153546000Y-97352240D01*
X153546000Y-97657760D01*
X153486396Y-97957410D01*
X153369479Y-98239674D01*
X153199741Y-98493705D01*
X152983705Y-98709741D01*
X152729674Y-98879479D01*
X152447410Y-98996396D01*
X152297585Y-99026198D01*
X152147761Y-99056000D01*
X151842239Y-99056000D01*
X151692415Y-99026198D01*
X151542590Y-98996396D01*
X151260326Y-98879479D01*
X151006295Y-98709741D01*
X150790259Y-98493705D01*
X150620521Y-98239674D01*
X150503604Y-97957410D01*
X150444000Y-97657760D01*
X150444000Y-97352240D01*
X150503604Y-97052590D01*
X150620521Y-96770326D01*
X150790259Y-96516295D01*
X151006295Y-96300259D01*
X151260326Y-96130521D01*
X151542590Y-96013604D01*
X151692415Y-95983802D01*
X151842239Y-95954000D01*
X152147761Y-95954000D01*
X152297585Y-95983802D01*
X152297585Y-95983802D01*
G37*
G36*
X140124487Y-96303996D02*
G01*
X140320047Y-96385000D01*
X140361255Y-96402069D01*
X140574339Y-96544447D01*
X140755553Y-96725661D01*
X140830108Y-96837240D01*
X140897932Y-96938747D01*
X140996004Y-97175513D01*
X141046000Y-97426861D01*
X141046000Y-97683139D01*
X140996004Y-97934487D01*
X140897932Y-98171253D01*
X140897931Y-98171255D01*
X140755553Y-98384339D01*
X140574339Y-98565553D01*
X140361255Y-98707931D01*
X140361254Y-98707932D01*
X140361253Y-98707932D01*
X140124487Y-98806004D01*
X139873139Y-98856000D01*
X139616861Y-98856000D01*
X139365513Y-98806004D01*
X139128747Y-98707932D01*
X139128746Y-98707932D01*
X139128745Y-98707931D01*
X138915661Y-98565553D01*
X138734447Y-98384339D01*
X138592069Y-98171255D01*
X138592068Y-98171253D01*
X138493996Y-97934487D01*
X138444000Y-97683139D01*
X138444000Y-97426861D01*
X138493996Y-97175513D01*
X138592068Y-96938747D01*
X138659893Y-96837240D01*
X138734447Y-96725661D01*
X138915661Y-96544447D01*
X139128745Y-96402069D01*
X139169953Y-96385000D01*
X139365513Y-96303996D01*
X139616861Y-96254000D01*
X139873139Y-96254000D01*
X140124487Y-96303996D01*
X140124487Y-96303996D01*
G37*
G36*
X132596000Y-98687000D02*
G01*
X130294000Y-98687000D01*
X130294000Y-96385000D01*
X132596000Y-96385000D01*
X132596000Y-98687000D01*
X132596000Y-98687000D01*
G37*
G36*
X112326823Y-95681313D02*
G01*
X112487242Y-95729976D01*
X112587556Y-95783595D01*
X112635078Y-95808996D01*
X112764659Y-95915341D01*
X112871004Y-96044922D01*
X112871005Y-96044924D01*
X112950024Y-96192758D01*
X112998687Y-96353177D01*
X113015117Y-96520000D01*
X112998687Y-96686823D01*
X112950024Y-96847242D01*
X112879114Y-96979906D01*
X112871004Y-96995078D01*
X112764659Y-97124659D01*
X112635078Y-97231004D01*
X112635076Y-97231005D01*
X112487242Y-97310024D01*
X112326823Y-97358687D01*
X112201804Y-97371000D01*
X111318196Y-97371000D01*
X111193177Y-97358687D01*
X111032758Y-97310024D01*
X110884924Y-97231005D01*
X110884922Y-97231004D01*
X110755341Y-97124659D01*
X110648996Y-96995078D01*
X110640886Y-96979906D01*
X110569976Y-96847242D01*
X110521313Y-96686823D01*
X110504883Y-96520000D01*
X110521313Y-96353177D01*
X110569976Y-96192758D01*
X110648995Y-96044924D01*
X110648996Y-96044922D01*
X110755341Y-95915341D01*
X110884922Y-95808996D01*
X110932444Y-95783595D01*
X111032758Y-95729976D01*
X111193177Y-95681313D01*
X111318196Y-95669000D01*
X112201804Y-95669000D01*
X112326823Y-95681313D01*
X112326823Y-95681313D01*
G37*
G36*
X104706823Y-95681313D02*
G01*
X104867242Y-95729976D01*
X104967556Y-95783595D01*
X105015078Y-95808996D01*
X105144659Y-95915341D01*
X105251004Y-96044922D01*
X105251005Y-96044924D01*
X105330024Y-96192758D01*
X105378687Y-96353177D01*
X105395117Y-96520000D01*
X105378687Y-96686823D01*
X105330024Y-96847242D01*
X105259114Y-96979906D01*
X105251004Y-96995078D01*
X105144659Y-97124659D01*
X105015078Y-97231004D01*
X105015076Y-97231005D01*
X104867242Y-97310024D01*
X104706823Y-97358687D01*
X104581804Y-97371000D01*
X103698196Y-97371000D01*
X103573177Y-97358687D01*
X103412758Y-97310024D01*
X103264924Y-97231005D01*
X103264922Y-97231004D01*
X103135341Y-97124659D01*
X103028996Y-96995078D01*
X103020886Y-96979906D01*
X102949976Y-96847242D01*
X102901313Y-96686823D01*
X102884883Y-96520000D01*
X102901313Y-96353177D01*
X102949976Y-96192758D01*
X103028995Y-96044924D01*
X103028996Y-96044922D01*
X103135341Y-95915341D01*
X103264922Y-95808996D01*
X103312444Y-95783595D01*
X103412758Y-95729976D01*
X103573177Y-95681313D01*
X103698196Y-95669000D01*
X104581804Y-95669000D01*
X104706823Y-95681313D01*
X104706823Y-95681313D01*
G37*
G36*
X119311823Y-95655913D02*
G01*
X119472242Y-95704576D01*
X119604906Y-95775486D01*
X119620078Y-95783596D01*
X119749659Y-95889941D01*
X119856004Y-96019522D01*
X119856005Y-96019524D01*
X119935024Y-96167358D01*
X119983687Y-96327777D01*
X120000117Y-96494600D01*
X119983687Y-96661423D01*
X119935024Y-96821842D01*
X119872538Y-96938745D01*
X119856004Y-96969678D01*
X119749659Y-97099259D01*
X119620078Y-97205604D01*
X119620076Y-97205605D01*
X119472242Y-97284624D01*
X119311823Y-97333287D01*
X119186804Y-97345600D01*
X118303196Y-97345600D01*
X118178177Y-97333287D01*
X118017758Y-97284624D01*
X117869924Y-97205605D01*
X117869922Y-97205604D01*
X117740341Y-97099259D01*
X117633996Y-96969678D01*
X117617462Y-96938745D01*
X117554976Y-96821842D01*
X117506313Y-96661423D01*
X117489883Y-96494600D01*
X117506313Y-96327777D01*
X117554976Y-96167358D01*
X117633995Y-96019524D01*
X117633996Y-96019522D01*
X117740341Y-95889941D01*
X117869922Y-95783596D01*
X117885094Y-95775486D01*
X118017758Y-95704576D01*
X118178177Y-95655913D01*
X118303196Y-95643600D01*
X119186804Y-95643600D01*
X119311823Y-95655913D01*
X119311823Y-95655913D01*
G37*
G36*
X126931823Y-95655913D02*
G01*
X127092242Y-95704576D01*
X127224906Y-95775486D01*
X127240078Y-95783596D01*
X127369659Y-95889941D01*
X127476004Y-96019522D01*
X127476005Y-96019524D01*
X127555024Y-96167358D01*
X127603687Y-96327777D01*
X127620117Y-96494600D01*
X127603687Y-96661423D01*
X127555024Y-96821842D01*
X127492538Y-96938745D01*
X127476004Y-96969678D01*
X127369659Y-97099259D01*
X127240078Y-97205604D01*
X127240076Y-97205605D01*
X127092242Y-97284624D01*
X126931823Y-97333287D01*
X126806804Y-97345600D01*
X125923196Y-97345600D01*
X125798177Y-97333287D01*
X125637758Y-97284624D01*
X125489924Y-97205605D01*
X125489922Y-97205604D01*
X125360341Y-97099259D01*
X125253996Y-96969678D01*
X125237462Y-96938745D01*
X125174976Y-96821842D01*
X125126313Y-96661423D01*
X125109883Y-96494600D01*
X125126313Y-96327777D01*
X125174976Y-96167358D01*
X125253995Y-96019524D01*
X125253996Y-96019522D01*
X125360341Y-95889941D01*
X125489922Y-95783596D01*
X125505094Y-95775486D01*
X125637758Y-95704576D01*
X125798177Y-95655913D01*
X125923196Y-95643600D01*
X126806804Y-95643600D01*
X126931823Y-95655913D01*
X126931823Y-95655913D01*
G37*
G36*
X83636425Y-94962760D02*
G01*
X83636428Y-94962761D01*
X83636429Y-94962761D01*
X83815693Y-95017140D01*
X83815696Y-95017142D01*
X83815697Y-95017142D01*
X83980903Y-95105446D01*
X84125712Y-95224288D01*
X84244554Y-95369097D01*
X84332858Y-95534303D01*
X84332860Y-95534307D01*
X84377454Y-95681314D01*
X84387240Y-95713575D01*
X84405601Y-95900000D01*
X84387240Y-96086425D01*
X84387239Y-96086428D01*
X84387239Y-96086429D01*
X84332860Y-96265693D01*
X84332858Y-96265696D01*
X84332858Y-96265697D01*
X84244554Y-96430903D01*
X84125712Y-96575712D01*
X83980903Y-96694554D01*
X83839139Y-96770328D01*
X83815693Y-96782860D01*
X83636429Y-96837239D01*
X83636428Y-96837239D01*
X83636425Y-96837240D01*
X83496718Y-96851000D01*
X81603282Y-96851000D01*
X81463575Y-96837240D01*
X81463572Y-96837239D01*
X81463571Y-96837239D01*
X81284307Y-96782860D01*
X81260861Y-96770328D01*
X81119097Y-96694554D01*
X80974288Y-96575712D01*
X80855446Y-96430903D01*
X80767142Y-96265697D01*
X80767142Y-96265696D01*
X80767140Y-96265693D01*
X80712761Y-96086429D01*
X80712761Y-96086428D01*
X80712760Y-96086425D01*
X80694399Y-95900000D01*
X80712760Y-95713575D01*
X80722546Y-95681314D01*
X80767140Y-95534307D01*
X80767142Y-95534303D01*
X80855446Y-95369097D01*
X80974288Y-95224288D01*
X81119097Y-95105446D01*
X81284303Y-95017142D01*
X81284304Y-95017142D01*
X81284307Y-95017140D01*
X81463571Y-94962761D01*
X81463572Y-94962761D01*
X81463575Y-94962760D01*
X81603282Y-94949000D01*
X83496718Y-94949000D01*
X83636425Y-94962760D01*
X83636425Y-94962760D01*
G37*
G36*
X112326823Y-93141313D02*
G01*
X112487242Y-93189976D01*
X112587556Y-93243595D01*
X112635078Y-93268996D01*
X112764659Y-93375341D01*
X112871004Y-93504922D01*
X112871005Y-93504924D01*
X112950024Y-93652758D01*
X112998687Y-93813177D01*
X113015117Y-93980000D01*
X112998687Y-94146823D01*
X112950024Y-94307242D01*
X112879114Y-94439906D01*
X112871004Y-94455078D01*
X112764659Y-94584659D01*
X112635078Y-94691004D01*
X112635076Y-94691005D01*
X112487242Y-94770024D01*
X112326823Y-94818687D01*
X112201804Y-94831000D01*
X111318196Y-94831000D01*
X111193177Y-94818687D01*
X111032758Y-94770024D01*
X110884924Y-94691005D01*
X110884922Y-94691004D01*
X110755341Y-94584659D01*
X110648996Y-94455078D01*
X110640886Y-94439906D01*
X110569976Y-94307242D01*
X110521313Y-94146823D01*
X110504883Y-93980000D01*
X110521313Y-93813177D01*
X110569976Y-93652758D01*
X110648995Y-93504924D01*
X110648996Y-93504922D01*
X110755341Y-93375341D01*
X110884922Y-93268996D01*
X110932444Y-93243595D01*
X111032758Y-93189976D01*
X111193177Y-93141313D01*
X111318196Y-93129000D01*
X112201804Y-93129000D01*
X112326823Y-93141313D01*
X112326823Y-93141313D01*
G37*
G36*
X104706823Y-93141313D02*
G01*
X104867242Y-93189976D01*
X104967556Y-93243595D01*
X105015078Y-93268996D01*
X105144659Y-93375341D01*
X105251004Y-93504922D01*
X105251005Y-93504924D01*
X105330024Y-93652758D01*
X105378687Y-93813177D01*
X105395117Y-93980000D01*
X105378687Y-94146823D01*
X105330024Y-94307242D01*
X105259114Y-94439906D01*
X105251004Y-94455078D01*
X105144659Y-94584659D01*
X105015078Y-94691004D01*
X105015076Y-94691005D01*
X104867242Y-94770024D01*
X104706823Y-94818687D01*
X104581804Y-94831000D01*
X103698196Y-94831000D01*
X103573177Y-94818687D01*
X103412758Y-94770024D01*
X103264924Y-94691005D01*
X103264922Y-94691004D01*
X103135341Y-94584659D01*
X103028996Y-94455078D01*
X103020886Y-94439906D01*
X102949976Y-94307242D01*
X102901313Y-94146823D01*
X102884883Y-93980000D01*
X102901313Y-93813177D01*
X102949976Y-93652758D01*
X103028995Y-93504924D01*
X103028996Y-93504922D01*
X103135341Y-93375341D01*
X103264922Y-93268996D01*
X103312444Y-93243595D01*
X103412758Y-93189976D01*
X103573177Y-93141313D01*
X103698196Y-93129000D01*
X104581804Y-93129000D01*
X104706823Y-93141313D01*
X104706823Y-93141313D01*
G37*
G36*
X119311823Y-93115913D02*
G01*
X119472242Y-93164576D01*
X119604906Y-93235486D01*
X119620078Y-93243596D01*
X119749659Y-93349941D01*
X119856004Y-93479522D01*
X119856005Y-93479524D01*
X119935024Y-93627358D01*
X119983687Y-93787777D01*
X120000117Y-93954600D01*
X119983687Y-94121423D01*
X119935024Y-94281842D01*
X119864114Y-94414506D01*
X119856004Y-94429678D01*
X119749659Y-94559259D01*
X119620078Y-94665604D01*
X119620076Y-94665605D01*
X119472242Y-94744624D01*
X119311823Y-94793287D01*
X119186804Y-94805600D01*
X118303196Y-94805600D01*
X118178177Y-94793287D01*
X118017758Y-94744624D01*
X117869924Y-94665605D01*
X117869922Y-94665604D01*
X117740341Y-94559259D01*
X117633996Y-94429678D01*
X117625886Y-94414506D01*
X117554976Y-94281842D01*
X117506313Y-94121423D01*
X117489883Y-93954600D01*
X117506313Y-93787777D01*
X117554976Y-93627358D01*
X117633995Y-93479524D01*
X117633996Y-93479522D01*
X117740341Y-93349941D01*
X117869922Y-93243596D01*
X117885094Y-93235486D01*
X118017758Y-93164576D01*
X118178177Y-93115913D01*
X118303196Y-93103600D01*
X119186804Y-93103600D01*
X119311823Y-93115913D01*
X119311823Y-93115913D01*
G37*
G36*
X126931823Y-93115913D02*
G01*
X127092242Y-93164576D01*
X127224906Y-93235486D01*
X127240078Y-93243596D01*
X127369659Y-93349941D01*
X127476004Y-93479522D01*
X127476005Y-93479524D01*
X127555024Y-93627358D01*
X127603687Y-93787777D01*
X127620117Y-93954600D01*
X127603687Y-94121423D01*
X127555024Y-94281842D01*
X127484114Y-94414506D01*
X127476004Y-94429678D01*
X127369659Y-94559259D01*
X127240078Y-94665604D01*
X127240076Y-94665605D01*
X127092242Y-94744624D01*
X126931823Y-94793287D01*
X126806804Y-94805600D01*
X125923196Y-94805600D01*
X125798177Y-94793287D01*
X125637758Y-94744624D01*
X125489924Y-94665605D01*
X125489922Y-94665604D01*
X125360341Y-94559259D01*
X125253996Y-94429678D01*
X125245886Y-94414506D01*
X125174976Y-94281842D01*
X125126313Y-94121423D01*
X125109883Y-93954600D01*
X125126313Y-93787777D01*
X125174976Y-93627358D01*
X125253995Y-93479524D01*
X125253996Y-93479522D01*
X125360341Y-93349941D01*
X125489922Y-93243596D01*
X125505094Y-93235486D01*
X125637758Y-93164576D01*
X125798177Y-93115913D01*
X125923196Y-93103600D01*
X126806804Y-93103600D01*
X126931823Y-93115913D01*
X126931823Y-93115913D01*
G37*
G36*
X152214093Y-91517140D02*
G01*
X152397410Y-91553604D01*
X152679674Y-91670521D01*
X152933705Y-91840259D01*
X153149741Y-92056295D01*
X153319479Y-92310326D01*
X153368530Y-92428747D01*
X153436396Y-92592591D01*
X153496000Y-92892239D01*
X153496000Y-93197761D01*
X153481830Y-93268996D01*
X153436396Y-93497410D01*
X153319479Y-93779674D01*
X153149741Y-94033705D01*
X152933705Y-94249741D01*
X152679674Y-94419479D01*
X152397410Y-94536396D01*
X152282470Y-94559259D01*
X152097761Y-94596000D01*
X151792239Y-94596000D01*
X151607530Y-94559259D01*
X151492590Y-94536396D01*
X151210326Y-94419479D01*
X150956295Y-94249741D01*
X150740259Y-94033705D01*
X150570521Y-93779674D01*
X150453604Y-93497410D01*
X150408170Y-93268996D01*
X150394000Y-93197761D01*
X150394000Y-92892239D01*
X150453604Y-92592591D01*
X150521470Y-92428747D01*
X150570521Y-92310326D01*
X150740259Y-92056295D01*
X150956295Y-91840259D01*
X151210326Y-91670521D01*
X151492590Y-91553604D01*
X151675907Y-91517140D01*
X151792239Y-91494000D01*
X152097761Y-91494000D01*
X152214093Y-91517140D01*
X152214093Y-91517140D01*
G37*
G36*
X140124487Y-91793996D02*
G01*
X140305796Y-91869097D01*
X140361255Y-91892069D01*
X140574339Y-92034447D01*
X140755553Y-92215661D01*
X140797666Y-92278687D01*
X140897932Y-92428747D01*
X140996004Y-92665513D01*
X141046000Y-92916861D01*
X141046000Y-93173139D01*
X140996004Y-93424487D01*
X140897932Y-93661253D01*
X140897931Y-93661255D01*
X140755553Y-93874339D01*
X140574339Y-94055553D01*
X140361255Y-94197931D01*
X140361254Y-94197932D01*
X140361253Y-94197932D01*
X140124487Y-94296004D01*
X139873139Y-94346000D01*
X139616861Y-94346000D01*
X139365513Y-94296004D01*
X139128747Y-94197932D01*
X139128746Y-94197932D01*
X139128745Y-94197931D01*
X138915661Y-94055553D01*
X138734447Y-93874339D01*
X138592069Y-93661255D01*
X138592068Y-93661253D01*
X138493996Y-93424487D01*
X138444000Y-93173139D01*
X138444000Y-92916861D01*
X138493996Y-92665513D01*
X138592068Y-92428747D01*
X138692335Y-92278687D01*
X138734447Y-92215661D01*
X138915661Y-92034447D01*
X139128745Y-91892069D01*
X139184204Y-91869097D01*
X139365513Y-91793996D01*
X139616861Y-91744000D01*
X139873139Y-91744000D01*
X140124487Y-91793996D01*
X140124487Y-91793996D01*
G37*
G36*
X83636425Y-91462760D02*
G01*
X83636428Y-91462761D01*
X83636429Y-91462761D01*
X83815693Y-91517140D01*
X83815696Y-91517142D01*
X83815697Y-91517142D01*
X83980903Y-91605446D01*
X84125712Y-91724288D01*
X84244554Y-91869097D01*
X84318653Y-92007728D01*
X84332860Y-92034307D01*
X84373344Y-92167765D01*
X84387240Y-92213575D01*
X84405601Y-92400000D01*
X84387240Y-92586425D01*
X84387239Y-92586428D01*
X84387239Y-92586429D01*
X84332860Y-92765693D01*
X84332858Y-92765696D01*
X84332858Y-92765697D01*
X84244554Y-92930903D01*
X84125712Y-93075712D01*
X83980903Y-93194554D01*
X83841631Y-93268996D01*
X83815693Y-93282860D01*
X83636429Y-93337239D01*
X83636428Y-93337239D01*
X83636425Y-93337240D01*
X83496718Y-93351000D01*
X81603282Y-93351000D01*
X81463575Y-93337240D01*
X81463572Y-93337239D01*
X81463571Y-93337239D01*
X81284307Y-93282860D01*
X81258369Y-93268996D01*
X81119097Y-93194554D01*
X80974288Y-93075712D01*
X80855446Y-92930903D01*
X80767142Y-92765697D01*
X80767142Y-92765696D01*
X80767140Y-92765693D01*
X80712761Y-92586429D01*
X80712761Y-92586428D01*
X80712760Y-92586425D01*
X80694399Y-92400000D01*
X80712760Y-92213575D01*
X80726656Y-92167765D01*
X80767140Y-92034307D01*
X80781347Y-92007728D01*
X80855446Y-91869097D01*
X80974288Y-91724288D01*
X81119097Y-91605446D01*
X81284303Y-91517142D01*
X81284304Y-91517142D01*
X81284307Y-91517140D01*
X81463571Y-91462761D01*
X81463572Y-91462761D01*
X81463575Y-91462760D01*
X81603282Y-91449000D01*
X83496718Y-91449000D01*
X83636425Y-91462760D01*
X83636425Y-91462760D01*
G37*
G36*
X162447097Y-90375069D02*
G01*
X162550032Y-90385207D01*
X162748146Y-90445305D01*
X162748149Y-90445306D01*
X162844975Y-90497061D01*
X162930729Y-90542897D01*
X163090765Y-90674235D01*
X163222103Y-90834271D01*
X163267939Y-90920025D01*
X163319694Y-91016851D01*
X163319695Y-91016854D01*
X163379793Y-91214968D01*
X163400085Y-91421000D01*
X163379793Y-91627032D01*
X163337261Y-91767239D01*
X163319694Y-91825149D01*
X163296203Y-91869097D01*
X163222103Y-92007729D01*
X163090765Y-92167765D01*
X162930729Y-92299103D01*
X162859828Y-92337000D01*
X162748149Y-92396694D01*
X162748146Y-92396695D01*
X162550032Y-92456793D01*
X162447097Y-92466931D01*
X162395631Y-92472000D01*
X160692369Y-92472000D01*
X160640903Y-92466931D01*
X160537968Y-92456793D01*
X160339854Y-92396695D01*
X160339851Y-92396694D01*
X160228172Y-92337000D01*
X160157271Y-92299103D01*
X159997235Y-92167765D01*
X159865897Y-92007729D01*
X159791797Y-91869097D01*
X159768306Y-91825149D01*
X159750739Y-91767239D01*
X159708207Y-91627032D01*
X159687915Y-91421000D01*
X159708207Y-91214968D01*
X159768305Y-91016854D01*
X159768306Y-91016851D01*
X159820061Y-90920025D01*
X159865897Y-90834271D01*
X159997235Y-90674235D01*
X160157271Y-90542897D01*
X160243025Y-90497061D01*
X160339851Y-90445306D01*
X160339854Y-90445305D01*
X160537968Y-90385207D01*
X160640903Y-90375069D01*
X160692369Y-90370000D01*
X162395631Y-90370000D01*
X162447097Y-90375069D01*
X162447097Y-90375069D01*
G37*
G36*
X131614271Y-90046103D02*
G01*
X131670635Y-90051654D01*
X131887600Y-90117470D01*
X131887602Y-90117471D01*
X132087555Y-90224347D01*
X132262818Y-90368182D01*
X132406653Y-90543445D01*
X132505831Y-90728996D01*
X132513530Y-90743400D01*
X132579346Y-90960365D01*
X132601569Y-91186000D01*
X132579346Y-91411635D01*
X132514006Y-91627032D01*
X132513529Y-91628602D01*
X132406653Y-91828555D01*
X132262818Y-92003818D01*
X132087555Y-92147653D01*
X131887602Y-92254529D01*
X131887600Y-92254530D01*
X131670635Y-92320346D01*
X131614271Y-92325897D01*
X131501545Y-92337000D01*
X131388455Y-92337000D01*
X131275729Y-92325897D01*
X131219365Y-92320346D01*
X131002400Y-92254530D01*
X131002398Y-92254529D01*
X130802445Y-92147653D01*
X130627182Y-92003818D01*
X130483347Y-91828555D01*
X130376471Y-91628602D01*
X130375995Y-91627032D01*
X130310654Y-91411635D01*
X130288431Y-91186000D01*
X130310654Y-90960365D01*
X130376470Y-90743400D01*
X130384169Y-90728996D01*
X130483347Y-90543445D01*
X130627182Y-90368182D01*
X130802445Y-90224347D01*
X131002398Y-90117471D01*
X131002400Y-90117470D01*
X131219365Y-90051654D01*
X131275729Y-90046103D01*
X131388455Y-90035000D01*
X131501545Y-90035000D01*
X131614271Y-90046103D01*
X131614271Y-90046103D01*
G37*
G36*
X104706823Y-90601313D02*
G01*
X104867242Y-90649976D01*
X104912627Y-90674235D01*
X105015078Y-90728996D01*
X105144659Y-90835341D01*
X105251004Y-90964922D01*
X105251005Y-90964924D01*
X105330024Y-91112758D01*
X105378687Y-91273177D01*
X105395117Y-91440000D01*
X105378687Y-91606823D01*
X105330024Y-91767242D01*
X105259114Y-91899906D01*
X105251004Y-91915078D01*
X105144659Y-92044659D01*
X105015078Y-92151004D01*
X105015076Y-92151005D01*
X104867242Y-92230024D01*
X104706823Y-92278687D01*
X104581804Y-92291000D01*
X103698196Y-92291000D01*
X103573177Y-92278687D01*
X103412758Y-92230024D01*
X103264924Y-92151005D01*
X103264922Y-92151004D01*
X103135341Y-92044659D01*
X103028996Y-91915078D01*
X103020886Y-91899906D01*
X102949976Y-91767242D01*
X102901313Y-91606823D01*
X102884883Y-91440000D01*
X102901313Y-91273177D01*
X102949976Y-91112758D01*
X103028995Y-90964924D01*
X103028996Y-90964922D01*
X103135341Y-90835341D01*
X103264922Y-90728996D01*
X103367373Y-90674235D01*
X103412758Y-90649976D01*
X103573177Y-90601313D01*
X103698196Y-90589000D01*
X104581804Y-90589000D01*
X104706823Y-90601313D01*
X104706823Y-90601313D01*
G37*
G36*
X112326823Y-90601313D02*
G01*
X112487242Y-90649976D01*
X112532627Y-90674235D01*
X112635078Y-90728996D01*
X112764659Y-90835341D01*
X112871004Y-90964922D01*
X112871005Y-90964924D01*
X112950024Y-91112758D01*
X112998687Y-91273177D01*
X113015117Y-91440000D01*
X112998687Y-91606823D01*
X112950024Y-91767242D01*
X112879114Y-91899906D01*
X112871004Y-91915078D01*
X112764659Y-92044659D01*
X112635078Y-92151004D01*
X112635076Y-92151005D01*
X112487242Y-92230024D01*
X112326823Y-92278687D01*
X112201804Y-92291000D01*
X111318196Y-92291000D01*
X111193177Y-92278687D01*
X111032758Y-92230024D01*
X110884924Y-92151005D01*
X110884922Y-92151004D01*
X110755341Y-92044659D01*
X110648996Y-91915078D01*
X110640886Y-91899906D01*
X110569976Y-91767242D01*
X110521313Y-91606823D01*
X110504883Y-91440000D01*
X110521313Y-91273177D01*
X110569976Y-91112758D01*
X110648995Y-90964924D01*
X110648996Y-90964922D01*
X110755341Y-90835341D01*
X110884922Y-90728996D01*
X110987373Y-90674235D01*
X111032758Y-90649976D01*
X111193177Y-90601313D01*
X111318196Y-90589000D01*
X112201804Y-90589000D01*
X112326823Y-90601313D01*
X112326823Y-90601313D01*
G37*
G36*
X126931823Y-90575913D02*
G01*
X127092242Y-90624576D01*
X127185147Y-90674235D01*
X127240078Y-90703596D01*
X127369659Y-90809941D01*
X127476004Y-90939522D01*
X127476005Y-90939524D01*
X127555024Y-91087358D01*
X127603687Y-91247777D01*
X127620117Y-91414600D01*
X127603687Y-91581423D01*
X127555024Y-91741842D01*
X127510497Y-91825146D01*
X127476004Y-91889678D01*
X127369659Y-92019259D01*
X127240078Y-92125604D01*
X127240076Y-92125605D01*
X127092242Y-92204624D01*
X126931823Y-92253287D01*
X126806804Y-92265600D01*
X125923196Y-92265600D01*
X125798177Y-92253287D01*
X125637758Y-92204624D01*
X125489924Y-92125605D01*
X125489922Y-92125604D01*
X125360341Y-92019259D01*
X125253996Y-91889678D01*
X125219503Y-91825146D01*
X125174976Y-91741842D01*
X125126313Y-91581423D01*
X125109883Y-91414600D01*
X125126313Y-91247777D01*
X125174976Y-91087358D01*
X125253995Y-90939524D01*
X125253996Y-90939522D01*
X125360341Y-90809941D01*
X125489922Y-90703596D01*
X125544853Y-90674235D01*
X125637758Y-90624576D01*
X125798177Y-90575913D01*
X125923196Y-90563600D01*
X126806804Y-90563600D01*
X126931823Y-90575913D01*
X126931823Y-90575913D01*
G37*
G36*
X119311823Y-90575913D02*
G01*
X119472242Y-90624576D01*
X119565147Y-90674235D01*
X119620078Y-90703596D01*
X119749659Y-90809941D01*
X119856004Y-90939522D01*
X119856005Y-90939524D01*
X119935024Y-91087358D01*
X119983687Y-91247777D01*
X120000117Y-91414600D01*
X119983687Y-91581423D01*
X119935024Y-91741842D01*
X119890497Y-91825146D01*
X119856004Y-91889678D01*
X119749659Y-92019259D01*
X119620078Y-92125604D01*
X119620076Y-92125605D01*
X119472242Y-92204624D01*
X119311823Y-92253287D01*
X119186804Y-92265600D01*
X118303196Y-92265600D01*
X118178177Y-92253287D01*
X118017758Y-92204624D01*
X117869924Y-92125605D01*
X117869922Y-92125604D01*
X117740341Y-92019259D01*
X117633996Y-91889678D01*
X117599503Y-91825146D01*
X117554976Y-91741842D01*
X117506313Y-91581423D01*
X117489883Y-91414600D01*
X117506313Y-91247777D01*
X117554976Y-91087358D01*
X117633995Y-90939524D01*
X117633996Y-90939522D01*
X117740341Y-90809941D01*
X117869922Y-90703596D01*
X117924853Y-90674235D01*
X118017758Y-90624576D01*
X118178177Y-90575913D01*
X118303196Y-90563600D01*
X119186804Y-90563600D01*
X119311823Y-90575913D01*
X119311823Y-90575913D01*
G37*
G36*
X84260915Y-87952934D02*
G01*
X84293424Y-87962795D01*
X84323382Y-87978809D01*
X84349641Y-88000359D01*
X84371191Y-88026618D01*
X84387205Y-88056576D01*
X84397066Y-88089085D01*
X84401000Y-88129029D01*
X84401000Y-89670971D01*
X84397066Y-89710915D01*
X84387205Y-89743424D01*
X84371191Y-89773382D01*
X84349641Y-89799641D01*
X84323382Y-89821191D01*
X84293424Y-89837205D01*
X84260915Y-89847066D01*
X84220971Y-89851000D01*
X80879029Y-89851000D01*
X80839085Y-89847066D01*
X80806576Y-89837205D01*
X80776618Y-89821191D01*
X80750359Y-89799641D01*
X80728809Y-89773382D01*
X80712795Y-89743424D01*
X80702934Y-89710915D01*
X80699000Y-89670971D01*
X80699000Y-88129029D01*
X80702934Y-88089085D01*
X80712795Y-88056576D01*
X80728809Y-88026618D01*
X80750359Y-88000359D01*
X80776618Y-87978809D01*
X80806576Y-87962795D01*
X80839085Y-87952934D01*
X80879029Y-87949000D01*
X84220971Y-87949000D01*
X84260915Y-87952934D01*
X84260915Y-87952934D01*
G37*
G36*
X112326823Y-88061313D02*
G01*
X112487242Y-88109976D01*
X112587556Y-88163595D01*
X112635078Y-88188996D01*
X112764659Y-88295341D01*
X112871004Y-88424922D01*
X112871005Y-88424924D01*
X112950024Y-88572758D01*
X112998687Y-88733177D01*
X113015117Y-88900000D01*
X112998687Y-89066823D01*
X112950024Y-89227242D01*
X112879114Y-89359906D01*
X112871004Y-89375078D01*
X112764659Y-89504659D01*
X112635078Y-89611004D01*
X112635076Y-89611005D01*
X112487242Y-89690024D01*
X112326823Y-89738687D01*
X112201804Y-89751000D01*
X111318196Y-89751000D01*
X111193177Y-89738687D01*
X111032758Y-89690024D01*
X110884924Y-89611005D01*
X110884922Y-89611004D01*
X110755341Y-89504659D01*
X110648996Y-89375078D01*
X110640886Y-89359906D01*
X110569976Y-89227242D01*
X110521313Y-89066823D01*
X110504883Y-88900000D01*
X110521313Y-88733177D01*
X110569976Y-88572758D01*
X110648995Y-88424924D01*
X110648996Y-88424922D01*
X110755341Y-88295341D01*
X110884922Y-88188996D01*
X110932444Y-88163595D01*
X111032758Y-88109976D01*
X111193177Y-88061313D01*
X111318196Y-88049000D01*
X112201804Y-88049000D01*
X112326823Y-88061313D01*
X112326823Y-88061313D01*
G37*
G36*
X104706823Y-88061313D02*
G01*
X104867242Y-88109976D01*
X104967556Y-88163595D01*
X105015078Y-88188996D01*
X105144659Y-88295341D01*
X105251004Y-88424922D01*
X105251005Y-88424924D01*
X105330024Y-88572758D01*
X105378687Y-88733177D01*
X105395117Y-88900000D01*
X105378687Y-89066823D01*
X105330024Y-89227242D01*
X105259114Y-89359906D01*
X105251004Y-89375078D01*
X105144659Y-89504659D01*
X105015078Y-89611004D01*
X105015076Y-89611005D01*
X104867242Y-89690024D01*
X104706823Y-89738687D01*
X104581804Y-89751000D01*
X103698196Y-89751000D01*
X103573177Y-89738687D01*
X103412758Y-89690024D01*
X103264924Y-89611005D01*
X103264922Y-89611004D01*
X103135341Y-89504659D01*
X103028996Y-89375078D01*
X103020886Y-89359906D01*
X102949976Y-89227242D01*
X102901313Y-89066823D01*
X102884883Y-88900000D01*
X102901313Y-88733177D01*
X102949976Y-88572758D01*
X103028995Y-88424924D01*
X103028996Y-88424922D01*
X103135341Y-88295341D01*
X103264922Y-88188996D01*
X103312444Y-88163595D01*
X103412758Y-88109976D01*
X103573177Y-88061313D01*
X103698196Y-88049000D01*
X104581804Y-88049000D01*
X104706823Y-88061313D01*
X104706823Y-88061313D01*
G37*
G36*
X126931823Y-88035913D02*
G01*
X127092242Y-88084576D01*
X127224906Y-88155486D01*
X127240078Y-88163596D01*
X127369659Y-88269941D01*
X127476004Y-88399522D01*
X127476005Y-88399524D01*
X127555024Y-88547358D01*
X127603687Y-88707777D01*
X127620117Y-88874600D01*
X127603687Y-89041423D01*
X127555024Y-89201842D01*
X127541449Y-89227239D01*
X127476004Y-89349678D01*
X127369659Y-89479259D01*
X127240078Y-89585604D01*
X127240076Y-89585605D01*
X127092242Y-89664624D01*
X126931823Y-89713287D01*
X126806804Y-89725600D01*
X125923196Y-89725600D01*
X125798177Y-89713287D01*
X125637758Y-89664624D01*
X125489924Y-89585605D01*
X125489922Y-89585604D01*
X125360341Y-89479259D01*
X125253996Y-89349678D01*
X125188551Y-89227239D01*
X125174976Y-89201842D01*
X125126313Y-89041423D01*
X125109883Y-88874600D01*
X125126313Y-88707777D01*
X125174976Y-88547358D01*
X125253995Y-88399524D01*
X125253996Y-88399522D01*
X125360341Y-88269941D01*
X125489922Y-88163596D01*
X125505094Y-88155486D01*
X125637758Y-88084576D01*
X125798177Y-88035913D01*
X125923196Y-88023600D01*
X126806804Y-88023600D01*
X126931823Y-88035913D01*
X126931823Y-88035913D01*
G37*
G36*
X119311823Y-88035913D02*
G01*
X119472242Y-88084576D01*
X119604906Y-88155486D01*
X119620078Y-88163596D01*
X119749659Y-88269941D01*
X119856004Y-88399522D01*
X119856005Y-88399524D01*
X119935024Y-88547358D01*
X119983687Y-88707777D01*
X120000117Y-88874600D01*
X119983687Y-89041423D01*
X119935024Y-89201842D01*
X119921449Y-89227239D01*
X119856004Y-89349678D01*
X119749659Y-89479259D01*
X119620078Y-89585604D01*
X119620076Y-89585605D01*
X119472242Y-89664624D01*
X119311823Y-89713287D01*
X119186804Y-89725600D01*
X118303196Y-89725600D01*
X118178177Y-89713287D01*
X118017758Y-89664624D01*
X117869924Y-89585605D01*
X117869922Y-89585604D01*
X117740341Y-89479259D01*
X117633996Y-89349678D01*
X117568551Y-89227239D01*
X117554976Y-89201842D01*
X117506313Y-89041423D01*
X117489883Y-88874600D01*
X117506313Y-88707777D01*
X117554976Y-88547358D01*
X117633995Y-88399524D01*
X117633996Y-88399522D01*
X117740341Y-88269941D01*
X117869922Y-88163596D01*
X117885094Y-88155486D01*
X118017758Y-88084576D01*
X118178177Y-88035913D01*
X118303196Y-88023600D01*
X119186804Y-88023600D01*
X119311823Y-88035913D01*
X119311823Y-88035913D01*
G37*
G36*
X138097585Y-85473802D02*
G01*
X138247410Y-85503604D01*
X138529674Y-85620521D01*
X138783705Y-85790259D01*
X138999741Y-86006295D01*
X139169479Y-86260326D01*
X139286396Y-86542590D01*
X139310116Y-86661839D01*
X139346000Y-86842239D01*
X139346000Y-87147761D01*
X139339926Y-87178295D01*
X139286396Y-87447410D01*
X139169479Y-87729674D01*
X138999741Y-87983705D01*
X138783705Y-88199741D01*
X138529674Y-88369479D01*
X138247410Y-88486396D01*
X138097585Y-88516198D01*
X137947761Y-88546000D01*
X137642239Y-88546000D01*
X137492415Y-88516198D01*
X137342590Y-88486396D01*
X137060326Y-88369479D01*
X136806295Y-88199741D01*
X136590259Y-87983705D01*
X136420521Y-87729674D01*
X136303604Y-87447410D01*
X136250074Y-87178295D01*
X136244000Y-87147761D01*
X136244000Y-86842239D01*
X136279884Y-86661839D01*
X136303604Y-86542590D01*
X136420521Y-86260326D01*
X136590259Y-86006295D01*
X136806295Y-85790259D01*
X137060326Y-85620521D01*
X137342590Y-85503604D01*
X137492415Y-85473802D01*
X137642239Y-85444000D01*
X137947761Y-85444000D01*
X138097585Y-85473802D01*
X138097585Y-85473802D01*
G37*
G36*
X162447097Y-85375069D02*
G01*
X162550032Y-85385207D01*
X162743844Y-85444000D01*
X162748149Y-85445306D01*
X162842828Y-85495913D01*
X162930729Y-85542897D01*
X163090765Y-85674235D01*
X163222103Y-85834271D01*
X163235601Y-85859524D01*
X163319694Y-86016851D01*
X163319695Y-86016854D01*
X163379793Y-86214968D01*
X163400085Y-86421000D01*
X163379793Y-86627032D01*
X163324388Y-86809676D01*
X163319694Y-86825149D01*
X163278359Y-86902481D01*
X163222103Y-87007729D01*
X163090765Y-87167765D01*
X162930729Y-87299103D01*
X162844975Y-87344939D01*
X162748149Y-87396694D01*
X162748146Y-87396695D01*
X162550032Y-87456793D01*
X162447097Y-87466931D01*
X162395631Y-87472000D01*
X160692369Y-87472000D01*
X160640903Y-87466931D01*
X160537968Y-87456793D01*
X160339854Y-87396695D01*
X160339851Y-87396694D01*
X160243025Y-87344939D01*
X160157271Y-87299103D01*
X159997235Y-87167765D01*
X159865897Y-87007729D01*
X159809641Y-86902481D01*
X159768306Y-86825149D01*
X159763612Y-86809676D01*
X159708207Y-86627032D01*
X159687915Y-86421000D01*
X159708207Y-86214968D01*
X159768305Y-86016854D01*
X159768306Y-86016851D01*
X159852399Y-85859524D01*
X159865897Y-85834271D01*
X159997235Y-85674235D01*
X160157271Y-85542897D01*
X160245172Y-85495913D01*
X160339851Y-85445306D01*
X160344156Y-85444000D01*
X160537968Y-85385207D01*
X160640903Y-85375069D01*
X160692369Y-85370000D01*
X162395631Y-85370000D01*
X162447097Y-85375069D01*
X162447097Y-85375069D01*
G37*
G36*
X104706823Y-85521313D02*
G01*
X104867242Y-85569976D01*
X104904296Y-85589782D01*
X105015078Y-85648996D01*
X105144659Y-85755341D01*
X105251004Y-85884922D01*
X105251005Y-85884924D01*
X105330024Y-86032758D01*
X105378687Y-86193177D01*
X105395117Y-86360000D01*
X105378687Y-86526823D01*
X105330024Y-86687242D01*
X105259114Y-86819906D01*
X105251004Y-86835078D01*
X105144659Y-86964659D01*
X105015078Y-87071004D01*
X105015076Y-87071005D01*
X104867242Y-87150024D01*
X104706823Y-87198687D01*
X104581804Y-87211000D01*
X103698196Y-87211000D01*
X103573177Y-87198687D01*
X103412758Y-87150024D01*
X103264924Y-87071005D01*
X103264922Y-87071004D01*
X103135341Y-86964659D01*
X103028996Y-86835078D01*
X103020886Y-86819906D01*
X102949976Y-86687242D01*
X102901313Y-86526823D01*
X102884883Y-86360000D01*
X102901313Y-86193177D01*
X102949976Y-86032758D01*
X103028995Y-85884924D01*
X103028996Y-85884922D01*
X103135341Y-85755341D01*
X103264922Y-85648996D01*
X103375704Y-85589782D01*
X103412758Y-85569976D01*
X103573177Y-85521313D01*
X103698196Y-85509000D01*
X104581804Y-85509000D01*
X104706823Y-85521313D01*
X104706823Y-85521313D01*
G37*
G36*
X112326823Y-85521313D02*
G01*
X112487242Y-85569976D01*
X112524296Y-85589782D01*
X112635078Y-85648996D01*
X112764659Y-85755341D01*
X112871004Y-85884922D01*
X112871005Y-85884924D01*
X112950024Y-86032758D01*
X112998687Y-86193177D01*
X113015117Y-86360000D01*
X112998687Y-86526823D01*
X112950024Y-86687242D01*
X112879114Y-86819906D01*
X112871004Y-86835078D01*
X112764659Y-86964659D01*
X112635078Y-87071004D01*
X112635076Y-87071005D01*
X112487242Y-87150024D01*
X112326823Y-87198687D01*
X112201804Y-87211000D01*
X111318196Y-87211000D01*
X111193177Y-87198687D01*
X111032758Y-87150024D01*
X110884924Y-87071005D01*
X110884922Y-87071004D01*
X110755341Y-86964659D01*
X110648996Y-86835078D01*
X110640886Y-86819906D01*
X110569976Y-86687242D01*
X110521313Y-86526823D01*
X110504883Y-86360000D01*
X110521313Y-86193177D01*
X110569976Y-86032758D01*
X110648995Y-85884924D01*
X110648996Y-85884922D01*
X110755341Y-85755341D01*
X110884922Y-85648996D01*
X110995704Y-85589782D01*
X111032758Y-85569976D01*
X111193177Y-85521313D01*
X111318196Y-85509000D01*
X112201804Y-85509000D01*
X112326823Y-85521313D01*
X112326823Y-85521313D01*
G37*
G36*
X95625228Y-85541703D02*
G01*
X95780100Y-85605853D01*
X95919481Y-85698985D01*
X96038015Y-85817519D01*
X96131147Y-85956900D01*
X96195297Y-86111772D01*
X96228000Y-86276184D01*
X96228000Y-86443816D01*
X96195297Y-86608228D01*
X96131147Y-86763100D01*
X96038015Y-86902481D01*
X95919481Y-87021015D01*
X95780100Y-87114147D01*
X95625228Y-87178297D01*
X95460816Y-87211000D01*
X95293184Y-87211000D01*
X95128772Y-87178297D01*
X94973900Y-87114147D01*
X94834519Y-87021015D01*
X94715985Y-86902481D01*
X94622853Y-86763100D01*
X94558703Y-86608228D01*
X94526000Y-86443816D01*
X94526000Y-86276184D01*
X94558703Y-86111772D01*
X94622853Y-85956900D01*
X94715985Y-85817519D01*
X94834519Y-85698985D01*
X94973900Y-85605853D01*
X95128772Y-85541703D01*
X95293184Y-85509000D01*
X95460816Y-85509000D01*
X95625228Y-85541703D01*
X95625228Y-85541703D01*
G37*
G36*
X93125228Y-85541703D02*
G01*
X93280100Y-85605853D01*
X93419481Y-85698985D01*
X93538015Y-85817519D01*
X93631147Y-85956900D01*
X93695297Y-86111772D01*
X93728000Y-86276184D01*
X93728000Y-86443816D01*
X93695297Y-86608228D01*
X93631147Y-86763100D01*
X93538015Y-86902481D01*
X93419481Y-87021015D01*
X93280100Y-87114147D01*
X93125228Y-87178297D01*
X92960816Y-87211000D01*
X92793184Y-87211000D01*
X92628772Y-87178297D01*
X92473900Y-87114147D01*
X92334519Y-87021015D01*
X92215985Y-86902481D01*
X92122853Y-86763100D01*
X92058703Y-86608228D01*
X92026000Y-86443816D01*
X92026000Y-86276184D01*
X92058703Y-86111772D01*
X92122853Y-85956900D01*
X92215985Y-85817519D01*
X92334519Y-85698985D01*
X92473900Y-85605853D01*
X92628772Y-85541703D01*
X92793184Y-85509000D01*
X92960816Y-85509000D01*
X93125228Y-85541703D01*
X93125228Y-85541703D01*
G37*
G36*
X119311823Y-85495913D02*
G01*
X119472242Y-85544576D01*
X119556816Y-85589782D01*
X119620078Y-85623596D01*
X119749659Y-85729941D01*
X119856004Y-85859522D01*
X119856005Y-85859524D01*
X119935024Y-86007358D01*
X119983687Y-86167777D01*
X120000117Y-86334600D01*
X119983687Y-86501423D01*
X119935024Y-86661842D01*
X119921449Y-86687239D01*
X119856004Y-86809678D01*
X119749659Y-86939259D01*
X119620078Y-87045604D01*
X119620076Y-87045605D01*
X119472242Y-87124624D01*
X119311823Y-87173287D01*
X119186804Y-87185600D01*
X118303196Y-87185600D01*
X118178177Y-87173287D01*
X118017758Y-87124624D01*
X117869924Y-87045605D01*
X117869922Y-87045604D01*
X117740341Y-86939259D01*
X117633996Y-86809678D01*
X117568551Y-86687239D01*
X117554976Y-86661842D01*
X117506313Y-86501423D01*
X117489883Y-86334600D01*
X117506313Y-86167777D01*
X117554976Y-86007358D01*
X117633995Y-85859524D01*
X117633996Y-85859522D01*
X117740341Y-85729941D01*
X117869922Y-85623596D01*
X117933184Y-85589782D01*
X118017758Y-85544576D01*
X118178177Y-85495913D01*
X118303196Y-85483600D01*
X119186804Y-85483600D01*
X119311823Y-85495913D01*
X119311823Y-85495913D01*
G37*
G36*
X126931823Y-85495913D02*
G01*
X127092242Y-85544576D01*
X127176816Y-85589782D01*
X127240078Y-85623596D01*
X127369659Y-85729941D01*
X127476004Y-85859522D01*
X127476005Y-85859524D01*
X127555024Y-86007358D01*
X127603687Y-86167777D01*
X127620117Y-86334600D01*
X127603687Y-86501423D01*
X127555024Y-86661842D01*
X127541449Y-86687239D01*
X127476004Y-86809678D01*
X127369659Y-86939259D01*
X127240078Y-87045604D01*
X127240076Y-87045605D01*
X127092242Y-87124624D01*
X126931823Y-87173287D01*
X126806804Y-87185600D01*
X125923196Y-87185600D01*
X125798177Y-87173287D01*
X125637758Y-87124624D01*
X125489924Y-87045605D01*
X125489922Y-87045604D01*
X125360341Y-86939259D01*
X125253996Y-86809678D01*
X125188551Y-86687239D01*
X125174976Y-86661842D01*
X125126313Y-86501423D01*
X125109883Y-86334600D01*
X125126313Y-86167777D01*
X125174976Y-86007358D01*
X125253995Y-85859524D01*
X125253996Y-85859522D01*
X125360341Y-85729941D01*
X125489922Y-85623596D01*
X125553184Y-85589782D01*
X125637758Y-85544576D01*
X125798177Y-85495913D01*
X125923196Y-85483600D01*
X126806804Y-85483600D01*
X126931823Y-85495913D01*
X126931823Y-85495913D01*
G37*
G36*
X100055642Y-85589781D02*
G01*
X100198599Y-85648996D01*
X100201416Y-85650163D01*
X100332608Y-85737822D01*
X100444178Y-85849392D01*
X100516012Y-85956900D01*
X100531838Y-85980586D01*
X100592219Y-86126358D01*
X100623000Y-86281107D01*
X100623000Y-86438893D01*
X100592219Y-86593642D01*
X100553448Y-86687242D01*
X100531837Y-86739416D01*
X100444178Y-86870608D01*
X100332608Y-86982178D01*
X100201416Y-87069837D01*
X100201415Y-87069838D01*
X100201414Y-87069838D01*
X100055642Y-87130219D01*
X99900893Y-87161000D01*
X99743107Y-87161000D01*
X99588358Y-87130219D01*
X99442586Y-87069838D01*
X99442585Y-87069838D01*
X99442584Y-87069837D01*
X99311392Y-86982178D01*
X99199822Y-86870608D01*
X99112163Y-86739416D01*
X99090552Y-86687242D01*
X99051781Y-86593642D01*
X99021000Y-86438893D01*
X99021000Y-86281107D01*
X99051781Y-86126358D01*
X99112162Y-85980586D01*
X99127988Y-85956900D01*
X99199822Y-85849392D01*
X99311392Y-85737822D01*
X99442584Y-85650163D01*
X99445401Y-85648996D01*
X99588358Y-85589781D01*
X99743107Y-85559000D01*
X99900893Y-85559000D01*
X100055642Y-85589781D01*
X100055642Y-85589781D01*
G37*
G36*
X112326823Y-82981313D02*
G01*
X112487242Y-83029976D01*
X112587556Y-83083595D01*
X112635078Y-83108996D01*
X112764659Y-83215341D01*
X112871004Y-83344922D01*
X112871005Y-83344924D01*
X112950024Y-83492758D01*
X112998687Y-83653177D01*
X113015117Y-83820000D01*
X112998687Y-83986823D01*
X112950024Y-84147242D01*
X112879114Y-84279906D01*
X112871004Y-84295078D01*
X112764659Y-84424659D01*
X112635078Y-84531004D01*
X112635076Y-84531005D01*
X112487242Y-84610024D01*
X112326823Y-84658687D01*
X112201804Y-84671000D01*
X111318196Y-84671000D01*
X111193177Y-84658687D01*
X111032758Y-84610024D01*
X110884924Y-84531005D01*
X110884922Y-84531004D01*
X110755341Y-84424659D01*
X110648996Y-84295078D01*
X110640886Y-84279906D01*
X110569976Y-84147242D01*
X110521313Y-83986823D01*
X110504883Y-83820000D01*
X110521313Y-83653177D01*
X110569976Y-83492758D01*
X110648995Y-83344924D01*
X110648996Y-83344922D01*
X110755341Y-83215341D01*
X110884922Y-83108996D01*
X110932444Y-83083595D01*
X111032758Y-83029976D01*
X111193177Y-82981313D01*
X111318196Y-82969000D01*
X112201804Y-82969000D01*
X112326823Y-82981313D01*
X112326823Y-82981313D01*
G37*
G36*
X105391000Y-84671000D02*
G01*
X102889000Y-84671000D01*
X102889000Y-82969000D01*
X105391000Y-82969000D01*
X105391000Y-84671000D01*
X105391000Y-84671000D01*
G37*
G36*
X126931823Y-82955913D02*
G01*
X127092242Y-83004576D01*
X127224906Y-83075486D01*
X127240078Y-83083596D01*
X127369659Y-83189941D01*
X127476004Y-83319522D01*
X127476005Y-83319524D01*
X127555024Y-83467358D01*
X127603687Y-83627777D01*
X127620117Y-83794600D01*
X127603687Y-83961423D01*
X127555024Y-84121842D01*
X127541449Y-84147239D01*
X127476004Y-84269678D01*
X127369659Y-84399259D01*
X127240078Y-84505604D01*
X127240076Y-84505605D01*
X127092242Y-84584624D01*
X126931823Y-84633287D01*
X126806804Y-84645600D01*
X125923196Y-84645600D01*
X125798177Y-84633287D01*
X125637758Y-84584624D01*
X125489924Y-84505605D01*
X125489922Y-84505604D01*
X125360341Y-84399259D01*
X125253996Y-84269678D01*
X125188551Y-84147239D01*
X125174976Y-84121842D01*
X125126313Y-83961423D01*
X125109883Y-83794600D01*
X125126313Y-83627777D01*
X125174976Y-83467358D01*
X125253995Y-83319524D01*
X125253996Y-83319522D01*
X125360341Y-83189941D01*
X125489922Y-83083596D01*
X125505094Y-83075486D01*
X125637758Y-83004576D01*
X125798177Y-82955913D01*
X125923196Y-82943600D01*
X126806804Y-82943600D01*
X126931823Y-82955913D01*
X126931823Y-82955913D01*
G37*
G36*
X119996000Y-84645600D02*
G01*
X117494000Y-84645600D01*
X117494000Y-82943600D01*
X119996000Y-82943600D01*
X119996000Y-84645600D01*
X119996000Y-84645600D01*
G37*
G36*
X152265998Y-79467519D02*
G01*
X152447410Y-79503604D01*
X152729674Y-79620521D01*
X152983705Y-79790259D01*
X153199741Y-80006295D01*
X153369479Y-80260326D01*
X153486396Y-80542590D01*
X153546000Y-80842240D01*
X153546000Y-81147760D01*
X153486396Y-81447410D01*
X153369479Y-81729674D01*
X153199741Y-81983705D01*
X152983705Y-82199741D01*
X152729674Y-82369479D01*
X152447410Y-82486396D01*
X152297585Y-82516198D01*
X152147761Y-82546000D01*
X151842239Y-82546000D01*
X151692415Y-82516198D01*
X151542590Y-82486396D01*
X151260326Y-82369479D01*
X151006295Y-82199741D01*
X150790259Y-81983705D01*
X150620521Y-81729674D01*
X150503604Y-81447410D01*
X150444000Y-81147760D01*
X150444000Y-80842240D01*
X150503604Y-80542590D01*
X150620521Y-80260326D01*
X150790259Y-80006295D01*
X151006295Y-79790259D01*
X151260326Y-79620521D01*
X151542590Y-79503604D01*
X151724002Y-79467519D01*
X151842239Y-79444000D01*
X152147761Y-79444000D01*
X152265998Y-79467519D01*
X152265998Y-79467519D01*
G37*
G36*
X162447097Y-80375069D02*
G01*
X162550032Y-80385207D01*
X162693562Y-80428747D01*
X162748149Y-80445306D01*
X162844975Y-80497061D01*
X162930729Y-80542897D01*
X163090765Y-80674235D01*
X163222103Y-80834271D01*
X163266248Y-80916861D01*
X163319694Y-81016851D01*
X163319695Y-81016854D01*
X163379793Y-81214968D01*
X163400085Y-81421000D01*
X163379793Y-81627032D01*
X163348657Y-81729672D01*
X163319694Y-81825149D01*
X163293798Y-81873597D01*
X163222103Y-82007729D01*
X163090765Y-82167765D01*
X162930729Y-82299103D01*
X162844975Y-82344939D01*
X162748149Y-82396694D01*
X162748146Y-82396695D01*
X162550032Y-82456793D01*
X162447097Y-82466931D01*
X162395631Y-82472000D01*
X160692369Y-82472000D01*
X160640903Y-82466931D01*
X160537968Y-82456793D01*
X160339854Y-82396695D01*
X160339851Y-82396694D01*
X160243025Y-82344939D01*
X160157271Y-82299103D01*
X159997235Y-82167765D01*
X159865897Y-82007729D01*
X159794202Y-81873597D01*
X159768306Y-81825149D01*
X159739343Y-81729672D01*
X159708207Y-81627032D01*
X159687915Y-81421000D01*
X159708207Y-81214968D01*
X159768305Y-81016854D01*
X159768306Y-81016851D01*
X159821752Y-80916861D01*
X159865897Y-80834271D01*
X159997235Y-80674235D01*
X160157271Y-80542897D01*
X160243025Y-80497061D01*
X160339851Y-80445306D01*
X160394438Y-80428747D01*
X160537968Y-80385207D01*
X160640903Y-80375069D01*
X160692369Y-80370000D01*
X162395631Y-80370000D01*
X162447097Y-80375069D01*
X162447097Y-80375069D01*
G37*
G36*
X140124487Y-79793996D02*
G01*
X140320047Y-79875000D01*
X140361255Y-79892069D01*
X140574339Y-80034447D01*
X140755553Y-80215661D01*
X140830108Y-80327240D01*
X140897932Y-80428747D01*
X140996004Y-80665513D01*
X141046000Y-80916861D01*
X141046000Y-81173139D01*
X140996004Y-81424487D01*
X140912107Y-81627032D01*
X140897931Y-81661255D01*
X140755553Y-81874339D01*
X140574339Y-82055553D01*
X140361255Y-82197931D01*
X140361254Y-82197932D01*
X140361253Y-82197932D01*
X140124487Y-82296004D01*
X139873139Y-82346000D01*
X139616861Y-82346000D01*
X139365513Y-82296004D01*
X139128747Y-82197932D01*
X139128746Y-82197932D01*
X139128745Y-82197931D01*
X138915661Y-82055553D01*
X138734447Y-81874339D01*
X138592069Y-81661255D01*
X138577893Y-81627032D01*
X138493996Y-81424487D01*
X138444000Y-81173139D01*
X138444000Y-80916861D01*
X138493996Y-80665513D01*
X138592068Y-80428747D01*
X138659893Y-80327240D01*
X138734447Y-80215661D01*
X138915661Y-80034447D01*
X139128745Y-79892069D01*
X139169953Y-79875000D01*
X139365513Y-79793996D01*
X139616861Y-79744000D01*
X139873139Y-79744000D01*
X140124487Y-79793996D01*
X140124487Y-79793996D01*
G37*
G36*
X95625228Y-80652203D02*
G01*
X95780100Y-80716353D01*
X95919481Y-80809485D01*
X96038015Y-80928019D01*
X96131147Y-81067400D01*
X96195297Y-81222272D01*
X96228000Y-81386684D01*
X96228000Y-81554316D01*
X96195297Y-81718728D01*
X96131147Y-81873600D01*
X96038015Y-82012981D01*
X95919481Y-82131515D01*
X95780100Y-82224647D01*
X95625228Y-82288797D01*
X95460816Y-82321500D01*
X95293184Y-82321500D01*
X95128772Y-82288797D01*
X94973900Y-82224647D01*
X94834519Y-82131515D01*
X94715985Y-82012981D01*
X94622853Y-81873600D01*
X94558703Y-81718728D01*
X94526000Y-81554316D01*
X94526000Y-81386684D01*
X94558703Y-81222272D01*
X94622853Y-81067400D01*
X94715985Y-80928019D01*
X94834519Y-80809485D01*
X94973900Y-80716353D01*
X95128772Y-80652203D01*
X95293184Y-80619500D01*
X95460816Y-80619500D01*
X95625228Y-80652203D01*
X95625228Y-80652203D01*
G37*
G36*
X93125228Y-80652203D02*
G01*
X93280100Y-80716353D01*
X93419481Y-80809485D01*
X93538015Y-80928019D01*
X93631147Y-81067400D01*
X93695297Y-81222272D01*
X93728000Y-81386684D01*
X93728000Y-81554316D01*
X93695297Y-81718728D01*
X93631147Y-81873600D01*
X93538015Y-82012981D01*
X93419481Y-82131515D01*
X93280100Y-82224647D01*
X93125228Y-82288797D01*
X92960816Y-82321500D01*
X92793184Y-82321500D01*
X92628772Y-82288797D01*
X92473900Y-82224647D01*
X92334519Y-82131515D01*
X92215985Y-82012981D01*
X92122853Y-81873600D01*
X92058703Y-81718728D01*
X92026000Y-81554316D01*
X92026000Y-81386684D01*
X92058703Y-81222272D01*
X92122853Y-81067400D01*
X92215985Y-80928019D01*
X92334519Y-80809485D01*
X92473900Y-80716353D01*
X92628772Y-80652203D01*
X92793184Y-80619500D01*
X92960816Y-80619500D01*
X93125228Y-80652203D01*
X93125228Y-80652203D01*
G37*
G36*
X100055642Y-80709781D02*
G01*
X100201414Y-80770162D01*
X100201416Y-80770163D01*
X100332608Y-80857822D01*
X100444178Y-80969392D01*
X100509664Y-81067400D01*
X100531838Y-81100586D01*
X100592219Y-81246358D01*
X100623000Y-81401107D01*
X100623000Y-81558893D01*
X100592219Y-81713642D01*
X100585579Y-81729672D01*
X100531837Y-81859416D01*
X100444178Y-81990608D01*
X100332608Y-82102178D01*
X100201416Y-82189837D01*
X100201415Y-82189838D01*
X100201414Y-82189838D01*
X100055642Y-82250219D01*
X99900893Y-82281000D01*
X99743107Y-82281000D01*
X99588358Y-82250219D01*
X99442586Y-82189838D01*
X99442585Y-82189838D01*
X99442584Y-82189837D01*
X99311392Y-82102178D01*
X99199822Y-81990608D01*
X99112163Y-81859416D01*
X99058421Y-81729672D01*
X99051781Y-81713642D01*
X99021000Y-81558893D01*
X99021000Y-81401107D01*
X99051781Y-81246358D01*
X99112162Y-81100586D01*
X99134336Y-81067400D01*
X99199822Y-80969392D01*
X99311392Y-80857822D01*
X99442584Y-80770163D01*
X99442586Y-80770162D01*
X99588358Y-80709781D01*
X99743107Y-80679000D01*
X99900893Y-80679000D01*
X100055642Y-80709781D01*
X100055642Y-80709781D01*
G37*
G36*
X132596000Y-82177000D02*
G01*
X130294000Y-82177000D01*
X130294000Y-79875000D01*
X132596000Y-79875000D01*
X132596000Y-82177000D01*
X132596000Y-82177000D01*
G37*
G36*
X109555228Y-79191703D02*
G01*
X109710100Y-79255853D01*
X109849481Y-79348985D01*
X109968015Y-79467519D01*
X110061147Y-79606900D01*
X110125297Y-79761772D01*
X110158000Y-79926184D01*
X110158000Y-80093816D01*
X110125297Y-80258228D01*
X110061147Y-80413100D01*
X109968015Y-80552481D01*
X109849481Y-80671015D01*
X109710100Y-80764147D01*
X109555228Y-80828297D01*
X109390816Y-80861000D01*
X109223184Y-80861000D01*
X109058772Y-80828297D01*
X108903900Y-80764147D01*
X108764519Y-80671015D01*
X108645985Y-80552481D01*
X108552853Y-80413100D01*
X108488703Y-80258228D01*
X108456000Y-80093816D01*
X108456000Y-79926184D01*
X108488703Y-79761772D01*
X108552853Y-79606900D01*
X108645985Y-79467519D01*
X108764519Y-79348985D01*
X108903900Y-79255853D01*
X109058772Y-79191703D01*
X109223184Y-79159000D01*
X109390816Y-79159000D01*
X109555228Y-79191703D01*
X109555228Y-79191703D01*
G37*
G36*
X107055228Y-79191703D02*
G01*
X107210100Y-79255853D01*
X107349481Y-79348985D01*
X107468015Y-79467519D01*
X107561147Y-79606900D01*
X107625297Y-79761772D01*
X107658000Y-79926184D01*
X107658000Y-80093816D01*
X107625297Y-80258228D01*
X107561147Y-80413100D01*
X107468015Y-80552481D01*
X107349481Y-80671015D01*
X107210100Y-80764147D01*
X107055228Y-80828297D01*
X106890816Y-80861000D01*
X106723184Y-80861000D01*
X106558772Y-80828297D01*
X106403900Y-80764147D01*
X106264519Y-80671015D01*
X106145985Y-80552481D01*
X106052853Y-80413100D01*
X105988703Y-80258228D01*
X105956000Y-80093816D01*
X105956000Y-79926184D01*
X105988703Y-79761772D01*
X106052853Y-79606900D01*
X106145985Y-79467519D01*
X106264519Y-79348985D01*
X106403900Y-79255853D01*
X106558772Y-79191703D01*
X106723184Y-79159000D01*
X106890816Y-79159000D01*
X107055228Y-79191703D01*
X107055228Y-79191703D01*
G37*
G36*
X83636425Y-78452760D02*
G01*
X83636428Y-78452761D01*
X83636429Y-78452761D01*
X83815693Y-78507140D01*
X83815696Y-78507142D01*
X83815697Y-78507142D01*
X83980903Y-78595446D01*
X84125712Y-78714288D01*
X84244554Y-78859097D01*
X84332858Y-79024303D01*
X84332860Y-79024307D01*
X84383639Y-79191703D01*
X84387240Y-79203575D01*
X84405601Y-79390000D01*
X84387240Y-79576425D01*
X84387239Y-79576428D01*
X84387239Y-79576429D01*
X84332860Y-79755693D01*
X84332858Y-79755696D01*
X84332858Y-79755697D01*
X84244554Y-79920903D01*
X84125712Y-80065712D01*
X83980903Y-80184554D01*
X83839139Y-80260328D01*
X83815693Y-80272860D01*
X83636429Y-80327239D01*
X83636428Y-80327239D01*
X83636425Y-80327240D01*
X83496718Y-80341000D01*
X81603282Y-80341000D01*
X81463575Y-80327240D01*
X81463572Y-80327239D01*
X81463571Y-80327239D01*
X81284307Y-80272860D01*
X81260861Y-80260328D01*
X81119097Y-80184554D01*
X80974288Y-80065712D01*
X80855446Y-79920903D01*
X80767142Y-79755697D01*
X80767142Y-79755696D01*
X80767140Y-79755693D01*
X80712761Y-79576429D01*
X80712761Y-79576428D01*
X80712760Y-79576425D01*
X80694399Y-79390000D01*
X80712760Y-79203575D01*
X80716361Y-79191703D01*
X80767140Y-79024307D01*
X80767142Y-79024303D01*
X80855446Y-78859097D01*
X80974288Y-78714288D01*
X81119097Y-78595446D01*
X81284303Y-78507142D01*
X81284304Y-78507142D01*
X81284307Y-78507140D01*
X81463571Y-78452761D01*
X81463572Y-78452761D01*
X81463575Y-78452760D01*
X81603282Y-78439000D01*
X83496718Y-78439000D01*
X83636425Y-78452760D01*
X83636425Y-78452760D01*
G37*
G36*
X152214093Y-75007140D02*
G01*
X152397410Y-75043604D01*
X152679674Y-75160521D01*
X152933705Y-75330259D01*
X153149741Y-75546295D01*
X153319479Y-75800326D01*
X153436396Y-76082590D01*
X153496000Y-76382240D01*
X153496000Y-76687760D01*
X153436396Y-76987410D01*
X153319479Y-77269674D01*
X153149741Y-77523705D01*
X152933705Y-77739741D01*
X152679674Y-77909479D01*
X152397410Y-78026396D01*
X152247585Y-78056198D01*
X152097761Y-78086000D01*
X151792239Y-78086000D01*
X151642415Y-78056198D01*
X151492590Y-78026396D01*
X151210326Y-77909479D01*
X150956295Y-77739741D01*
X150740259Y-77523705D01*
X150570521Y-77269674D01*
X150453604Y-76987410D01*
X150394000Y-76687760D01*
X150394000Y-76382240D01*
X150453604Y-76082590D01*
X150570521Y-75800326D01*
X150740259Y-75546295D01*
X150956295Y-75330259D01*
X151210326Y-75160521D01*
X151492590Y-75043604D01*
X151675907Y-75007140D01*
X151792239Y-74984000D01*
X152097761Y-74984000D01*
X152214093Y-75007140D01*
X152214093Y-75007140D01*
G37*
G36*
X140124487Y-75283996D02*
G01*
X140305796Y-75359097D01*
X140361255Y-75382069D01*
X140486904Y-75466025D01*
X140574339Y-75524447D01*
X140755553Y-75705661D01*
X140897932Y-75918747D01*
X140996004Y-76155513D01*
X141046000Y-76406861D01*
X141046000Y-76663139D01*
X140996004Y-76914487D01*
X140897932Y-77151253D01*
X140897931Y-77151255D01*
X140755553Y-77364339D01*
X140574339Y-77545553D01*
X140361255Y-77687931D01*
X140361254Y-77687932D01*
X140361253Y-77687932D01*
X140124487Y-77786004D01*
X139873139Y-77836000D01*
X139616861Y-77836000D01*
X139365513Y-77786004D01*
X139128747Y-77687932D01*
X139128746Y-77687932D01*
X139128745Y-77687931D01*
X138915661Y-77545553D01*
X138734447Y-77364339D01*
X138592069Y-77151255D01*
X138592068Y-77151253D01*
X138493996Y-76914487D01*
X138444000Y-76663139D01*
X138444000Y-76406861D01*
X138493996Y-76155513D01*
X138592068Y-75918747D01*
X138734447Y-75705661D01*
X138915661Y-75524447D01*
X139003096Y-75466025D01*
X139128745Y-75382069D01*
X139184204Y-75359097D01*
X139365513Y-75283996D01*
X139616861Y-75234000D01*
X139873139Y-75234000D01*
X140124487Y-75283996D01*
X140124487Y-75283996D01*
G37*
G36*
X162447097Y-75375069D02*
G01*
X162550032Y-75385207D01*
X162748146Y-75445305D01*
X162748149Y-75445306D01*
X162786909Y-75466024D01*
X162930729Y-75542897D01*
X163090765Y-75674235D01*
X163222103Y-75834271D01*
X163267255Y-75918745D01*
X163319694Y-76016851D01*
X163319695Y-76016854D01*
X163379793Y-76214968D01*
X163400085Y-76421000D01*
X163379793Y-76627032D01*
X163335556Y-76772860D01*
X163319694Y-76825149D01*
X163318576Y-76827240D01*
X163222103Y-77007729D01*
X163090765Y-77167765D01*
X162930729Y-77299103D01*
X162844975Y-77344939D01*
X162748149Y-77396694D01*
X162748146Y-77396695D01*
X162550032Y-77456793D01*
X162447097Y-77466931D01*
X162395631Y-77472000D01*
X160692369Y-77472000D01*
X160640903Y-77466931D01*
X160537968Y-77456793D01*
X160339854Y-77396695D01*
X160339851Y-77396694D01*
X160243025Y-77344939D01*
X160157271Y-77299103D01*
X159997235Y-77167765D01*
X159865897Y-77007729D01*
X159769424Y-76827240D01*
X159768306Y-76825149D01*
X159752444Y-76772860D01*
X159708207Y-76627032D01*
X159687915Y-76421000D01*
X159708207Y-76214968D01*
X159768305Y-76016854D01*
X159768306Y-76016851D01*
X159820745Y-75918745D01*
X159865897Y-75834271D01*
X159997235Y-75674235D01*
X160157271Y-75542897D01*
X160301091Y-75466024D01*
X160339851Y-75445306D01*
X160339854Y-75445305D01*
X160537968Y-75385207D01*
X160640903Y-75375069D01*
X160692369Y-75370000D01*
X162395631Y-75370000D01*
X162447097Y-75375069D01*
X162447097Y-75375069D01*
G37*
G36*
X83636425Y-74952760D02*
G01*
X83636428Y-74952761D01*
X83636429Y-74952761D01*
X83815693Y-75007140D01*
X83815696Y-75007142D01*
X83815697Y-75007142D01*
X83980903Y-75095446D01*
X84125712Y-75214288D01*
X84244554Y-75359097D01*
X84327718Y-75514687D01*
X84332860Y-75524307D01*
X84367243Y-75637653D01*
X84387240Y-75703575D01*
X84405601Y-75890000D01*
X84387240Y-76076425D01*
X84387239Y-76076428D01*
X84387239Y-76076429D01*
X84332860Y-76255693D01*
X84332858Y-76255696D01*
X84332858Y-76255697D01*
X84244554Y-76420903D01*
X84125712Y-76565712D01*
X83980903Y-76684554D01*
X83815697Y-76772858D01*
X83815693Y-76772860D01*
X83636429Y-76827239D01*
X83636428Y-76827239D01*
X83636425Y-76827240D01*
X83496718Y-76841000D01*
X81603282Y-76841000D01*
X81463575Y-76827240D01*
X81463572Y-76827239D01*
X81463571Y-76827239D01*
X81284307Y-76772860D01*
X81284303Y-76772858D01*
X81119097Y-76684554D01*
X80974288Y-76565712D01*
X80855446Y-76420903D01*
X80767142Y-76255697D01*
X80767142Y-76255696D01*
X80767140Y-76255693D01*
X80712761Y-76076429D01*
X80712761Y-76076428D01*
X80712760Y-76076425D01*
X80694399Y-75890000D01*
X80712760Y-75703575D01*
X80732757Y-75637653D01*
X80767140Y-75524307D01*
X80772282Y-75514687D01*
X80855446Y-75359097D01*
X80974288Y-75214288D01*
X81119097Y-75095446D01*
X81284303Y-75007142D01*
X81284304Y-75007142D01*
X81284307Y-75007140D01*
X81463571Y-74952761D01*
X81463572Y-74952761D01*
X81463575Y-74952760D01*
X81603282Y-74939000D01*
X83496718Y-74939000D01*
X83636425Y-74952760D01*
X83636425Y-74952760D01*
G37*
G36*
X131614271Y-73536103D02*
G01*
X131670635Y-73541654D01*
X131887600Y-73607470D01*
X131887602Y-73607471D01*
X132087555Y-73714347D01*
X132262818Y-73858182D01*
X132406653Y-74033445D01*
X132496170Y-74200922D01*
X132513530Y-74233400D01*
X132579346Y-74450365D01*
X132601569Y-74676000D01*
X132579346Y-74901635D01*
X132520554Y-75095446D01*
X132513529Y-75118602D01*
X132406653Y-75318555D01*
X132262818Y-75493818D01*
X132087555Y-75637653D01*
X131887602Y-75744529D01*
X131887600Y-75744530D01*
X131670635Y-75810346D01*
X131614271Y-75815897D01*
X131501545Y-75827000D01*
X131388455Y-75827000D01*
X131275729Y-75815897D01*
X131219365Y-75810346D01*
X131002400Y-75744530D01*
X131002398Y-75744529D01*
X130802445Y-75637653D01*
X130627182Y-75493818D01*
X130483347Y-75318555D01*
X130376471Y-75118602D01*
X130369447Y-75095446D01*
X130310654Y-74901635D01*
X130288431Y-74676000D01*
X130310654Y-74450365D01*
X130376470Y-74233400D01*
X130393830Y-74200922D01*
X130483347Y-74033445D01*
X130627182Y-73858182D01*
X130802445Y-73714347D01*
X131002398Y-73607471D01*
X131002400Y-73607470D01*
X131219365Y-73541654D01*
X131275729Y-73536103D01*
X131388455Y-73525000D01*
X131501545Y-73525000D01*
X131614271Y-73536103D01*
X131614271Y-73536103D01*
G37*
G36*
X97721823Y-73837313D02*
G01*
X97882242Y-73885976D01*
X98014906Y-73956886D01*
X98030078Y-73964996D01*
X98159659Y-74071341D01*
X98266004Y-74200922D01*
X98266005Y-74200924D01*
X98345024Y-74348758D01*
X98393687Y-74509177D01*
X98410117Y-74676000D01*
X98393687Y-74842823D01*
X98345024Y-75003242D01*
X98342940Y-75007140D01*
X98266004Y-75151078D01*
X98159659Y-75280659D01*
X98030078Y-75387004D01*
X98030076Y-75387005D01*
X97882242Y-75466024D01*
X97721823Y-75514687D01*
X97596804Y-75527000D01*
X96713196Y-75527000D01*
X96588177Y-75514687D01*
X96427758Y-75466024D01*
X96279924Y-75387005D01*
X96279922Y-75387004D01*
X96150341Y-75280659D01*
X96043996Y-75151078D01*
X95967060Y-75007140D01*
X95964976Y-75003242D01*
X95916313Y-74842823D01*
X95899883Y-74676000D01*
X95916313Y-74509177D01*
X95964976Y-74348758D01*
X96043995Y-74200924D01*
X96043996Y-74200922D01*
X96150341Y-74071341D01*
X96279922Y-73964996D01*
X96295094Y-73956886D01*
X96427758Y-73885976D01*
X96588177Y-73837313D01*
X96713196Y-73825000D01*
X97596804Y-73825000D01*
X97721823Y-73837313D01*
X97721823Y-73837313D01*
G37*
G36*
X105341823Y-73837313D02*
G01*
X105502242Y-73885976D01*
X105634906Y-73956886D01*
X105650078Y-73964996D01*
X105779659Y-74071341D01*
X105886004Y-74200922D01*
X105886005Y-74200924D01*
X105965024Y-74348758D01*
X106013687Y-74509177D01*
X106030117Y-74676000D01*
X106013687Y-74842823D01*
X105965024Y-75003242D01*
X105962940Y-75007140D01*
X105886004Y-75151078D01*
X105779659Y-75280659D01*
X105650078Y-75387004D01*
X105650076Y-75387005D01*
X105502242Y-75466024D01*
X105341823Y-75514687D01*
X105216804Y-75527000D01*
X104333196Y-75527000D01*
X104208177Y-75514687D01*
X104047758Y-75466024D01*
X103899924Y-75387005D01*
X103899922Y-75387004D01*
X103770341Y-75280659D01*
X103663996Y-75151078D01*
X103587060Y-75007140D01*
X103584976Y-75003242D01*
X103536313Y-74842823D01*
X103519883Y-74676000D01*
X103536313Y-74509177D01*
X103584976Y-74348758D01*
X103663995Y-74200924D01*
X103663996Y-74200922D01*
X103770341Y-74071341D01*
X103899922Y-73964996D01*
X103915094Y-73956886D01*
X104047758Y-73885976D01*
X104208177Y-73837313D01*
X104333196Y-73825000D01*
X105216804Y-73825000D01*
X105341823Y-73837313D01*
X105341823Y-73837313D01*
G37*
G36*
X115818228Y-72206703D02*
G01*
X115973100Y-72270853D01*
X116112481Y-72363985D01*
X116231015Y-72482519D01*
X116324147Y-72621900D01*
X116388297Y-72776772D01*
X116421000Y-72941184D01*
X116421000Y-73108816D01*
X116388297Y-73273228D01*
X116324147Y-73428100D01*
X116231015Y-73567481D01*
X116112481Y-73686015D01*
X115973100Y-73779147D01*
X115818228Y-73843297D01*
X115653816Y-73876000D01*
X115486184Y-73876000D01*
X115321772Y-73843297D01*
X115166900Y-73779147D01*
X115027519Y-73686015D01*
X114908985Y-73567481D01*
X114815853Y-73428100D01*
X114751703Y-73273228D01*
X114719000Y-73108816D01*
X114719000Y-72941184D01*
X114751703Y-72776772D01*
X114815853Y-72621900D01*
X114908985Y-72482519D01*
X115027519Y-72363985D01*
X115166900Y-72270853D01*
X115321772Y-72206703D01*
X115486184Y-72174000D01*
X115653816Y-72174000D01*
X115818228Y-72206703D01*
X115818228Y-72206703D01*
G37*
G36*
X118993228Y-72206703D02*
G01*
X119148100Y-72270853D01*
X119287481Y-72363985D01*
X119406015Y-72482519D01*
X119499147Y-72621900D01*
X119563297Y-72776772D01*
X119596000Y-72941184D01*
X119596000Y-73108816D01*
X119563297Y-73273228D01*
X119499147Y-73428100D01*
X119406015Y-73567481D01*
X119287481Y-73686015D01*
X119148100Y-73779147D01*
X118993228Y-73843297D01*
X118828816Y-73876000D01*
X118661184Y-73876000D01*
X118496772Y-73843297D01*
X118341900Y-73779147D01*
X118202519Y-73686015D01*
X118083985Y-73567481D01*
X117990853Y-73428100D01*
X117926703Y-73273228D01*
X117894000Y-73108816D01*
X117894000Y-72941184D01*
X117926703Y-72776772D01*
X117990853Y-72621900D01*
X118083985Y-72482519D01*
X118202519Y-72363985D01*
X118341900Y-72270853D01*
X118496772Y-72206703D01*
X118661184Y-72174000D01*
X118828816Y-72174000D01*
X118993228Y-72206703D01*
X118993228Y-72206703D01*
G37*
G36*
X112643228Y-72206703D02*
G01*
X112798100Y-72270853D01*
X112937481Y-72363985D01*
X113056015Y-72482519D01*
X113149147Y-72621900D01*
X113213297Y-72776772D01*
X113246000Y-72941184D01*
X113246000Y-73108816D01*
X113213297Y-73273228D01*
X113149147Y-73428100D01*
X113056015Y-73567481D01*
X112937481Y-73686015D01*
X112798100Y-73779147D01*
X112643228Y-73843297D01*
X112478816Y-73876000D01*
X112311184Y-73876000D01*
X112146772Y-73843297D01*
X111991900Y-73779147D01*
X111852519Y-73686015D01*
X111733985Y-73567481D01*
X111640853Y-73428100D01*
X111576703Y-73273228D01*
X111544000Y-73108816D01*
X111544000Y-72941184D01*
X111576703Y-72776772D01*
X111640853Y-72621900D01*
X111733985Y-72482519D01*
X111852519Y-72363985D01*
X111991900Y-72270853D01*
X112146772Y-72206703D01*
X112311184Y-72174000D01*
X112478816Y-72174000D01*
X112643228Y-72206703D01*
X112643228Y-72206703D01*
G37*
G36*
X109468228Y-72206703D02*
G01*
X109623100Y-72270853D01*
X109762481Y-72363985D01*
X109881015Y-72482519D01*
X109974147Y-72621900D01*
X110038297Y-72776772D01*
X110071000Y-72941184D01*
X110071000Y-73108816D01*
X110038297Y-73273228D01*
X109974147Y-73428100D01*
X109881015Y-73567481D01*
X109762481Y-73686015D01*
X109623100Y-73779147D01*
X109468228Y-73843297D01*
X109303816Y-73876000D01*
X109136184Y-73876000D01*
X108971772Y-73843297D01*
X108816900Y-73779147D01*
X108677519Y-73686015D01*
X108558985Y-73567481D01*
X108465853Y-73428100D01*
X108401703Y-73273228D01*
X108369000Y-73108816D01*
X108369000Y-72941184D01*
X108401703Y-72776772D01*
X108465853Y-72621900D01*
X108558985Y-72482519D01*
X108677519Y-72363985D01*
X108816900Y-72270853D01*
X108971772Y-72206703D01*
X109136184Y-72174000D01*
X109303816Y-72174000D01*
X109468228Y-72206703D01*
X109468228Y-72206703D01*
G37*
G36*
X125411000Y-73849000D02*
G01*
X123509000Y-73849000D01*
X123509000Y-71947000D01*
X125411000Y-71947000D01*
X125411000Y-73849000D01*
X125411000Y-73849000D01*
G37*
G36*
X122197395Y-71983546D02*
G01*
X122370466Y-72055234D01*
X122370467Y-72055235D01*
X122526227Y-72159310D01*
X122658690Y-72291773D01*
X122706940Y-72363985D01*
X122762766Y-72447534D01*
X122834454Y-72620605D01*
X122871000Y-72804333D01*
X122871000Y-72991667D01*
X122834454Y-73175395D01*
X122762766Y-73348466D01*
X122762765Y-73348467D01*
X122658690Y-73504227D01*
X122526227Y-73636690D01*
X122452407Y-73686015D01*
X122370466Y-73740766D01*
X122197395Y-73812454D01*
X122013667Y-73849000D01*
X121826333Y-73849000D01*
X121642605Y-73812454D01*
X121469534Y-73740766D01*
X121387593Y-73686015D01*
X121313773Y-73636690D01*
X121181310Y-73504227D01*
X121077235Y-73348467D01*
X121077234Y-73348466D01*
X121005546Y-73175395D01*
X120969000Y-72991667D01*
X120969000Y-72804333D01*
X121005546Y-72620605D01*
X121077234Y-72447534D01*
X121133060Y-72363985D01*
X121181310Y-72291773D01*
X121313773Y-72159310D01*
X121469533Y-72055235D01*
X121469534Y-72055234D01*
X121642605Y-71983546D01*
X121826333Y-71947000D01*
X122013667Y-71947000D01*
X122197395Y-71983546D01*
X122197395Y-71983546D01*
G37*
G36*
X84260915Y-71442934D02*
G01*
X84293424Y-71452795D01*
X84323382Y-71468809D01*
X84349641Y-71490359D01*
X84371191Y-71516618D01*
X84387205Y-71546576D01*
X84397066Y-71579085D01*
X84401000Y-71619029D01*
X84401000Y-73160971D01*
X84397066Y-73200915D01*
X84387205Y-73233424D01*
X84371191Y-73263382D01*
X84349641Y-73289641D01*
X84323382Y-73311191D01*
X84293424Y-73327205D01*
X84260915Y-73337066D01*
X84220971Y-73341000D01*
X80879029Y-73341000D01*
X80839085Y-73337066D01*
X80806576Y-73327205D01*
X80776618Y-73311191D01*
X80750359Y-73289641D01*
X80728809Y-73263382D01*
X80712795Y-73233424D01*
X80702934Y-73200915D01*
X80699000Y-73160971D01*
X80699000Y-71619029D01*
X80702934Y-71579085D01*
X80712795Y-71546576D01*
X80728809Y-71516618D01*
X80750359Y-71490359D01*
X80776618Y-71468809D01*
X80806576Y-71452795D01*
X80839085Y-71442934D01*
X80879029Y-71439000D01*
X84220971Y-71439000D01*
X84260915Y-71442934D01*
X84260915Y-71442934D01*
G37*
G36*
X105341823Y-71297313D02*
G01*
X105502242Y-71345976D01*
X105634906Y-71416886D01*
X105650078Y-71424996D01*
X105779659Y-71531341D01*
X105886004Y-71660922D01*
X105886005Y-71660924D01*
X105965024Y-71808758D01*
X106013687Y-71969177D01*
X106030117Y-72136000D01*
X106013687Y-72302823D01*
X105965024Y-72463242D01*
X105894114Y-72595906D01*
X105886004Y-72611078D01*
X105779659Y-72740659D01*
X105650078Y-72847004D01*
X105650076Y-72847005D01*
X105502242Y-72926024D01*
X105341823Y-72974687D01*
X105216804Y-72987000D01*
X104333196Y-72987000D01*
X104208177Y-72974687D01*
X104047758Y-72926024D01*
X103899924Y-72847005D01*
X103899922Y-72847004D01*
X103770341Y-72740659D01*
X103663996Y-72611078D01*
X103655886Y-72595906D01*
X103584976Y-72463242D01*
X103536313Y-72302823D01*
X103519883Y-72136000D01*
X103536313Y-71969177D01*
X103584976Y-71808758D01*
X103663995Y-71660924D01*
X103663996Y-71660922D01*
X103770341Y-71531341D01*
X103899922Y-71424996D01*
X103915094Y-71416886D01*
X104047758Y-71345976D01*
X104208177Y-71297313D01*
X104333196Y-71285000D01*
X105216804Y-71285000D01*
X105341823Y-71297313D01*
X105341823Y-71297313D01*
G37*
G36*
X97721823Y-71297313D02*
G01*
X97882242Y-71345976D01*
X98014906Y-71416886D01*
X98030078Y-71424996D01*
X98159659Y-71531341D01*
X98266004Y-71660922D01*
X98266005Y-71660924D01*
X98345024Y-71808758D01*
X98393687Y-71969177D01*
X98410117Y-72136000D01*
X98393687Y-72302823D01*
X98345024Y-72463242D01*
X98274114Y-72595906D01*
X98266004Y-72611078D01*
X98159659Y-72740659D01*
X98030078Y-72847004D01*
X98030076Y-72847005D01*
X97882242Y-72926024D01*
X97721823Y-72974687D01*
X97596804Y-72987000D01*
X96713196Y-72987000D01*
X96588177Y-72974687D01*
X96427758Y-72926024D01*
X96279924Y-72847005D01*
X96279922Y-72847004D01*
X96150341Y-72740659D01*
X96043996Y-72611078D01*
X96035886Y-72595906D01*
X95964976Y-72463242D01*
X95916313Y-72302823D01*
X95899883Y-72136000D01*
X95916313Y-71969177D01*
X95964976Y-71808758D01*
X96043995Y-71660924D01*
X96043996Y-71660922D01*
X96150341Y-71531341D01*
X96279922Y-71424996D01*
X96295094Y-71416886D01*
X96427758Y-71345976D01*
X96588177Y-71297313D01*
X96713196Y-71285000D01*
X97596804Y-71285000D01*
X97721823Y-71297313D01*
X97721823Y-71297313D01*
G37*
G36*
X162447097Y-70375069D02*
G01*
X162550032Y-70385207D01*
X162748146Y-70445305D01*
X162748149Y-70445306D01*
X162844975Y-70497061D01*
X162930729Y-70542897D01*
X163090765Y-70674235D01*
X163222103Y-70834271D01*
X163267939Y-70920025D01*
X163319694Y-71016851D01*
X163319695Y-71016854D01*
X163379793Y-71214968D01*
X163400085Y-71421000D01*
X163379793Y-71627032D01*
X163324666Y-71808758D01*
X163319694Y-71825149D01*
X163301344Y-71859479D01*
X163222103Y-72007729D01*
X163090765Y-72167765D01*
X162930729Y-72299103D01*
X162844975Y-72344939D01*
X162748149Y-72396694D01*
X162748146Y-72396695D01*
X162550032Y-72456793D01*
X162447097Y-72466931D01*
X162395631Y-72472000D01*
X160692369Y-72472000D01*
X160640903Y-72466931D01*
X160537968Y-72456793D01*
X160339854Y-72396695D01*
X160339851Y-72396694D01*
X160243025Y-72344939D01*
X160157271Y-72299103D01*
X159997235Y-72167765D01*
X159865897Y-72007729D01*
X159786656Y-71859479D01*
X159768306Y-71825149D01*
X159763334Y-71808758D01*
X159708207Y-71627032D01*
X159687915Y-71421000D01*
X159708207Y-71214968D01*
X159768305Y-71016854D01*
X159768306Y-71016851D01*
X159820061Y-70920025D01*
X159865897Y-70834271D01*
X159997235Y-70674235D01*
X160157271Y-70542897D01*
X160243025Y-70497061D01*
X160339851Y-70445306D01*
X160339854Y-70445305D01*
X160537968Y-70385207D01*
X160640903Y-70375069D01*
X160692369Y-70370000D01*
X162395631Y-70370000D01*
X162447097Y-70375069D01*
X162447097Y-70375069D01*
G37*
G36*
X138097585Y-68963802D02*
G01*
X138247410Y-68993604D01*
X138529674Y-69110521D01*
X138783705Y-69280259D01*
X138999741Y-69496295D01*
X139169479Y-69750326D01*
X139272524Y-69999100D01*
X139286396Y-70032591D01*
X139340981Y-70307005D01*
X139346000Y-70332240D01*
X139346000Y-70637760D01*
X139286396Y-70937410D01*
X139169479Y-71219674D01*
X138999741Y-71473705D01*
X138783705Y-71689741D01*
X138529674Y-71859479D01*
X138247410Y-71976396D01*
X138211464Y-71983546D01*
X137947761Y-72036000D01*
X137642239Y-72036000D01*
X137378536Y-71983546D01*
X137342590Y-71976396D01*
X137060326Y-71859479D01*
X136806295Y-71689741D01*
X136590259Y-71473705D01*
X136420521Y-71219674D01*
X136303604Y-70937410D01*
X136244000Y-70637760D01*
X136244000Y-70332240D01*
X136249020Y-70307005D01*
X136303604Y-70032591D01*
X136317476Y-69999100D01*
X136420521Y-69750326D01*
X136590259Y-69496295D01*
X136806295Y-69280259D01*
X137060326Y-69110521D01*
X137342590Y-68993604D01*
X137492415Y-68963802D01*
X137642239Y-68934000D01*
X137947761Y-68934000D01*
X138097585Y-68963802D01*
X138097585Y-68963802D01*
G37*
G36*
X97721823Y-68757313D02*
G01*
X97882242Y-68805976D01*
X97949361Y-68841852D01*
X98030078Y-68884996D01*
X98159659Y-68991341D01*
X98266004Y-69120922D01*
X98266005Y-69120924D01*
X98345024Y-69268758D01*
X98393687Y-69429177D01*
X98410117Y-69596000D01*
X98393687Y-69762823D01*
X98345024Y-69923242D01*
X98304477Y-69999100D01*
X98266004Y-70071078D01*
X98159659Y-70200659D01*
X98030078Y-70307004D01*
X98030076Y-70307005D01*
X97882242Y-70386024D01*
X97721823Y-70434687D01*
X97596804Y-70447000D01*
X96713196Y-70447000D01*
X96588177Y-70434687D01*
X96427758Y-70386024D01*
X96279924Y-70307005D01*
X96279922Y-70307004D01*
X96150341Y-70200659D01*
X96043996Y-70071078D01*
X96005523Y-69999100D01*
X95964976Y-69923242D01*
X95916313Y-69762823D01*
X95899883Y-69596000D01*
X95916313Y-69429177D01*
X95964976Y-69268758D01*
X96043995Y-69120924D01*
X96043996Y-69120922D01*
X96150341Y-68991341D01*
X96279922Y-68884996D01*
X96360639Y-68841852D01*
X96427758Y-68805976D01*
X96588177Y-68757313D01*
X96713196Y-68745000D01*
X97596804Y-68745000D01*
X97721823Y-68757313D01*
X97721823Y-68757313D01*
G37*
G36*
X105341823Y-68757313D02*
G01*
X105502242Y-68805976D01*
X105569361Y-68841852D01*
X105650078Y-68884996D01*
X105779659Y-68991341D01*
X105886004Y-69120922D01*
X105886005Y-69120924D01*
X105965024Y-69268758D01*
X106013687Y-69429177D01*
X106030117Y-69596000D01*
X106013687Y-69762823D01*
X105965024Y-69923242D01*
X105924477Y-69999100D01*
X105886004Y-70071078D01*
X105779659Y-70200659D01*
X105650078Y-70307004D01*
X105650076Y-70307005D01*
X105502242Y-70386024D01*
X105341823Y-70434687D01*
X105216804Y-70447000D01*
X104333196Y-70447000D01*
X104208177Y-70434687D01*
X104047758Y-70386024D01*
X103899924Y-70307005D01*
X103899922Y-70307004D01*
X103770341Y-70200659D01*
X103663996Y-70071078D01*
X103625523Y-69999100D01*
X103584976Y-69923242D01*
X103536313Y-69762823D01*
X103519883Y-69596000D01*
X103536313Y-69429177D01*
X103584976Y-69268758D01*
X103663995Y-69120924D01*
X103663996Y-69120922D01*
X103770341Y-68991341D01*
X103899922Y-68884996D01*
X103980639Y-68841852D01*
X104047758Y-68805976D01*
X104208177Y-68757313D01*
X104333196Y-68745000D01*
X105216804Y-68745000D01*
X105341823Y-68757313D01*
X105341823Y-68757313D01*
G37*
G36*
X90799228Y-68777703D02*
G01*
X90954100Y-68841853D01*
X91093481Y-68934985D01*
X91212015Y-69053519D01*
X91305147Y-69192900D01*
X91369297Y-69347772D01*
X91402000Y-69512184D01*
X91402000Y-69679816D01*
X91369297Y-69844228D01*
X91305147Y-69999100D01*
X91212015Y-70138481D01*
X91093481Y-70257015D01*
X90954100Y-70350147D01*
X90799228Y-70414297D01*
X90634816Y-70447000D01*
X90467184Y-70447000D01*
X90302772Y-70414297D01*
X90147900Y-70350147D01*
X90008519Y-70257015D01*
X89889985Y-70138481D01*
X89796853Y-69999100D01*
X89732703Y-69844228D01*
X89700000Y-69679816D01*
X89700000Y-69512184D01*
X89732703Y-69347772D01*
X89796853Y-69192900D01*
X89889985Y-69053519D01*
X90008519Y-68934985D01*
X90147900Y-68841853D01*
X90302772Y-68777703D01*
X90467184Y-68745000D01*
X90634816Y-68745000D01*
X90799228Y-68777703D01*
X90799228Y-68777703D01*
G37*
G36*
X93299228Y-68777703D02*
G01*
X93454100Y-68841853D01*
X93593481Y-68934985D01*
X93712015Y-69053519D01*
X93805147Y-69192900D01*
X93869297Y-69347772D01*
X93902000Y-69512184D01*
X93902000Y-69679816D01*
X93869297Y-69844228D01*
X93805147Y-69999100D01*
X93712015Y-70138481D01*
X93593481Y-70257015D01*
X93454100Y-70350147D01*
X93299228Y-70414297D01*
X93134816Y-70447000D01*
X92967184Y-70447000D01*
X92802772Y-70414297D01*
X92647900Y-70350147D01*
X92508519Y-70257015D01*
X92389985Y-70138481D01*
X92296853Y-69999100D01*
X92232703Y-69844228D01*
X92200000Y-69679816D01*
X92200000Y-69512184D01*
X92232703Y-69347772D01*
X92296853Y-69192900D01*
X92389985Y-69053519D01*
X92508519Y-68934985D01*
X92647900Y-68841853D01*
X92802772Y-68777703D01*
X92967184Y-68745000D01*
X93134816Y-68745000D01*
X93299228Y-68777703D01*
X93299228Y-68777703D01*
G37*
G36*
X122197395Y-67411546D02*
G01*
X122370466Y-67483234D01*
X122442069Y-67531078D01*
X122526227Y-67587310D01*
X122658690Y-67719773D01*
X122690249Y-67767005D01*
X122762766Y-67875534D01*
X122834454Y-68048605D01*
X122871000Y-68232333D01*
X122871000Y-68419667D01*
X122834454Y-68603395D01*
X122762766Y-68776466D01*
X122743048Y-68805976D01*
X122658690Y-68932227D01*
X122526227Y-69064690D01*
X122457636Y-69110521D01*
X122370466Y-69168766D01*
X122197395Y-69240454D01*
X122013667Y-69277000D01*
X121826333Y-69277000D01*
X121642605Y-69240454D01*
X121469534Y-69168766D01*
X121382364Y-69110521D01*
X121313773Y-69064690D01*
X121181310Y-68932227D01*
X121096952Y-68805976D01*
X121077234Y-68776466D01*
X121005546Y-68603395D01*
X120969000Y-68419667D01*
X120969000Y-68232333D01*
X121005546Y-68048605D01*
X121077234Y-67875534D01*
X121149751Y-67767005D01*
X121181310Y-67719773D01*
X121313773Y-67587310D01*
X121397931Y-67531078D01*
X121469534Y-67483234D01*
X121642605Y-67411546D01*
X121826333Y-67375000D01*
X122013667Y-67375000D01*
X122197395Y-67411546D01*
X122197395Y-67411546D01*
G37*
G36*
X125411000Y-69277000D02*
G01*
X123509000Y-69277000D01*
X123509000Y-67375000D01*
X125411000Y-67375000D01*
X125411000Y-69277000D01*
X125411000Y-69277000D01*
G37*
G36*
X97721823Y-66217313D02*
G01*
X97882242Y-66265976D01*
X98014906Y-66336886D01*
X98030078Y-66344996D01*
X98159659Y-66451341D01*
X98266004Y-66580922D01*
X98266005Y-66580924D01*
X98345024Y-66728758D01*
X98393687Y-66889177D01*
X98410117Y-67056000D01*
X98393687Y-67222823D01*
X98345024Y-67383242D01*
X98274114Y-67515906D01*
X98266004Y-67531078D01*
X98159659Y-67660659D01*
X98030078Y-67767004D01*
X98030076Y-67767005D01*
X97882242Y-67846024D01*
X97721823Y-67894687D01*
X97596804Y-67907000D01*
X96713196Y-67907000D01*
X96588177Y-67894687D01*
X96427758Y-67846024D01*
X96279924Y-67767005D01*
X96279922Y-67767004D01*
X96150341Y-67660659D01*
X96043996Y-67531078D01*
X96035886Y-67515906D01*
X95964976Y-67383242D01*
X95916313Y-67222823D01*
X95899883Y-67056000D01*
X95916313Y-66889177D01*
X95964976Y-66728758D01*
X96043995Y-66580924D01*
X96043996Y-66580922D01*
X96150341Y-66451341D01*
X96279922Y-66344996D01*
X96295094Y-66336886D01*
X96427758Y-66265976D01*
X96588177Y-66217313D01*
X96713196Y-66205000D01*
X97596804Y-66205000D01*
X97721823Y-66217313D01*
X97721823Y-66217313D01*
G37*
G36*
X105341823Y-66217313D02*
G01*
X105502242Y-66265976D01*
X105634906Y-66336886D01*
X105650078Y-66344996D01*
X105779659Y-66451341D01*
X105886004Y-66580922D01*
X105886005Y-66580924D01*
X105965024Y-66728758D01*
X106013687Y-66889177D01*
X106030117Y-67056000D01*
X106013687Y-67222823D01*
X105965024Y-67383242D01*
X105894114Y-67515906D01*
X105886004Y-67531078D01*
X105779659Y-67660659D01*
X105650078Y-67767004D01*
X105650076Y-67767005D01*
X105502242Y-67846024D01*
X105341823Y-67894687D01*
X105216804Y-67907000D01*
X104333196Y-67907000D01*
X104208177Y-67894687D01*
X104047758Y-67846024D01*
X103899924Y-67767005D01*
X103899922Y-67767004D01*
X103770341Y-67660659D01*
X103663996Y-67531078D01*
X103655886Y-67515906D01*
X103584976Y-67383242D01*
X103536313Y-67222823D01*
X103519883Y-67056000D01*
X103536313Y-66889177D01*
X103584976Y-66728758D01*
X103663995Y-66580924D01*
X103663996Y-66580922D01*
X103770341Y-66451341D01*
X103899922Y-66344996D01*
X103915094Y-66336886D01*
X104047758Y-66265976D01*
X104208177Y-66217313D01*
X104333196Y-66205000D01*
X105216804Y-66205000D01*
X105341823Y-66217313D01*
X105341823Y-66217313D01*
G37*
G36*
X163258852Y-65373840D02*
G01*
X163290443Y-65383423D01*
X163319557Y-65398985D01*
X163345074Y-65419926D01*
X163366015Y-65445443D01*
X163381577Y-65474557D01*
X163391160Y-65506148D01*
X163395000Y-65545140D01*
X163395000Y-67296860D01*
X163391160Y-67335852D01*
X163381577Y-67367443D01*
X163366015Y-67396557D01*
X163345074Y-67422074D01*
X163319557Y-67443015D01*
X163290443Y-67458577D01*
X163258852Y-67468160D01*
X163219860Y-67472000D01*
X159868140Y-67472000D01*
X159829148Y-67468160D01*
X159797557Y-67458577D01*
X159768443Y-67443015D01*
X159742926Y-67422074D01*
X159721985Y-67396557D01*
X159706423Y-67367443D01*
X159696840Y-67335852D01*
X159693000Y-67296860D01*
X159693000Y-65545140D01*
X159696840Y-65506148D01*
X159706423Y-65474557D01*
X159721985Y-65445443D01*
X159742926Y-65419926D01*
X159768443Y-65398985D01*
X159797557Y-65383423D01*
X159829148Y-65373840D01*
X159868140Y-65370000D01*
X163219860Y-65370000D01*
X163258852Y-65373840D01*
X163258852Y-65373840D01*
G37*
G36*
X93299228Y-64713703D02*
G01*
X93454100Y-64777853D01*
X93593481Y-64870985D01*
X93712015Y-64989519D01*
X93805147Y-65128900D01*
X93869297Y-65283772D01*
X93902000Y-65448184D01*
X93902000Y-65615816D01*
X93869297Y-65780228D01*
X93805147Y-65935100D01*
X93712015Y-66074481D01*
X93593481Y-66193015D01*
X93454100Y-66286147D01*
X93299228Y-66350297D01*
X93134816Y-66383000D01*
X92967184Y-66383000D01*
X92802772Y-66350297D01*
X92647900Y-66286147D01*
X92508519Y-66193015D01*
X92389985Y-66074481D01*
X92296853Y-65935100D01*
X92232703Y-65780228D01*
X92200000Y-65615816D01*
X92200000Y-65448184D01*
X92232703Y-65283772D01*
X92296853Y-65128900D01*
X92389985Y-64989519D01*
X92508519Y-64870985D01*
X92647900Y-64777853D01*
X92802772Y-64713703D01*
X92967184Y-64681000D01*
X93134816Y-64681000D01*
X93299228Y-64713703D01*
X93299228Y-64713703D01*
G37*
G36*
X90799228Y-64713703D02*
G01*
X90954100Y-64777853D01*
X91093481Y-64870985D01*
X91212015Y-64989519D01*
X91305147Y-65128900D01*
X91369297Y-65283772D01*
X91402000Y-65448184D01*
X91402000Y-65615816D01*
X91369297Y-65780228D01*
X91305147Y-65935100D01*
X91212015Y-66074481D01*
X91093481Y-66193015D01*
X90954100Y-66286147D01*
X90799228Y-66350297D01*
X90634816Y-66383000D01*
X90467184Y-66383000D01*
X90302772Y-66350297D01*
X90147900Y-66286147D01*
X90008519Y-66193015D01*
X89889985Y-66074481D01*
X89796853Y-65935100D01*
X89732703Y-65780228D01*
X89700000Y-65615816D01*
X89700000Y-65448184D01*
X89732703Y-65283772D01*
X89796853Y-65128900D01*
X89889985Y-64989519D01*
X90008519Y-64870985D01*
X90147900Y-64777853D01*
X90302772Y-64713703D01*
X90467184Y-64681000D01*
X90634816Y-64681000D01*
X90799228Y-64713703D01*
X90799228Y-64713703D01*
G37*
G36*
X83636425Y-64482760D02*
G01*
X83636428Y-64482761D01*
X83636429Y-64482761D01*
X83815693Y-64537140D01*
X83815696Y-64537142D01*
X83815697Y-64537142D01*
X83980903Y-64625446D01*
X84125712Y-64744288D01*
X84244554Y-64889097D01*
X84332858Y-65054303D01*
X84332860Y-65054307D01*
X84383023Y-65219672D01*
X84387240Y-65233575D01*
X84405601Y-65420000D01*
X84387240Y-65606425D01*
X84387239Y-65606428D01*
X84387239Y-65606429D01*
X84332860Y-65785693D01*
X84332858Y-65785696D01*
X84332858Y-65785697D01*
X84244554Y-65950903D01*
X84125712Y-66095712D01*
X83980903Y-66214554D01*
X83846961Y-66286147D01*
X83815693Y-66302860D01*
X83636429Y-66357239D01*
X83636428Y-66357239D01*
X83636425Y-66357240D01*
X83496718Y-66371000D01*
X81603282Y-66371000D01*
X81463575Y-66357240D01*
X81463572Y-66357239D01*
X81463571Y-66357239D01*
X81284307Y-66302860D01*
X81253039Y-66286147D01*
X81119097Y-66214554D01*
X80974288Y-66095712D01*
X80855446Y-65950903D01*
X80767142Y-65785697D01*
X80767142Y-65785696D01*
X80767140Y-65785693D01*
X80712761Y-65606429D01*
X80712761Y-65606428D01*
X80712760Y-65606425D01*
X80694399Y-65420000D01*
X80712760Y-65233575D01*
X80716977Y-65219672D01*
X80767140Y-65054307D01*
X80767142Y-65054303D01*
X80855446Y-64889097D01*
X80974288Y-64744288D01*
X81119097Y-64625446D01*
X81284303Y-64537142D01*
X81284304Y-64537142D01*
X81284307Y-64537140D01*
X81463571Y-64482761D01*
X81463572Y-64482761D01*
X81463575Y-64482760D01*
X81603282Y-64469000D01*
X83496718Y-64469000D01*
X83636425Y-64482760D01*
X83636425Y-64482760D01*
G37*
G36*
X152297585Y-62963802D02*
G01*
X152447410Y-62993604D01*
X152729674Y-63110521D01*
X152983705Y-63280259D01*
X153199741Y-63496295D01*
X153369479Y-63750326D01*
X153485901Y-64031395D01*
X153486396Y-64032591D01*
X153546000Y-64332239D01*
X153546000Y-64637761D01*
X153537036Y-64682825D01*
X153486396Y-64937410D01*
X153369479Y-65219674D01*
X153199741Y-65473705D01*
X152983705Y-65689741D01*
X152729674Y-65859479D01*
X152447410Y-65976396D01*
X152297585Y-66006198D01*
X152147761Y-66036000D01*
X151842239Y-66036000D01*
X151692415Y-66006198D01*
X151542590Y-65976396D01*
X151260326Y-65859479D01*
X151006295Y-65689741D01*
X150790259Y-65473705D01*
X150620521Y-65219674D01*
X150503604Y-64937410D01*
X150452964Y-64682825D01*
X150444000Y-64637761D01*
X150444000Y-64332239D01*
X150503604Y-64032591D01*
X150504099Y-64031395D01*
X150620521Y-63750326D01*
X150790259Y-63496295D01*
X151006295Y-63280259D01*
X151260326Y-63110521D01*
X151542590Y-62993604D01*
X151692415Y-62963802D01*
X151842239Y-62934000D01*
X152147761Y-62934000D01*
X152297585Y-62963802D01*
X152297585Y-62963802D01*
G37*
G36*
X140124487Y-63283996D02*
G01*
X140259880Y-63340078D01*
X140361255Y-63382069D01*
X140574339Y-63524447D01*
X140755553Y-63705661D01*
X140892984Y-63911341D01*
X140897932Y-63918747D01*
X140996004Y-64155513D01*
X141046000Y-64406861D01*
X141046000Y-64663139D01*
X140996004Y-64914487D01*
X140897932Y-65151253D01*
X140897931Y-65151255D01*
X140755553Y-65364339D01*
X140574339Y-65545553D01*
X140361255Y-65687931D01*
X140361254Y-65687932D01*
X140361253Y-65687932D01*
X140124487Y-65786004D01*
X139873139Y-65836000D01*
X139616861Y-65836000D01*
X139365513Y-65786004D01*
X139128747Y-65687932D01*
X139128746Y-65687932D01*
X139128745Y-65687931D01*
X138915661Y-65545553D01*
X138734447Y-65364339D01*
X138592069Y-65151255D01*
X138592068Y-65151253D01*
X138493996Y-64914487D01*
X138444000Y-64663139D01*
X138444000Y-64406861D01*
X138493996Y-64155513D01*
X138592068Y-63918747D01*
X138597017Y-63911341D01*
X138734447Y-63705661D01*
X138915661Y-63524447D01*
X139128745Y-63382069D01*
X139230120Y-63340078D01*
X139365513Y-63283996D01*
X139616861Y-63234000D01*
X139873139Y-63234000D01*
X140124487Y-63283996D01*
X140124487Y-63283996D01*
G37*
G36*
X132596000Y-65667000D02*
G01*
X130294000Y-65667000D01*
X130294000Y-63365000D01*
X132596000Y-63365000D01*
X132596000Y-65667000D01*
X132596000Y-65667000D01*
G37*
G36*
X97721823Y-63677313D02*
G01*
X97882242Y-63725976D01*
X97927801Y-63750328D01*
X98030078Y-63804996D01*
X98159659Y-63911341D01*
X98266004Y-64040922D01*
X98266005Y-64040924D01*
X98345024Y-64188758D01*
X98393687Y-64349177D01*
X98410117Y-64516000D01*
X98393687Y-64682823D01*
X98345024Y-64843242D01*
X98294690Y-64937410D01*
X98266004Y-64991078D01*
X98159659Y-65120659D01*
X98030078Y-65227004D01*
X98030076Y-65227005D01*
X97882242Y-65306024D01*
X97721823Y-65354687D01*
X97596804Y-65367000D01*
X96713196Y-65367000D01*
X96588177Y-65354687D01*
X96427758Y-65306024D01*
X96279924Y-65227005D01*
X96279922Y-65227004D01*
X96150341Y-65120659D01*
X96043996Y-64991078D01*
X96015310Y-64937410D01*
X95964976Y-64843242D01*
X95916313Y-64682823D01*
X95899883Y-64516000D01*
X95916313Y-64349177D01*
X95964976Y-64188758D01*
X96043995Y-64040924D01*
X96043996Y-64040922D01*
X96150341Y-63911341D01*
X96279922Y-63804996D01*
X96382199Y-63750328D01*
X96427758Y-63725976D01*
X96588177Y-63677313D01*
X96713196Y-63665000D01*
X97596804Y-63665000D01*
X97721823Y-63677313D01*
X97721823Y-63677313D01*
G37*
G36*
X105341823Y-63677313D02*
G01*
X105502242Y-63725976D01*
X105547801Y-63750328D01*
X105650078Y-63804996D01*
X105779659Y-63911341D01*
X105886004Y-64040922D01*
X105886005Y-64040924D01*
X105965024Y-64188758D01*
X106013687Y-64349177D01*
X106030117Y-64516000D01*
X106013687Y-64682823D01*
X105965024Y-64843242D01*
X105914690Y-64937410D01*
X105886004Y-64991078D01*
X105779659Y-65120659D01*
X105650078Y-65227004D01*
X105650076Y-65227005D01*
X105502242Y-65306024D01*
X105341823Y-65354687D01*
X105216804Y-65367000D01*
X104333196Y-65367000D01*
X104208177Y-65354687D01*
X104047758Y-65306024D01*
X103899924Y-65227005D01*
X103899922Y-65227004D01*
X103770341Y-65120659D01*
X103663996Y-64991078D01*
X103635310Y-64937410D01*
X103584976Y-64843242D01*
X103536313Y-64682823D01*
X103519883Y-64516000D01*
X103536313Y-64349177D01*
X103584976Y-64188758D01*
X103663995Y-64040924D01*
X103663996Y-64040922D01*
X103770341Y-63911341D01*
X103899922Y-63804996D01*
X104002199Y-63750328D01*
X104047758Y-63725976D01*
X104208177Y-63677313D01*
X104333196Y-63665000D01*
X105216804Y-63665000D01*
X105341823Y-63677313D01*
X105341823Y-63677313D01*
G37*
G36*
X122197395Y-62839546D02*
G01*
X122370466Y-62911234D01*
X122447818Y-62962919D01*
X122526227Y-63015310D01*
X122658690Y-63147773D01*
X122658691Y-63147775D01*
X122762766Y-63303534D01*
X122834454Y-63476605D01*
X122871000Y-63660333D01*
X122871000Y-63847667D01*
X122834454Y-64031395D01*
X122762766Y-64204466D01*
X122762765Y-64204467D01*
X122658690Y-64360227D01*
X122526227Y-64492690D01*
X122447818Y-64545081D01*
X122370466Y-64596766D01*
X122197395Y-64668454D01*
X122013667Y-64705000D01*
X121826333Y-64705000D01*
X121642605Y-64668454D01*
X121469534Y-64596766D01*
X121392182Y-64545081D01*
X121313773Y-64492690D01*
X121181310Y-64360227D01*
X121077235Y-64204467D01*
X121077234Y-64204466D01*
X121005546Y-64031395D01*
X120969000Y-63847667D01*
X120969000Y-63660333D01*
X121005546Y-63476605D01*
X121077234Y-63303534D01*
X121181309Y-63147775D01*
X121181310Y-63147773D01*
X121313773Y-63015310D01*
X121392182Y-62962919D01*
X121469534Y-62911234D01*
X121642605Y-62839546D01*
X121826333Y-62803000D01*
X122013667Y-62803000D01*
X122197395Y-62839546D01*
X122197395Y-62839546D01*
G37*
G36*
X125411000Y-64705000D02*
G01*
X123509000Y-64705000D01*
X123509000Y-62803000D01*
X125411000Y-62803000D01*
X125411000Y-64705000D01*
X125411000Y-64705000D01*
G37*
G36*
X115736823Y-62026313D02*
G01*
X115897242Y-62074976D01*
X116024175Y-62142823D01*
X116045078Y-62153996D01*
X116174659Y-62260341D01*
X116281004Y-62389922D01*
X116281005Y-62389924D01*
X116360024Y-62537758D01*
X116408687Y-62698177D01*
X116425117Y-62865000D01*
X116408687Y-63031823D01*
X116360024Y-63192242D01*
X116312978Y-63280259D01*
X116281004Y-63340078D01*
X116174659Y-63469659D01*
X116045078Y-63576004D01*
X116045076Y-63576005D01*
X115897242Y-63655024D01*
X115736823Y-63703687D01*
X115611804Y-63716000D01*
X115528196Y-63716000D01*
X115403177Y-63703687D01*
X115242758Y-63655024D01*
X115094924Y-63576005D01*
X115094922Y-63576004D01*
X114965341Y-63469659D01*
X114858996Y-63340078D01*
X114827022Y-63280259D01*
X114779976Y-63192242D01*
X114731313Y-63031823D01*
X114714883Y-62865000D01*
X114731313Y-62698177D01*
X114779976Y-62537758D01*
X114858995Y-62389924D01*
X114858996Y-62389922D01*
X114965341Y-62260341D01*
X115094922Y-62153996D01*
X115115825Y-62142823D01*
X115242758Y-62074976D01*
X115403177Y-62026313D01*
X115528196Y-62014000D01*
X115611804Y-62014000D01*
X115736823Y-62026313D01*
X115736823Y-62026313D01*
G37*
G36*
X112561823Y-62026313D02*
G01*
X112722242Y-62074976D01*
X112849175Y-62142823D01*
X112870078Y-62153996D01*
X112999659Y-62260341D01*
X113106004Y-62389922D01*
X113106005Y-62389924D01*
X113185024Y-62537758D01*
X113233687Y-62698177D01*
X113250117Y-62865000D01*
X113233687Y-63031823D01*
X113185024Y-63192242D01*
X113137978Y-63280259D01*
X113106004Y-63340078D01*
X112999659Y-63469659D01*
X112870078Y-63576004D01*
X112870076Y-63576005D01*
X112722242Y-63655024D01*
X112561823Y-63703687D01*
X112436804Y-63716000D01*
X112353196Y-63716000D01*
X112228177Y-63703687D01*
X112067758Y-63655024D01*
X111919924Y-63576005D01*
X111919922Y-63576004D01*
X111790341Y-63469659D01*
X111683996Y-63340078D01*
X111652022Y-63280259D01*
X111604976Y-63192242D01*
X111556313Y-63031823D01*
X111539883Y-62865000D01*
X111556313Y-62698177D01*
X111604976Y-62537758D01*
X111683995Y-62389924D01*
X111683996Y-62389922D01*
X111790341Y-62260341D01*
X111919922Y-62153996D01*
X111940825Y-62142823D01*
X112067758Y-62074976D01*
X112228177Y-62026313D01*
X112353196Y-62014000D01*
X112436804Y-62014000D01*
X112561823Y-62026313D01*
X112561823Y-62026313D01*
G37*
G36*
X109386823Y-62026313D02*
G01*
X109547242Y-62074976D01*
X109674175Y-62142823D01*
X109695078Y-62153996D01*
X109824659Y-62260341D01*
X109931004Y-62389922D01*
X109931005Y-62389924D01*
X110010024Y-62537758D01*
X110058687Y-62698177D01*
X110075117Y-62865000D01*
X110058687Y-63031823D01*
X110010024Y-63192242D01*
X109962978Y-63280259D01*
X109931004Y-63340078D01*
X109824659Y-63469659D01*
X109695078Y-63576004D01*
X109695076Y-63576005D01*
X109547242Y-63655024D01*
X109386823Y-63703687D01*
X109261804Y-63716000D01*
X109178196Y-63716000D01*
X109053177Y-63703687D01*
X108892758Y-63655024D01*
X108744924Y-63576005D01*
X108744922Y-63576004D01*
X108615341Y-63469659D01*
X108508996Y-63340078D01*
X108477022Y-63280259D01*
X108429976Y-63192242D01*
X108381313Y-63031823D01*
X108364883Y-62865000D01*
X108381313Y-62698177D01*
X108429976Y-62537758D01*
X108508995Y-62389924D01*
X108508996Y-62389922D01*
X108615341Y-62260341D01*
X108744922Y-62153996D01*
X108765825Y-62142823D01*
X108892758Y-62074976D01*
X109053177Y-62026313D01*
X109178196Y-62014000D01*
X109261804Y-62014000D01*
X109386823Y-62026313D01*
X109386823Y-62026313D01*
G37*
G36*
X118911823Y-62026313D02*
G01*
X119072242Y-62074976D01*
X119199175Y-62142823D01*
X119220078Y-62153996D01*
X119349659Y-62260341D01*
X119456004Y-62389922D01*
X119456005Y-62389924D01*
X119535024Y-62537758D01*
X119583687Y-62698177D01*
X119600117Y-62865000D01*
X119583687Y-63031823D01*
X119535024Y-63192242D01*
X119487978Y-63280259D01*
X119456004Y-63340078D01*
X119349659Y-63469659D01*
X119220078Y-63576004D01*
X119220076Y-63576005D01*
X119072242Y-63655024D01*
X118911823Y-63703687D01*
X118786804Y-63716000D01*
X118703196Y-63716000D01*
X118578177Y-63703687D01*
X118417758Y-63655024D01*
X118269924Y-63576005D01*
X118269922Y-63576004D01*
X118140341Y-63469659D01*
X118033996Y-63340078D01*
X118002022Y-63280259D01*
X117954976Y-63192242D01*
X117906313Y-63031823D01*
X117889883Y-62865000D01*
X117906313Y-62698177D01*
X117954976Y-62537758D01*
X118033995Y-62389924D01*
X118033996Y-62389922D01*
X118140341Y-62260341D01*
X118269922Y-62153996D01*
X118290825Y-62142823D01*
X118417758Y-62074976D01*
X118578177Y-62026313D01*
X118703196Y-62014000D01*
X118786804Y-62014000D01*
X118911823Y-62026313D01*
X118911823Y-62026313D01*
G37*
G36*
X83636425Y-60982760D02*
G01*
X83636428Y-60982761D01*
X83636429Y-60982761D01*
X83815693Y-61037140D01*
X83815696Y-61037142D01*
X83815697Y-61037142D01*
X83980903Y-61125446D01*
X84125712Y-61244288D01*
X84244554Y-61389097D01*
X84304325Y-61500922D01*
X84332860Y-61554307D01*
X84339440Y-61576000D01*
X84387240Y-61733575D01*
X84405601Y-61920000D01*
X84387240Y-62106425D01*
X84387239Y-62106428D01*
X84387239Y-62106429D01*
X84332860Y-62285693D01*
X84332858Y-62285696D01*
X84332858Y-62285697D01*
X84244554Y-62450903D01*
X84125712Y-62595712D01*
X83980903Y-62714554D01*
X83815697Y-62802858D01*
X83815693Y-62802860D01*
X83636429Y-62857239D01*
X83636428Y-62857239D01*
X83636425Y-62857240D01*
X83496718Y-62871000D01*
X81603282Y-62871000D01*
X81463575Y-62857240D01*
X81463572Y-62857239D01*
X81463571Y-62857239D01*
X81284307Y-62802860D01*
X81284303Y-62802858D01*
X81119097Y-62714554D01*
X80974288Y-62595712D01*
X80855446Y-62450903D01*
X80767142Y-62285697D01*
X80767142Y-62285696D01*
X80767140Y-62285693D01*
X80712761Y-62106429D01*
X80712761Y-62106428D01*
X80712760Y-62106425D01*
X80694399Y-61920000D01*
X80712760Y-61733575D01*
X80760560Y-61576000D01*
X80767140Y-61554307D01*
X80795675Y-61500922D01*
X80855446Y-61389097D01*
X80974288Y-61244288D01*
X81119097Y-61125446D01*
X81284303Y-61037142D01*
X81284304Y-61037142D01*
X81284307Y-61037140D01*
X81463571Y-60982761D01*
X81463572Y-60982761D01*
X81463575Y-60982760D01*
X81603282Y-60969000D01*
X83496718Y-60969000D01*
X83636425Y-60982760D01*
X83636425Y-60982760D01*
G37*
G36*
X105341823Y-61137313D02*
G01*
X105502242Y-61185976D01*
X105584120Y-61229741D01*
X105650078Y-61264996D01*
X105779659Y-61371341D01*
X105886004Y-61500922D01*
X105886005Y-61500924D01*
X105965024Y-61648758D01*
X106013687Y-61809177D01*
X106030117Y-61976000D01*
X106013687Y-62142823D01*
X105989624Y-62222147D01*
X105970348Y-62285693D01*
X105965024Y-62303242D01*
X105918691Y-62389924D01*
X105886004Y-62451078D01*
X105779659Y-62580659D01*
X105650078Y-62687004D01*
X105650076Y-62687005D01*
X105502242Y-62766024D01*
X105341823Y-62814687D01*
X105216804Y-62827000D01*
X104333196Y-62827000D01*
X104208177Y-62814687D01*
X104047758Y-62766024D01*
X103899924Y-62687005D01*
X103899922Y-62687004D01*
X103770341Y-62580659D01*
X103663996Y-62451078D01*
X103631309Y-62389924D01*
X103584976Y-62303242D01*
X103579653Y-62285693D01*
X103560376Y-62222147D01*
X103536313Y-62142823D01*
X103519883Y-61976000D01*
X103536313Y-61809177D01*
X103584976Y-61648758D01*
X103663995Y-61500924D01*
X103663996Y-61500922D01*
X103770341Y-61371341D01*
X103899922Y-61264996D01*
X103965880Y-61229741D01*
X104047758Y-61185976D01*
X104208177Y-61137313D01*
X104333196Y-61125000D01*
X105216804Y-61125000D01*
X105341823Y-61137313D01*
X105341823Y-61137313D01*
G37*
G36*
X97721823Y-61137313D02*
G01*
X97882242Y-61185976D01*
X97964120Y-61229741D01*
X98030078Y-61264996D01*
X98159659Y-61371341D01*
X98266004Y-61500922D01*
X98266005Y-61500924D01*
X98345024Y-61648758D01*
X98393687Y-61809177D01*
X98410117Y-61976000D01*
X98393687Y-62142823D01*
X98369624Y-62222147D01*
X98350348Y-62285693D01*
X98345024Y-62303242D01*
X98298691Y-62389924D01*
X98266004Y-62451078D01*
X98159659Y-62580659D01*
X98030078Y-62687004D01*
X98030076Y-62687005D01*
X97882242Y-62766024D01*
X97721823Y-62814687D01*
X97596804Y-62827000D01*
X96713196Y-62827000D01*
X96588177Y-62814687D01*
X96427758Y-62766024D01*
X96279924Y-62687005D01*
X96279922Y-62687004D01*
X96150341Y-62580659D01*
X96043996Y-62451078D01*
X96011309Y-62389924D01*
X95964976Y-62303242D01*
X95959653Y-62285693D01*
X95940376Y-62222147D01*
X95916313Y-62142823D01*
X95899883Y-61976000D01*
X95916313Y-61809177D01*
X95964976Y-61648758D01*
X96043995Y-61500924D01*
X96043996Y-61500922D01*
X96150341Y-61371341D01*
X96279922Y-61264996D01*
X96345880Y-61229741D01*
X96427758Y-61185976D01*
X96588177Y-61137313D01*
X96713196Y-61125000D01*
X97596804Y-61125000D01*
X97721823Y-61137313D01*
X97721823Y-61137313D01*
G37*
G36*
X93299228Y-60649703D02*
G01*
X93454100Y-60713853D01*
X93593481Y-60806985D01*
X93712015Y-60925519D01*
X93805147Y-61064900D01*
X93869297Y-61219772D01*
X93902000Y-61384184D01*
X93902000Y-61551816D01*
X93869297Y-61716228D01*
X93805147Y-61871100D01*
X93712015Y-62010481D01*
X93593481Y-62129015D01*
X93454100Y-62222147D01*
X93299228Y-62286297D01*
X93134816Y-62319000D01*
X92967184Y-62319000D01*
X92802772Y-62286297D01*
X92647900Y-62222147D01*
X92508519Y-62129015D01*
X92389985Y-62010481D01*
X92296853Y-61871100D01*
X92232703Y-61716228D01*
X92200000Y-61551816D01*
X92200000Y-61384184D01*
X92232703Y-61219772D01*
X92296853Y-61064900D01*
X92389985Y-60925519D01*
X92508519Y-60806985D01*
X92647900Y-60713853D01*
X92802772Y-60649703D01*
X92967184Y-60617000D01*
X93134816Y-60617000D01*
X93299228Y-60649703D01*
X93299228Y-60649703D01*
G37*
G36*
X90799228Y-60649703D02*
G01*
X90954100Y-60713853D01*
X91093481Y-60806985D01*
X91212015Y-60925519D01*
X91305147Y-61064900D01*
X91369297Y-61219772D01*
X91402000Y-61384184D01*
X91402000Y-61551816D01*
X91369297Y-61716228D01*
X91305147Y-61871100D01*
X91212015Y-62010481D01*
X91093481Y-62129015D01*
X90954100Y-62222147D01*
X90799228Y-62286297D01*
X90634816Y-62319000D01*
X90467184Y-62319000D01*
X90302772Y-62286297D01*
X90147900Y-62222147D01*
X90008519Y-62129015D01*
X89889985Y-62010481D01*
X89796853Y-61871100D01*
X89732703Y-61716228D01*
X89700000Y-61551816D01*
X89700000Y-61384184D01*
X89732703Y-61219772D01*
X89796853Y-61064900D01*
X89889985Y-60925519D01*
X90008519Y-60806985D01*
X90147900Y-60713853D01*
X90302772Y-60649703D01*
X90467184Y-60617000D01*
X90634816Y-60617000D01*
X90799228Y-60649703D01*
X90799228Y-60649703D01*
G37*
G36*
X152247585Y-58503802D02*
G01*
X152397410Y-58533604D01*
X152679674Y-58650521D01*
X152933705Y-58820259D01*
X153149741Y-59036295D01*
X153319479Y-59290326D01*
X153436396Y-59572590D01*
X153496000Y-59872240D01*
X153496000Y-60177760D01*
X153436396Y-60477410D01*
X153319479Y-60759674D01*
X153149741Y-61013705D01*
X152933705Y-61229741D01*
X152679674Y-61399479D01*
X152397410Y-61516396D01*
X152247585Y-61546198D01*
X152097761Y-61576000D01*
X151792239Y-61576000D01*
X151642415Y-61546198D01*
X151492590Y-61516396D01*
X151210326Y-61399479D01*
X150956295Y-61229741D01*
X150740259Y-61013705D01*
X150570521Y-60759674D01*
X150453604Y-60477410D01*
X150394000Y-60177760D01*
X150394000Y-59872240D01*
X150453604Y-59572590D01*
X150570521Y-59290326D01*
X150740259Y-59036295D01*
X150956295Y-58820259D01*
X151210326Y-58650521D01*
X151492590Y-58533604D01*
X151642415Y-58503802D01*
X151792239Y-58474000D01*
X152097761Y-58474000D01*
X152247585Y-58503802D01*
X152247585Y-58503802D01*
G37*
G36*
X140124487Y-58773996D02*
G01*
X140361253Y-58872068D01*
X140361255Y-58872069D01*
X140574339Y-59014447D01*
X140755553Y-59195661D01*
X140872711Y-59371000D01*
X140897932Y-59408747D01*
X140996004Y-59645513D01*
X141046000Y-59896861D01*
X141046000Y-60153139D01*
X140996004Y-60404487D01*
X140965798Y-60477410D01*
X140897931Y-60641255D01*
X140755553Y-60854339D01*
X140574339Y-61035553D01*
X140361255Y-61177931D01*
X140361254Y-61177932D01*
X140361253Y-61177932D01*
X140124487Y-61276004D01*
X139873139Y-61326000D01*
X139616861Y-61326000D01*
X139365513Y-61276004D01*
X139128747Y-61177932D01*
X139128746Y-61177932D01*
X139128745Y-61177931D01*
X138915661Y-61035553D01*
X138734447Y-60854339D01*
X138592069Y-60641255D01*
X138524202Y-60477410D01*
X138493996Y-60404487D01*
X138444000Y-60153139D01*
X138444000Y-59896861D01*
X138493996Y-59645513D01*
X138592068Y-59408747D01*
X138617290Y-59371000D01*
X138734447Y-59195661D01*
X138915661Y-59014447D01*
X139128745Y-58872069D01*
X139128747Y-58872068D01*
X139365513Y-58773996D01*
X139616861Y-58724000D01*
X139873139Y-58724000D01*
X140124487Y-58773996D01*
X140124487Y-58773996D01*
G37*
G36*
X97721823Y-58597313D02*
G01*
X97882242Y-58645976D01*
X98014906Y-58716886D01*
X98030078Y-58724996D01*
X98159659Y-58831341D01*
X98266004Y-58960922D01*
X98266005Y-58960924D01*
X98345024Y-59108758D01*
X98345025Y-59108761D01*
X98350756Y-59127653D01*
X98393687Y-59269177D01*
X98410117Y-59436000D01*
X98393687Y-59602823D01*
X98345024Y-59763242D01*
X98331670Y-59788225D01*
X98266004Y-59911078D01*
X98159659Y-60040659D01*
X98030078Y-60147004D01*
X98030076Y-60147005D01*
X97882242Y-60226024D01*
X97721823Y-60274687D01*
X97596804Y-60287000D01*
X96713196Y-60287000D01*
X96588177Y-60274687D01*
X96427758Y-60226024D01*
X96279924Y-60147005D01*
X96279922Y-60147004D01*
X96150341Y-60040659D01*
X96043996Y-59911078D01*
X95978330Y-59788225D01*
X95964976Y-59763242D01*
X95916313Y-59602823D01*
X95899883Y-59436000D01*
X95916313Y-59269177D01*
X95959244Y-59127653D01*
X95964975Y-59108761D01*
X95964976Y-59108758D01*
X96043995Y-58960924D01*
X96043996Y-58960922D01*
X96150341Y-58831341D01*
X96279922Y-58724996D01*
X96295094Y-58716886D01*
X96427758Y-58645976D01*
X96588177Y-58597313D01*
X96713196Y-58585000D01*
X97596804Y-58585000D01*
X97721823Y-58597313D01*
X97721823Y-58597313D01*
G37*
G36*
X105341823Y-58597313D02*
G01*
X105502242Y-58645976D01*
X105634906Y-58716886D01*
X105650078Y-58724996D01*
X105779659Y-58831341D01*
X105886004Y-58960922D01*
X105886005Y-58960924D01*
X105965024Y-59108758D01*
X105965025Y-59108761D01*
X105970756Y-59127653D01*
X106013687Y-59269177D01*
X106030117Y-59436000D01*
X106013687Y-59602823D01*
X105965024Y-59763242D01*
X105951670Y-59788225D01*
X105886004Y-59911078D01*
X105779659Y-60040659D01*
X105650078Y-60147004D01*
X105650076Y-60147005D01*
X105502242Y-60226024D01*
X105341823Y-60274687D01*
X105216804Y-60287000D01*
X104333196Y-60287000D01*
X104208177Y-60274687D01*
X104047758Y-60226024D01*
X103899924Y-60147005D01*
X103899922Y-60147004D01*
X103770341Y-60040659D01*
X103663996Y-59911078D01*
X103598330Y-59788225D01*
X103584976Y-59763242D01*
X103536313Y-59602823D01*
X103519883Y-59436000D01*
X103536313Y-59269177D01*
X103579244Y-59127653D01*
X103584975Y-59108761D01*
X103584976Y-59108758D01*
X103663995Y-58960924D01*
X103663996Y-58960922D01*
X103770341Y-58831341D01*
X103899922Y-58724996D01*
X103915094Y-58716886D01*
X104047758Y-58645976D01*
X104208177Y-58597313D01*
X104333196Y-58585000D01*
X105216804Y-58585000D01*
X105341823Y-58597313D01*
X105341823Y-58597313D01*
G37*
G36*
X122197395Y-58267546D02*
G01*
X122370466Y-58339234D01*
X122370467Y-58339235D01*
X122526227Y-58443310D01*
X122658690Y-58575773D01*
X122705597Y-58645975D01*
X122762766Y-58731534D01*
X122834454Y-58904605D01*
X122871000Y-59088333D01*
X122871000Y-59275667D01*
X122834454Y-59459395D01*
X122762766Y-59632466D01*
X122762765Y-59632467D01*
X122658690Y-59788227D01*
X122526227Y-59920690D01*
X122447818Y-59973081D01*
X122370466Y-60024766D01*
X122197395Y-60096454D01*
X122013667Y-60133000D01*
X121826333Y-60133000D01*
X121642605Y-60096454D01*
X121469534Y-60024766D01*
X121392182Y-59973081D01*
X121313773Y-59920690D01*
X121181310Y-59788227D01*
X121077235Y-59632467D01*
X121077234Y-59632466D01*
X121005546Y-59459395D01*
X120969000Y-59275667D01*
X120969000Y-59088333D01*
X121005546Y-58904605D01*
X121077234Y-58731534D01*
X121134403Y-58645975D01*
X121181310Y-58575773D01*
X121313773Y-58443310D01*
X121469533Y-58339235D01*
X121469534Y-58339234D01*
X121642605Y-58267546D01*
X121826333Y-58231000D01*
X122013667Y-58231000D01*
X122197395Y-58267546D01*
X122197395Y-58267546D01*
G37*
G36*
X125411000Y-60133000D02*
G01*
X123509000Y-60133000D01*
X123509000Y-58231000D01*
X125411000Y-58231000D01*
X125411000Y-60133000D01*
X125411000Y-60133000D01*
G37*
G36*
X84260915Y-57472934D02*
G01*
X84293424Y-57482795D01*
X84323382Y-57498809D01*
X84349641Y-57520359D01*
X84371191Y-57546618D01*
X84387205Y-57576576D01*
X84397066Y-57609085D01*
X84401000Y-57649029D01*
X84401000Y-59190971D01*
X84397066Y-59230915D01*
X84387205Y-59263424D01*
X84371191Y-59293382D01*
X84349641Y-59319641D01*
X84323382Y-59341191D01*
X84293424Y-59357205D01*
X84260915Y-59367066D01*
X84220971Y-59371000D01*
X80879029Y-59371000D01*
X80839085Y-59367066D01*
X80806576Y-59357205D01*
X80776618Y-59341191D01*
X80750359Y-59319641D01*
X80728809Y-59293382D01*
X80712795Y-59263424D01*
X80702934Y-59230915D01*
X80699000Y-59190971D01*
X80699000Y-57649029D01*
X80702934Y-57609085D01*
X80712795Y-57576576D01*
X80728809Y-57546618D01*
X80750359Y-57520359D01*
X80776618Y-57498809D01*
X80806576Y-57482795D01*
X80839085Y-57472934D01*
X80879029Y-57469000D01*
X84220971Y-57469000D01*
X84260915Y-57472934D01*
X84260915Y-57472934D01*
G37*
G36*
X131614271Y-57026103D02*
G01*
X131670635Y-57031654D01*
X131887600Y-57097470D01*
X131887602Y-57097471D01*
X132087555Y-57204347D01*
X132262818Y-57348182D01*
X132406653Y-57523445D01*
X132513529Y-57723398D01*
X132513530Y-57723400D01*
X132579346Y-57940365D01*
X132601569Y-58166000D01*
X132579346Y-58391635D01*
X132516954Y-58597314D01*
X132513529Y-58608602D01*
X132406653Y-58808555D01*
X132262818Y-58983818D01*
X132087555Y-59127653D01*
X131937373Y-59207926D01*
X131887600Y-59234530D01*
X131670635Y-59300346D01*
X131614271Y-59305897D01*
X131501545Y-59317000D01*
X131388455Y-59317000D01*
X131275729Y-59305897D01*
X131219365Y-59300346D01*
X131002400Y-59234530D01*
X130952627Y-59207926D01*
X130802445Y-59127653D01*
X130627182Y-58983818D01*
X130483347Y-58808555D01*
X130376471Y-58608602D01*
X130373047Y-58597314D01*
X130310654Y-58391635D01*
X130288431Y-58166000D01*
X130310654Y-57940365D01*
X130376470Y-57723400D01*
X130376471Y-57723398D01*
X130483347Y-57523445D01*
X130627182Y-57348182D01*
X130802445Y-57204347D01*
X131002398Y-57097471D01*
X131002400Y-57097470D01*
X131219365Y-57031654D01*
X131275729Y-57026103D01*
X131388455Y-57015000D01*
X131501545Y-57015000D01*
X131614271Y-57026103D01*
X131614271Y-57026103D01*
G37*
G36*
X90799228Y-56585703D02*
G01*
X90954100Y-56649853D01*
X91093481Y-56742985D01*
X91212015Y-56861519D01*
X91305147Y-57000900D01*
X91369297Y-57155772D01*
X91402000Y-57320184D01*
X91402000Y-57487816D01*
X91369297Y-57652228D01*
X91305147Y-57807100D01*
X91212015Y-57946481D01*
X91093481Y-58065015D01*
X90954100Y-58158147D01*
X90799228Y-58222297D01*
X90634816Y-58255000D01*
X90467184Y-58255000D01*
X90302772Y-58222297D01*
X90147900Y-58158147D01*
X90008519Y-58065015D01*
X89889985Y-57946481D01*
X89796853Y-57807100D01*
X89732703Y-57652228D01*
X89700000Y-57487816D01*
X89700000Y-57320184D01*
X89732703Y-57155772D01*
X89796853Y-57000900D01*
X89889985Y-56861519D01*
X90008519Y-56742985D01*
X90147900Y-56649853D01*
X90302772Y-56585703D01*
X90467184Y-56553000D01*
X90634816Y-56553000D01*
X90799228Y-56585703D01*
X90799228Y-56585703D01*
G37*
G36*
X93299228Y-56585703D02*
G01*
X93454100Y-56649853D01*
X93593481Y-56742985D01*
X93712015Y-56861519D01*
X93805147Y-57000900D01*
X93869297Y-57155772D01*
X93902000Y-57320184D01*
X93902000Y-57487816D01*
X93869297Y-57652228D01*
X93805147Y-57807100D01*
X93712015Y-57946481D01*
X93593481Y-58065015D01*
X93454100Y-58158147D01*
X93299228Y-58222297D01*
X93134816Y-58255000D01*
X92967184Y-58255000D01*
X92802772Y-58222297D01*
X92647900Y-58158147D01*
X92508519Y-58065015D01*
X92389985Y-57946481D01*
X92296853Y-57807100D01*
X92232703Y-57652228D01*
X92200000Y-57487816D01*
X92200000Y-57320184D01*
X92232703Y-57155772D01*
X92296853Y-57000900D01*
X92389985Y-56861519D01*
X92508519Y-56742985D01*
X92647900Y-56649853D01*
X92802772Y-56585703D01*
X92967184Y-56553000D01*
X93134816Y-56553000D01*
X93299228Y-56585703D01*
X93299228Y-56585703D01*
G37*
G36*
X109468228Y-56331703D02*
G01*
X109623100Y-56395853D01*
X109762481Y-56488985D01*
X109881015Y-56607519D01*
X109974147Y-56746900D01*
X110038297Y-56901772D01*
X110071000Y-57066184D01*
X110071000Y-57233816D01*
X110038297Y-57398228D01*
X109974147Y-57553100D01*
X109881015Y-57692481D01*
X109762481Y-57811015D01*
X109623100Y-57904147D01*
X109468228Y-57968297D01*
X109303816Y-58001000D01*
X109136184Y-58001000D01*
X108971772Y-57968297D01*
X108816900Y-57904147D01*
X108677519Y-57811015D01*
X108558985Y-57692481D01*
X108465853Y-57553100D01*
X108401703Y-57398228D01*
X108369000Y-57233816D01*
X108369000Y-57066184D01*
X108401703Y-56901772D01*
X108465853Y-56746900D01*
X108558985Y-56607519D01*
X108677519Y-56488985D01*
X108816900Y-56395853D01*
X108971772Y-56331703D01*
X109136184Y-56299000D01*
X109303816Y-56299000D01*
X109468228Y-56331703D01*
X109468228Y-56331703D01*
G37*
G36*
X98406000Y-57747000D02*
G01*
X95904000Y-57747000D01*
X95904000Y-56045000D01*
X98406000Y-56045000D01*
X98406000Y-57747000D01*
X98406000Y-57747000D01*
G37*
G36*
X105341823Y-56057313D02*
G01*
X105502242Y-56105976D01*
X105634906Y-56176886D01*
X105650078Y-56184996D01*
X105779659Y-56291341D01*
X105886004Y-56420922D01*
X105886005Y-56420924D01*
X105965024Y-56568758D01*
X106013687Y-56729177D01*
X106030117Y-56896000D01*
X106013687Y-57062823D01*
X105985491Y-57155771D01*
X105970756Y-57204348D01*
X105965024Y-57223242D01*
X105959372Y-57233816D01*
X105886004Y-57371078D01*
X105779659Y-57500659D01*
X105650078Y-57607004D01*
X105650076Y-57607005D01*
X105502242Y-57686024D01*
X105341823Y-57734687D01*
X105216804Y-57747000D01*
X104333196Y-57747000D01*
X104208177Y-57734687D01*
X104047758Y-57686024D01*
X103899924Y-57607005D01*
X103899922Y-57607004D01*
X103770341Y-57500659D01*
X103663996Y-57371078D01*
X103590628Y-57233816D01*
X103584976Y-57223242D01*
X103579245Y-57204348D01*
X103564509Y-57155771D01*
X103536313Y-57062823D01*
X103519883Y-56896000D01*
X103536313Y-56729177D01*
X103584976Y-56568758D01*
X103663995Y-56420924D01*
X103663996Y-56420922D01*
X103770341Y-56291341D01*
X103899922Y-56184996D01*
X103915094Y-56176886D01*
X104047758Y-56105976D01*
X104208177Y-56057313D01*
X104333196Y-56045000D01*
X105216804Y-56045000D01*
X105341823Y-56057313D01*
X105341823Y-56057313D01*
G37*
G36*
X112561823Y-54406313D02*
G01*
X112722242Y-54454976D01*
X112789361Y-54490852D01*
X112870078Y-54533996D01*
X112999659Y-54640341D01*
X113106004Y-54769922D01*
X113106005Y-54769924D01*
X113185024Y-54917758D01*
X113233687Y-55078177D01*
X113250117Y-55245000D01*
X113233687Y-55411823D01*
X113185024Y-55572242D01*
X113144477Y-55648100D01*
X113106004Y-55720078D01*
X112999659Y-55849659D01*
X112870078Y-55956004D01*
X112870076Y-55956005D01*
X112722242Y-56035024D01*
X112561823Y-56083687D01*
X112436804Y-56096000D01*
X112353196Y-56096000D01*
X112228177Y-56083687D01*
X112067758Y-56035024D01*
X111919924Y-55956005D01*
X111919922Y-55956004D01*
X111790341Y-55849659D01*
X111683996Y-55720078D01*
X111645523Y-55648100D01*
X111604976Y-55572242D01*
X111556313Y-55411823D01*
X111539883Y-55245000D01*
X111556313Y-55078177D01*
X111604976Y-54917758D01*
X111683995Y-54769924D01*
X111683996Y-54769922D01*
X111790341Y-54640341D01*
X111919922Y-54533996D01*
X112000639Y-54490852D01*
X112067758Y-54454976D01*
X112228177Y-54406313D01*
X112353196Y-54394000D01*
X112436804Y-54394000D01*
X112561823Y-54406313D01*
X112561823Y-54406313D01*
G37*
G36*
X122803228Y-54426703D02*
G01*
X122958100Y-54490853D01*
X123097481Y-54583985D01*
X123216015Y-54702519D01*
X123309147Y-54841900D01*
X123373297Y-54996772D01*
X123406000Y-55161184D01*
X123406000Y-55328816D01*
X123373297Y-55493228D01*
X123309147Y-55648100D01*
X123216015Y-55787481D01*
X123097481Y-55906015D01*
X122958100Y-55999147D01*
X122803228Y-56063297D01*
X122638816Y-56096000D01*
X122471184Y-56096000D01*
X122306772Y-56063297D01*
X122151900Y-55999147D01*
X122012519Y-55906015D01*
X121893985Y-55787481D01*
X121800853Y-55648100D01*
X121736703Y-55493228D01*
X121704000Y-55328816D01*
X121704000Y-55161184D01*
X121736703Y-54996772D01*
X121800853Y-54841900D01*
X121893985Y-54702519D01*
X122012519Y-54583985D01*
X122151900Y-54490853D01*
X122306772Y-54426703D01*
X122471184Y-54394000D01*
X122638816Y-54394000D01*
X122803228Y-54426703D01*
X122803228Y-54426703D01*
G37*
G36*
X138097585Y-52453802D02*
G01*
X138247410Y-52483604D01*
X138529674Y-52600521D01*
X138783705Y-52770259D01*
X138999741Y-52986295D01*
X139169479Y-53240326D01*
X139286396Y-53522590D01*
X139346000Y-53822240D01*
X139346000Y-54127760D01*
X139286396Y-54427410D01*
X139169479Y-54709674D01*
X138999741Y-54963705D01*
X138783705Y-55179741D01*
X138529674Y-55349479D01*
X138247410Y-55466396D01*
X138112516Y-55493228D01*
X137947761Y-55526000D01*
X137642239Y-55526000D01*
X137477484Y-55493228D01*
X137342590Y-55466396D01*
X137060326Y-55349479D01*
X136806295Y-55179741D01*
X136590259Y-54963705D01*
X136420521Y-54709674D01*
X136303604Y-54427410D01*
X136244000Y-54127760D01*
X136244000Y-53822240D01*
X136303604Y-53522590D01*
X136420521Y-53240326D01*
X136590259Y-52986295D01*
X136806295Y-52770259D01*
X137060326Y-52600521D01*
X137342590Y-52483604D01*
X137492415Y-52453802D01*
X137642239Y-52424000D01*
X137947761Y-52424000D01*
X138097585Y-52453802D01*
X138097585Y-52453802D01*
G37*
G36*
X109468228Y-53831703D02*
G01*
X109623100Y-53895853D01*
X109762481Y-53988985D01*
X109881015Y-54107519D01*
X109974147Y-54246900D01*
X110038297Y-54401772D01*
X110071000Y-54566184D01*
X110071000Y-54733816D01*
X110038297Y-54898228D01*
X109974147Y-55053100D01*
X109881015Y-55192481D01*
X109762481Y-55311015D01*
X109623100Y-55404147D01*
X109468228Y-55468297D01*
X109303816Y-55501000D01*
X109136184Y-55501000D01*
X108971772Y-55468297D01*
X108816900Y-55404147D01*
X108677519Y-55311015D01*
X108558985Y-55192481D01*
X108465853Y-55053100D01*
X108401703Y-54898228D01*
X108369000Y-54733816D01*
X108369000Y-54566184D01*
X108401703Y-54401772D01*
X108465853Y-54246900D01*
X108558985Y-54107519D01*
X108677519Y-53988985D01*
X108816900Y-53895853D01*
X108971772Y-53831703D01*
X109136184Y-53799000D01*
X109303816Y-53799000D01*
X109468228Y-53831703D01*
X109468228Y-53831703D01*
G37*
G36*
X167352564Y-46345099D02*
G01*
X167594126Y-46393149D01*
X168276765Y-46675907D01*
X168891123Y-47086408D01*
X169413592Y-47608877D01*
X169824093Y-48223235D01*
X170106851Y-48905874D01*
X170126170Y-49002996D01*
X170251000Y-49630557D01*
X170251000Y-50369443D01*
X170234777Y-50451000D01*
X170106851Y-51094126D01*
X169824093Y-51776765D01*
X169413592Y-52391123D01*
X168891123Y-52913592D01*
X168276765Y-53324093D01*
X167594126Y-53606851D01*
X167352564Y-53654901D01*
X166869443Y-53751000D01*
X166130557Y-53751000D01*
X165647436Y-53654901D01*
X165405874Y-53606851D01*
X164723235Y-53324093D01*
X164108877Y-52913592D01*
X163586408Y-52391123D01*
X163175907Y-51776765D01*
X162893149Y-51094126D01*
X162765223Y-50451000D01*
X162749000Y-50369443D01*
X162749000Y-49630557D01*
X162873830Y-49002996D01*
X162893149Y-48905874D01*
X163175907Y-48223235D01*
X163586408Y-47608877D01*
X164108877Y-47086408D01*
X164723235Y-46675907D01*
X165405874Y-46393149D01*
X165647436Y-46345099D01*
X166130557Y-46249000D01*
X166869443Y-46249000D01*
X167352564Y-46345099D01*
X167352564Y-46345099D01*
G37*
G36*
X80852564Y-46345099D02*
G01*
X81094126Y-46393149D01*
X81776765Y-46675907D01*
X82391123Y-47086408D01*
X82913592Y-47608877D01*
X83324093Y-48223235D01*
X83606851Y-48905874D01*
X83626170Y-49002996D01*
X83751000Y-49630557D01*
X83751000Y-50369443D01*
X83734777Y-50451000D01*
X83606851Y-51094126D01*
X83324093Y-51776765D01*
X82913592Y-52391123D01*
X82391123Y-52913592D01*
X81776765Y-53324093D01*
X81094126Y-53606851D01*
X80852564Y-53654901D01*
X80369443Y-53751000D01*
X79630557Y-53751000D01*
X79147436Y-53654901D01*
X78905874Y-53606851D01*
X78223235Y-53324093D01*
X77608877Y-52913592D01*
X77086408Y-52391123D01*
X76675907Y-51776765D01*
X76393149Y-51094126D01*
X76265223Y-50451000D01*
X76249000Y-50369443D01*
X76249000Y-49630557D01*
X76373830Y-49002996D01*
X76393149Y-48905874D01*
X76675907Y-48223235D01*
X77086408Y-47608877D01*
X77608877Y-47086408D01*
X78223235Y-46675907D01*
X78905874Y-46393149D01*
X79147436Y-46345099D01*
X79630557Y-46249000D01*
X80369443Y-46249000D01*
X80852564Y-46345099D01*
X80852564Y-46345099D01*
G37*
G36*
X126396004Y-48366662D02*
G01*
X126547933Y-48412750D01*
X126687954Y-48487593D01*
X126810686Y-48588315D01*
X126911407Y-48711045D01*
X126986250Y-48851066D01*
X127032338Y-49002995D01*
X127044000Y-49121409D01*
X127044000Y-50700591D01*
X127032338Y-50819005D01*
X126986250Y-50970934D01*
X126911407Y-51110955D01*
X126810686Y-51233686D01*
X126687955Y-51334407D01*
X126547934Y-51409250D01*
X126396005Y-51455338D01*
X126238000Y-51470899D01*
X126079996Y-51455338D01*
X125928067Y-51409250D01*
X125788046Y-51334407D01*
X125665315Y-51233686D01*
X125564594Y-51110955D01*
X125489751Y-50970934D01*
X125443663Y-50819005D01*
X125432001Y-50700591D01*
X125432000Y-49121410D01*
X125443662Y-49002996D01*
X125489750Y-48851067D01*
X125564593Y-48711046D01*
X125665315Y-48588314D01*
X125788045Y-48487593D01*
X125928066Y-48412750D01*
X126079995Y-48366662D01*
X126238000Y-48351101D01*
X126396004Y-48366662D01*
X126396004Y-48366662D01*
G37*
G36*
X123856004Y-48366662D02*
G01*
X124007933Y-48412750D01*
X124147954Y-48487593D01*
X124270686Y-48588315D01*
X124371407Y-48711045D01*
X124446250Y-48851066D01*
X124492338Y-49002995D01*
X124504000Y-49121409D01*
X124504000Y-50700591D01*
X124492338Y-50819005D01*
X124446250Y-50970934D01*
X124371407Y-51110955D01*
X124270686Y-51233686D01*
X124147955Y-51334407D01*
X124007934Y-51409250D01*
X123856005Y-51455338D01*
X123698000Y-51470899D01*
X123539996Y-51455338D01*
X123388067Y-51409250D01*
X123248046Y-51334407D01*
X123125315Y-51233686D01*
X123024594Y-51110955D01*
X122949751Y-50970934D01*
X122903663Y-50819005D01*
X122892001Y-50700591D01*
X122892000Y-49121410D01*
X122903662Y-49002996D01*
X122949750Y-48851067D01*
X123024593Y-48711046D01*
X123125315Y-48588314D01*
X123248045Y-48487593D01*
X123388066Y-48412750D01*
X123539995Y-48366662D01*
X123698000Y-48351101D01*
X123856004Y-48366662D01*
X123856004Y-48366662D01*
G37*
G36*
X121316004Y-48366662D02*
G01*
X121467933Y-48412750D01*
X121607954Y-48487593D01*
X121730686Y-48588315D01*
X121831407Y-48711045D01*
X121906250Y-48851066D01*
X121952338Y-49002995D01*
X121964000Y-49121409D01*
X121964000Y-50700591D01*
X121952338Y-50819005D01*
X121906250Y-50970934D01*
X121831407Y-51110955D01*
X121730686Y-51233686D01*
X121607955Y-51334407D01*
X121467934Y-51409250D01*
X121316005Y-51455338D01*
X121158000Y-51470899D01*
X120999996Y-51455338D01*
X120848067Y-51409250D01*
X120708046Y-51334407D01*
X120585315Y-51233686D01*
X120484594Y-51110955D01*
X120409751Y-50970934D01*
X120363663Y-50819005D01*
X120352001Y-50700591D01*
X120352000Y-49121410D01*
X120363662Y-49002996D01*
X120409750Y-48851067D01*
X120484593Y-48711046D01*
X120585315Y-48588314D01*
X120708045Y-48487593D01*
X120848066Y-48412750D01*
X120999995Y-48366662D01*
X121158000Y-48351101D01*
X121316004Y-48366662D01*
X121316004Y-48366662D01*
G37*
G36*
X118776004Y-48366662D02*
G01*
X118927933Y-48412750D01*
X119067954Y-48487593D01*
X119190686Y-48588315D01*
X119291407Y-48711045D01*
X119366250Y-48851066D01*
X119412338Y-49002995D01*
X119424000Y-49121409D01*
X119424000Y-50700591D01*
X119412338Y-50819005D01*
X119366250Y-50970934D01*
X119291407Y-51110955D01*
X119190686Y-51233686D01*
X119067955Y-51334407D01*
X118927934Y-51409250D01*
X118776005Y-51455338D01*
X118618000Y-51470899D01*
X118459996Y-51455338D01*
X118308067Y-51409250D01*
X118168046Y-51334407D01*
X118045315Y-51233686D01*
X117944594Y-51110955D01*
X117869751Y-50970934D01*
X117823663Y-50819005D01*
X117812001Y-50700591D01*
X117812000Y-49121410D01*
X117823662Y-49002996D01*
X117869750Y-48851067D01*
X117944593Y-48711046D01*
X118045315Y-48588314D01*
X118168045Y-48487593D01*
X118308066Y-48412750D01*
X118459995Y-48366662D01*
X118618000Y-48351101D01*
X118776004Y-48366662D01*
X118776004Y-48366662D01*
G37*
G36*
X116236004Y-48366662D02*
G01*
X116387933Y-48412750D01*
X116527954Y-48487593D01*
X116650686Y-48588315D01*
X116751407Y-48711045D01*
X116826250Y-48851066D01*
X116872338Y-49002995D01*
X116884000Y-49121409D01*
X116884000Y-50700591D01*
X116872338Y-50819005D01*
X116826250Y-50970934D01*
X116751407Y-51110955D01*
X116650686Y-51233686D01*
X116527955Y-51334407D01*
X116387934Y-51409250D01*
X116236005Y-51455338D01*
X116078000Y-51470899D01*
X115919996Y-51455338D01*
X115768067Y-51409250D01*
X115628046Y-51334407D01*
X115505315Y-51233686D01*
X115404594Y-51110955D01*
X115329751Y-50970934D01*
X115283663Y-50819005D01*
X115272001Y-50700591D01*
X115272000Y-49121410D01*
X115283662Y-49002996D01*
X115329750Y-48851067D01*
X115404593Y-48711046D01*
X115505315Y-48588314D01*
X115628045Y-48487593D01*
X115768066Y-48412750D01*
X115919995Y-48366662D01*
X116078000Y-48351101D01*
X116236004Y-48366662D01*
X116236004Y-48366662D01*
G37*
G36*
X113696004Y-48366662D02*
G01*
X113847933Y-48412750D01*
X113987954Y-48487593D01*
X114110686Y-48588315D01*
X114211407Y-48711045D01*
X114286250Y-48851066D01*
X114332338Y-49002995D01*
X114344000Y-49121409D01*
X114344000Y-50700591D01*
X114332338Y-50819005D01*
X114286250Y-50970934D01*
X114211407Y-51110955D01*
X114110686Y-51233686D01*
X113987955Y-51334407D01*
X113847934Y-51409250D01*
X113696005Y-51455338D01*
X113538000Y-51470899D01*
X113379996Y-51455338D01*
X113228067Y-51409250D01*
X113088046Y-51334407D01*
X112965315Y-51233686D01*
X112864594Y-51110955D01*
X112789751Y-50970934D01*
X112743663Y-50819005D01*
X112732001Y-50700591D01*
X112732000Y-49121410D01*
X112743662Y-49002996D01*
X112789750Y-48851067D01*
X112864593Y-48711046D01*
X112965315Y-48588314D01*
X113088045Y-48487593D01*
X113228066Y-48412750D01*
X113379995Y-48366662D01*
X113538000Y-48351101D01*
X113696004Y-48366662D01*
X113696004Y-48366662D01*
G37*
G36*
X152297585Y-46453802D02*
G01*
X152447410Y-46483604D01*
X152729674Y-46600521D01*
X152983705Y-46770259D01*
X153199741Y-46986295D01*
X153369479Y-47240326D01*
X153486396Y-47522590D01*
X153503560Y-47608878D01*
X153546000Y-47822239D01*
X153546000Y-48127761D01*
X153521405Y-48251408D01*
X153486396Y-48427410D01*
X153369479Y-48709674D01*
X153199741Y-48963705D01*
X152983705Y-49179741D01*
X152729674Y-49349479D01*
X152447410Y-49466396D01*
X152297585Y-49496198D01*
X152147761Y-49526000D01*
X151842239Y-49526000D01*
X151692415Y-49496198D01*
X151542590Y-49466396D01*
X151260326Y-49349479D01*
X151006295Y-49179741D01*
X150790259Y-48963705D01*
X150620521Y-48709674D01*
X150503604Y-48427410D01*
X150468595Y-48251408D01*
X150444000Y-48127761D01*
X150444000Y-47822239D01*
X150486440Y-47608878D01*
X150503604Y-47522590D01*
X150620521Y-47240326D01*
X150790259Y-46986295D01*
X151006295Y-46770259D01*
X151260326Y-46600521D01*
X151542590Y-46483604D01*
X151692415Y-46453802D01*
X151842239Y-46424000D01*
X152147761Y-46424000D01*
X152297585Y-46453802D01*
X152297585Y-46453802D01*
G37*
G36*
X140124487Y-46773996D02*
G01*
X140248415Y-46825329D01*
X140361255Y-46872069D01*
X140532208Y-46986296D01*
X140574339Y-47014447D01*
X140755553Y-47195661D01*
X140897932Y-47408747D01*
X140996004Y-47645513D01*
X141046000Y-47896861D01*
X141046000Y-48153139D01*
X140996004Y-48404487D01*
X140897932Y-48641253D01*
X140897931Y-48641255D01*
X140755553Y-48854339D01*
X140574339Y-49035553D01*
X140361255Y-49177931D01*
X140361254Y-49177932D01*
X140361253Y-49177932D01*
X140124487Y-49276004D01*
X139873139Y-49326000D01*
X139616861Y-49326000D01*
X139365513Y-49276004D01*
X139128747Y-49177932D01*
X139128746Y-49177932D01*
X139128745Y-49177931D01*
X138915661Y-49035553D01*
X138734447Y-48854339D01*
X138592069Y-48641255D01*
X138592068Y-48641253D01*
X138493996Y-48404487D01*
X138444000Y-48153139D01*
X138444000Y-47896861D01*
X138493996Y-47645513D01*
X138592068Y-47408747D01*
X138734447Y-47195661D01*
X138915661Y-47014447D01*
X138957792Y-46986296D01*
X139128745Y-46872069D01*
X139241585Y-46825329D01*
X139365513Y-46773996D01*
X139616861Y-46724000D01*
X139873139Y-46724000D01*
X140124487Y-46773996D01*
X140124487Y-46773996D01*
G37*
G36*
X132596000Y-49157000D02*
G01*
X130294000Y-49157000D01*
X130294000Y-46855000D01*
X132596000Y-46855000D01*
X132596000Y-49157000D01*
X132596000Y-49157000D01*
G37*
M02*
