M48
; DRILL file {KiCad (5.1.4)-1} date 2019-09-28 11:43:01
; FORMAT={2:4/ absolute / inch / suppress leading zeros}
; #@! TF.CreationDate,2019-09-28T11:43:01-04:00
; #@! TF.GenerationSoftware,Kicad,Pcbnew,(5.1.4)-1
; #@! TF.FileFunction,Plated,1,2,PTH
FMAT,2
INCH,TZ
T1C0.0157
T2C0.0197
T3C0.0295
T4C0.0315
T5C0.0354
T6C0.0394
T7C0.0433
T8C0.0472
T9C0.0512
T10C0.0531
T11C0.0551
T12C0.0591
T13C0.1457
%
G90
G05
T1
X29950Y-53500
X30800Y-44626
X30800Y-45118
X32500Y-48400
X33550Y-18350
X33750Y-58950
X37475Y-45118
X37750Y-46150
X38350Y-46150
X39740Y-29400
X40200Y-48400
X40200Y-49300
X40200Y-53500
X40200Y-58950
X40350Y-34500
X41850Y-18300
X42400Y-43350
X46800Y-48400
X46800Y-49300
X46800Y-53500
X46800Y-58950
X48100Y-45900
X48150Y-31000
X48800Y-31000
X48850Y-45900
X48860Y-40000
X49650Y-45900
X49950Y-18350
X50900Y-18350
X56150Y-18350
X56150Y-24500
X56150Y-31000
X56150Y-37500
X56150Y-43500
T2
X30404Y-19685
X30724Y-18913
X30724Y-20458
X31496Y-18593
X31496Y-20778
X32269Y-18913
X32269Y-20458
X32589Y-19685
X64459Y-56890
X64779Y-56117
X64779Y-57662
X65551Y-55797
X65551Y-57982
X66324Y-56117
X66324Y-57662
X66644Y-56890
X64459Y-19685
X64779Y-18913
X64779Y-20458
X65551Y-18593
X65551Y-20778
X66324Y-18913
X66324Y-20458
X66644Y-19685
X30404Y-56890
X30724Y-56117
X30724Y-57662
X31496Y-55797
X31496Y-57982
X32269Y-56117
X32269Y-57662
X32589Y-56890
T3
X39450Y-45500
X39946Y-46000
X40450Y-45500
T4
X42050Y-31500
X43034Y-31500
X39300Y-32079
X39300Y-34000
X40950Y-43350
X44950Y-43350
X30486Y-48870
X30750Y-49500
X31734Y-49500
X31998Y-50130
X35250Y-40250
X35250Y-44250
X42050Y-45500
X42050Y-46484
X36566Y-32075
X37550Y-32075
X36566Y-34000
X37550Y-34000
X41000Y-33000
X41000Y-34000
X41000Y-35000
X41000Y-36000
X41000Y-37000
X41000Y-38000
X41000Y-39000
X41000Y-40000
X41000Y-41000
X41000Y-42000
X44000Y-33000
X44000Y-34000
X44000Y-35000
X44000Y-36000
X44000Y-37000
X44000Y-38000
X44000Y-39000
X44000Y-40000
X44000Y-41000
X44000Y-42000
X44250Y-21750
X48250Y-21750
X38250Y-22400
X38250Y-23400
X38250Y-24400
X38250Y-25400
X38250Y-26400
X38250Y-27400
X38250Y-28400
X38250Y-29400
X41250Y-22400
X41250Y-23400
X41250Y-24400
X41250Y-25400
X41250Y-26400
X41250Y-27400
X41250Y-28400
X41250Y-29400
X45500Y-24750
X45500Y-28750
X55350Y-56000
X56807Y-53047
X35650Y-25800
X36634Y-25800
X35650Y-24200
X36634Y-24200
X36540Y-45500
X36540Y-46484
X35650Y-22600
X36634Y-22600
X44250Y-24750
X44250Y-28750
X46750Y-24750
X46750Y-28750
X30746Y-53493
X31730Y-53493
X46750Y-32990
X46750Y-33990
X46750Y-34990
X46750Y-35990
X46750Y-36990
X46750Y-37990
X46750Y-38990
X46750Y-39990
X49750Y-32990
X49750Y-33990
X49750Y-34990
X49750Y-35990
X49750Y-36990
X49750Y-37990
X49750Y-38990
X49750Y-39990
X36500Y-40250
X36500Y-44250
X55350Y-49500
X56807Y-46547
X43000Y-24750
X43000Y-28750
X49216Y-41190
X50200Y-41190
X35650Y-27400
X36634Y-27400
X43000Y-21516
X43000Y-22500
T5
X46100Y-43350
X47100Y-43350
X48000Y-28700
X49000Y-28700
X48000Y-23300
X49000Y-23300
X48000Y-25100
X49000Y-25100
X38500Y-40650
X39500Y-40650
X48000Y-26900
X49000Y-26900
X38500Y-43250
X39500Y-43250
T6
X55018Y-38407
X55018Y-43132
X55018Y-31907
X55018Y-36632
X55018Y-25407
X55018Y-30132
X44700Y-19650
X45700Y-19650
X46700Y-19650
X47700Y-19650
X48700Y-19650
X49700Y-19650
X55018Y-18907
X55018Y-23632
T7
X30240Y-46450
X35240Y-46450
X51750Y-38400
X51750Y-42400
X51750Y-18900
X51750Y-22900
X51750Y-31900
X51750Y-35900
X51750Y-25400
X51750Y-29400
T8
X32500Y-40500
X32500Y-41878
X32500Y-43256
X32500Y-23000
X32500Y-24378
X32500Y-25756
X32500Y-35000
X32500Y-36378
X32500Y-37756
X32500Y-28500
X32500Y-29878
X32500Y-31256
T9
X54250Y-21250
X59821Y-23632
X59841Y-18888
X54250Y-40750
X59821Y-43132
X59841Y-38388
X54250Y-34250
X59821Y-36632
X59841Y-31888
X54250Y-27750
X59821Y-30132
X59841Y-25388
T10
X59600Y-48750
X59600Y-50719
X59600Y-54656
X59600Y-56624
T11
X63600Y-26150
X63600Y-28119
X63600Y-30087
X63600Y-32056
X63600Y-34024
X63600Y-35993
X63600Y-49500
X63600Y-51469
X63600Y-53437
T12
X34750Y-53500
X34750Y-57500
X52750Y-49500
X52750Y-57500
T13
X65551Y-19685
X31496Y-56890
X31496Y-19685
X65551Y-56890
T0
M30
