M48
; DRILL file {KiCad (5.1.4)-1} date 2019-09-02 10:02:28
; FORMAT={2:4/ absolute / inch / suppress leading zeros}
; #@! TF.CreationDate,2019-09-02T10:02:28-04:00
; #@! TF.GenerationSoftware,Kicad,Pcbnew,(5.1.4)-1
; #@! TF.FileFunction,Plated,1,2,PTH
FMAT,2
INCH,TZ
T1C0.0157
T2C0.0197
T3C0.0315
T4C0.0354
T5C0.0394
T6C0.0433
T7C0.0472
T8C0.0512
T9C0.0531
T10C0.0551
T11C0.0591
T12C0.1457
%
G90
G05
T1
X38250Y-39250
X39250Y-38000
X39937Y-33250
X41000Y-31500
X45250Y-21250
T2
X63959Y-56929
X64279Y-56157
X64279Y-57702
X65051Y-55837
X65051Y-58022
X65824Y-56157
X65824Y-57702
X66144Y-56929
X30404Y-56890
X30724Y-56117
X30724Y-57662
X31496Y-55797
X31496Y-57982
X32269Y-56117
X32269Y-57662
X32589Y-56890
X63959Y-19685
X64279Y-18913
X64279Y-20458
X65051Y-18593
X65051Y-20778
X65824Y-18913
X65824Y-20458
X66144Y-19685
X30404Y-19685
X30724Y-18913
X30724Y-20458
X31496Y-18593
X31496Y-20778
X32269Y-18913
X32269Y-20458
X32589Y-19685
T3
X35650Y-27400
X36634Y-27400
X44250Y-22000
X48250Y-22000
X38250Y-22400
X38250Y-23400
X38250Y-24400
X38250Y-25400
X38250Y-26400
X38250Y-27400
X38250Y-28400
X38250Y-29400
X41250Y-22400
X41250Y-23400
X41250Y-24400
X41250Y-25400
X41250Y-26400
X41250Y-27400
X41250Y-28400
X41250Y-29400
X44250Y-24750
X44250Y-28750
X41000Y-33000
X41000Y-34000
X41000Y-35000
X41000Y-36000
X41000Y-37000
X41000Y-38000
X41000Y-39000
X41000Y-40000
X41000Y-41000
X41000Y-42000
X44000Y-33000
X44000Y-34000
X44000Y-35000
X44000Y-36000
X44000Y-37000
X44000Y-38000
X44000Y-39000
X44000Y-40000
X44000Y-41000
X44000Y-42000
X35650Y-22600
X36634Y-22600
X35650Y-25800
X36634Y-25800
X38300Y-33979
X38300Y-35900
X30486Y-48870
X30750Y-49500
X31734Y-49500
X31998Y-50130
X41207Y-45293
X41207Y-46277
X36500Y-40250
X36500Y-44250
X42000Y-31500
X42984Y-31500
X46750Y-24750
X46750Y-28750
X46750Y-30250
X46750Y-31250
X46750Y-32250
X46750Y-33250
X46750Y-34250
X46750Y-35250
X46750Y-36250
X46750Y-37250
X49750Y-30250
X49750Y-31250
X49750Y-32250
X49750Y-33250
X49750Y-34250
X49750Y-35250
X49750Y-36250
X49750Y-37250
X55750Y-56000
X57207Y-53047
X35650Y-24200
X36634Y-24200
X35250Y-40250
X35250Y-44250
X35266Y-35900
X36250Y-35900
X55750Y-49500
X57207Y-46547
X30746Y-53493
X31730Y-53493
X45500Y-24750
X45500Y-28750
X43000Y-21516
X43000Y-22500
X35266Y-34000
X36250Y-34000
X38105Y-45598
X38605Y-46098
X39105Y-45598
X36207Y-45293
X36207Y-46277
X43000Y-24750
X43000Y-28750
T4
X48000Y-28750
X49000Y-28750
X38500Y-43250
X39500Y-43250
X48000Y-27000
X49000Y-27000
X48000Y-25250
X49000Y-25250
X48000Y-23500
X49000Y-23500
X38500Y-40750
X39500Y-40750
T5
X44700Y-19650
X45700Y-19650
X46700Y-19650
X47700Y-19650
X48700Y-19650
X49700Y-19650
X55518Y-18907
X55518Y-23632
X55518Y-38407
X55518Y-43132
X55518Y-31907
X55518Y-36632
X55518Y-25407
X55518Y-30132
T6
X52250Y-19500
X52250Y-23500
X30250Y-46000
X34250Y-46000
X52250Y-25750
X52250Y-29750
X52250Y-32000
X52250Y-36000
X52250Y-38250
X52250Y-42250
T7
X32500Y-28500
X32500Y-29878
X32500Y-31256
X32500Y-40500
X32500Y-41878
X32500Y-43256
X32500Y-35000
X32500Y-36378
X32500Y-37756
X32500Y-23000
X32500Y-24378
X32500Y-25756
T8
X54750Y-21250
X60321Y-23632
X60341Y-18888
X54750Y-40750
X60321Y-43132
X60341Y-38388
X54750Y-34250
X60321Y-36632
X60341Y-31888
X54750Y-27750
X60321Y-30132
X60341Y-25388
T9
X60000Y-48750
X60000Y-50719
X60000Y-54656
X60000Y-56624
T10
X64000Y-26000
X64000Y-27969
X64000Y-29937
X64000Y-31906
X64000Y-33874
X64000Y-35843
X64000Y-49500
X64000Y-51469
X64000Y-53437
T11
X34750Y-53500
X34750Y-57500
X52750Y-49500
X52750Y-57500
T12
X31496Y-56890
X65051Y-19685
X31496Y-19685
X65051Y-56929
T0
M30
