G04 #@! TF.GenerationSoftware,KiCad,Pcbnew,(5.1.4)-1*
G04 #@! TF.CreationDate,2019-09-02T10:04:48-04:00*
G04 #@! TF.ProjectId,projector-screen-controller,70726f6a-6563-4746-9f72-2d7363726565,0.1*
G04 #@! TF.SameCoordinates,Original*
G04 #@! TF.FileFunction,Profile,NP*
%FSLAX46Y46*%
G04 Gerber Fmt 4.6, Leading zero omitted, Abs format (unit mm)*
G04 Created by KiCad (PCBNEW (5.1.4)-1) date 2019-09-02 10:04:48*
%MOMM*%
%LPD*%
G04 APERTURE LIST*
%ADD10C,0.100000*%
%ADD11C,0.050000*%
G04 APERTURE END LIST*
D10*
X133985000Y-111760000D02*
X147955000Y-111760000D01*
X133985000Y-113665000D02*
X133985000Y-111760000D01*
X147955000Y-113665000D02*
X133985000Y-113665000D01*
X147955000Y-111760000D02*
X147955000Y-113665000D01*
X147955000Y-106045000D02*
X136525000Y-106045000D01*
X147955000Y-97155000D02*
X145415000Y-97155000D01*
X145415000Y-99695000D02*
X135255000Y-99695000D01*
X136525000Y-100965000D02*
X147955000Y-100965000D01*
X136525000Y-106045000D02*
X136525000Y-100965000D01*
X135255000Y-99695000D02*
X135255000Y-107315000D01*
X135255000Y-107315000D02*
X145415000Y-107315000D01*
X145415000Y-107315000D02*
X145415000Y-109855000D01*
X147955000Y-109855000D02*
X147955000Y-106045000D01*
X145415000Y-97155000D02*
X145415000Y-99695000D01*
X147955000Y-100965000D02*
X147955000Y-97155000D01*
X145415000Y-109855000D02*
X147955000Y-109855000D01*
X147955000Y-89535000D02*
X136525000Y-89535000D01*
X147955000Y-80645000D02*
X145415000Y-80645000D01*
X145415000Y-83185000D02*
X135255000Y-83185000D01*
X136525000Y-84455000D02*
X147955000Y-84455000D01*
X136525000Y-89535000D02*
X136525000Y-84455000D01*
X135255000Y-83185000D02*
X135255000Y-90805000D01*
X135255000Y-90805000D02*
X145415000Y-90805000D01*
X145415000Y-90805000D02*
X145415000Y-93345000D01*
X147955000Y-93345000D02*
X147955000Y-89535000D01*
X145415000Y-80645000D02*
X145415000Y-83185000D01*
X147955000Y-84455000D02*
X147955000Y-80645000D01*
X145415000Y-93345000D02*
X147955000Y-93345000D01*
X147955000Y-73025000D02*
X136525000Y-73025000D01*
X147955000Y-64135000D02*
X145415000Y-64135000D01*
X145415000Y-66675000D02*
X135255000Y-66675000D01*
X136525000Y-67945000D02*
X147955000Y-67945000D01*
X136525000Y-73025000D02*
X136525000Y-67945000D01*
X135255000Y-66675000D02*
X135255000Y-74295000D01*
X135255000Y-74295000D02*
X145415000Y-74295000D01*
X145415000Y-74295000D02*
X145415000Y-76835000D01*
X147955000Y-76835000D02*
X147955000Y-73025000D01*
X145415000Y-64135000D02*
X145415000Y-66675000D01*
X147955000Y-67945000D02*
X147955000Y-64135000D01*
X145415000Y-76835000D02*
X147955000Y-76835000D01*
X145415000Y-60325000D02*
X147955000Y-60325000D01*
X147955000Y-51435000D02*
X147955000Y-47625000D01*
X147955000Y-47625000D02*
X145415000Y-47625000D01*
X145415000Y-47625000D02*
X145415000Y-50165000D01*
X145415000Y-50165000D02*
X135255000Y-50165000D01*
X145415000Y-57785000D02*
X145415000Y-60325000D01*
X147955000Y-60325000D02*
X147955000Y-56515000D01*
X136525000Y-51435000D02*
X147955000Y-51435000D01*
X147955000Y-56515000D02*
X136525000Y-56515000D01*
X136525000Y-56515000D02*
X136525000Y-51435000D01*
X135255000Y-57785000D02*
X145415000Y-57785000D01*
X135255000Y-50165000D02*
X135255000Y-57785000D01*
D11*
X74630000Y-45085000D02*
X171785000Y-45085000D01*
X74630000Y-151130000D02*
X74630000Y-45085000D01*
X171785000Y-151130000D02*
X74630000Y-151130000D01*
X171785000Y-45085000D02*
X171785000Y-151130000D01*
M02*
