M48
; DRILL file {KiCad (5.1.4)-1} date 2019-09-13 09:00:25
; FORMAT={2:4/ absolute / inch / suppress leading zeros}
; #@! TF.CreationDate,2019-09-13T09:00:25-04:00
; #@! TF.GenerationSoftware,Kicad,Pcbnew,(5.1.4)-1
; #@! TF.FileFunction,Plated,1,2,PTH
FMAT,2
INCH,TZ
T1C0.0157
T2C0.0197
T3C0.0295
T4C0.0315
T5C0.0354
T6C0.0394
T7C0.0433
T8C0.0472
T9C0.0512
T10C0.0531
T11C0.0551
T12C0.0591
T13C0.1457
%
G90
G05
T1
X29950Y-53500
X30800Y-44650
X30800Y-45150
X32500Y-48400
X33550Y-18350
X33600Y-58950
X38200Y-38000
X39050Y-44800
X39937Y-33250
X40200Y-48400
X40200Y-49300
X40200Y-58950
X41000Y-31500
X41850Y-18300
X41950Y-30600
X45250Y-21250
X46800Y-48400
X46800Y-49300
X46800Y-58950
X48100Y-45900
X48150Y-31000
X48800Y-31000
X48800Y-37250
X48850Y-45900
X49650Y-45900
X49950Y-18350
X51150Y-18350
X56800Y-18350
X56800Y-24450
X56800Y-31000
X56800Y-37450
X56800Y-43500
T2
X30404Y-19685
X30724Y-18913
X30724Y-20458
X31496Y-18593
X31496Y-20778
X32269Y-18913
X32269Y-20458
X32589Y-19685
X64459Y-19685
X64779Y-18913
X64779Y-20458
X65551Y-18593
X65551Y-20778
X66324Y-18913
X66324Y-20458
X66644Y-19685
X30404Y-56890
X30724Y-56117
X30724Y-57662
X31496Y-55797
X31496Y-57982
X32269Y-56117
X32269Y-57662
X32589Y-56890
X64459Y-56890
X64779Y-56117
X64779Y-57662
X65551Y-55797
X65551Y-57982
X66324Y-56117
X66324Y-57662
X66644Y-56890
T3
X38550Y-45600
X39046Y-46100
X39550Y-45600
T4
X44250Y-22000
X48250Y-22000
X35650Y-25800
X36634Y-25800
X35266Y-35900
X36250Y-35900
X43000Y-24750
X43000Y-28750
X45500Y-24750
X45500Y-28750
X44250Y-24750
X44250Y-28750
X55750Y-49500
X57207Y-46547
X30746Y-53493
X31730Y-53493
X41000Y-33000
X41000Y-34000
X41000Y-35000
X41000Y-36000
X41000Y-37000
X41000Y-38000
X41000Y-39000
X41000Y-40000
X41000Y-41000
X41000Y-42000
X44000Y-33000
X44000Y-34000
X44000Y-35000
X44000Y-36000
X44000Y-37000
X44000Y-38000
X44000Y-39000
X44000Y-40000
X44000Y-41000
X44000Y-42000
X38300Y-33979
X38300Y-35900
X41207Y-45293
X41207Y-46277
X42750Y-44000
X46750Y-44000
X42000Y-31500
X42984Y-31500
X55750Y-56000
X57207Y-53047
X30486Y-48870
X30750Y-49500
X31734Y-49500
X31998Y-50130
X35250Y-40250
X35250Y-44250
X36500Y-40250
X36500Y-44250
X36207Y-45293
X36207Y-46277
X38250Y-22400
X38250Y-23400
X38250Y-24400
X38250Y-25400
X38250Y-26400
X38250Y-27400
X38250Y-28400
X38250Y-29400
X41250Y-22400
X41250Y-23400
X41250Y-24400
X41250Y-25400
X41250Y-26400
X41250Y-27400
X41250Y-28400
X41250Y-29400
X46750Y-30250
X46750Y-31250
X46750Y-32250
X46750Y-33250
X46750Y-34250
X46750Y-35250
X46750Y-36250
X46750Y-37250
X49750Y-30250
X49750Y-31250
X49750Y-32250
X49750Y-33250
X49750Y-34250
X49750Y-35250
X49750Y-36250
X49750Y-37250
X35650Y-24200
X36634Y-24200
X35650Y-22600
X36634Y-22600
X43000Y-21516
X43000Y-22500
X46750Y-24750
X46750Y-28750
X35650Y-27400
X36634Y-27400
X35266Y-34000
X36250Y-34000
X49216Y-38400
X50200Y-38400
T5
X48000Y-23500
X49000Y-23500
X38500Y-40750
X39500Y-40750
X46700Y-41750
X47700Y-41750
X48000Y-27000
X49000Y-27000
X38500Y-43250
X39500Y-43250
X48000Y-25250
X49000Y-25250
X48000Y-28750
X49000Y-28750
T6
X55518Y-38407
X55518Y-43132
X55518Y-18907
X55518Y-23632
X44700Y-19650
X45700Y-19650
X46700Y-19650
X47700Y-19650
X48700Y-19650
X49700Y-19650
X55518Y-31907
X55518Y-36632
X55518Y-25407
X55518Y-30132
T7
X52250Y-32000
X52250Y-36000
X52250Y-25750
X52250Y-29750
X52250Y-38250
X52250Y-42250
X30250Y-46000
X34250Y-46000
X52250Y-19500
X52250Y-23500
T8
X32500Y-40500
X32500Y-41878
X32500Y-43256
X32500Y-35000
X32500Y-36378
X32500Y-37756
X32500Y-23000
X32500Y-24378
X32500Y-25756
X32500Y-28500
X32500Y-29878
X32500Y-31256
T9
X54750Y-40750
X60321Y-43132
X60341Y-38388
X54750Y-21250
X60321Y-23632
X60341Y-18888
X54750Y-34250
X60321Y-36632
X60341Y-31888
X54750Y-27750
X60321Y-30132
X60341Y-25388
T10
X60000Y-48750
X60000Y-50719
X60000Y-54656
X60000Y-56624
T11
X64000Y-49500
X64000Y-51469
X64000Y-53437
X64000Y-26000
X64000Y-27969
X64000Y-29937
X64000Y-31906
X64000Y-33874
X64000Y-35843
T12
X34750Y-53500
X34750Y-57500
X52750Y-49500
X52750Y-57500
T13
X31496Y-56890
X65551Y-56890
X31496Y-19685
X65551Y-19685
T0
M30
